<svg width="209.057" height="49" viewBox="0 0 209.057 49" fill="none" xmlns="http://www.w3.org/2000/svg">
<g id="Group 473">
<g id="Vector">
<path d="M193.19 20.2603H196.846V36.1129H193.569L193.38 34.0013C192.371 35.5771 190.638 36.5226 188.558 36.5226C185.091 36.5226 182.412 34.0328 182.412 30.2824V20.2603H186.099V29.8097C186.099 31.9528 187.707 33.0873 189.503 33.0873C191.331 33.0873 193.19 31.7952 193.19 29.463V20.2603Z" fill="#100E1C"/>
<path d="M178.96 31.9408L180.536 34.9348C179.591 35.7857 178.109 36.4791 175.872 36.4791C171.995 36.4791 169.852 34.4305 169.852 30.491V23.526H166.763V20.2168H169.852V15.4579H173.539V20.2168H179.559V23.526H173.539V30.2389C173.539 32.1299 174.422 33.0123 176.155 33.0123C177.038 33.0123 178.015 32.7602 178.96 31.9408Z" fill="#100E1C"/>
<path d="M152.517 29.4855C152.989 31.8492 154.66 33.2359 157.118 33.2359C158.725 33.2359 160.207 32.6371 161.278 31.5656L163.642 33.9923C162.035 35.5681 159.765 36.4821 157.213 36.4821C152.328 36.4821 148.703 33.1099 148.703 28.0673C148.703 23.2453 152.044 19.8101 156.961 19.8101C162.098 19.8101 164.587 23.4659 164.587 27.2164C164.587 27.7206 164.493 28.8237 164.367 29.4855H152.517ZM156.897 23.0878C154.565 23.0878 152.989 24.4745 152.517 26.6806H160.932C160.837 24.632 159.45 23.0878 156.897 23.0878Z" fill="#100E1C"/>
<path d="M139.105 36.5136C136.741 36.5136 133.684 35.6942 132.013 34.3705L133.337 31.5971C134.598 32.6371 137.151 33.299 139.262 33.299C140.806 33.299 142.508 32.9208 142.508 31.471C142.508 30.3049 141.059 30.0213 138.978 29.6431C135.071 28.9497 132.707 28.1303 132.707 24.9787C132.707 20.9762 136.394 19.8101 139.577 19.8101C141.973 19.8101 144.21 20.5034 145.786 21.575L144.431 24.3799C143.233 23.529 141.468 22.9932 139.546 22.9932C137.497 22.9932 136.489 23.6235 136.489 24.7896C136.489 25.6721 137.088 25.9557 139.388 26.3654C143.17 27.0903 146.227 27.7521 146.227 31.2189C146.227 34.6226 143.265 36.5136 139.105 36.5136Z" fill="#100E1C"/>
<path d="M125.129 17.1972C125.129 17.1972 125.129 14.9194 125.129 13.657C125.129 13.657 127.654 13.657 128.917 13.657C128.917 16.0446 128.917 15.9348 128.917 17.1972H125.129ZM128.917 20.024L128.917 36.2059H125.129L125.129 20.024H128.917Z" fill="#100E1C"/>
<path d="M118.29 12.4563H121.978V36.0934H118.7L118.511 33.8557C117.376 35.4946 115.548 36.5031 113.248 36.5031C109.025 36.5031 105.495 33.0678 105.495 28.1198C105.495 23.2348 108.993 19.8311 113.374 19.8311C115.454 19.8311 117.187 20.5875 118.29 21.9112V12.4563ZM113.941 33.0363C116.683 33.0363 118.605 31.1454 118.605 28.1513C118.605 25.2203 116.714 23.2663 113.941 23.2663C111.168 23.2663 109.308 25.2519 109.308 28.1513C109.308 31.0823 111.168 33.0363 113.941 33.0363Z" fill="#100E1C"/>
<path d="M90.7227 29.4855C91.1955 31.8492 92.8658 33.2359 95.3241 33.2359C96.9314 33.2359 98.4127 32.6371 99.4842 31.5656L101.848 33.9923C100.241 35.5681 97.9714 36.4821 95.4186 36.4821C90.5336 36.4821 86.9093 33.1099 86.9093 28.0673C86.9093 23.2453 90.25 19.8101 95.1665 19.8101C100.304 19.8101 102.793 23.4659 102.793 27.2164C102.793 27.7206 102.699 28.8237 102.573 29.4855H90.7227ZM95.1035 23.0878C92.7713 23.0878 91.1955 24.4745 90.7227 26.6806H99.1375C99.043 24.632 97.6563 23.0878 95.1035 23.0878Z" fill="#100E1C"/>
<path d="M84.208 14.0321V36.0934H80.3315V18.9486L74.3749 33.6982H70.0888L64.1322 18.9486V36.0934H60.2557V14.0321H66.0232L72.2318 29.538L78.4405 14.0321H84.208Z" fill="#100E1C"/>
<path d="M30.4578 1.65965C30.562 1.71755 30.6663 1.77545 30.7737 1.83511C30.8488 1.88487 30.924 1.93464 31.0014 1.98592L31.366 2.22947L32.127 2.82762C32.1937 2.89379 32.9159 3.65462 32.9159 3.65462C32.9159 3.65462 33.2617 4.02392 33.2845 4.05225C33.4203 4.22123 33.4203 4.22123 33.572 4.45838C33.6552 4.5882 33.6552 4.5882 33.74 4.72063C33.7982 4.8141 33.8564 4.90756 33.9164 5.00385C33.9756 5.09865 34.0349 5.19345 34.0959 5.29111C34.5181 5.97878 34.8784 6.65525 35.1328 7.42364C35.1724 7.54 35.2121 7.65636 35.2529 7.77624C35.739 9.32436 35.8528 10.8185 35.6764 12.4263C35.6604 12.5723 35.6604 12.5723 35.6441 12.7212C35.6212 12.9132 35.595 13.1049 35.5676 13.2964C35.6287 13.2807 35.6898 13.265 35.7528 13.2488C37.9591 12.7614 40.3941 13.0633 42.417 14.0577C42.5236 14.1056 42.6301 14.1536 42.7398 14.203C43.5871 14.5983 44.2967 15.1119 45.0263 15.689C45.1525 15.7775 45.1525 15.7775 45.2812 15.8678C45.3406 15.9165 45.4 15.9651 45.4612 16.0152C45.4612 16.087 45.4612 15.9413 45.4612 16.0152L46.0048 16.559C46.0048 16.6308 46.0048 16.4851 46.0048 16.559L46.2223 16.7765C46.2223 16.8483 46.2223 16.7026 46.2223 16.7765L46.4397 16.994C46.8746 17.5826 46.6412 17.2376 47.092 17.8641C47.1638 17.8641 47.0181 17.8641 47.092 17.8641C48.8018 20.1145 49.4049 23.2091 49.0544 25.9671C48.7815 27.8973 48.0127 29.6637 46.8746 31.2409C46.8028 31.3485 46.7311 31.4562 46.6572 31.5671C46.6258 31.6322 46.0669 32.2574 46.0048 32.3284C45.9346 32.4088 45.7874 32.5459 45.7874 32.5459C45.7874 32.6177 45.7874 32.472 45.7874 32.5459C45.7171 32.6263 45.57 32.7634 45.57 32.7634C45.57 32.8352 45.57 32.6895 45.57 32.7634C45.0839 33.1985 44.9561 33.3057 44.8089 33.416C44.8089 33.4877 44.8089 33.342 44.8089 33.416C43.7327 34.2224 42.6111 34.8505 41.3298 35.2648C41.1973 35.3095 41.0647 35.3542 40.9281 35.4003C39.2686 35.9016 37.2657 35.901 35.5676 35.5911C35.5852 35.7284 35.6027 35.8658 35.6207 36.0074C35.9444 38.9394 35.4543 42.0326 33.6039 44.407C33.4282 44.6254 33.2485 44.839 33.0671 45.0527C32.991 45.1452 32.9149 45.2377 32.8364 45.3331C32.4721 45.7665 32.4721 45.7665 32.306 45.9227L32.2026 46.0312L32.0886 46.1402C29.4614 48.398 26.4728 49.1748 23.0647 48.9679C21.0078 48.7241 19.2215 47.8681 17.6287 46.5753C17.5211 46.5035 17.4134 46.4317 17.3025 46.3577C17.3025 46.3577 16.6342 45.718 16.4056 45.4877C16.3288 45.4114 16.252 45.3352 16.1729 45.2566C15.9979 45.0527 15.7804 44.8352 15.7804 44.8352C15.8544 44.8352 15.7087 44.8352 15.7804 44.8352C13.7454 42.28 13.1998 39.2583 13.4629 36.0838C13.4973 35.8086 13.4973 35.8086 13.606 35.4823C13.5114 35.5173 13.4168 35.5524 13.3194 35.5885C10.8793 36.2803 7.95 35.5841 5.77813 34.3948C5.28606 34.0965 4.8245 33.7618 4.36476 33.416C4.36476 33.416 3.81898 32.9799 3.82116 32.9809L3.5003 32.6544C2.19565 31.4581 1.02347 29.527 0.497527 27.9064C0.220618 26.9945 0.0343426 26.1072 0.0159275 25.1506C0.0117231 25.0409 0.00751861 24.9311 0.00318677 24.818C-0.0668966 21.636 1.01979 18.8394 3.18242 16.5157C3.29739 16.3959 3.4129 16.2767 3.52897 16.158C3.58241 16.103 3.63585 16.048 3.69091 15.9913C4.00175 15.6846 4.29028 15.3776 4.69092 15.1452C4.69092 15.2192 4.69092 15.0734 4.69092 15.1452C6.80809 13.917 8.86379 13.0513 11.3569 13.0653C11.4477 13.0655 11.5384 13.0657 11.632 13.0659C12.26 13.0703 12.8741 13.1059 13.4973 13.1876C13.4855 13.0884 13.4855 13.0884 13.4735 12.9871C13.1858 10.269 13.5908 7.75818 14.9107 5.35731C16.7974 2.44698 18.9222 1.34851 20.7073 0.648153C23.9533 -0.492235 27.5288 -0.111071 30.4578 1.65965ZM19.477 5.46606C19.3632 5.57711 19.2595 5.68357 19.2595 5.68357C19.2595 5.68357 19.0453 5.9 19.0421 5.90108L18.8246 6.11859C18.6556 6.33276 18.501 6.54525 18.349 6.77112C18.3049 6.83623 18.2608 6.90134 18.2154 6.96842C17.6225 7.85512 17.312 8.65924 17.0851 9.70749C17.0646 9.79328 17.0442 9.87908 17.0231 9.96748C16.7673 11.5212 17.0042 13.1093 17.7374 14.4927C17.7856 14.5845 17.8338 14.6763 17.8835 14.7709C18.6022 16.051 21.3611 18.7703 22.3965 19.7933C22.4512 19.8471 22.3401 19.7379 22.3965 19.7933C22.3965 19.7933 24.9024 22.3409 25.1817 22.6165C25.2424 22.6772 25.3031 22.738 25.3656 22.8005C25.566 23.0008 25.7672 23.2004 25.9684 23.3999C26.1082 23.5394 26.2479 23.6789 26.3876 23.8184C26.7557 24.1857 27.1244 24.5524 27.4932 24.919C27.8672 25.2908 28.2405 25.6633 28.614 26.0357C29.218 26.638 29.8224 27.24 30.4272 27.8414C30.5824 27.9957 30.7375 28.1501 30.8926 28.3045C30.9917 28.4021 31.0907 28.4997 31.1928 28.6003C31.4608 28.8774 32.5535 30.0156 32.8496 30.2621C32.9334 30.3348 33.0172 30.4076 33.1036 30.4826C34.1403 31.3569 35.2212 31.8435 36.5461 32.1109C36.6765 32.1408 36.6765 32.1408 36.8094 32.1712C38.7465 32.5059 40.7274 31.907 42.3122 30.791C43.8267 29.5969 45.1482 27.8656 45.4612 25.9119C45.6395 23.7673 45.6627 22.2403 44.2653 20.1479C44.2223 20.076 44.1793 20.0041 44.1349 19.93C44.0146 19.731 44.0146 19.731 43.8304 19.4954C43.9043 19.4954 43.7587 19.4954 43.8304 19.4954C43.8535 19.5555 43.808 19.4371 43.8304 19.4954C43.8304 19.4954 43.1569 18.5868 42.836 18.3251C41.1508 16.559 38.4583 16.2691 36.0909 16.7765C35.5638 16.934 35.0702 17.1568 34.5756 17.3951C34.5067 17.4279 34.4379 17.4608 34.367 17.4947C33.2558 18.0621 32.3803 18.9576 31.5186 19.842C31.4165 19.9457 31.3143 20.0493 31.212 20.1529C30.7827 20.5875 30.3547 21.0235 29.9276 21.4604C29.7153 21.6775 29.5024 21.894 29.2888 22.1099C29.0887 22.3123 28.3974 23.084 28.3974 23.084L25.8424 20.5826L26.0996 20.3506C26.1823 20.2699 26.265 20.1892 26.3501 20.1061C26.4365 20.0234 26.5228 19.9408 26.6118 19.8556C26.7835 19.6903 26.9548 19.5245 27.1256 19.3582C27.1256 19.3582 28.2106 18.2913 28.4515 18.051C28.5433 17.9595 28.6351 17.8679 28.7297 17.7736C28.872 17.63 28.872 17.63 29.0172 17.4834C29.1138 17.3877 29.2103 17.2919 29.3098 17.1933C29.4011 17.1017 29.4923 17.0102 29.5863 16.9159C29.712 16.7898 29.712 16.7898 29.8402 16.6612C30.0466 16.4694 29.8402 16.6612 30.2403 16.2328C30.2403 16.2328 30.8042 15.4503 30.8496 15.3834C31.3905 14.5759 31.7287 13.8022 31.9798 12.8614C31.9987 12.7957 32.0176 12.7301 32.037 12.6625C32.14 12.1907 32.1789 11.737 32.1814 11.2561C32.1836 11.1488 32.1791 11.3667 32.1814 11.2561C32.1915 9.32751 31.2528 7.21884 29.9537 5.82759C29.3594 5.24299 28.7035 4.75257 27.9572 4.37852C27.8665 4.33253 27.7758 4.28655 27.6824 4.23918C25.0983 2.99202 21.5682 3.42474 19.477 5.46606ZM8.93104 16.994C8.82438 17.031 8.71773 17.0681 8.60785 17.1062C7.77946 17.4227 7.01447 17.8513 6.32174 18.4078C6.32174 18.4078 6.1096 18.6251 6.10429 18.6254C6.10429 18.6254 5.65988 19.0692 5.66941 19.0604C5.66941 19.0604 5.4935 19.2232 5.45197 19.2779C5.28581 19.4966 5.13659 19.7126 4.98991 19.944C4.94645 20.0123 4.903 20.0806 4.85823 20.151C4.02498 21.4961 3.55976 22.845 3.56974 24.4301C3.57027 24.5308 3.57081 24.6316 3.57136 24.7353C3.58383 25.4627 3.66132 26.1012 3.92988 26.7819C3.96814 26.8872 4.0064 26.9925 4.04582 27.101C4.85199 29.1902 6.35207 30.7806 8.38531 31.7163C8.6737 31.8273 8.95943 31.9198 9.2572 32.0022C9.34115 32.0264 9.4251 32.0507 9.51159 32.0756C11.5561 32.5759 13.5684 32.0652 15.3456 31.0234C15.8044 30.7275 15.8044 30.7275 16.2153 30.3708C16.2153 30.4448 16.2153 30.2991 16.2153 30.3708L16.4328 30.1533C16.4328 30.2273 16.4328 30.0816 16.4328 30.1533L16.6502 29.9358C16.6502 30.0098 16.6502 29.864 16.6502 29.9358L17.0851 29.5008C17.0851 29.5008 17.6736 28.9466 17.8461 28.7395L18.0636 28.522L18.2863 28.3042L18.4985 28.087C18.4945 28.0911 18.9334 27.652 18.9334 27.652L19.1353 27.4345L19.8031 26.7819C19.8031 26.8559 19.8031 26.7102 19.8031 26.7819L20.95 25.6397L23.3419 28.1411C23.4185 28.2241 23.2629 28.0556 23.3419 28.1411C23.3419 28.1411 23.1478 28.3557 22.8686 28.6307C22.7837 28.7149 22.6988 28.7992 22.6112 28.886C22.5193 28.9762 22.4273 29.0663 22.3326 29.1592C22.2379 29.2531 22.1432 29.347 22.0457 29.4437C21.6408 29.8452 21.2347 30.2453 20.8286 30.6456C20.5322 30.9382 20.2365 31.2314 19.9407 31.5247C19.8041 31.6586 19.8041 31.6586 19.6647 31.7953C18.0025 33.4442 16.9879 35.3303 16.9492 37.705C16.988 39.9589 17.8205 41.6987 19.3682 43.3126C19.4263 43.375 19.4843 43.4374 19.5441 43.5017C19.6615 43.625 19.7858 43.7418 19.9118 43.8564C19.9836 43.8564 19.8379 43.8564 19.9118 43.8564L20.1293 44.0739C21.759 45.3288 23.864 45.6633 25.8605 45.4193C27.5837 45.1397 29.0986 44.1828 30.2403 42.8776C30.2403 42.9516 30.2403 42.8058 30.2403 42.8776C30.2403 42.8776 30.4087 42.7142 30.4578 42.6601C30.6278 42.4322 30.7821 42.2068 30.9334 41.9668C30.9774 41.8973 31.0214 41.8278 31.0668 41.7562C32.1356 40.0319 32.3783 37.9634 31.9768 35.9807C31.572 34.3022 29.7498 31.7652 28.3921 30.6971L24.2946 26.5848C24.357 26.6518 24.2341 26.5198 24.2946 26.5848C24.1571 26.4314 23.2918 25.5706 23.2918 25.5706C23.2043 25.4831 23.1169 25.3956 23.0268 25.3055C22.9321 25.2119 22.8374 25.1183 22.7399 25.0219C22.6425 24.9248 22.5452 24.8278 22.4449 24.7278C22.1861 24.4699 21.9269 24.2126 21.6675 23.9555C21.405 23.6951 21.1431 23.4342 20.8812 23.1733C20.4968 22.7905 20.112 22.408 19.727 22.0259C19.5711 21.8712 19.4153 21.7164 19.2595 21.5617C19.2007 21.5034 19.1419 21.445 19.0813 21.3849C18.8442 21.1489 18.6203 20.9113 18.4101 20.6509C18.1019 20.2853 17.7599 19.98 17.3964 19.6704C17.1342 19.4438 16.8952 19.1967 16.6502 18.9516C14.9212 17.2842 13.1348 16.6125 10.7504 16.6444C10.1105 16.6648 9.53488 16.7816 8.93104 16.994Z" fill="var(--fill-0, #0A6C74)"/>
</g>
<g id="Group 477">
<path id="Star 1" d="M201.182 8.93866C202.082 11.3722 204.001 13.2909 206.435 14.1913C204.001 15.0918 202.082 17.0105 201.182 19.444C200.282 17.0105 198.363 15.0918 195.929 14.1913C198.363 13.2909 200.282 11.3722 201.182 8.93866Z" fill="var(--fill-0, #0A6C74)"/>
<path id="Star 2" d="M206.393 6.23026C206.85 7.4644 207.823 8.43745 209.057 8.89412C207.823 9.35079 206.85 10.3238 206.393 11.558C205.936 10.3238 204.963 9.35079 203.729 8.89412C204.963 8.43745 205.936 7.4644 206.393 6.23026Z" fill="var(--fill-0, #2FAE8E)"/>
</g>
</g>
</svg>
