<svg width="2133" height="600" viewBox="0 0 2133 600" fill="none" xmlns="http://www.w3.org/2000/svg">
<path d="M1930.02 207.621H1976.85L1872.94 464.816H1832.33L1860.14 392.012L1781.11 207.621H1827.57L1880.62 337.499L1930.02 207.621Z" fill="black"/>
<path d="M1741.51 343.719L1759.8 378.475C1748.83 388.353 1731.63 396.402 1705.65 396.402C1660.65 396.402 1635.77 372.621 1635.77 326.89V246.036H1599.92V207.621H1635.77V152.377H1678.58V207.621H1748.46V246.036H1678.58V323.963C1678.58 345.914 1688.82 356.158 1708.95 356.158C1719.19 356.158 1730.53 353.231 1741.51 343.719Z" fill="black"/>
<path d="M1543.16 182.377C1528.16 182.377 1516.09 170.304 1516.09 155.304C1516.09 140.67 1528.16 128.597 1543.16 128.597C1557.8 128.597 1569.87 140.67 1569.87 155.304C1569.87 170.304 1557.8 182.377 1543.16 182.377ZM1564.38 207.621V391.646H1521.94V207.621H1564.38Z" fill="black"/>
<path d="M1394.1 202.865C1435.81 202.865 1467.27 231.768 1467.27 275.304V391.646H1424.83V283.353C1424.83 259.572 1408.73 242.743 1384.59 242.743C1361.54 242.743 1336.66 257.011 1336.66 284.816V391.646H1293.85V207.621H1331.54L1334.1 232.499C1346.9 213.841 1368.49 202.865 1394.1 202.865Z" fill="black"/>
<path d="M1216.38 182.377C1201.75 182.377 1189.67 170.304 1189.67 155.304C1189.67 140.67 1201.75 128.597 1216.38 128.597C1231.38 128.597 1243.45 140.67 1243.45 155.304C1243.45 170.304 1231.38 182.377 1216.38 182.377Z" fill="black"/>
<path d="M1195.16 246.036L1195.37 207.621H1237.97V391.646H1195.16V246.036Z" fill="black"/>
<path d="M1096.38 207.621H1147.36V246.036H1096.38V391.646H1053.94V246.036H1011.07V207.621H1053.94V183.841C1053.94 137.377 1078.45 112.499 1125.28 112.499C1145.77 112.499 1162.6 117.255 1174.31 127.133L1153.82 161.89C1147.6 156.768 1138.45 153.841 1126.38 153.841C1104.79 153.841 1096.38 162.987 1096.38 185.67V207.621Z" fill="black"/>
<path d="M908.898 202.865C950.607 202.865 982.071 231.768 982.071 275.304V391.646H939.631V283.353C939.631 259.572 923.533 242.743 899.385 242.743C876.336 242.743 851.457 257.011 851.457 284.816V391.646H808.651V207.621H846.335L848.896 232.499C861.701 213.841 883.287 202.865 908.898 202.865Z" fill="black"/>
<path d="M750.941 135.548V391.646H705.208V135.548H750.941Z" fill="black"/>
<path d="M372.96 20.3223C374.237 21.0313 375.513 21.7403 376.829 22.4707C377.749 23.0801 378.669 23.6895 379.616 24.3174L384.081 27.2996L393.4 34.6239C394.217 35.4341 403.06 44.7505 403.06 44.7505C403.06 44.7505 407.295 49.2725 407.574 49.6195C409.237 51.6885 409.237 51.6885 411.094 54.5925C412.112 56.1821 412.112 56.1821 413.151 57.8037C413.864 58.9482 414.577 60.0926 415.312 61.2718C416.037 62.4325 416.762 63.5933 417.509 64.7892C422.68 73.2096 427.092 81.493 430.206 90.9018C430.691 92.3266 431.177 93.7514 431.677 95.2194C437.629 114.176 439.023 132.472 436.862 152.16C436.667 153.947 436.667 153.947 436.467 155.77C436.187 158.121 435.866 160.468 435.531 162.813C436.279 162.621 437.027 162.429 437.798 162.23C464.814 156.262 494.632 159.959 519.403 172.135C520.707 172.722 522.012 173.309 523.355 173.914C533.731 178.755 542.419 185.043 551.354 192.11C552.899 193.194 552.899 193.194 554.474 194.3C555.202 194.896 555.93 195.492 556.68 196.105C556.68 195.2 556.68 196.984 556.68 196.105L563.336 202.764C563.336 201.858 563.336 203.643 563.336 202.764L565.999 205.427C565.999 204.522 565.999 206.306 565.999 205.427L568.661 208.09C573.986 215.297 571.129 211.073 576.649 218.744C575.744 218.744 577.528 218.744 576.649 218.744C597.585 246.3 604.97 284.194 600.678 317.965C597.337 341.6 587.923 363.229 573.986 382.542C573.108 383.86 572.229 385.178 571.324 386.537C570.939 387.333 564.096 394.989 563.336 395.859C562.475 396.843 560.673 398.522 560.673 398.522C560.673 397.616 560.673 399.401 560.673 398.522C559.813 399.507 558.011 401.185 558.011 401.185C558.011 400.28 558.011 402.064 558.011 401.185C552.059 406.512 550.494 407.825 548.692 409.176C548.692 408.27 548.692 410.054 548.692 409.176C535.514 419.05 521.779 426.741 506.09 431.814C504.467 432.362 502.843 432.909 501.17 433.474C480.85 439.612 456.324 439.605 435.531 435.809C435.745 437.492 435.96 439.174 436.181 440.907C440.145 476.81 434.143 514.685 411.484 543.759C409.334 546.434 407.133 549.049 404.911 551.666C403.979 552.799 403.047 553.932 402.087 555.099C397.625 560.407 397.625 560.407 395.592 562.32L394.326 563.648L392.929 564.983C360.759 592.629 324.163 602.141 282.431 599.607C257.244 596.622 235.37 586.141 215.866 570.31C214.548 569.431 213.23 568.552 211.872 567.646C211.872 567.646 203.688 559.813 200.889 556.993C199.948 556.059 199.008 555.125 198.039 554.163C195.896 551.666 193.234 549.003 193.234 549.003C192.355 549.003 194.139 549.003 193.234 549.003C168.314 517.715 161.634 480.715 164.855 441.844C165.277 438.473 165.277 438.473 166.608 434.478C165.449 434.907 164.291 435.336 163.098 435.778C133.219 444.249 97.3489 435.724 70.7541 421.161C64.7285 417.509 59.0767 413.41 53.4471 409.176C53.4471 409.176 46.764 403.836 46.7906 403.849L42.8617 399.85C26.8861 385.201 12.5325 361.555 6.09229 341.712C2.7015 330.545 0.42053 319.68 0.195034 307.967C0.143551 306.623 0.0920665 305.279 0.0390225 303.894C-0.819158 264.931 12.4875 230.687 38.9692 202.233C40.377 200.767 41.7914 199.306 43.2127 197.853C43.8671 197.18 44.5215 196.506 45.1957 195.812C49.0021 192.057 52.5351 188.298 57.441 185.452C57.441 184.573 57.441 186.357 57.441 185.452C83.3661 170.412 108.538 159.813 139.067 159.983C140.178 159.986 141.29 159.988 142.435 159.991C150.126 160.045 157.645 160.48 165.277 161.481C165.132 160.266 165.132 160.266 164.985 159.026C161.462 125.743 166.421 94.9982 182.583 65.5997C205.686 29.963 231.706 16.5124 253.564 7.93658C293.311 -6.02737 337.095 -1.36005 372.96 20.3223ZM238.498 66.9314C237.105 68.2912 235.836 69.5948 235.836 69.5948C235.836 69.5948 233.212 72.245 233.173 72.2582L230.51 74.9216C228.44 77.544 226.547 80.146 224.686 82.9117C224.146 83.709 223.606 84.5062 223.05 85.3277C215.79 96.1853 211.988 106.032 209.21 118.867C208.959 119.918 208.708 120.968 208.45 122.051C205.318 141.076 208.219 160.522 217.197 177.462C217.788 178.586 218.378 179.71 218.986 180.869C227.786 196.543 261.57 229.84 274.248 242.367C273.558 241.688 274.918 243.026 274.248 242.367C274.248 242.367 304.934 273.563 308.354 276.937C309.097 277.681 309.84 278.424 310.605 279.19C313.059 281.643 315.523 284.087 317.986 286.53C319.698 288.238 321.41 289.946 323.121 291.654C327.627 296.152 332.142 300.642 336.658 305.13C341.238 309.684 345.81 314.245 350.382 318.805C357.778 326.18 365.179 333.551 372.586 340.915C374.486 342.805 376.386 344.695 378.285 346.586C379.498 347.781 380.711 348.977 381.96 350.208C385.242 353.601 398.623 367.538 402.248 370.557C403.275 371.447 404.301 372.338 405.358 373.256C418.053 383.962 431.288 389.921 447.513 393.195C449.109 393.561 449.109 393.561 450.737 393.934C474.457 398.032 498.713 390.698 518.118 377.033C536.664 362.411 552.847 341.211 556.68 317.289C558.863 291.029 559.147 272.33 542.035 246.709C541.508 245.829 540.981 244.948 540.439 244.041C538.965 241.604 538.965 241.604 536.71 238.719C535.831 238.719 537.615 238.719 536.71 238.719C536.435 238.005 536.993 239.455 536.71 238.719C536.71 238.719 528.463 227.594 524.533 224.39C503.898 202.764 470.928 199.213 441.938 205.427C435.484 207.356 429.44 210.083 423.383 213.001C422.54 213.404 421.697 213.806 420.828 214.221C407.222 221.169 396.502 232.134 385.95 242.964C384.7 244.234 383.448 245.502 382.195 246.77C376.939 252.093 371.698 257.431 366.468 262.78C363.868 265.438 361.261 268.09 358.646 270.733C356.196 273.212 347.73 282.661 347.73 282.661L316.444 252.033L319.593 249.191C320.606 248.203 321.618 247.215 322.661 246.197C323.719 245.185 324.776 244.173 325.865 243.131C327.968 241.106 330.066 239.076 332.157 237.039C332.157 237.039 345.443 223.975 348.393 221.033C349.517 219.912 350.641 218.791 351.799 217.636C353.542 215.877 353.542 215.877 355.32 214.083C356.502 212.911 357.685 211.738 358.903 210.53C360.02 209.409 361.137 208.288 362.288 207.133C363.827 205.59 363.827 205.59 365.397 204.015C367.925 201.666 365.397 204.015 370.297 198.769C370.297 198.769 377.201 189.188 377.758 188.368C384.382 178.481 388.523 169.006 391.598 157.486C391.829 156.683 392.06 155.879 392.298 155.051C393.559 149.275 394.036 143.718 394.066 137.83C394.037 139.184 394.093 136.516 394.066 137.83C394.189 114.214 382.695 88.394 366.787 71.3583C359.51 64.1999 351.479 58.1948 342.34 53.6145C341.229 53.0515 340.119 52.4884 338.975 51.9083C307.332 36.637 264.106 41.9356 238.498 66.9314ZM109.362 208.09C108.056 208.544 106.75 208.997 105.404 209.464C95.2607 213.339 85.8932 218.587 77.4106 225.402C77.4106 225.402 74.813 228.062 74.748 228.066C74.748 228.066 69.3061 233.501 69.4228 233.393C69.4228 233.393 67.2688 235.386 66.7602 236.056C64.7255 238.734 62.8983 241.378 61.1021 244.213C60.57 245.049 60.0379 245.885 59.4897 246.747C49.2865 263.218 43.5898 279.735 43.712 299.145C43.7185 300.378 43.7251 301.611 43.7318 302.882C43.8845 311.788 44.8334 319.606 48.1219 327.942C48.5904 329.232 49.0589 330.521 49.5416 331.849C59.4133 357.432 77.782 376.906 102.679 388.363C106.211 389.723 109.71 390.856 113.356 391.864C114.384 392.161 115.412 392.458 116.471 392.763C141.506 398.889 166.147 392.636 187.909 379.878C193.527 376.256 193.527 376.256 198.559 371.888C198.559 371.009 198.559 372.794 198.559 371.888L201.222 369.225C201.222 368.346 201.222 370.13 201.222 369.225L203.884 366.561C203.884 365.683 203.884 367.467 203.884 366.561L209.21 361.235C209.21 361.235 216.416 354.448 218.529 351.913L221.191 349.25L223.919 346.582L226.516 343.923C226.468 343.973 231.842 338.596 231.842 338.596L234.315 335.933L242.492 327.942C242.492 327.064 242.492 328.848 242.492 327.942L256.536 313.956L285.824 344.585C284.857 343.538 286.763 345.601 285.824 344.585C285.824 344.585 283.448 347.213 280.03 350.58C278.99 351.612 277.95 352.643 276.878 353.706C275.752 354.81 274.626 355.915 273.466 357.052C272.306 358.202 271.147 359.351 269.953 360.536C264.995 365.451 260.022 370.351 255.05 375.253C251.42 378.835 247.798 382.426 244.177 386.017C242.504 387.657 242.504 387.657 240.798 389.33C220.443 409.521 208.02 432.617 207.545 461.694C208.02 489.293 218.214 510.597 237.167 530.359C237.877 531.123 238.588 531.887 239.32 532.674C240.758 534.185 242.28 535.615 243.823 537.018C242.918 537.018 244.702 537.018 243.823 537.018L246.486 539.681C266.442 555.047 292.218 559.144 316.666 556.155C337.766 552.731 356.317 541.014 370.297 525.032C370.297 524.154 370.297 525.938 370.297 525.032C370.297 525.032 372.359 523.031 372.96 522.369C375.042 519.579 376.932 516.818 378.784 513.88C379.323 513.029 379.862 512.177 380.417 511.301C393.505 490.187 396.477 464.859 391.561 440.581C386.604 420.027 364.29 388.962 347.665 375.883L297.492 325.529C296.75 324.732 298.255 326.349 297.492 325.529C295.808 323.65 285.212 313.11 285.212 313.11C284.141 312.038 283.07 310.967 281.966 309.863C280.807 308.717 279.647 307.572 278.453 306.391C277.261 305.202 276.069 304.014 274.841 302.789C271.672 299.632 268.498 296.481 265.321 293.333C262.107 290.145 258.901 286.95 255.693 283.755C250.986 279.068 246.275 274.384 241.56 269.705C239.652 267.81 237.744 265.916 235.836 264.021C235.116 263.307 234.395 262.593 233.654 261.857C230.75 258.967 228.008 256.057 225.435 252.869C221.66 248.392 217.473 244.653 213.021 240.862C209.81 238.088 206.884 235.062 203.884 232.061C182.713 211.643 160.837 203.419 131.64 203.809C123.805 204.059 116.756 205.489 109.362 208.09Z" fill="#0A6C74"/>
<path d="M785.588 473.78V550.61H772.087V490.902L751.343 542.268H736.416L715.671 490.902V550.61H702.17V473.78H722.256L743.879 527.78L765.502 473.78H785.588Z" fill="#0A6C74"/>
<path d="M843.045 537.878H885.522V550.61H829.325V473.78H884.644V486.512H843.045V505.39H882.887V518.122H843.045V537.878Z" fill="#0A6C74"/>
<path d="M953.95 473.78C977 473.78 994.012 488.707 994.012 512.195C994.012 535.683 977 550.61 953.95 550.61H924.644V473.78H953.95ZM953.95 537.768C969.646 537.768 979.853 527.781 979.853 512.195C979.853 496.61 969.646 486.622 953.95 486.622H938.364V537.768H953.95Z" fill="#0A6C74"/>
<path d="M1046.97 473.78V550.61H1033.26V473.78H1046.97Z" fill="#0A6C74"/>
<path d="M1118.51 552.037C1104.46 552.037 1091.18 546.11 1085.8 542.159L1092.39 530.634C1099.08 535.683 1109.73 539.305 1118.84 539.305C1128.06 539.305 1134.42 535.793 1134.42 529.098C1134.42 521.744 1126.63 520.646 1117.74 519C1094.69 514.281 1088.11 509.122 1088.11 497.159C1088.11 477.622 1105.45 472.354 1119.83 472.354C1130.25 472.354 1139.36 475.098 1147.27 479.927L1140.79 491.341C1133.77 487.061 1126.63 485.085 1119.17 485.085C1108.08 485.085 1102.7 489.256 1102.7 495.732C1102.7 501.22 1106.87 503.634 1120.05 505.829C1130.25 507.585 1149.13 510.988 1149.13 528.439C1149.13 542.707 1136.95 552.037 1118.51 552.037Z" fill="#0A6C74"/>
<path d="M1202.89 537.878H1245.36V550.61H1189.17V473.78H1244.48V486.512H1202.89V505.39H1242.73V518.122H1202.89V537.878Z" fill="#0A6C74"/>
<path d="M1341.12 473.78V486.512H1316.21V550.61H1302.49V486.512H1277.68V473.78H1341.12Z" fill="#0A6C74"/>
<path d="M1409.27 552.037C1384.35 552.037 1377 537 1377 515.598V473.78H1390.94V515.598C1390.94 532.5 1395.99 538.866 1409.27 538.866C1422.44 538.866 1427.6 532.719 1427.6 515.598V473.78H1441.54V515.598C1441.54 536.561 1434.51 552.037 1409.27 552.037Z" fill="#0A6C74"/>
<path d="M2036.96 92.3781L2042.58 107.556C2049.99 127.584 2065.78 143.375 2085.81 150.786L2100.99 156.402L2085.81 162.019C2065.78 169.43 2049.99 185.221 2042.58 205.249L2036.96 220.427L2031.34 205.249C2023.93 185.221 2008.14 169.43 1988.11 162.019L1972.93 156.402L1988.11 150.786C2008.14 143.375 2023.93 127.584 2031.34 107.556L2036.96 92.3781Z" fill="#0A6C74"/>
<path d="M2100.53 59.4512L2103.46 67.3739C2107.17 77.388 2115.06 85.2835 2125.08 88.9891L2133 91.9207L2125.08 94.8524C2115.06 98.5579 2107.17 106.453 2103.46 116.468L2100.53 124.39L2097.6 116.468C2093.89 106.453 2086 98.5579 2075.98 94.8524L2068.06 91.9207L2075.98 88.9891C2086 85.2835 2093.89 77.388 2097.6 67.3739L2100.53 59.4512Z" fill="#2FAE8E"/>
</svg>
