<svg width="180" height="42" viewBox="0 0 180 42" fill="none" xmlns="http://www.w3.org/2000/svg">
<path d="M165.592 17.366H168.725V30.9539H165.916L165.754 29.144C164.889 30.4947 163.404 31.3051 161.621 31.3051C158.649 31.3051 156.353 29.171 156.353 25.9564V17.366H159.514V25.5512C159.514 27.3881 160.891 28.3606 162.431 28.3606C163.998 28.3606 165.592 27.253 165.592 25.254V17.366Z" fill="#100E1C"/>
<path d="M153.394 27.3778L154.745 29.9441C153.935 30.6735 152.665 31.2678 150.747 31.2678C147.424 31.2678 145.587 29.5119 145.587 26.1352V20.1651H142.94V17.3287H145.587V13.2496H148.748V17.3287H153.908V20.1651H148.748V25.9191C148.748 27.5399 149.504 28.2963 150.99 28.2963C151.747 28.2963 152.584 28.0802 153.394 27.3778Z" fill="#100E1C"/>
<path d="M130.729 25.2733C131.134 27.2994 132.566 28.488 134.673 28.488C136.05 28.488 137.32 27.9747 138.238 27.0562L140.264 29.1363C138.887 30.487 136.942 31.2704 134.754 31.2704C130.567 31.2704 127.46 28.3799 127.46 24.0577C127.46 19.9246 130.323 16.9801 134.538 16.9801C138.941 16.9801 141.075 20.1137 141.075 23.3283C141.075 23.7605 140.994 24.706 140.886 25.2733H130.729ZM134.484 19.7895C132.484 19.7895 131.134 20.9781 130.729 22.8691H137.941C137.86 21.1132 136.672 19.7895 134.484 19.7895Z" fill="#100E1C"/>
<path d="M119.232 31.2974C117.206 31.2974 114.586 30.595 113.154 29.4605L114.289 27.0832C115.369 27.9747 117.558 28.542 119.368 28.542C120.691 28.542 122.15 28.2178 122.15 26.9752C122.15 25.9757 120.907 25.7326 119.124 25.4084C115.775 24.8141 113.749 24.1117 113.749 21.4104C113.749 17.9796 116.909 16.9801 119.638 16.9801C121.691 16.9801 123.609 17.5744 124.959 18.4929L123.798 20.8971C122.771 20.1677 121.258 19.7085 119.611 19.7085C117.855 19.7085 116.99 20.2488 116.99 21.2483C116.99 22.0047 117.504 22.2478 119.476 22.599C122.717 23.2203 125.338 23.7876 125.338 26.7591C125.338 29.6766 122.798 31.2974 119.232 31.2974Z" fill="#100E1C"/>
<path d="M107.254 14.7405C107.254 14.7405 107.254 12.7881 107.254 11.706C107.254 11.706 109.418 11.706 110.5 11.706C110.5 13.7525 110.5 13.6584 110.5 14.7405H107.254ZM110.5 17.1634L110.5 31.0337H107.254L107.254 17.1634H110.5Z" fill="#100E1C"/>
<path d="M101.392 10.6769H104.552V30.9372H101.743L101.581 29.0192C100.608 30.424 99.0414 31.2884 97.0694 31.2884C93.4496 31.2884 90.424 28.3439 90.424 24.1027C90.424 19.9156 93.4226 16.9981 97.1775 16.9981C98.9604 16.9981 100.446 17.6464 101.392 18.781V10.6769ZM97.6637 28.3169C100.014 28.3169 101.662 26.6961 101.662 24.1297C101.662 21.6175 100.041 19.9426 97.6637 19.9426C95.2865 19.9426 93.6927 21.6445 93.6927 24.1297C93.6927 26.642 95.2865 28.3169 97.6637 28.3169Z" fill="#100E1C"/>
<path d="M77.7623 25.2733C78.1675 27.2994 79.5993 28.488 81.7063 28.488C83.084 28.488 84.3537 27.9747 85.2721 27.0562L87.2982 29.1363C85.9205 30.487 83.9755 31.2704 81.7874 31.2704C77.6002 31.2704 74.4936 28.3799 74.4936 24.0577C74.4936 19.9246 77.3571 16.9801 81.5713 16.9801C85.9745 16.9801 88.1086 20.1137 88.1086 23.3283C88.1086 23.7605 88.0275 24.706 87.9195 25.2733H77.7623ZM81.5172 19.7895C79.5182 19.7895 78.1675 20.9781 77.7623 22.8691H84.975C84.8939 21.1132 83.7053 19.7895 81.5172 19.7895Z" fill="#100E1C"/>
<path d="M72.1782 12.0276V30.9372H68.8555V16.2417L63.7499 28.8842H60.0761L54.9705 16.2417V30.9372H51.6478V12.0276H56.5913L61.913 25.3183L67.2347 12.0276H72.1782Z" fill="#100E1C"/>
<path d="M26.1066 1.42256C26.196 1.47219 26.2854 1.52182 26.3775 1.57295C26.4419 1.61561 26.5063 1.65827 26.5726 1.70222L26.8851 1.91097L27.5374 2.42367C27.5946 2.48039 28.2136 3.13253 28.2136 3.13253C28.2136 3.13253 28.51 3.44907 28.5296 3.47336C28.646 3.6182 28.646 3.6182 28.776 3.82148C28.8473 3.93274 28.8473 3.93274 28.92 4.04626C28.9699 4.12637 29.0198 4.20648 29.0712 4.28902C29.122 4.37028 29.1727 4.45153 29.225 4.53525C29.587 5.12467 29.8958 5.70451 30.1138 6.36313C30.1478 6.46286 30.1818 6.5626 30.2168 6.66536C30.6334 7.99232 30.731 9.27302 30.5797 10.6512C30.566 10.7763 30.566 10.7763 30.5521 10.9039C30.5324 11.0685 30.51 11.2328 30.4865 11.3969C30.5389 11.3835 30.5913 11.37 30.6452 11.3561C32.5363 10.9383 34.6235 11.1972 36.3575 12.0494C36.4488 12.0905 36.5401 12.1316 36.6341 12.174C37.3604 12.5129 37.9686 12.953 38.594 13.4477C38.7021 13.5236 38.7021 13.5236 38.8124 13.601C38.8633 13.6427 38.9143 13.6844 38.9668 13.7274C38.9668 13.664 38.9668 13.7889 38.9668 13.7274L39.4327 14.1935C39.4327 14.1301 39.4327 14.255 39.4327 14.1935L39.6191 14.3799C39.6191 14.3165 39.6191 14.4414 39.6191 14.3799L39.8055 14.5663C40.1782 15.0708 39.9782 14.7751 40.3646 15.3121C40.3012 15.3121 40.4261 15.3121 40.3646 15.3121C41.8301 17.241 42.347 19.8935 42.0466 22.2576C41.8127 23.912 41.1537 25.4261 40.1782 26.7779C40.1167 26.8702 40.0552 26.9625 39.9918 27.0576C39.9649 27.1133 39.4859 27.6492 39.4327 27.7101C39.3725 27.779 39.2463 27.8965 39.2463 27.8965C39.2463 27.8332 39.2463 27.9581 39.2463 27.8965C39.1861 27.9655 39.0599 28.083 39.0599 28.083C39.0599 28.0196 39.0599 28.1445 39.0599 28.083C38.6433 28.4558 38.5338 28.5478 38.4076 28.6423C38.4076 28.5789 38.4076 28.7038 38.4076 28.6423C37.4852 29.3335 36.5238 29.8719 35.4256 30.227C35.3119 30.2653 35.1983 30.3037 35.0812 30.3432C33.6588 30.7729 31.942 30.7723 30.4865 30.5067C30.5016 30.6244 30.5166 30.7422 30.532 30.8635C30.8095 33.3767 30.3894 36.0279 28.8033 38.0632C28.6528 38.2504 28.4987 38.4335 28.3432 38.6166C28.278 38.6959 28.2127 38.7752 28.1455 38.857C27.8332 39.2285 27.8332 39.2285 27.6909 39.3624L27.6022 39.4553L27.5045 39.5488C25.2526 41.484 22.6909 42.1499 19.7698 41.9725C18.0067 41.7636 16.4755 41.0298 15.1103 39.9217C15.0181 39.8602 14.9258 39.7986 14.8307 39.7353C14.8307 39.7353 14.2578 39.1869 14.0619 38.9895C13.9961 38.9241 13.9303 38.8588 13.8624 38.7914C13.7125 38.6166 13.5261 38.4302 13.5261 38.4302C13.4646 38.4302 13.5895 38.4302 13.5261 38.4302C11.7817 36.2401 11.3141 33.6501 11.5396 30.929C11.5691 30.6931 11.5691 30.6931 11.6623 30.4134C11.5812 30.4435 11.5001 30.4735 11.4166 30.5045C9.32514 31.0974 6.81428 30.5007 4.95268 29.4813C4.5309 29.2256 4.13529 28.9387 3.74122 28.6423C3.74122 28.6423 3.27341 28.2685 3.27528 28.2694L3.00026 27.9895C1.88199 26.9641 0.877257 25.3089 0.426451 23.9198C0.189101 23.1382 0.0294365 22.3776 0.0136521 21.5577C0.0100483 21.4636 0.00644452 21.3695 0.00273152 21.2726C-0.0573399 18.5452 0.874105 16.1481 2.72779 14.1563C2.82633 14.0537 2.92534 13.9515 3.02483 13.8497C3.07064 13.8026 3.11644 13.7554 3.16364 13.7069C3.43007 13.444 3.67738 13.1808 4.02079 12.9816C4.02079 12.9201 4.02079 13.045 4.02079 12.9816C5.8355 11.9289 7.59754 11.1869 9.73446 11.1988C9.81228 11.199 9.8901 11.1992 9.97027 11.1994C10.5086 11.2031 11.0349 11.2336 11.5691 11.3037C11.559 11.2186 11.559 11.2186 11.5487 11.1318C11.3021 8.802 11.6493 6.64987 12.7806 4.59198C14.3977 2.09741 16.2191 1.15587 17.7491 0.555561C20.5314 -0.421916 23.5961 -0.0952038 26.1066 1.42256ZM16.6945 4.6852C16.597 4.78038 16.5082 4.87164 16.5082 4.87164C16.5082 4.87164 16.3245 5.05715 16.3218 5.05807L16.1354 5.24451C15.9905 5.42808 15.858 5.61022 15.7277 5.80382C15.6899 5.85963 15.6521 5.91544 15.6132 5.97294C15.105 6.73297 14.8389 7.42221 14.6444 8.32071C14.6268 8.39425 14.6093 8.46779 14.5912 8.54356C14.372 9.87534 14.575 11.2365 15.2035 12.4223C15.2448 12.501 15.2861 12.5797 15.3287 12.6608C15.9447 13.758 18.3095 16.0888 19.197 16.9657C19.1487 16.9182 19.2439 17.0118 19.197 16.9657C19.197 16.9657 21.3449 19.1494 21.5843 19.3856C21.6363 19.4377 21.6883 19.4897 21.7419 19.5433C21.9137 19.715 22.0861 19.8861 22.2586 20.0571C22.3784 20.1766 22.4982 20.2962 22.618 20.4158C22.9334 20.7307 23.2495 21.045 23.5656 21.3591C23.8862 21.6779 24.2062 21.9971 24.5262 22.3164C25.044 22.8326 25.562 23.3486 26.0805 23.8641C26.2135 23.9963 26.3465 24.1287 26.4794 24.261C26.5643 24.3447 26.6492 24.4284 26.7367 24.5146C26.9664 24.7521 27.903 25.7277 28.1568 25.939C28.2286 26.0013 28.3005 26.0637 28.3745 26.1279C29.2631 26.8773 30.1896 27.2945 31.3252 27.5237C31.437 27.5493 31.437 27.5493 31.5509 27.5754C33.2113 27.8623 34.9092 27.3488 36.2675 26.3923C37.5657 25.3688 38.6985 23.8848 38.9668 22.2102C39.1196 20.372 39.1395 19.0631 37.9417 17.2697C37.9048 17.208 37.8679 17.1464 37.8299 17.0829C37.7267 16.9123 37.7268 16.9123 37.5689 16.7104C37.5074 16.7104 37.6323 16.7104 37.5689 16.7104C37.5497 16.6604 37.5887 16.7619 37.5689 16.7104C37.5689 16.7104 36.9916 15.9316 36.7166 15.7073C35.2721 14.1935 32.9643 13.9449 30.935 14.3799C30.4833 14.5149 30.0602 14.7058 29.6362 14.9101C29.5772 14.9383 29.5182 14.9664 29.4574 14.9955C28.5049 15.4818 27.7545 16.2494 27.016 17.0075C26.9284 17.0964 26.8408 17.1852 26.7531 17.2739C26.3852 17.6465 26.0183 18.0202 25.6523 18.3946C25.4702 18.5807 25.2878 18.7663 25.1047 18.9513C24.9332 19.1248 24.3406 19.7863 24.3406 19.7863L22.1506 17.6423L22.3711 17.4434C22.4419 17.3742 22.5128 17.305 22.5858 17.2338C22.6598 17.163 22.7338 17.0921 22.8101 17.0191C22.9573 16.8774 23.1041 16.7353 23.2505 16.5927C23.2505 16.5927 24.1805 15.6783 24.387 15.4723C24.4657 15.3938 24.5444 15.3154 24.6254 15.2345C24.7474 15.1114 24.7474 15.1114 24.8719 14.9858C24.9547 14.9037 25.0374 14.8217 25.1227 14.7371C25.2009 14.6586 25.2791 14.5802 25.3597 14.4993C25.4674 14.3913 25.4674 14.3913 25.5773 14.281C25.7542 14.1166 25.5773 14.281 25.9203 13.9138C25.9203 13.9138 26.4036 13.2431 26.4425 13.1858C26.9062 12.4936 27.196 11.8305 27.4113 11.024C27.4275 10.9678 27.4436 10.9115 27.4603 10.8536C27.5486 10.4492 27.5819 10.0603 27.584 9.64808C27.582 9.74286 27.5859 9.5561 27.584 9.64808C27.5927 7.99501 26.7881 6.18758 25.6745 4.99508C25.1652 4.494 24.603 4.07363 23.9633 3.75302C23.8856 3.7136 23.8078 3.67419 23.7278 3.63358C21.5128 2.56459 18.487 2.93549 16.6945 4.6852ZM7.65517 14.5663C7.56375 14.5981 7.47234 14.6298 7.37815 14.6625C6.66811 14.9337 6.0124 15.3011 5.41863 15.7782C5.41863 15.7782 5.2368 15.9644 5.23225 15.9646C5.23225 15.9646 4.85133 16.3451 4.85949 16.3375C4.85949 16.3375 4.70872 16.477 4.67311 16.5239C4.53069 16.7114 4.40279 16.8965 4.27706 17.0949C4.23981 17.1534 4.20257 17.212 4.16419 17.2723C3.44999 18.4253 3.05122 19.5814 3.05978 20.9401C3.06023 21.0265 3.06069 21.1128 3.06116 21.2017C3.07185 21.8252 3.13827 22.3725 3.36847 22.956C3.40126 23.0462 3.43405 23.1365 3.46784 23.2294C4.15885 25.0202 5.44463 26.3834 7.1874 27.1854C7.4346 27.2806 7.67951 27.3599 7.93474 27.4305C8.00669 27.4512 8.07865 27.472 8.15279 27.4934C9.90518 27.9222 11.63 27.4845 13.1533 26.5915C13.5466 26.3379 13.5466 26.3379 13.8989 26.0322C13.8989 25.9707 13.8989 26.0956 13.8989 26.0322L14.0852 25.8457C14.0852 25.7842 14.0852 25.9091 14.0852 25.8457L14.2716 25.6593C14.2716 25.5978 14.2716 25.7227 14.2716 25.6593L14.6444 25.2864C14.6444 25.2864 15.1488 24.8114 15.2967 24.6339L15.4831 24.4475L15.674 24.2608L15.8558 24.0746C15.8524 24.0781 16.2286 23.7017 16.2286 23.7017L16.4017 23.5153L16.9741 22.956C16.9741 22.8945 16.9741 23.0194 16.9741 22.956L17.9571 21.9769L20.0073 24.1209C19.9396 24.0477 20.073 24.1921 20.0073 24.1209C20.0073 24.1209 19.841 24.3049 19.6017 24.5406C19.5289 24.6128 19.4561 24.685 19.3811 24.7594C19.3022 24.8367 19.2234 24.914 19.1422 24.9937C19.0611 25.0741 18.9799 25.1546 18.8963 25.2375C18.5493 25.5816 18.2012 25.9246 17.8531 26.2677C17.599 26.5184 17.3455 26.7698 17.092 27.0212C16.9749 27.136 16.9749 27.136 16.8555 27.2531C15.4307 28.6665 14.5611 30.2832 14.5279 32.3186C14.5611 34.2505 15.2747 35.7418 16.6013 37.1251C16.6511 37.1786 16.7008 37.2321 16.752 37.2872C16.8527 37.3929 16.9593 37.493 17.0673 37.5912C17.0039 37.5912 17.1288 37.5912 17.0673 37.5912L17.2537 37.7777C18.6506 38.8533 20.4549 39.1401 22.1662 38.9308C23.6432 38.6912 24.9417 37.871 25.9203 36.7523C25.9203 36.6907 25.9203 36.8157 25.9203 36.7523C25.9203 36.7523 26.0646 36.6122 26.1066 36.5658C26.2524 36.3705 26.3847 36.1773 26.5143 35.9716C26.5521 35.912 26.5898 35.8524 26.6287 35.791C27.5448 34.3131 27.7528 32.5401 27.4087 30.8407C27.0617 29.4019 25.4998 27.2273 24.336 26.3118L20.824 22.787C20.7721 22.7313 20.8774 22.8445 20.824 22.787C20.7061 22.6555 19.9644 21.9177 19.9644 21.9177C19.8894 21.8427 19.8145 21.7677 19.7372 21.6904C19.6561 21.6102 19.5749 21.53 19.4913 21.4474C19.4079 21.3642 19.3244 21.281 19.2385 21.1952C19.0167 20.9743 18.7945 20.7537 18.5721 20.5333C18.3471 20.3101 18.1227 20.0865 17.8982 19.8628C17.5686 19.5347 17.2389 19.2069 16.9088 18.8793C16.7753 18.7467 16.6417 18.6141 16.5082 18.4815C16.4577 18.4315 16.4073 18.3815 16.3554 18.33C16.1521 18.1277 15.9603 17.924 15.7801 17.7008C15.5159 17.3874 15.2228 17.1257 14.9112 16.8604C14.6864 16.6662 14.4816 16.4543 14.2716 16.2443C12.7896 14.815 11.2584 14.2393 9.21463 14.2667C8.66614 14.2841 8.17276 14.3842 7.65517 14.5663Z" fill="#0A6C74"/>
<path d="M172.442 7.65625C173.214 9.74212 174.858 11.3867 176.944 12.1585C174.858 12.9304 173.214 14.575 172.442 16.6608C171.67 14.575 170.025 12.9304 167.939 12.1585C170.025 11.3867 171.67 9.74212 172.442 7.65625Z" fill="#0A6C74"/>
<path d="M176.908 5.33594C177.3 6.39377 178.134 7.22781 179.192 7.61925C178.134 8.01068 177.3 8.84472 176.908 9.90255C176.517 8.84472 175.683 8.01068 174.625 7.61925C175.683 7.22781 176.517 6.39377 176.908 5.33594Z" fill="#2FAE8E"/>
</svg>
