<svg width="2624" height="653" viewBox="0 0 2624 653" fill="none" xmlns="http://www.w3.org/2000/svg">
<path d="M2574.56 270H2623.28V481.26H2579.6L2577.08 453.12C2563.64 474.12 2540.54 486.72 2512.82 486.72C2466.62 486.72 2430.92 453.54 2430.92 403.56V270H2480.06V397.26C2480.06 425.82 2501.48 440.94 2525.42 440.94C2549.78 440.94 2574.56 423.72 2574.56 392.64V270Z" fill="#100E1C"/>
<path d="M2384.92 425.66L2405.92 465.56C2393.32 476.9 2373.58 486.14 2343.76 486.14C2292.1 486.14 2263.54 458.84 2263.54 406.34V313.52H2222.38V269.42H2263.54V206H2312.68V269.42H2392.9V313.52H2312.68V402.98C2312.68 428.18 2324.44 439.94 2347.54 439.94C2359.3 439.94 2372.32 436.58 2384.92 425.66Z" fill="#100E1C"/>
<path d="M2032.52 392.94C2038.82 424.44 2061.08 442.92 2093.84 442.92C2115.26 442.92 2135 434.94 2149.28 420.66L2180.78 453C2159.36 474 2129.12 486.18 2095.1 486.18C2030 486.18 1981.7 441.24 1981.7 374.04C1981.7 309.78 2026.22 264 2091.74 264C2160.2 264 2193.38 312.72 2193.38 362.7C2193.38 369.42 2192.12 384.12 2190.44 392.94H2032.52ZM2090.9 307.68C2059.82 307.68 2038.82 326.16 2032.52 355.56H2144.66C2143.4 328.26 2124.92 307.68 2090.9 307.68Z" fill="#100E1C"/>
<path d="M1853.78 486.6C1822.28 486.6 1781.54 475.68 1759.28 458.04L1776.92 421.08C1793.72 434.94 1827.74 443.76 1855.88 443.76C1876.46 443.76 1899.14 438.72 1899.14 419.4C1899.14 403.86 1879.82 400.08 1852.1 395.04C1800.02 385.8 1768.52 374.88 1768.52 332.88C1768.52 279.54 1817.66 264 1860.08 264C1892 264 1921.82 273.24 1942.82 287.52L1924.76 324.9C1908.8 313.56 1885.28 306.42 1859.66 306.42C1832.36 306.42 1818.92 314.82 1818.92 330.36C1818.92 342.12 1826.9 345.9 1857.56 351.36C1907.96 361.02 1948.7 369.84 1948.7 416.04C1948.7 461.4 1909.22 486.6 1853.78 486.6Z" fill="#100E1C"/>
<path d="M1667.54 229.18C1667.54 229.18 1667.54 198.824 1667.54 182C1667.54 182 1701.19 182 1718.01 182C1718.01 213.819 1718.01 212.356 1718.01 229.18H1667.54ZM1718.01 266.851L1718.01 482.5H1667.54L1667.54 266.851H1718.01Z" fill="#100E1C"/>
<path d="M1576.4 166H1625.54V481H1581.86L1579.34 451.18C1564.22 473.02 1539.86 486.46 1509.2 486.46C1452.92 486.46 1405.88 440.68 1405.88 374.74C1405.88 309.64 1452.5 264.28 1510.88 264.28C1538.6 264.28 1561.7 274.36 1576.4 292V166ZM1518.44 440.26C1554.98 440.26 1580.6 415.06 1580.6 375.16C1580.6 336.1 1555.4 310.06 1518.44 310.06C1481.48 310.06 1456.7 336.52 1456.7 375.16C1456.7 414.22 1481.48 440.26 1518.44 440.26Z" fill="#100E1C"/>
<path d="M1209.02 392.94C1215.32 424.44 1237.58 442.92 1270.34 442.92C1291.76 442.92 1311.5 434.94 1325.78 420.66L1357.28 453C1335.86 474 1305.62 486.18 1271.6 486.18C1206.5 486.18 1158.2 441.24 1158.2 374.04C1158.2 309.78 1202.72 264 1268.24 264C1336.7 264 1369.88 312.72 1369.88 362.7C1369.88 369.42 1368.62 384.12 1366.94 392.94H1209.02ZM1267.4 307.68C1236.32 307.68 1215.32 326.16 1209.02 355.56H1321.16C1319.9 328.26 1301.42 307.68 1267.4 307.68Z" fill="#100E1C"/>
<path d="M1122.2 187V481H1070.54V252.52L991.16 449.08H934.04L854.66 252.52V481H803V187H879.86L962.6 393.64L1045.34 187H1122.2Z" fill="#100E1C"/>
<path d="M405.896 22.1175C407.286 22.8891 408.675 23.6607 410.107 24.4556C411.108 25.1189 412.109 25.7821 413.141 26.4654L417.999 29.7111L428.142 37.6823C429.031 38.5642 438.654 48.7035 438.654 48.7035C438.654 48.7035 443.263 53.6249 443.567 54.0025C445.377 56.2544 445.377 56.2544 447.398 59.4148C448.507 61.1448 448.507 61.1448 449.637 62.9097C450.413 64.1553 451.189 65.4008 451.988 66.6841C452.778 67.9474 453.567 69.2107 454.38 70.5123C460.007 79.6765 464.809 88.6915 468.198 98.9315C468.726 100.482 469.255 102.033 469.799 103.63C476.277 124.262 477.794 144.173 475.442 165.6C475.229 167.545 475.229 167.545 475.012 169.529C474.707 172.089 474.358 174.643 473.993 177.195C474.808 176.986 475.622 176.776 476.461 176.561C505.863 170.065 538.314 174.089 565.272 187.34C566.692 187.979 568.111 188.618 569.573 189.276C580.865 194.546 590.321 201.389 600.045 209.08C601.726 210.26 601.726 210.26 603.441 211.463C604.233 212.112 605.025 212.76 605.841 213.428C605.841 214.384 605.841 212.442 605.841 213.428L613.085 220.674C613.085 221.631 613.085 219.689 613.085 220.674L615.983 223.573C615.983 224.53 615.983 222.588 615.983 223.573L618.88 226.472C624.676 234.315 621.566 229.717 627.574 238.066C628.53 238.066 626.588 238.066 627.574 238.066C650.359 268.056 658.396 309.297 653.725 346.052C650.089 371.775 639.843 395.315 624.676 416.333C623.72 417.768 622.763 419.203 621.778 420.681C621.36 421.548 613.912 429.88 613.085 430.826C612.148 431.898 610.187 433.725 610.187 433.725C610.187 434.681 610.187 432.739 610.187 433.725C609.25 434.796 607.289 436.623 607.289 436.623C607.289 437.58 607.289 435.638 607.289 436.623C600.812 442.421 599.108 443.85 597.147 445.319C597.147 446.276 597.147 444.334 597.147 445.319C582.805 456.066 567.858 464.436 550.783 469.958C549.017 470.554 547.25 471.15 545.429 471.764C523.314 478.445 496.622 478.437 473.993 474.306C474.227 476.137 474.46 477.968 474.701 479.854C479.015 518.928 472.483 560.149 447.823 591.791C445.482 594.702 443.088 597.549 440.669 600.397C439.655 601.63 438.641 602.863 437.596 604.133C432.74 609.91 432.74 609.91 430.527 611.991L429.149 613.437L427.629 614.89C392.618 644.978 352.79 655.33 307.373 652.572C279.962 649.324 256.155 637.916 234.929 620.687C233.495 619.731 232.061 618.774 230.583 617.789C230.583 617.789 221.676 609.263 218.63 606.194C217.606 605.178 216.583 604.161 215.528 603.114C213.196 600.397 210.299 597.498 210.299 597.498C211.284 597.498 209.342 597.498 210.299 597.498C183.178 563.447 175.908 523.178 179.414 480.873C179.872 477.204 179.872 477.204 181.321 472.856C180.061 473.324 178.8 473.791 177.501 474.272C144.984 483.491 105.946 474.213 77.0024 458.363C70.4448 454.389 64.2939 449.928 58.1671 445.319C58.1671 445.319 50.8937 439.508 50.9228 439.522L46.6469 435.17C29.2604 419.228 13.6393 393.492 6.63031 371.896C2.94007 359.743 0.457668 347.919 0.212258 335.171C0.156228 333.708 0.100197 332.245 0.0424686 330.738C-0.891499 288.333 13.5903 251.064 42.4106 220.097C43.9428 218.501 45.4821 216.912 47.0289 215.33C47.7411 214.597 48.4533 213.864 49.187 213.109C53.3295 209.022 57.1746 204.931 62.5137 201.833C62.5137 202.819 62.5137 200.877 62.5137 201.833C90.7282 185.465 118.124 173.929 151.348 174.115C152.558 174.118 153.768 174.121 155.014 174.124C163.383 174.182 171.567 174.656 179.872 175.746C179.715 174.423 179.715 174.423 179.555 173.073C175.721 136.85 181.118 103.39 198.708 71.3944C223.851 32.6097 252.168 17.971 275.956 8.63765C319.214 -6.55978 366.864 -1.48019 405.896 22.1175ZM259.56 72.8437C258.044 74.3236 256.663 75.7424 256.663 75.7424C256.663 75.7424 253.807 78.6267 253.765 78.641L250.867 81.5396C248.614 84.3938 246.554 87.2256 244.528 90.2356C243.941 91.1033 243.353 91.971 242.748 92.8649C234.847 104.682 230.709 115.398 227.685 129.367C227.412 130.511 227.14 131.654 226.859 132.832C223.45 153.538 226.607 174.701 236.378 193.137C237.021 194.361 237.663 195.585 238.325 196.846C247.903 213.904 284.67 250.143 298.468 263.776C299.197 264.494 297.716 263.038 298.468 263.776C298.468 263.776 331.863 297.727 335.585 301.4C336.394 302.209 337.202 303.018 338.035 303.852C340.706 306.522 343.387 309.181 346.068 311.84C347.931 313.699 349.794 315.558 351.656 317.417C356.561 322.312 361.474 327.199 366.389 332.084C371.373 337.039 376.349 342.003 381.325 346.966C389.374 354.993 397.429 363.015 405.49 371.029C407.558 373.086 409.625 375.144 411.692 377.201C413.012 378.502 414.332 379.803 415.692 381.143C419.264 384.836 433.826 400.004 437.771 403.289C438.888 404.259 440.005 405.228 441.156 406.227C454.972 417.879 469.376 424.364 487.033 427.927C488.77 428.325 488.77 428.325 490.542 428.731C516.357 433.192 542.755 425.209 563.874 410.337C584.058 394.424 601.669 371.352 605.841 345.316C608.216 316.737 608.526 296.386 589.903 268.502C589.33 267.544 588.756 266.585 588.165 265.598C586.561 262.946 586.561 262.946 584.107 259.806C585.093 259.806 583.151 259.806 584.107 259.806C584.415 260.607 583.809 259.029 584.107 259.806C584.107 259.806 575.132 247.698 570.855 244.211C548.398 220.675 512.516 216.81 480.966 223.573C473.942 225.672 467.364 228.641 460.772 231.816C459.855 232.254 458.938 232.692 457.992 233.144C443.184 240.705 431.517 252.639 420.034 264.426C418.673 265.808 417.311 267.188 415.947 268.568C410.226 274.361 404.523 280.171 398.832 285.992C396.002 288.886 393.165 291.771 390.319 294.648C387.652 297.346 378.438 307.63 378.438 307.63L344.39 274.295L347.817 271.203C348.919 270.127 350.021 269.052 351.156 267.944C352.307 266.843 353.457 265.742 354.642 264.607C356.932 262.404 359.215 260.194 361.491 257.978C361.491 257.978 375.949 243.76 379.16 240.557C380.383 239.337 381.607 238.117 382.867 236.86C384.764 234.946 384.764 234.946 386.699 232.994C387.986 231.718 389.272 230.442 390.598 229.127C391.814 227.907 393.03 226.687 394.283 225.43C395.957 223.75 395.957 223.75 397.666 222.036C400.417 219.48 397.666 222.036 402.999 216.327C402.999 216.327 410.513 205.899 411.118 205.008C418.327 194.246 422.834 183.935 426.18 171.398C426.432 170.523 426.683 169.648 426.942 168.747C428.315 162.461 428.833 156.413 428.866 150.005C428.896 148.575 428.835 151.478 428.866 150.005C429.001 124.303 416.491 96.2021 399.178 77.6616C391.259 69.8709 382.519 63.3353 372.572 58.3505C371.364 57.7377 370.155 57.1249 368.91 56.4936C334.473 39.8733 287.429 45.64 259.56 72.8437ZM119.02 226.472C117.598 226.965 116.177 227.458 114.713 227.966C103.673 232.184 93.4786 237.896 84.2468 245.313C84.2468 245.313 81.4198 248.208 81.3491 248.212C81.3491 248.212 75.4266 254.127 75.5536 254.009C75.5536 254.009 73.2093 256.179 72.6558 256.908C70.4415 259.822 68.4529 262.7 66.4981 265.785C65.919 266.695 65.3399 267.605 64.7433 268.543C53.6391 286.469 47.4393 304.445 47.5722 325.569C47.5794 326.911 47.5865 328.254 47.5938 329.637C47.76 339.329 48.7927 347.838 52.3716 356.911C52.8815 358.314 53.3914 359.717 53.9167 361.162C64.6602 389.005 84.6511 410.199 111.747 422.668C115.59 424.148 119.398 425.381 123.366 426.478C124.485 426.801 125.604 427.125 126.756 427.458C154.002 434.124 180.82 427.319 204.503 413.434C210.617 409.492 210.617 409.492 216.094 404.738C216.094 405.724 216.094 403.782 216.094 404.738L218.992 401.84C218.992 402.825 218.992 400.883 218.992 401.84L221.89 398.941C221.89 399.927 221.89 397.985 221.89 398.941L227.685 393.144C227.685 393.144 235.528 385.758 237.827 382.999L240.725 380.1L243.693 377.197L246.52 374.303C246.467 374.357 252.316 368.505 252.316 368.505L255.008 365.607L263.907 356.911C263.907 357.896 263.907 355.954 263.907 356.911L279.191 341.689L311.066 375.023C312.088 376.129 310.013 373.884 311.066 375.023C311.066 375.023 308.48 377.883 304.76 381.548C303.628 382.671 302.496 383.793 301.329 384.95C300.104 386.152 298.878 387.354 297.616 388.592C296.354 389.843 295.092 391.094 293.793 392.383C288.397 397.733 282.985 403.066 277.574 408.4C273.623 412.299 269.682 416.207 265.741 420.115C263.92 421.9 263.92 421.9 262.063 423.721C239.911 445.695 226.39 470.831 225.874 502.477C226.391 532.514 237.485 555.699 258.111 577.208C258.885 578.039 259.658 578.87 260.454 579.727C262.019 581.371 263.676 582.927 265.356 584.454C266.312 584.454 264.371 584.454 265.356 584.454L268.253 587.353C289.972 604.076 318.025 608.535 344.631 605.282C367.595 601.556 387.784 588.804 402.999 571.41C402.999 572.396 402.999 570.454 402.999 571.41C402.999 571.41 405.243 569.232 405.896 568.512C408.162 565.475 410.219 562.47 412.235 559.272C412.822 558.346 413.408 557.42 414.013 556.466C428.256 533.487 431.491 505.921 426.14 479.499C420.746 457.13 396.461 423.32 378.368 409.086L323.763 354.284C324.595 355.177 322.957 353.417 323.763 354.284C321.931 352.239 310.399 340.768 310.399 340.768C309.233 339.602 308.068 338.436 306.867 337.235C305.605 335.988 304.343 334.74 303.043 333.455C301.746 332.162 300.449 330.868 299.112 329.536C295.664 326.1 292.21 322.67 288.752 319.244C285.254 315.774 281.764 312.297 278.274 308.82C273.151 303.719 268.024 298.621 262.892 293.529C260.815 291.467 258.739 289.405 256.663 287.343C255.879 286.566 255.095 285.788 254.288 284.987C251.127 281.842 248.144 278.676 245.343 275.205C241.235 270.333 236.678 266.264 231.834 262.139C228.339 259.119 225.155 255.826 221.89 252.56C198.848 230.339 175.041 221.387 143.266 221.812C134.738 222.084 127.067 223.64 119.02 226.472Z" fill="#0A6C74"/>
</svg>
