<svg width="315" height="281" viewBox="0 0 315 281" fill="none" xmlns="http://www.w3.org/2000/svg">
<path d="M83.8979 148.687H16.0251C11.2169 148.687 7.28296 144.753 7.28296 139.945V106.715C7.28296 101.907 11.2169 97.9727 16.0251 97.9727H83.8972C88.7054 97.9727 92.6394 101.907 92.6394 106.715V139.945C92.6401 144.753 88.7061 148.687 83.8979 148.687Z" fill="#BDBDBD"/>
<path d="M314.887 250.457V92.0654C314.887 89.4836 312.794 87.3906 310.212 87.3906H122.863C120.281 87.3906 118.188 89.4836 118.188 92.0654V250.458C118.188 253.039 120.281 255.132 122.863 255.132H310.212C312.794 255.132 314.887 253.039 314.887 250.457Z" fill="#BDBDBD"/>
<path d="M76.615 139.784H8.74218C3.93398 139.784 0 135.85 0 131.042V97.8123C0 93.0042 3.93398 89.0703 8.74218 89.0703H76.6142C81.4224 89.0703 85.3564 93.0042 85.3564 97.8123V131.042C85.3571 135.85 81.4232 139.784 76.615 139.784Z" fill="white"/>
<path d="M21.2018 105.889C20.5038 105.889 19.8788 105.718 19.3269 105.377C18.7749 105.028 18.3407 104.525 18.0241 103.868C17.7076 103.21 17.5493 102.415 17.5493 101.482C17.5493 100.548 17.7076 99.7527 18.0241 99.0952C18.3407 98.4378 18.7749 97.9386 19.3269 97.5977C19.8788 97.2487 20.5038 97.0742 21.2018 97.0742C21.908 97.0742 22.533 97.2487 23.0768 97.5977C23.6287 97.9386 24.063 98.4378 24.3795 99.0952C24.6961 99.7527 24.8544 100.548 24.8544 101.482C24.8544 102.415 24.6961 103.21 24.3795 103.868C24.063 104.525 23.6287 105.028 23.0768 105.377C22.533 105.718 21.908 105.889 21.2018 105.889ZM21.2018 104.221C21.5346 104.221 21.8228 104.128 22.0663 103.941C22.3179 103.754 22.5127 103.458 22.6507 103.052C22.7968 102.646 22.8698 102.123 22.8698 101.482C22.8698 100.84 22.7968 100.317 22.6507 99.911C22.5127 99.5051 22.3179 99.2089 22.0663 99.0222C21.8228 98.8355 21.5346 98.7422 21.2018 98.7422C20.8772 98.7422 20.589 98.8355 20.3374 99.0222C20.0939 99.2089 19.8991 99.5051 19.753 99.911C19.615 100.317 19.546 100.84 19.546 101.482C19.546 102.123 19.615 102.646 19.753 103.052C19.8991 103.458 20.0939 103.754 20.3374 103.941C20.589 104.128 20.8772 104.221 21.2018 104.221Z" fill="#8EA2BD"/>
<path d="M27.08 105.743V97.9508L27.9323 98.803H25.3755V97.2203H29.0524V105.743H27.08Z" fill="#8EA2BD"/>
<path d="M31.653 101.469C31.3283 101.469 31.0483 101.36 30.8129 101.141C30.5857 100.913 30.472 100.625 30.472 100.276C30.472 99.9272 30.5857 99.6472 30.8129 99.4361C31.0483 99.217 31.3283 99.1074 31.653 99.1074C31.9858 99.1074 32.2658 99.217 32.4931 99.4361C32.7204 99.6472 32.834 99.9272 32.834 100.276C32.834 100.625 32.7204 100.913 32.4931 101.141C32.2658 101.36 31.9858 101.469 31.653 101.469ZM31.653 105.84C31.3283 105.84 31.0483 105.731 30.8129 105.511C30.5857 105.284 30.472 104.996 30.472 104.647C30.472 104.298 30.5857 104.018 30.8129 103.807C31.0483 103.588 31.3283 103.478 31.653 103.478C31.9858 103.478 32.2658 103.588 32.4931 103.807C32.7204 104.018 32.834 104.298 32.834 104.647C32.834 104.996 32.7204 105.284 32.4931 105.511C32.2658 105.731 31.9858 105.84 31.653 105.84Z" fill="#8EA2BD"/>
<path d="M36.4831 105.889C35.8906 105.889 35.3021 105.812 34.7177 105.657C34.1333 105.495 33.6382 105.268 33.2323 104.976L33.9994 103.466C34.324 103.701 34.7015 103.888 35.1317 104.026C35.5618 104.164 35.9961 104.233 36.4344 104.233C36.9295 104.233 37.3191 104.136 37.6032 103.941C37.8873 103.746 38.0293 103.478 38.0293 103.137C38.0293 102.813 37.9035 102.557 37.6519 102.37C37.4003 102.184 36.9944 102.09 36.4344 102.09H35.5334V100.788L37.9076 98.0969L38.1267 98.803H33.6585V97.2203H39.6243V98.4987L37.2623 101.189L36.2639 100.617H36.8362C37.8832 100.617 38.6746 100.852 39.2103 101.323C39.746 101.794 40.0139 102.399 40.0139 103.137C40.0139 103.616 39.8881 104.067 39.6364 104.489C39.3848 104.903 38.9993 105.239 38.4798 105.499C37.9603 105.759 37.2948 105.889 36.4831 105.889Z" fill="#8EA2BD"/>
<path d="M44.5771 105.889C43.879 105.889 43.254 105.718 42.7021 105.377C42.1502 105.028 41.7159 104.525 41.3994 103.868C41.0828 103.21 40.9245 102.415 40.9245 101.482C40.9245 100.548 41.0828 99.7527 41.3994 99.0952C41.7159 98.4378 42.1502 97.9386 42.7021 97.5977C43.254 97.2487 43.879 97.0742 44.5771 97.0742C45.2832 97.0742 45.9082 97.2487 46.452 97.5977C47.004 97.9386 47.4382 98.4378 47.7547 99.0952C48.0713 99.7527 48.2296 100.548 48.2296 101.482C48.2296 102.415 48.0713 103.21 47.7547 103.868C47.4382 104.525 47.004 105.028 46.452 105.377C45.9082 105.718 45.2832 105.889 44.5771 105.889ZM44.5771 104.221C44.9098 104.221 45.198 104.128 45.4415 103.941C45.6931 103.754 45.8879 103.458 46.0259 103.052C46.172 102.646 46.245 102.123 46.245 101.482C46.245 100.84 46.172 100.317 46.0259 99.911C45.8879 99.5051 45.6931 99.2089 45.4415 99.0222C45.198 98.8355 44.9098 98.7422 44.5771 98.7422C44.2524 98.7422 43.9642 98.8355 43.7126 99.0222C43.4691 99.2089 43.2743 99.5051 43.1282 99.911C42.9902 100.317 42.9212 100.84 42.9212 101.482C42.9212 102.123 42.9902 102.646 43.1282 103.052C43.2743 103.458 43.4691 103.754 43.7126 103.941C43.9642 104.128 44.2524 104.221 44.5771 104.221Z" fill="#8EA2BD"/>
<path d="M49.7236 105.743V97.2203H53.4126C54.1756 97.2203 54.8331 97.3461 55.385 97.5977C55.9369 97.8412 56.3631 98.1943 56.6634 98.6569C56.9637 99.1196 57.1139 99.6715 57.1139 100.313C57.1139 100.946 56.9637 101.494 56.6634 101.956C56.3631 102.419 55.9369 102.776 55.385 103.028C54.8331 103.271 54.1756 103.393 53.4126 103.393H50.8193L51.696 102.504V105.743H49.7236ZM51.696 102.723L50.8193 101.786H53.3031C53.9118 101.786 54.3664 101.656 54.6667 101.396C54.967 101.137 55.1172 100.775 55.1172 100.313C55.1172 99.842 54.967 99.4767 54.6667 99.217C54.3664 98.9573 53.9118 98.8274 53.3031 98.8274H50.8193L51.696 97.8899V102.723Z" fill="#8EA2BD"/>
<path d="M58.522 105.743V97.2203H60.1535L63.7816 103.235H62.9172L66.4845 97.2203H68.1038L68.1281 105.743H66.2775L66.2653 100.057H66.6062L63.7573 104.842H62.8685L59.9587 100.057H60.3726V105.743H58.522Z" fill="#8EA2BD"/>
<path d="M43.7316 121.016H13.1543C12.2036 121.016 11.4336 120.245 11.4336 119.295C11.4336 118.344 12.2044 117.574 13.1543 117.574H43.7316C44.6823 117.574 45.4523 118.345 45.4523 119.295C45.4523 120.245 44.6815 121.016 43.7316 121.016Z" fill="#364F85"/>
<path d="M52.3075 121.016H50.2254C49.2747 121.016 48.5046 120.245 48.5046 119.295C48.5046 118.344 49.2754 117.574 50.2254 117.574H52.3075C53.2582 117.574 54.0282 118.345 54.0282 119.295C54.029 120.245 53.2582 121.016 52.3075 121.016Z" fill="#364F85"/>
<path d="M43.7316 128.324H13.1543C12.2036 128.324 11.4336 127.553 11.4336 126.604C11.4336 125.653 12.2044 124.883 13.1543 124.883H43.7316C44.6823 124.883 45.4523 125.654 45.4523 126.604C45.4523 127.554 44.6815 128.324 43.7316 128.324Z" fill="#364F85"/>
<path d="M52.3075 128.324H50.2254C49.2747 128.324 48.5046 127.553 48.5046 126.604C48.5046 125.653 49.2754 124.883 50.2254 124.883H52.3075C53.2582 124.883 54.0282 125.654 54.0282 126.604C54.029 127.554 53.2582 128.324 52.3075 128.324Z" fill="#364F85"/>
<path d="M73.9249 121.07C73.9249 124.306 71.3016 129.703 68.0655 129.703C64.8294 129.703 62.2061 124.306 62.2061 121.07C62.2061 117.834 64.8294 115.211 68.0655 115.211C71.3016 115.21 73.9249 117.834 73.9249 121.07Z" fill="#0A6C74"/>
<path d="M71.0056 121.074C71.0056 122.699 69.6884 124.016 68.0638 124.016C66.4392 124.016 65.1221 122.699 65.1221 121.074C65.1221 119.45 66.4392 118.133 68.0638 118.133C69.6884 118.133 71.0056 119.449 71.0056 121.074Z" fill="white"/>
<path d="M12.3533 101.989V104.445C12.3533 105.377 11.243 105.861 10.5597 105.228L9.7124 104.441L7.91443 102.772C7.45984 102.349 7.45984 101.629 7.91443 101.208L9.7124 99.5387L10.5597 98.7519C11.243 98.1181 12.3533 98.6026 12.3533 99.5343V101.989Z" fill="#8EA2BD"/>
<path d="M73.0051 101.99V99.5343C73.0051 98.6025 74.1154 98.1181 74.7987 98.7519L75.646 99.5387L77.444 101.208C77.8986 101.63 77.8986 102.35 77.444 102.772L75.646 104.441L74.7987 105.228C74.1154 105.861 73.0051 105.377 73.0051 104.445V101.99Z" fill="#8EA2BD"/>
<path d="M2.13232 279.996H314.006" stroke="#3C0000" stroke-miterlimit="10"/>
<path d="M301.735 238.476V80.085C301.735 77.5031 299.642 75.4102 297.06 75.4102H109.712C107.13 75.4102 105.037 77.5031 105.037 80.085V238.477C105.037 241.059 107.13 243.152 109.712 243.152H297.06C299.642 243.152 301.735 241.059 301.735 238.476Z" fill="#DEDEDE"/>
<path d="M262.395 147.297H144.376V171.26H262.395V147.297Z" fill="#364F85"/>
<path d="M301.735 99.3735H105.036V80.1665C105.036 77.5396 107.166 75.4102 109.793 75.4102H296.979C299.606 75.4102 301.735 77.5396 301.735 80.1665V99.3735Z" fill="#0A6C74"/>
<path d="M301.735 99.3711H105.036" stroke="white" stroke-miterlimit="10"/>
<path d="M262.395 243.15V99.3711" stroke="white" stroke-miterlimit="10"/>
<path d="M223.056 243.15V99.3711" stroke="white" stroke-miterlimit="10"/>
<path d="M183.716 243.15V99.3711" stroke="white" stroke-miterlimit="10"/>
<path d="M144.376 243.15V99.3711" stroke="white" stroke-miterlimit="10"/>
<path d="M301.735 123.34H105.036" stroke="white" stroke-miterlimit="10"/>
<path d="M301.735 147.297H105.036" stroke="white" stroke-miterlimit="10"/>
<path d="M301.735 171.258H105.036" stroke="white" stroke-miterlimit="10"/>
<path d="M301.735 195.227H105.036" stroke="white" stroke-miterlimit="10"/>
<path d="M301.735 219.188H105.036" stroke="white" stroke-miterlimit="10"/>
<path d="M181.995 85.279H184.78V86.3566H181.995V85.279ZM182.095 88.4702H180.752V82.668H185.137V83.7455H182.095V88.4702Z" fill="white"/>
<path d="M187.281 85.0055H190.074V86.0499H187.281V85.0055ZM187.381 87.3927H190.539V88.4702H186.046V82.668H190.431V83.7455H187.381V87.3927Z" fill="white"/>
<path d="M191.607 88.4702V82.668H194.442C195.171 82.668 195.719 82.8061 196.083 83.0824C196.453 83.3587 196.639 83.7234 196.639 84.1766C196.639 84.4805 196.564 84.7457 196.415 84.9723C196.266 85.1933 196.061 85.3646 195.801 85.4862C195.542 85.6078 195.243 85.6686 194.906 85.6686L195.064 85.3287C195.428 85.3287 195.752 85.3895 196.034 85.5111C196.315 85.6271 196.534 85.8012 196.688 86.0333C196.849 86.2654 196.929 86.55 196.929 86.887C196.929 87.3844 196.733 87.774 196.34 88.0558C195.948 88.3321 195.37 88.4702 194.608 88.4702H191.607ZM192.942 87.459H194.508C194.856 87.459 195.119 87.4037 195.296 87.2932C195.478 87.1772 195.569 86.9948 195.569 86.7461C195.569 86.503 195.478 86.3234 195.296 86.2074C195.119 86.0858 194.856 86.025 194.508 86.025H192.842V85.0469H194.276C194.602 85.0469 194.851 84.9916 195.022 84.8811C195.199 84.7651 195.287 84.591 195.287 84.3589C195.287 84.1324 195.199 83.9638 195.022 83.8533C194.851 83.7372 194.602 83.6792 194.276 83.6792H192.942V87.459Z" fill="white"/>
<path d="M197.945 88.4702V82.668H200.457C200.976 82.668 201.424 82.7536 201.8 82.9249C202.176 83.0907 202.466 83.3311 202.67 83.6461C202.875 83.961 202.977 84.3368 202.977 84.7734C202.977 85.2044 202.875 85.5774 202.67 85.8924C202.466 86.2018 202.176 86.4394 201.8 86.6052C201.424 86.771 200.976 86.8539 200.457 86.8539H198.691L199.288 86.2654V88.4702H197.945ZM201.634 88.4702L200.183 86.3648H201.617L203.085 88.4702H201.634ZM199.288 86.4146L198.691 85.7846H200.382C200.797 85.7846 201.106 85.6962 201.311 85.5194C201.515 85.337 201.617 85.0883 201.617 84.7734C201.617 84.4529 201.515 84.2042 201.311 84.0274C201.106 83.8505 200.797 83.7621 200.382 83.7621H198.691L199.288 83.1239V86.4146Z" fill="white"/>
<path d="M206.619 88.5697C205.795 88.5697 205.152 88.3404 204.687 87.8817C204.223 87.4231 203.991 86.7682 203.991 85.9172V82.668H205.334V85.8675C205.334 86.4201 205.447 86.818 205.674 87.0611C205.9 87.3043 206.218 87.4258 206.627 87.4258C207.036 87.4258 207.354 87.3043 207.58 87.0611C207.807 86.818 207.92 86.4201 207.92 85.8675V82.668H209.246V85.9172C209.246 86.7682 209.014 87.4231 208.55 87.8817C208.086 88.3404 207.442 88.5697 206.619 88.5697Z" fill="white"/>
<path d="M209.689 88.4702L212.276 82.668H213.602L216.196 88.4702H214.787L212.665 83.3477H213.196L211.065 88.4702H209.689ZM210.982 87.2269L211.339 86.2074H214.323L214.688 87.2269H210.982Z" fill="white"/>
<path d="M216.798 88.4702V82.668H219.31C219.829 82.668 220.277 82.7536 220.653 82.9249C221.028 83.0907 221.319 83.3311 221.523 83.6461C221.728 83.961 221.83 84.3368 221.83 84.7734C221.83 85.2044 221.728 85.5774 221.523 85.8924C221.319 86.2018 221.028 86.4394 220.653 86.6052C220.277 86.771 219.829 86.8539 219.31 86.8539H217.544L218.141 86.2654V88.4702H216.798ZM220.487 88.4702L219.036 86.3648H220.47L221.938 88.4702H220.487ZM218.141 86.4146L217.544 85.7846H219.235C219.65 85.7846 219.959 85.6962 220.164 85.5194C220.368 85.337 220.47 85.0883 220.47 84.7734C220.47 84.4529 220.368 84.2042 220.164 84.0274C219.959 83.8505 219.65 83.7621 219.235 83.7621H217.544L218.141 83.1239V86.4146Z" fill="white"/>
<path d="M224.255 88.4702V86.0996L224.562 86.9119L222.009 82.668H223.434L225.391 85.9255H224.57L226.535 82.668H227.853L225.299 86.9119L225.598 86.0996V88.4702H224.255Z" fill="white"/>
<path d="M155.382 85.1339V87.5897C155.382 88.5214 154.272 89.0059 153.589 88.3721L152.742 87.5853L150.944 85.9163C150.488 85.4938 150.488 84.774 150.944 84.3522L152.742 82.6832L153.589 81.8964C154.272 81.2626 155.382 81.7471 155.382 82.6788V85.1339Z" fill="white"/>
<path d="M251.6 85.1346V82.6788C251.6 81.7471 252.71 81.2626 253.393 81.8964L254.241 82.6832L256.039 84.3522C256.494 84.7747 256.494 85.4945 256.039 85.9163L254.241 87.5853L253.393 88.3721C252.71 89.0059 251.6 88.5214 251.6 87.5896V85.1346Z" fill="white"/>
<path d="M284.373 213.809L271.345 200.781" stroke="#E5484D" stroke-width="4" stroke-miterlimit="10" stroke-linecap="round" stroke-linejoin="round"/>
<path d="M284.373 200.781L271.345 213.809" stroke="#E5484D" stroke-width="4" stroke-miterlimit="10" stroke-linecap="round" stroke-linejoin="round"/>
<path d="M244.158 213.809L231.13 200.781" stroke="#E5484D" stroke-width="4" stroke-miterlimit="10" stroke-linecap="round" stroke-linejoin="round"/>
<path d="M244.158 200.781L231.13 213.809" stroke="#E5484D" stroke-width="4" stroke-miterlimit="10" stroke-linecap="round" stroke-linejoin="round"/>
<path d="M166.609 110.977L122.526 111.16C120.12 111.17 118.178 113.129 118.188 115.535L118.246 129.331C118.256 131.737 120.214 133.68 122.62 133.669L122.656 142.242L130.753 133.636L166.703 133.486C169.11 133.476 171.052 131.517 171.042 129.111L170.984 115.315C170.974 112.909 169.016 110.966 166.609 110.977Z" fill="#2FAE8E"/>
<path d="M154.901 121.691C154.901 120.069 156.216 118.754 157.838 118.754C159.46 118.754 160.775 120.069 160.775 121.691C160.775 123.314 159.46 124.628 157.838 124.628C156.216 124.628 154.901 123.313 154.901 121.691Z" fill="white"/>
<path d="M141.681 121.691C141.681 120.069 142.996 118.754 144.618 118.754C146.24 118.754 147.555 120.069 147.555 121.691C147.555 123.314 146.24 124.628 144.618 124.628C142.996 124.628 141.681 123.313 141.681 121.691Z" fill="white"/>
<path d="M128.461 121.691C128.461 120.069 129.776 118.754 131.398 118.754C133.02 118.754 134.335 120.069 134.335 121.691C134.335 123.314 133.02 124.628 131.398 124.628C129.776 124.628 128.461 123.313 128.461 121.691Z" fill="white"/>
<path d="M70.0534 62.0552C82.1005 62.0552 91.8666 52.2893 91.8666 40.2425C91.8666 28.1956 82.1005 18.4297 70.0534 18.4297C58.0063 18.4297 48.2402 28.1956 48.2402 40.2425C48.2402 52.2893 58.0063 62.0552 70.0534 62.0552Z" fill="#BDBDBD"/>
<path d="M70.4866 26.1328V40.2431L58.9761 48.0563" stroke="#3C0000" stroke-miterlimit="10"/>
<path d="M90.172 60.3569C101.283 49.2457 101.283 31.2309 90.172 20.1196C79.0606 9.00841 61.0454 9.00841 49.934 20.1196C38.8225 31.2309 38.8225 49.2457 49.934 60.3569C61.0454 71.4682 79.0606 71.4682 90.172 60.3569Z" stroke="#DEDEDE" stroke-width="2" stroke-miterlimit="10"/>
<path d="M28.9993 251.555C28.9993 251.555 26.7467 260.397 27.2632 264.255C27.7798 268.112 44.7643 252.79 44.7643 252.79L28.9993 251.555Z" fill="#FE7A63"/>
<path d="M130.345 200.32C139.498 203.82 142.597 211.81 146.583 224.374C151.242 239.061 154.85 251.458 154.85 251.458L130.345 253.58V200.32Z" fill="#CCCCCC"/>
<path d="M130.345 200.326L105.65 189.43H85.2327L54.8726 200.326V279.648L130.345 279.599V200.326Z" fill="#CCCCCC"/>
<path d="M89.1956 207.934V225.27H94.8029L94.1961 207.844L89.1956 207.934Z" fill="#BDBDBD"/>
<path d="M54.8723 200.32C45.72 203.82 40.0346 211.81 36.0489 224.374C31.3901 239.061 27.7825 251.458 27.7825 251.458L54.873 253.58L54.8723 200.32Z" fill="#CCCCCC"/>
<path d="M54.8723 253.586L26.0063 251.559L27.7817 241.055L54.8723 243.422V253.586Z" fill="white"/>
<path d="M71.5087 159.853C71.5087 159.853 68.0192 144.358 68.8198 139.125C69.6197 133.891 74.8781 133.891 74.8781 133.891C74.8781 133.891 73.3905 131.524 75.976 128.658C77.7441 126.697 94.4934 124.421 99.7511 119.935C105.009 115.449 102.965 125.184 102.965 125.184C102.965 125.184 106.823 121.929 109.031 122.178C111.239 122.428 109.031 128.409 109.031 128.409C109.031 128.409 114.141 125.916 115.182 127.163C116.224 128.409 112.48 132.646 110.014 135.989C110.014 135.989 113.145 134.945 115.182 137.907C117.22 140.87 114.535 156.404 113.482 159.647C112.428 162.891 74.519 164.88 71.5087 159.853Z" fill="#441B15"/>
<path d="M75.9746 157.725C75.9746 157.725 70.207 153.798 68.8782 158.513C67.7475 162.526 73.1793 164.534 75.9746 161.954V157.725Z" fill="#FE7A63"/>
<path d="M71.5088 157.895L74.8774 161.407" stroke="#41313B" stroke-width="0.5697" stroke-miterlimit="10"/>
<path d="M71.5088 160.976L73.3898 159.855" stroke="#41313B" stroke-width="0.5697" stroke-miterlimit="10"/>
<path d="M107.932 157.725C107.932 157.725 113.7 153.798 115.029 158.513C116.159 162.526 110.727 164.534 107.932 161.954V157.725Z" fill="#FE7A63"/>
<path d="M112.398 157.895L109.03 161.407" stroke="#41313B" stroke-width="0.5697" stroke-miterlimit="10"/>
<path d="M112.398 160.976L110.517 159.855" stroke="#41313B" stroke-width="0.5697" stroke-miterlimit="10"/>
<path d="M79.6412 183.297C79.6412 183.297 70.7285 189.958 68.9874 191.788C67.2455 193.619 79.5596 213.535 79.5596 213.535L86.2619 207.877L92.0004 209.618L78.496 191.3L79.6412 183.297Z" fill="#BDBDBD"/>
<path d="M105.478 183.297C105.478 183.297 113.27 189.958 115.012 191.788C116.753 193.619 104.439 213.535 104.439 213.535L97.737 207.877L91.9985 209.618L107.179 191.3L105.478 183.297Z" fill="#BDBDBD"/>
<path d="M103.27 169.211H81.6586L78.4954 191.305L91.9998 209.622L107.18 191.305L103.27 169.211Z" fill="#E8705A"/>
<path d="M107.863 145.455C105.993 139.631 99.849 140.712 92 140.712C84.151 140.712 76.8345 140.497 75.5472 146.477C70.857 168.254 81.2041 183.294 91.8339 183.294C102.316 183.294 115.181 168.254 107.863 145.455Z" fill="#FE7A63"/>
<path d="M86.825 171.621H98.1104C98.1104 171.621 96.845 180.556 92.2604 180.556C88.1188 180.557 86.825 171.621 86.825 171.621Z" fill="#F4F4F4"/>
<path d="M87.4035 157.366C87.4065 158.521 86.8987 159.459 86.2685 159.46C85.6384 159.462 85.1255 158.527 85.1226 157.372C85.1197 156.216 85.6274 155.279 86.2576 155.277C86.887 155.276 87.4006 156.211 87.4035 157.366Z" fill="#0D0000"/>
<path d="M78.2449 164.085C78.1808 162.861 84.4081 162.71 84.4576 164.085C84.5079 165.459 78.3447 165.987 78.2449 164.085Z" fill="#E85B41"/>
<path d="M96.4068 157.366C96.4038 158.521 96.9116 159.459 97.5418 159.46C98.1712 159.462 98.6848 158.527 98.6877 157.372C98.6906 156.216 98.1829 155.279 97.5527 155.277C96.9225 155.276 96.4097 156.211 96.4068 157.366Z" fill="#0D0000"/>
<path d="M105.422 164.085C105.486 162.861 99.2591 162.71 99.2095 164.085C99.16 165.459 105.322 165.987 105.422 164.085Z" fill="#E85B41"/>
<path d="M81.0377 151.454C80.9277 150.43 87.6847 150.058 87.4581 151.597C87.2308 153.136 81.1805 152.793 81.0377 151.454Z" fill="#441B15"/>
<path d="M102.963 151.454C103.073 150.43 96.3156 150.058 96.5422 151.597C96.7688 153.136 102.82 152.793 102.963 151.454Z" fill="#441B15"/>
<path d="M87.4764 138.919C87.4764 138.919 80.4163 141.876 80.562 143.456C80.7085 145.036 95.5884 147.159 100.397 141.312C105.205 135.466 87.4764 138.919 87.4764 138.919Z" fill="#441B15"/>
<path d="M92.0846 159.586C92.0846 159.586 91.2534 167.399 91.1572 168.072C91.0611 168.744 94.5201 168.84 94.5201 168.84" stroke="#41313B" stroke-width="0.5697" stroke-miterlimit="10"/>
<path d="M57.1299 179.426C57.1299 179.426 57.9575 176.572 58.4106 175.227C58.8645 173.882 64.332 173.173 64.6605 173.647C64.9891 174.12 63.4053 179.679 57.1299 179.426Z" fill="#FE7A63"/>
<path d="M63.0522 161.185C61.2076 162.475 59.8934 164.236 59.1146 166.663C59.0578 167.094 58.8836 167.782 58.888 168.47C58.8887 168.616 58.8938 168.76 58.8968 168.905C58.896 168.916 58.8938 168.927 58.8938 168.939C58.8953 169.021 58.9004 169.101 58.9019 169.183C58.9084 169.46 58.9179 169.735 58.9303 170.009C58.9368 170.15 58.9427 170.29 58.9499 170.43C58.9674 170.742 58.9893 171.051 59.0133 171.36C59.0192 171.435 59.0228 171.513 59.0294 171.588C59.0294 171.593 59.0315 171.596 59.0315 171.601C59.1037 172.432 59.2035 173.249 59.3295 174.051C59.3302 174.059 59.3302 174.067 59.3317 174.076C59.3448 174.161 59.3616 174.244 59.3754 174.328C59.4125 174.553 59.4512 174.779 59.4927 175.002C59.5029 175.059 59.5116 175.116 59.5226 175.173C59.551 175.322 59.5823 175.468 59.6129 175.616C59.6296 175.697 59.6457 175.779 59.6624 175.86C59.7265 176.158 59.7936 176.455 59.865 176.749C59.8788 176.804 59.8934 176.86 59.9072 176.915C59.967 177.156 60.0296 177.394 60.0944 177.631C60.1207 177.726 60.1476 177.821 60.1746 177.915C60.2329 178.119 60.2933 178.323 60.356 178.527C60.3837 178.618 60.4113 178.709 60.4405 178.799C60.5213 179.053 60.6044 179.305 60.6911 179.555C60.702 179.586 60.7122 179.618 60.7231 179.65C60.8215 179.93 60.9242 180.207 61.0306 180.483C61.0619 180.564 61.0947 180.644 61.1267 180.725C61.2054 180.924 61.2856 181.122 61.3686 181.318C61.4065 181.409 61.4444 181.498 61.4837 181.588C61.5711 181.791 61.6615 181.993 61.7533 182.192C61.7853 182.262 61.8166 182.332 61.8487 182.402C61.9733 182.667 62.1015 182.93 62.2334 183.19C62.2603 183.244 62.2895 183.297 62.3164 183.35C62.4242 183.558 62.5335 183.766 62.6464 183.972C62.6923 184.057 62.7397 184.14 62.7863 184.224C62.8883 184.406 62.9917 184.587 63.0981 184.766C63.1447 184.846 63.1906 184.924 63.238 185.004C63.3779 185.236 63.5206 185.467 63.6671 185.696C63.6795 185.715 63.6904 185.734 63.7028 185.753C63.8412 185.967 63.9818 186.18 64.126 186.391C64.1304 186.397 64.1362 186.402 64.1413 186.409C66.5556 189.941 69.7961 193.014 73.8583 195.62C75.0632 196.395 76.666 196.803 78.1142 196.897C80.4557 197.049 82.1458 196.631 83.3741 195.619C84.2105 194.935 84.8333 193.973 85.3032 192.73C85.5881 191.978 85.5218 191.413 84.9594 190.843C83.3304 189.188 81.724 187.513 80.1155 185.839C79.6427 185.348 79.1415 185.256 78.6293 185.407C78.4275 185.467 78.2221 185.565 78.0181 185.691C77.2626 186.156 76.5123 186.628 75.7699 187.11C75.4741 187.304 75.1776 187.497 74.8833 187.694C74.1074 188.214 73.4532 188.079 72.8019 187.467C68.9015 183.8 66.3844 179.369 65.3186 174.113C65.1299 173.185 65.355 172.527 66.2409 172.121C66.5505 171.979 66.8587 171.84 67.1683 171.698C67.9493 171.337 68.7295 170.972 69.4966 170.583C69.7298 170.464 69.9461 170.329 70.1224 170.167C70.4649 169.852 70.6528 169.433 70.5035 168.84C69.9075 166.479 69.3254 164.114 68.6873 161.765C68.5867 161.4 68.28 160.906 67.9682 160.815C66.705 160.442 65.4024 160.242 64.1916 160.624C63.8011 160.745 63.4194 160.928 63.0522 161.185Z" fill="#0A6C74"/>
<path d="M53.2953 194.773C53.2953 194.773 28.2657 257.015 27.2633 264.261C26.2608 271.506 38.8415 285.008 50.5539 271.954C58.0496 263.601 60.3903 200.026 60.3903 200.026L53.2953 194.773Z" fill="#FE7A63"/>
<path d="M53.2954 194.769C53.2954 194.769 56.6225 182.155 57.1303 179.427C57.6388 176.698 70.2669 177.299 71.0908 178.428C71.9148 179.559 69.3111 182.082 69.3111 182.082C69.3111 182.082 71.3196 183.601 70.7521 184.607C70.1846 185.613 68.8266 186.02 68.8266 186.02C68.8266 186.02 71.8842 186.834 71.3291 188.099C70.7732 189.365 66.467 188.771 66.467 188.771C66.467 188.771 65.329 199.162 60.3897 200.022L53.2954 194.769Z" fill="#FE7A63"/>
<path d="M60.5987 177.867L58.6477 178.188" stroke="#3C0000" stroke-miterlimit="10"/>
<path d="M77.78 270.321C77.78 270.321 71.4565 268.899 70.0337 268.741C68.6109 268.582 60.4203 276.713 60.2476 277.988C60.0749 279.264 61.8926 280.754 68.2948 277.04C74.697 273.325 77.78 270.321 77.78 270.321Z" fill="#E8705A"/>
<path d="M87.8164 271.716L130.345 261.676V253.581L152.396 251.672C152.396 251.672 155.971 270.083 153.168 277.844C152.118 280.75 88.7453 279.262 88.7453 279.262L87.8164 271.716Z" fill="#FE7A63"/>
<path d="M87.8171 271.719C87.8171 271.719 77.4642 269.382 75.5671 269.259C73.6701 269.137 62.9208 276.882 63.3951 278.621C63.8694 280.36 71.4576 278.937 74.4605 274.985C74.4605 274.985 79.0247 281.229 88.746 279.264L87.8171 271.719Z" fill="#FE7A63"/>
<path d="M130.345 253.586L157.093 251.545L154.85 241.055L130.345 243.596V253.586Z" fill="white"/>
<path d="M130.345 261.679C130.345 261.679 134.165 260.492 136.782 260.866C139.398 261.239 140.395 263.483 140.395 263.483" stroke="#3C0000" stroke-miterlimit="10"/>
<path d="M130.345 253.584L129.43 216.559" stroke="#3C0000" stroke-miterlimit="10"/>
<path d="M31.2512 251.73L29.4226 256.935" stroke="#3C0000" stroke-miterlimit="10"/>
</svg>
