<svg width="371" height="205" viewBox="0 0 371 205" fill="none" xmlns="http://www.w3.org/2000/svg">
<path d="M11.0234 204.336H361.533L336.158 58.1817C331.74 32.7412 307.129 16.0168 281.85 21.2764L62.0863 66.9958C4.67135 76.712 19.3255 163.589 11.0234 204.336Z" fill="#F9FBFC"/>
<g opacity="0.36">
<path d="M234.902 130.955C227.744 114.135 226.352 71.8233 198.111 79.8806C170.17 88.875 192.593 124.92 195.996 142.79L234.902 130.955Z" fill="#CBCBCB"/>
<path d="M195.894 144.195C197.848 162.37 186.865 203.255 216.227 203.767C245.578 203.293 234.616 162.284 236.561 144.195H195.894Z" fill="#CBCBCB"/>
</g>
<path d="M244.505 123.837L201.492 136.922C197.711 117.071 172.938 77.3608 203.83 67.3718C235.026 58.429 236.628 105.33 244.505 123.837Z" fill="#0A6C74"/>
<path d="M201.378 138.477H246.337C244.177 158.568 256.32 203.77 223.857 204.335C191.41 203.812 203.528 158.473 201.378 138.477Z" fill="#2FAE8E"/>
<path d="M251.561 140.284C251.04 132.832 240.577 129.913 236.234 135.904C233.713 130.551 225.201 132.453 225.302 138.472C225.151 143.139 231.005 145.964 234.572 143.053C234.832 144.274 235.351 145.399 236.07 146.368C231.073 154.74 237.694 166.254 247.542 165.983C262.379 166.149 265.549 144.525 251.561 140.284Z" fill="white"/>
<path d="M90.9285 128.523H58.1959C57.4419 128.523 56.832 127.912 56.832 127.158V116.997C56.832 116.244 57.4419 115.633 58.1959 115.633H90.9285C91.6825 115.633 92.2938 116.244 92.2938 116.997V127.158C92.2938 127.912 91.6825 128.523 90.9285 128.523Z" fill="#38385C"/>
<mask id="mask0_3873_18847" style="mask-type:luminance" maskUnits="userSpaceOnUse" x="56" y="115" width="37" height="14">
<path d="M90.9285 128.523H58.1959C57.4419 128.523 56.832 127.912 56.832 127.158V116.997C56.832 116.244 57.4419 115.633 58.1959 115.633H90.9285C91.6825 115.633 92.2938 116.244 92.2938 116.997V127.158C92.2938 127.912 91.6825 128.523 90.9285 128.523Z" fill="white"/>
</mask>
<g mask="url(#mask0_3873_18847)">
<path d="M94.0104 129.562H55.6055V124.578H94.0104V129.562Z" fill="#1A1A35"/>
</g>
<path d="M86.6433 204.329H62.2044C59.9914 204.329 58.1953 202.534 58.1953 200.32V128.52H90.651V200.32C90.651 202.534 88.8563 204.329 86.6433 204.329Z" fill="white"/>
<mask id="mask1_3873_18847" style="mask-type:luminance" maskUnits="userSpaceOnUse" x="58" y="128" width="33" height="77">
<path d="M86.6414 204.329H62.2024C59.9895 204.329 58.1934 202.534 58.1934 200.32V128.52H90.649V200.32C90.649 202.534 88.8543 204.329 86.6414 204.329Z" fill="white"/>
</mask>
<g mask="url(#mask1_3873_18847)">
<path d="M54.3652 142.697L93.8192 139.109V206.053H55.2997L54.3652 142.697Z" fill="#0A6C74"/>
</g>
<path d="M86.5521 184.622H61.9131C61.1871 184.622 60.5996 184.034 60.5996 183.308V150.325C60.5996 149.599 61.1871 149.012 61.9131 149.012H86.5521C87.2781 149.012 87.867 149.599 87.867 150.325V183.308C87.867 184.034 87.2781 184.622 86.5521 184.622Z" fill="#2FAE8E"/>
<path d="M85.0512 157.363H63.4141V153.824H85.0512V157.363Z" fill="white"/>
<path d="M85.0512 163H63.4141V159.461H85.0512V163Z" fill="white"/>
<path d="M85.0512 168.637H63.4141V165.098H85.0512V168.637Z" fill="white"/>
<path d="M85.0512 174.269H63.4141V170.73H85.0512V174.269Z" fill="white"/>
<path d="M77.7647 179.909H63.4141V176.371H77.7647V179.909Z" fill="white"/>
<path opacity="0.39" d="M120.385 203.993C114.164 203.459 101.231 206.79 101.022 196.908V139.093C101.022 139.093 99.8137 128.135 110.704 119.515C121.593 110.897 125.439 104.146 125.439 104.146C123.742 104.356 121.998 103.601 121.978 101.68V91.2449C121.978 89.8824 123.083 88.7773 124.446 88.7773H134.475V203.993H120.385Z" fill="#CBCBCB"/>
<path d="M174.5 122.713C168.664 117.408 157.451 112.779 158.472 103.316C150.151 103.316 138.704 103.316 130.384 103.316C131.409 112.771 120.174 117.424 114.355 122.714C108.554 127.224 105.16 134.161 105.16 141.51V198.631C105.16 201.781 107.713 204.334 110.863 204.334C118.193 204.162 142.618 204.459 149.502 204.334H177.992C181.142 204.334 183.695 201.781 183.695 198.631V141.51C183.695 134.161 180.301 127.224 174.5 122.713Z" fill="#2FAE8E"/>
<mask id="mask2_3873_18847" style="mask-type:luminance" maskUnits="userSpaceOnUse" x="105" y="103" width="79" height="102">
<path d="M174.5 122.713C168.664 117.408 157.451 112.779 158.472 103.316C150.151 103.316 138.704 103.316 130.384 103.316C131.409 112.771 120.174 117.424 114.355 122.714C108.554 127.224 105.16 134.161 105.16 141.51V198.631C105.16 201.781 107.713 204.334 110.863 204.334C118.193 204.162 142.618 204.459 149.502 204.334H177.992C181.142 204.334 183.695 201.781 183.695 198.631V141.51C183.695 134.161 180.301 127.224 174.5 122.713Z" fill="white"/>
</mask>
<g mask="url(#mask2_3873_18847)">
<path d="M187.78 140.311L102.738 135.508V208.276H186.279L187.78 140.311Z" fill="#0A6C74"/>
</g>
<path d="M183.695 177.912H105.16V142.699H183.695V177.912Z" fill="white"/>
<path d="M174.382 153.729H116.641V149.012H174.382V153.729Z" fill="#2FAE8E"/>
<path d="M174.382 161.229H116.641V156.512H174.382V161.229Z" fill="#2FAE8E"/>
<path d="M159.004 168.732H116.641V164.016H159.004V168.732Z" fill="#2FAE8E"/>
<path d="M174.381 163.883H169.18V158.684H164.203V163.883H159.004V168.861H164.203V174.061H169.18V168.861H174.381V163.883Z" fill="#E5484D"/>
<path d="M158.978 103.315H129.841C127.661 103.315 125.895 101.548 125.895 99.3689V90.9969C125.895 88.8175 127.661 87.0508 129.841 87.0508H158.978C161.158 87.0508 162.924 88.8175 162.924 90.9969C162.456 94.652 164.87 103.19 158.978 103.315Z" fill="#38385C"/>
<mask id="mask3_3873_18847" style="mask-type:luminance" maskUnits="userSpaceOnUse" x="125" y="87" width="39" height="17">
<path d="M158.978 103.315H129.841C127.661 103.315 125.895 101.548 125.895 99.3689V90.9969C125.895 88.8175 127.661 87.0508 129.841 87.0508H158.978C161.158 87.0508 162.924 88.8175 162.924 90.9969C162.456 94.652 164.87 103.19 158.978 103.315Z" fill="white"/>
</mask>
<g mask="url(#mask3_3873_18847)">
<path d="M164.8 104.608H124.352V98.6641H164.8V104.608Z" fill="#1A1A35"/>
</g>
<g opacity="0.5">
<path d="M247.177 1.9375H281.53C286.463 1.9375 290.501 5.97312 290.501 10.9068C290.498 19.4355 292.397 31.0122 279.981 30.4792V36.4774C279.981 38.3952 277.693 39.3912 276.288 38.0833L268.13 30.4792H247.177C242.244 30.4792 238.208 26.4436 238.208 21.5099C238.275 14.0024 236.283 2.33477 247.177 1.9375Z" fill="#CBCBCB"/>
<path d="M247.635 15.9719C247.689 19.1011 252.345 19.1011 252.398 15.9719C252.343 12.8427 247.688 12.8427 247.635 15.9719Z" fill="white"/>
<path d="M261.738 15.9719C261.791 19.1011 266.447 19.1011 266.5 15.9719C266.447 12.8427 261.791 12.8427 261.738 15.9719Z" fill="white"/>
<path d="M275.842 15.9719C275.895 19.1011 280.55 19.1011 280.603 15.9719C280.55 12.8427 275.895 12.8427 275.842 15.9719Z" fill="white"/>
</g>
<path opacity="0.39" d="M278.737 203.955L280.105 200.255L289.045 194.761V192.662H285.03L283.89 163.588C256.638 155.42 269.71 126.751 272.665 109.624C272.665 109.624 267.439 113.945 261.738 111.45C256.037 108.956 243.004 84.2767 243.004 84.2767L267.439 104.02L265.03 92.8334C265.03 92.8334 277.219 66.4416 277.902 65.6219C278.585 64.8022 289.526 60.0238 289.526 60.0238C289.526 60.0238 285.506 59.5902 284.745 57.6038C283.983 55.6189 286.119 40.3521 286.119 40.3521L294.594 39.8555V204.331L278.737 203.955Z" fill="white"/>
<path opacity="0.39" d="M294.486 165.553L321.528 193.473L325.377 191.59L327.444 193.473C327.444 193.473 323.574 200.421 323.964 200.958C324.354 201.495 326.303 203.646 326.303 203.646L335.367 192.966L305.62 160.734L294.486 165.553Z" fill="white"/>
<path d="M290.629 188.692L291.777 198.433C291.777 198.433 293.852 199.303 296.052 199.282C298.251 199.26 298.341 198.577 298.341 198.577L298.064 188.555L290.629 188.692Z" fill="#FFB6A6"/>
<mask id="mask4_3873_18847" style="mask-type:luminance" maskUnits="userSpaceOnUse" x="290" y="188" width="9" height="12">
<path d="M290.627 188.692L291.775 198.433C291.775 198.433 293.85 199.303 296.05 199.282C298.249 199.26 298.339 198.577 298.339 198.577L298.062 188.555L290.627 188.692Z" fill="white"/>
</mask>
<g mask="url(#mask4_3873_18847)">
<path d="M300.343 193.917C300.343 193.917 295.032 195.12 289.68 192.511L289.547 187.945H299.782L300.343 193.917Z" fill="#FF8370"/>
</g>
<path d="M298.341 198.573C298.341 198.573 292.616 200.362 291.66 196.555L283.895 200.339C282.616 200.962 281.856 202.323 281.997 203.742L297.726 203.955C299.855 204.009 298.406 199.818 298.341 198.573Z" fill="#38385C"/>
<path d="M323.965 186.45L330.815 193.472C330.815 193.472 332.991 192.896 334.72 191.537C336.451 190.179 336.105 189.583 336.105 189.583L329.774 181.809L323.965 186.45Z" fill="#FFB6A6"/>
<mask id="mask5_3873_18847" style="mask-type:luminance" maskUnits="userSpaceOnUse" x="323" y="181" width="14" height="13">
<path d="M323.967 186.45L330.817 193.472C330.817 193.472 332.993 192.896 334.722 191.537C336.453 190.179 336.107 189.583 336.107 189.583L329.776 181.809L323.967 186.45Z" fill="white"/>
</mask>
<g mask="url(#mask5_3873_18847)">
<path d="M335.596 186.2C335.596 186.2 332.122 190.392 326.288 191.586L323.398 188.049L331.51 181.809L335.596 186.2Z" fill="#FF8370"/>
</g>
<path d="M336.105 189.582C336.105 189.582 332.659 194.492 329.578 192.055L325.733 199.789C325.098 201.065 325.327 202.607 326.304 203.644L338.899 194.222C340.632 192.995 336.903 190.509 336.105 189.582Z" fill="#38385C"/>
<path d="M292.833 63.4993L292.16 57.9543C289.527 58.139 286.334 58.2579 286.399 54.7454L287.741 41.7461L301.171 41.7489C300.842 47.1735 301.269 58.0872 301.893 63.4993H292.833Z" fill="#FFB6A6"/>
<mask id="mask6_3873_18847" style="mask-type:luminance" maskUnits="userSpaceOnUse" x="286" y="41" width="16" height="23">
<path d="M292.833 63.4993L292.16 57.9543C289.527 58.139 286.334 58.2579 286.399 54.7454L287.741 41.7461L301.171 41.7489C300.842 47.1735 301.269 58.0872 301.893 63.4993H292.833Z" fill="white"/>
</mask>
<g mask="url(#mask6_3873_18847)">
<path d="M292.162 57.9511C292.162 57.9511 294.833 57.4223 295.851 54.5547C295.851 54.5547 296.093 59.7374 291.936 60.7907L292.162 57.9511Z" fill="#FF8370"/>
<path d="M299.46 44.2939C299.46 44.2939 290.973 46.6118 286.449 46.0774L286.859 40.6094L299.46 42.3929V44.2939Z" fill="#FF8370"/>
<path d="M287.82 54.6077L291.089 53.6719C291.089 53.6719 289.53 56.7129 287.82 54.6077Z" fill="white"/>
</g>
<path d="M298.375 43.0971C298.375 43.0971 294.256 41.8368 287.742 41.7403C281.226 41.6437 283.383 35.9785 283.383 35.9785C283.383 35.9785 298.375 31.817 301.483 35.9785C304.591 40.14 302.286 41.1415 302.286 41.1415C309.673 40.9387 301.583 51.4244 301.017 52.1741L298.88 48.3175C298.88 48.3175 300.137 48.4043 300.341 47.9077C300.547 47.4097 300.957 45.2443 300.459 45.0695C299.962 44.8932 298.293 45.9172 298.293 45.9172L298.375 43.0971Z" fill="#38385C"/>
<path d="M292.649 61.9493C292.649 61.9493 281.376 65.6954 279.967 68.8637C278.56 72.0321 283.073 108.925 283.073 108.925H312.57C312.57 108.925 315.923 74.7304 315.947 72.13C316.008 65.4743 301.767 61.8164 301.767 61.8164L292.649 61.9493Z" fill="#2FAE8E"/>
<path d="M283.07 108.922L288.288 191.586H301.813V108.922H283.07Z" fill="#38385C"/>
<path d="M312.569 108.922L315.23 116.094C318.486 122.699 314.744 146.106 314.783 153.335L333.954 183.516L323.692 190.538L300.096 164.076C297.979 161.647 296.812 158.533 296.812 155.31V108.922H312.569Z" fill="#38385C"/>
<path d="M301.814 166.008C301.814 166.008 296.812 160.687 296.812 156.642C296.812 154.845 295.673 126.789 295.673 126.789C295.673 126.789 292.304 155.258 292.442 158.608C292.58 161.957 301.814 174.307 301.814 174.307V166.008Z" fill="#1A1A35"/>
<path d="M292.631 61.8164L296.717 61.8905C295.529 63.495 294.265 66.9893 291.682 65.1218L289.525 63.0949L292.631 61.8164Z" fill="white"/>
<path d="M296.611 61.8776C300.016 67.0798 299.504 65.3313 304.082 62.5252L301.759 61.7461L296.611 61.8776Z" fill="white"/>
<path d="M297.303 64.7291C298.61 64.2424 298.182 61.9832 297.818 61.8168C297.818 61.8168 296.53 60.9691 295.717 61.9049C295.693 61.8308 294.69 64.1696 295.727 64.855C295.188 69.3914 292.111 95.337 292.149 95.9482C292.191 96.6183 294.96 103.313 294.96 103.313C294.96 103.313 299.701 97.5947 299.82 96.5903C299.929 95.6629 297.659 68.9144 297.303 64.7291Z" fill="#38385C"/>
<path d="M278.44 69.3911L265.03 92.8313L247.785 73.6505L239.893 79.1227L256.508 104.492C258.318 107.255 261.4 108.921 264.704 108.921C270.432 109.421 273.281 105.706 276.486 101.683C275.571 106.035 269.219 136.713 269.643 145.833C270.093 155.506 286.43 162.131 286.43 162.131L288.526 63.4922C288.526 63.4922 279.929 66.4675 278.44 69.3911Z" fill="white"/>
<mask id="mask7_3873_18847" style="mask-type:luminance" maskUnits="userSpaceOnUse" x="239" y="63" width="50" height="100">
<path d="M278.44 69.3911L265.03 92.8313L247.785 73.6505L239.893 79.1227L256.508 104.492C258.318 107.255 261.4 108.921 264.704 108.921C270.432 109.421 273.281 105.706 276.486 101.683C275.571 106.035 269.219 136.713 269.643 145.833C270.093 155.506 286.43 162.131 286.43 162.131L288.526 63.4922C288.526 63.4922 279.929 66.4675 278.44 69.3911Z" fill="white"/>
</mask>
<g mask="url(#mask7_3873_18847)">
<path opacity="0.5" d="M279.1 93.6876C279.1 93.6876 281.493 95.6613 281.964 95.762C282.437 95.8627 288.524 98.8325 288.524 98.8325L288.679 93.9743L284.742 91.5781L279.1 93.6876Z" fill="#E3EEFE"/>
</g>
<path opacity="0.5" d="M276.487 101.688L278.893 83.5703C270.384 103.056 267.677 110.575 248.881 92.8501L256.509 104.497C260.947 111.463 272.031 110.068 276.487 101.688Z" fill="#E3EEFE"/>
<path d="M304.924 62.332C304.924 62.332 307.347 151.095 311.109 155.676C314.874 160.259 330.255 168.412 332.383 166.381C334.51 164.349 323.219 105.441 323.219 99.3856C322.486 74.5089 327.949 68.789 304.924 62.332Z" fill="white"/>
<path opacity="0.5" d="M324.443 108.922C324.443 108.922 320.79 110.871 315.382 108.287C309.975 105.704 306.453 104.02 306.453 104.02C309.943 108.085 316.302 118.545 325.593 116.103L324.443 108.922Z" fill="#E3EEFE"/>
<path opacity="0.5" d="M305.87 90.1623L317.722 92.8522C317.722 92.8522 316.024 83.0968 317.722 75.7109C317.722 75.7109 313.862 79.3297 314.43 88.3647L305.713 86.1042L305.87 90.1623Z" fill="#E3EEFE"/>
<path d="M321.91 71.0781L330.227 96.1452C331.348 99.5191 330.638 103.232 328.355 105.957C325.352 109.542 320.3 110.638 316.079 108.621L284.744 93.6441L286.386 85.37L316.597 92.795C316.597 92.795 313.773 76.542 321.91 71.0781Z" fill="white"/>
<path d="M247.868 85.2535L230.328 85.4493C228.856 86.76 214.358 63.2778 213.499 62.7938C213.17 62.3182 213.504 61.6706 214.082 61.6636L231.984 61.465C232.388 61.4594 232.768 61.6552 232.997 61.9867L248.409 84.2057C248.714 84.6464 248.404 85.2479 247.868 85.2535Z" fill="#38385C"/>
<path d="M232.229 62.7461L246.314 83.1061L230.118 83.3243L216.191 63.0874L232.229 62.7461Z" fill="#E8F6F4"/>
<mask id="mask8_3873_18847" style="mask-type:luminance" maskUnits="userSpaceOnUse" x="216" y="62" width="31" height="22">
<path d="M232.229 62.7461L246.314 83.1061L230.118 83.3243L216.191 63.0874L232.229 62.7461Z" fill="white"/>
</mask>
<g mask="url(#mask8_3873_18847)">
<path opacity="0.5" d="M227.695 62.2539C227.695 62.2539 232.956 72.222 226.226 77.6676L229.925 83.9763L247.332 83.5707L232.585 62.398L227.695 62.2539Z" fill="#E3EEFE"/>
</g>
<path d="M246.14 74.7971C246.14 74.7971 242.636 71.4679 242.04 71.2888C241.443 71.1098 235.92 70.2145 235.891 70.5139C236.852 73.2388 239.544 73.6724 241.538 74.3005C241.538 74.3005 243.325 76.8785 243.265 76.7904C243.204 76.7023 246.14 74.7971 246.14 74.7971Z" fill="#FFB6A6"/>
<path d="M282.273 77.7144C281.764 77.4906 281.169 77.7214 280.945 78.2306C280.874 78.4292 272.971 96.2559 272.929 96.4587L272.925 96.4559C271.608 101.77 271.2 101.71 274.677 97.3512C274.921 97.091 282.613 79.337 282.788 79.0419C283.012 78.5327 282.781 77.9382 282.273 77.7144Z" fill="#38385C"/>
<path d="M286.161 86.502C286.161 86.502 282.383 84.1031 281.595 84.0597C280.808 84.0163 274.945 85.2683 274.989 86.502C275.032 87.7344 278.095 93.7732 279.101 93.685C280.107 93.5983 284.901 92.8499 284.901 92.8499L286.161 86.502Z" fill="#FFB6A6"/>
<mask id="mask9_3873_18847" style="mask-type:luminance" maskUnits="userSpaceOnUse" x="274" y="84" width="13" height="10">
<path d="M286.163 86.502C286.163 86.502 282.385 84.1031 281.597 84.0597C280.81 84.0163 274.947 85.2683 274.99 86.502C275.034 87.7344 278.097 93.7732 279.103 93.685C280.109 93.5983 284.903 92.8499 284.903 92.8499L286.163 86.502Z" fill="white"/>
</mask>
<g mask="url(#mask9_3873_18847)">
<path d="M286.604 88.6602C286.604 88.6602 280.356 93.2973 277.387 92.5783L278.695 94.2317L286.783 93.4777L286.604 88.6602Z" fill="#FF8370"/>
</g>
<path d="M293.429 47.2261L293.348 46.959L298.511 45.4062L298.592 45.6734L293.429 47.2261Z" fill="#38385C"/>
<path fill-rule="evenodd" clip-rule="evenodd" d="M287.82 49.6554C285.416 49.6582 285.417 44.0167 287.82 44.0195C290.225 44.0167 290.225 49.6596 287.82 49.6554ZM287.82 44.2993C285.782 44.2937 285.782 49.3827 287.82 49.3757C289.859 49.3827 289.859 44.2937 287.82 44.2993Z" fill="#38385C"/>
<path fill-rule="evenodd" clip-rule="evenodd" d="M291.686 49.9132C289.282 49.916 289.282 44.2731 291.686 44.2773C294.089 44.2745 294.089 49.916 291.686 49.9132ZM291.686 44.5571C289.647 44.5515 289.648 49.6391 291.686 49.6335C293.724 49.6391 293.724 44.5501 291.686 44.5571Z" fill="#38385C"/>
<path d="M289.96 47.0503L289.5 46.9762L289.546 46.6992L290.005 46.7734L289.96 47.0503Z" fill="#38385C"/>
<path d="M370.133 204.998H0V203.668H370.133V204.998Z" fill="#CBCBCB"/>
<g opacity="0.5">
<path d="M185.067 30.996C184.361 72.3272 122.882 72.3216 122.182 30.9946C122.888 -10.3353 184.368 -10.3283 185.067 30.996Z" fill="#CFCFCF"/>
<path d="M168.501 13.0352L148.744 32.7922L140.877 24.9252L135.145 30.6576L143.012 38.5246L142.991 38.547L148.723 44.2794L174.233 18.7676L168.501 13.0352Z" fill="white"/>
</g>
</svg>
