<svg width="2330" height="2322" viewBox="0 0 2330 2322" fill="none" xmlns="http://www.w3.org/2000/svg">
<path d="M1443.88 78.6474C1448.82 81.3911 1453.76 84.1348 1458.85 86.9617C1462.42 89.3201 1465.98 91.6785 1469.65 94.1083L1486.93 105.649L1523.01 133.994C1526.17 137.13 1560.4 173.184 1560.4 173.184C1560.4 173.184 1576.8 190.684 1577.88 192.027C1584.32 200.035 1584.32 200.035 1591.51 211.273C1595.45 217.425 1595.45 217.425 1599.47 223.7C1602.23 228.129 1604.99 232.558 1607.84 237.122C1610.64 241.614 1613.45 246.106 1616.34 250.734C1636.36 283.321 1653.44 315.378 1665.5 351.79C1667.38 357.304 1669.26 362.818 1671.19 368.499C1694.24 441.861 1699.63 512.665 1691.27 588.857C1690.51 595.773 1690.51 595.773 1689.74 602.829C1688.65 611.93 1687.41 621.013 1686.11 630.086C1689.01 629.342 1691.91 628.598 1694.89 627.832C1799.48 604.734 1914.92 619.043 2010.82 666.162C2015.86 668.434 2020.91 670.706 2026.12 673.047C2066.28 691.784 2099.92 716.118 2134.51 743.466C2140.49 747.662 2140.49 747.662 2146.59 751.942C2149.41 754.247 2152.22 756.552 2155.13 758.927C2155.13 755.423 2155.13 762.329 2155.13 758.927L2170.59 774.388L2180.9 784.696C2180.9 781.191 2180.9 788.097 2180.9 784.696L2191.21 795.003C2191.21 791.498 2191.21 798.404 2191.21 795.003L2201.51 805.31C2222.13 833.2 2211.07 816.851 2232.44 846.539C2228.93 846.539 2235.84 846.539 2232.44 846.539C2313.49 953.181 2342.08 1099.83 2325.46 1230.53C2312.53 1321.99 2276.08 1405.7 2222.13 1480.44C2218.73 1485.54 2215.33 1490.64 2211.82 1495.9C2210.33 1498.98 2183.84 1528.61 2180.9 1531.97C2177.57 1535.78 2170.59 1542.28 2170.59 1542.28C2170.59 1538.78 2170.59 1545.68 2170.59 1542.28C2167.26 1546.09 2160.28 1552.59 2160.28 1552.59C2160.28 1549.08 2160.28 1555.99 2160.28 1552.59C2137.24 1573.2 2131.18 1578.28 2124.2 1583.51C2124.2 1580 2124.2 1586.91 2124.2 1583.51C2073.19 1621.72 2020.01 1651.49 1959.28 1671.12C1952.99 1673.24 1946.71 1675.36 1940.23 1677.54C1861.56 1701.3 1766.61 1701.27 1686.11 1686.58C1686.94 1693.09 1687.77 1699.6 1688.63 1706.31C1703.98 1845.25 1680.74 1991.83 1593.02 2104.35C1584.69 2114.7 1576.17 2124.82 1567.57 2134.95C1563.96 2139.33 1560.36 2143.72 1556.64 2148.24C1539.36 2168.78 1539.36 2168.78 1531.49 2176.18L1526.59 2181.32L1521.19 2186.48C1396.64 2293.47 1254.96 2330.29 1093.4 2320.48C995.894 2308.93 911.21 2268.36 835.703 2207.1C830.601 2203.7 825.498 2200.3 820.241 2196.79C820.241 2196.79 788.556 2166.48 777.721 2155.56C774.08 2151.95 770.439 2148.33 766.688 2144.61C758.393 2134.95 748.085 2124.64 748.085 2124.64C744.684 2124.64 751.59 2124.64 748.085 2124.64C651.611 2003.56 625.749 1860.37 638.22 1709.93C639.851 1696.89 639.851 1696.89 645.005 1681.43C640.521 1683.09 636.036 1684.75 631.416 1686.46C515.744 1719.24 376.876 1686.25 273.917 1629.89C250.59 1615.76 228.71 1599.9 206.915 1583.51C206.915 1583.51 181.042 1562.84 181.145 1562.89L165.935 1547.42C104.087 1490.73 48.5183 1399.22 23.5857 1322.43C10.4586 1279.21 1.62804 1237.16 0.755056 1191.83C0.555741 1186.63 0.356426 1181.43 0.151071 1176.07C-3.17129 1025.28 48.344 892.757 150.865 782.642C156.316 776.967 161.791 771.316 167.294 765.692C169.827 763.085 172.36 760.479 174.971 757.794C189.706 743.259 203.384 728.712 222.377 717.698C222.377 714.297 222.377 721.203 222.377 717.698C322.743 659.496 420.195 618.475 538.382 619.135C542.686 619.145 546.99 619.155 551.424 619.165C581.196 619.374 610.305 621.058 639.851 624.933C639.293 620.229 639.293 620.229 638.724 615.431C625.084 486.625 644.283 367.643 706.853 253.871C796.293 115.957 897.024 63.9031 981.646 30.7146C1135.53 -23.3259 1305.03 -5.2634 1443.88 78.6474ZM923.321 259.025C917.928 264.287 913.013 269.332 913.013 269.332C913.013 269.332 902.857 279.588 902.705 279.639L892.397 289.946C884.383 300.095 877.055 310.165 869.848 320.868C867.758 323.954 865.668 327.039 863.514 330.218C835.409 372.237 820.691 410.342 809.933 460.016C808.963 464.082 807.993 468.148 806.994 472.337C794.868 545.965 806.097 621.219 840.857 686.776C843.143 691.128 845.428 695.479 847.783 699.963C881.852 760.62 1012.64 889.482 1061.72 937.962C1059.05 935.334 1064.32 940.512 1061.72 937.962C1061.72 937.962 1180.52 1058.69 1193.76 1071.75C1196.64 1074.62 1199.51 1077.5 1202.48 1080.47C1211.98 1089.96 1221.51 1099.42 1231.05 1108.87C1237.68 1115.48 1244.3 1122.09 1250.93 1128.7C1268.38 1146.11 1285.85 1163.49 1303.34 1180.85C1321.07 1198.48 1338.77 1216.13 1356.47 1233.78C1385.1 1262.32 1413.75 1290.84 1442.43 1319.34C1449.79 1326.65 1457.14 1333.97 1464.49 1341.29C1469.19 1345.91 1473.88 1350.54 1478.72 1355.3C1491.43 1368.44 1543.23 1422.37 1557.26 1434.05C1561.24 1437.5 1565.21 1440.95 1569.3 1444.5C1618.45 1485.93 1669.69 1508.99 1732.5 1521.67C1738.68 1523.08 1738.68 1523.08 1744.98 1524.52C1836.81 1540.38 1930.72 1512 2005.84 1459.12C2077.64 1402.53 2140.29 1320.49 2155.13 1227.91C2163.58 1126.28 2164.68 1053.92 2098.43 954.766C2096.39 951.358 2094.35 947.949 2092.25 944.438C2086.55 935.008 2086.55 935.008 2077.82 923.844C2074.42 923.844 2081.32 923.844 2077.82 923.844C2076.75 921.08 2078.91 926.691 2077.82 923.844C2077.82 923.844 2045.89 880.789 2030.68 868.388C1950.79 784.696 1823.15 770.955 1710.92 795.003C1685.93 802.466 1662.53 813.022 1639.08 824.314C1635.82 825.872 1632.56 827.43 1629.19 829.035C1576.52 855.923 1535.02 898.359 1494.17 940.271C1489.33 945.184 1484.48 950.094 1479.63 955C1459.28 975.598 1438.99 996.258 1418.74 1016.96C1408.68 1027.25 1398.59 1037.51 1388.46 1047.74C1378.98 1057.33 1346.2 1093.9 1346.2 1093.9L1225.08 975.366L1237.27 964.368C1241.19 960.545 1245.11 956.722 1249.15 952.783C1253.24 948.866 1257.34 944.95 1261.55 940.915C1269.7 933.081 1277.82 925.224 1285.91 917.341C1285.91 917.341 1337.35 866.785 1348.77 855.397C1353.12 851.059 1357.47 846.721 1361.95 842.251C1368.7 835.445 1368.7 835.445 1375.58 828.501C1380.16 823.964 1384.74 819.427 1389.46 814.752C1393.78 810.414 1398.11 806.076 1402.56 801.606C1408.52 795.632 1408.52 795.632 1414.6 789.537C1424.38 780.448 1414.6 789.537 1433.57 769.235C1433.57 769.235 1460.3 732.157 1462.45 728.986C1488.09 690.72 1504.13 654.055 1516.03 609.472C1516.93 606.362 1517.82 603.251 1518.74 600.047C1523.62 577.693 1525.47 556.19 1525.58 533.401C1525.47 538.641 1525.69 528.316 1525.58 533.401C1526.06 442.01 1481.56 342.085 1419.98 276.156C1391.81 248.454 1360.72 225.214 1325.33 207.488C1321.03 205.309 1316.74 203.13 1312.31 200.885C1189.8 141.785 1022.46 162.291 923.321 259.025ZM423.383 805.31C418.327 807.064 413.271 808.818 408.062 810.625C368.792 825.622 332.527 845.933 299.687 872.307C299.687 872.307 289.631 882.601 289.379 882.615C289.379 882.615 268.311 903.649 268.763 903.229C268.763 903.229 260.424 910.946 258.455 913.536C250.578 923.902 243.504 934.135 236.551 945.102C234.491 948.339 232.431 951.576 230.308 954.91C190.808 1018.65 168.753 1082.57 169.226 1157.69C169.252 1162.46 169.277 1167.24 169.303 1172.15C169.894 1206.62 173.568 1236.88 186.299 1269.14C188.113 1274.13 189.927 1279.12 191.795 1284.26C230.012 1383.26 301.125 1458.63 397.512 1502.96C411.184 1508.23 424.729 1512.61 438.845 1516.51C442.825 1517.66 446.804 1518.81 450.905 1519.99C547.824 1543.7 643.221 1519.5 727.469 1470.13C749.219 1456.11 749.219 1456.11 768.701 1439.21C768.701 1435.81 768.701 1442.71 768.701 1439.21L779.009 1428.9C779.009 1425.5 779.009 1432.4 779.009 1428.9L789.317 1418.59C789.317 1415.19 789.317 1422.1 789.317 1418.59L809.933 1397.98C809.933 1397.98 837.833 1371.72 846.011 1361.9L856.319 1351.6L866.879 1341.27L876.935 1330.98C876.746 1331.18 897.551 1310.37 897.551 1310.37L907.126 1300.06L938.783 1269.14C938.783 1265.74 938.783 1272.64 938.783 1269.14L993.152 1215.01L1106.54 1333.54C1102.8 1329.49 1110.17 1337.48 1106.54 1333.54C1106.54 1333.54 1097.34 1343.71 1084.11 1356.74C1080.08 1360.74 1076.05 1364.73 1071.9 1368.84C1067.54 1373.12 1063.19 1377.39 1058.69 1381.79C1054.21 1386.24 1049.72 1390.69 1045.09 1395.27C1025.9 1414.3 1006.65 1433.26 987.399 1452.23C973.347 1466.09 959.326 1479.99 945.306 1493.88C938.83 1500.23 938.83 1500.23 932.223 1506.71C853.422 1584.85 805.326 1674.23 803.491 1786.76C805.329 1893.56 844.794 1976.01 918.167 2052.49C920.918 2055.45 923.668 2058.4 926.502 2061.45C932.069 2067.29 937.964 2072.83 943.937 2078.26C940.432 2078.26 947.339 2078.26 943.937 2078.26L954.245 2088.57C1031.5 2148.03 1131.29 2163.89 1225.94 2152.32C1307.63 2139.07 1379.45 2093.72 1433.57 2031.88C1433.57 2028.47 1433.57 2035.38 1433.57 2031.88C1433.57 2031.88 1441.55 2024.13 1443.88 2021.57C1451.94 2010.77 1459.25 2000.09 1466.42 1988.71C1468.51 1985.42 1470.6 1982.13 1472.75 1978.73C1523.41 1897.02 1534.92 1799 1515.89 1705.05C1496.7 1625.51 1410.31 1505.28 1345.95 1454.67L1151.71 1259.8C1148.84 1256.71 1154.66 1262.97 1151.71 1259.8C1145.19 1252.52 1104.17 1211.73 1104.17 1211.73C1100.02 1207.59 1095.87 1203.44 1091.6 1199.17C1087.11 1194.74 1082.63 1190.3 1078 1185.73C1073.39 1181.13 1068.77 1176.53 1064.02 1171.79C1051.75 1159.58 1039.46 1147.38 1027.16 1135.2C1014.72 1122.86 1002.31 1110.5 989.89 1098.13C971.666 1079.99 953.428 1061.87 935.173 1043.76C927.786 1036.43 920.4 1029.09 913.013 1021.76C910.225 1019 907.438 1016.23 904.565 1013.38C893.323 1002.2 882.711 990.942 872.748 978.601C858.134 961.277 841.924 946.806 824.691 932.138C812.259 921.401 800.932 909.689 789.317 898.076C707.353 819.06 622.665 787.23 509.632 788.742C479.297 789.709 452.009 795.241 423.383 805.31Z" fill="#0A6C74"/>
</svg>
