<svg width="1512" height="1357" viewBox="0 0 1512 1357" fill="none" xmlns="http://www.w3.org/2000/svg">
<mask id="mask0_443_2421" style="mask-type:alpha" maskUnits="userSpaceOnUse" x="0" y="0" width="1512" height="1357">
<rect width="1512" height="1357" fill="#D9D9D9"/>
</mask>
<g mask="url(#mask0_443_2421)">
<path d="M1184.41 60.54C1182.65 63.1849 1180.88 67.5932 1180.88 73.7647M1184.41 60.54C1182.65 63.1849 1181.76 66.7115 1173.83 66.7115M1184.41 60.54C1186.64 57.5673 1190.12 55.221 1193.8 54.5573C1194.87 54.3639 1195.71 53.39 1195.53 52.3152L1195.23 50.552C1195.09 49.7017 1194.36 49.0689 1193.5 49.1705C1189.27 49.6722 1184.03 52.201 1180.88 56.1317C1180.88 54.3684 1180.88 49.0785 1180 46.4336M1172.95 55.2501C1172.07 52.6051 1170.3 50.8418 1167.66 50.8418M1166.78 68.4698C1168.54 76.4046 1175.3 82.5485 1180 82.5485C1184.7 82.5485 1191.17 76.4051 1193.23 68.4698C1195.28 60.5344 1188.82 55.2451 1184.41 60.535C1184.41 57.896 1181.76 55.2502 1176.47 55.2502C1171.18 55.2502 1165.01 60.535 1166.78 68.4698Z" stroke="#30887C" stroke-opacity="0.2" stroke-width="1.5" stroke-linecap="round" stroke-linejoin="round"/>
<path d="M117.053 1243.69V1261.32M117.053 1243.69C114.408 1239.28 110.882 1238.4 107.355 1239.28M117.053 1243.69V1240.16M117.053 1226.05V1240.16M117.053 1240.16C119.584 1237.12 121.823 1235.25 124.106 1234.04M129.396 1232.23C127.518 1232.6 125.801 1233.14 124.106 1234.04M124.106 1234.04C124.988 1231.44 124.988 1228.7 122.343 1226.94M105.592 1245.45C106.473 1251.62 106.473 1257.79 99.4203 1257.79C92.3672 1257.79 89.7219 1248.1 96.7751 1240.16C103.828 1232.23 111.763 1240.16 105.592 1245.45Z" stroke="#30887C" stroke-opacity="0.2" stroke-width="1.5" stroke-linecap="round" stroke-linejoin="round"/>
<path d="M1323.27 190.868C1322.35 188.312 1323.1 184.077 1325.02 181.646C1325.69 180.799 1326.89 181.201 1327.45 182.122C1329.29 185.149 1332.48 187.341 1336.24 187.341C1349.46 187.341 1353.87 163.915 1343.29 166.182C1340.65 166.749 1337.12 162.655 1338 157.365M1318.01 190.868C1315.55 185.451 1317.48 178.265 1322.23 174.386C1323.2 173.593 1324.55 173.648 1325.7 174.149C1330.27 176.14 1333.7 175.126 1336.14 172.036C1336.74 171.276 1336.44 170.2 1335.7 169.573C1332.35 166.724 1331.15 162.045 1332.71 157.365" stroke="#30887C" stroke-opacity="0.2" stroke-width="1.5" stroke-linecap="round" stroke-linejoin="round"/>
<path d="M1342.89 68.2618V60.4558C1342.89 58.8407 1342.29 57.303 1341.48 55.9041C1340.14 53.5732 1339.37 50.8684 1339.37 47.9839C1339.37 39.2194 1346.47 32.1143 1355.24 32.1143C1363.89 32.1143 1370.92 38.9857 1371.1 48.4896C1371.11 48.7362 1371.16 48.9821 1371.26 49.2075L1374.63 56.8004L1371.11 58.5637C1369.34 64.7353 1369.7 66.4985 1364.05 66.4985C1358.41 66.4985 1357.88 65.6169 1357 62.972M1353.47 55.0371C1353.47 53.0894 1355.05 51.5105 1357 51.5105C1359.43 51.5105 1361.41 49.5369 1361.41 47.1023M1361.41 47.1023C1362.87 47.1023 1364.05 45.9181 1364.05 44.4573C1364.05 42.9966 1362.87 41.8124 1361.41 41.8124C1361.03 41.8124 1360.68 41.8908 1360.35 42.0321C1360.47 41.6855 1360.53 41.3153 1360.53 40.9307C1360.53 38.9831 1358.95 37.4041 1357 37.4041C1355.33 37.4041 1353.93 38.5636 1353.57 40.1209M1361.41 47.1023C1360.63 47.1023 1359.92 46.7617 1359.44 46.2206M1346.81 45.3851C1345.58 45.6166 1344.66 46.6921 1344.66 47.9839C1344.66 49.4447 1345.84 50.6289 1347.3 50.6289C1348.45 50.6289 1349.43 49.8929 1349.8 48.8656M1346.81 45.3851C1346.97 45.3548 1347.13 45.339 1347.3 45.339M1346.81 45.3851C1346.56 44.833 1346.42 44.2205 1346.42 43.5757C1346.42 41.1411 1348.39 39.1674 1350.83 39.1674C1351.86 39.1674 1352.81 39.524 1353.57 40.1209M1353.57 40.1209C1354.58 40.9284 1355.24 42.1759 1355.24 43.5757" stroke="#30887C" stroke-opacity="0.2" stroke-width="1.5" stroke-linecap="round" stroke-linejoin="round"/>
<path d="M1451.98 190.808C1449.92 188.742 1446.65 188.666 1444.67 190.637C1443.5 191.816 1443.16 193.732 1443.73 195.612C1444.29 197.477 1444.42 199.714 1443.04 201.091L1436.81 207.325C1435.43 208.702 1433.2 208.57 1431.33 208.007C1429.45 207.439 1427.54 207.776 1426.36 208.954C1424.39 210.926 1424.46 214.199 1426.53 216.265C1428.59 218.33 1430.74 216.173 1432.42 217.861C1434.1 219.545 1431.94 221.68 1434.01 223.746C1436.07 225.811 1439.35 225.888 1441.32 223.917C1442.49 222.746 1442.87 220.886 1442.35 219.046C1441.81 217.173 1441.67 214.937 1443.04 213.559L1449.28 207.325C1450.66 205.948 1452.89 206.092 1454.77 206.625C1456.61 207.15 1458.47 206.77 1459.64 205.599C1461.61 203.628 1461.53 200.355 1459.47 198.289C1457.4 196.223 1455.27 198.383 1453.58 196.701C1451.89 195.017 1454.05 192.874 1451.98 190.808Z" stroke="#30887C" stroke-opacity="0.2" stroke-width="1.5" stroke-linecap="round" stroke-linejoin="round"/>
<path d="M56.6863 1128.28V1115.88M56.6863 1115.88C58.9391 1113.32 60.2129 1108.53 60.2129 1104.47C60.2129 1098.63 58.4496 1096.54 53.1597 1096.54C47.8698 1096.54 46.1065 1098.63 46.1065 1104.47C46.1065 1108.53 47.3802 1113.32 49.6331 1115.88M56.6863 1115.88C55.6928 1117.01 54.5088 1117.7 53.1597 1117.7C51.8106 1117.7 50.6266 1117.01 49.6331 1115.88M49.6331 1128.28V1115.88M59.6498 1100.07C61.4131 1098.3 64.0581 1097.42 66.703 1098.3C72.7344 1100.31 70.2296 1109.76 66.703 1108.88C63.1764 1108 65.8214 1100.95 70.2296 1102.71M46.6697 1100.07C44.9064 1098.3 42.2614 1097.42 39.6165 1098.3C33.5851 1100.31 36.0899 1109.76 39.6165 1108.88C43.1431 1108 40.4981 1100.95 36.0899 1102.71" stroke="#30887C" stroke-opacity="0.2" stroke-width="1.5" stroke-linecap="round" stroke-linejoin="round"/>
<path d="M79.1183 72.0017C76.4734 75.5283 73.8284 75.5283 71.1835 76.41C68.5385 77.2916 67.0735 79.2041 65.012 78.1733C62.9504 77.1425 65.012 71.1201 65.012 67.5935C65.012 64.0669 62.367 57.8954 67.6569 54.3688C72.9468 50.8422 80.8816 55.2504 80.8816 55.2504M87.0532 67.5935C87.0532 67.5935 90.4328 66.0261 93.2247 62.3036C95.0241 59.9044 96.7014 56.5693 97.6666 54.5013C98.0211 53.7417 97.3151 52.9155 96.4938 53.0836C94.3088 53.5309 90.7598 54.0521 87.9348 53.4871C83.5266 52.6054 80.8816 55.2504 80.8816 55.2504M80.8816 55.2504C81.1755 56.4259 81.7633 59.6587 81.7633 63.1852M76.4734 62.3036C76.4734 64.0669 77.355 67.5935 80.8816 67.5935M80.8816 67.5935C84.4082 67.5935 85.2899 64.0669 85.2899 62.3036M80.8816 67.5935C74.7101 70.2384 71.7713 67.0057 71.1835 65.8302M80.8816 67.5935C82.0572 68.1813 85.2899 71.1201 84.4082 74.6467" stroke="#30887C" stroke-opacity="0.2" stroke-width="1.5" stroke-linecap="round" stroke-linejoin="round"/>
<path d="M139.118 293.1C136.473 296.627 133.828 296.627 131.183 297.509C128.539 298.39 127.074 300.303 125.012 299.272C122.95 298.241 125.012 292.219 125.012 288.692C125.012 285.166 122.367 278.994 127.657 275.467C132.947 271.941 140.882 276.349 140.882 276.349M147.053 288.692C147.053 288.692 150.433 287.125 153.225 283.402C155.024 281.003 156.701 277.668 157.667 275.6C158.021 274.84 157.315 274.014 156.494 274.182C154.309 274.63 150.76 275.151 147.935 274.586C143.527 273.704 140.882 276.349 140.882 276.349M140.882 276.349C141.176 277.525 141.763 280.757 141.763 284.284M136.473 283.402C136.473 285.166 137.355 288.692 140.882 288.692M140.882 288.692C144.408 288.692 145.29 285.166 145.29 283.402M140.882 288.692C134.71 291.337 131.771 288.104 131.183 286.929M140.882 288.692C142.057 289.28 145.29 292.219 144.408 295.745" stroke="#30887C" stroke-opacity="0.2" stroke-width="1.5" stroke-linecap="round" stroke-linejoin="round"/>
<path d="M64.1187 205.517C61.4737 205.517 57.0655 207.281 54.4206 210.807M65.0003 209.044C65.0003 209.044 62.3554 209.044 61.4737 206.399M62.3554 196.701C67.6453 201.109 71.1719 205.517 68.5269 216.979M57.0655 202.872C53.539 200.228 52.6573 194.056 57.9472 191.411C63.2371 188.766 72.0535 190.53 75.5802 201.991C79.1068 213.452 76.4618 221.387 69.4086 223.15C62.3554 224.913 57.9472 217.861 61.4738 212.571" stroke="#30887C" stroke-opacity="0.2" stroke-width="1.5" stroke-linecap="round" stroke-linejoin="round"/>
<path d="M251.119 63.1852C248.474 63.1852 244.065 64.9485 241.421 68.4751M252 66.7118C252 66.7118 249.355 66.7118 248.474 64.0669M249.355 54.3687C254.645 58.777 258.172 63.1852 255.527 74.6466M244.066 60.5402C240.539 57.8955 239.657 51.7238 244.947 49.079C250.237 46.4341 259.054 48.1976 262.58 59.6588C266.107 71.1199 263.462 79.0551 256.409 80.8178C249.355 82.5806 244.947 75.5285 248.474 70.2386" stroke="#30887C" stroke-opacity="0.2" stroke-width="1.5" stroke-linecap="round" stroke-linejoin="round"/>
<path d="M1420.53 1255.45V1256.63C1420.53 1257.93 1421.58 1258.98 1422.88 1258.98C1425.48 1258.98 1427.58 1261.09 1427.58 1263.68V1263.83C1427.58 1266.51 1425.41 1268.68 1422.73 1268.68H1409.95M1413.47 1255.45V1260.39C1413.47 1262.05 1414.82 1263.39 1416.47 1263.39H1420.53H1406.42C1403.5 1263.39 1401.13 1265.76 1401.13 1268.68C1401.13 1271.6 1403.5 1273.97 1406.42 1273.97H1413.47M1424.94 1273.97H1413.47M1420.53 1268.68H1427.58C1430.5 1268.68 1432.87 1271.05 1432.87 1273.97C1432.87 1276.89 1430.5 1279.26 1427.58 1279.26H1415.24H1417.53C1419.18 1279.26 1420.53 1280.6 1420.53 1282.26V1287.19M1413.47 1287.19V1285.14C1413.47 1284.81 1413.21 1284.55 1412.89 1284.55H1411.71C1408.79 1284.55 1406.42 1282.18 1406.42 1279.26C1406.42 1276.34 1408.79 1273.97 1411.71 1273.97H1413.47" stroke="#30887C" stroke-opacity="0.2" stroke-width="1.5" stroke-linecap="round" stroke-linejoin="round"/>
<path d="M1292.81 990.386L1296.52 985.885L1302.32 986.448L1301.75 980.646L1306.26 976.941L1301.75 973.237L1302.32 967.435L1296.52 967.998L1292.81 963.497L1289.11 967.998L1283.3 967.435L1283.87 973.237L1279.37 976.941L1283.87 980.646L1283.3 986.448L1289.11 985.885L1292.81 990.386ZM1292.81 990.386C1291.22 993.142 1292.16 996.666 1294.92 998.257C1297.68 999.848 1301.2 998.904 1302.79 996.148L1304.23 993.653L1305.67 991.158C1307 988.861 1309.93 988.074 1312.23 989.4C1314.53 990.726 1315.31 993.663 1313.99 995.959L1313.27 997.207M1296.65 976.941C1296.65 979.063 1294.93 980.783 1292.81 980.783C1290.69 980.783 1288.97 979.063 1288.97 976.941C1288.97 974.82 1290.69 973.1 1292.81 973.1C1294.93 973.1 1296.65 974.82 1296.65 976.941Z" stroke="#30887C" stroke-opacity="0.2" stroke-width="1.5" stroke-linecap="round" stroke-linejoin="round"/>
<path d="M1284.47 1226.05L1277.83 1232.7C1276.45 1234.07 1274.22 1233.94 1272.35 1233.38C1270.47 1232.81 1268.56 1233.15 1267.38 1234.33C1265.41 1236.3 1265.48 1239.57 1267.55 1241.64C1269.61 1243.7 1271.76 1241.55 1273.44 1243.23C1275.12 1244.92 1272.96 1247.05 1275.03 1249.12C1277.09 1251.18 1280.37 1251.26 1282.34 1249.29C1283.51 1248.12 1283.89 1246.26 1283.37 1244.42C1282.83 1242.55 1282.69 1240.31 1284.07 1238.93L1290.71 1232.29M1261.6 1261.3L1266.1 1256.77C1267.47 1255.39 1269.72 1255.53 1271.61 1256.03C1273.53 1256.54 1275.54 1256.1 1276.94 1254.79C1278.13 1253.67 1278.59 1252.19 1278.41 1250.74M1255.37 1255.06L1259.9 1250.59C1261.29 1249.21 1261.15 1246.96 1260.65 1245.07C1260.15 1243.16 1260.61 1241.17 1261.97 1239.83C1263.12 1238.7 1264.55 1238.24 1265.95 1238.37" stroke="#30887C" stroke-opacity="0.2" stroke-width="1.5" stroke-linecap="round" stroke-linejoin="round"/>
<path d="M1432.42 1130.04V1122.99C1432.42 1119.85 1433.78 1117.04 1435.95 1115.1M1453.58 1130.04V1122.99C1453.58 1117.15 1448.84 1112.41 1443 1112.41C1437.16 1112.41 1432.42 1107.67 1432.42 1101.83V1094.78M1453.58 1094.78V1101.83C1453.58 1104.96 1452.22 1107.78 1450.05 1109.71M1439.47 1100.07H1446.53M1439.47 1124.75H1446.53" stroke="#30887C" stroke-opacity="0.2" stroke-width="1.5" stroke-linecap="round" stroke-linejoin="round"/>
<path d="M162.819 1100.7C165.359 1101.63 166.813 1104.36 166.099 1107.03C165.343 1109.85 162.442 1111.53 159.62 1110.77C153.976 1109.26 150.729 1103.08 152.367 1096.96C154.005 1090.85 159.909 1087.12 165.553 1088.63C167.434 1089.13 168.551 1091.07 168.047 1092.95C167.542 1094.83 165.609 1095.95 163.727 1095.44C163.153 1095.29 162.65 1095 162.243 1094.62M162.819 1100.7C162.669 1100.64 162.515 1100.59 162.358 1100.55C161.646 1100.36 160.928 1100.32 160.241 1100.42M162.819 1100.7C163.618 1100.46 164.241 1099.9 164.626 1099.21M164.423 1095.63C165.247 1096.67 165.233 1098.11 164.626 1099.21M177.181 1100.7C174.641 1101.63 173.187 1104.36 173.901 1107.03C174.658 1109.85 177.558 1111.53 180.38 1110.77C186.024 1109.26 189.271 1103.08 187.633 1096.96C185.995 1090.85 180.091 1087.12 174.447 1088.63C172.566 1089.13 171.45 1091.07 171.954 1092.95C172.458 1094.83 174.391 1095.95 176.273 1095.44C176.847 1095.29 177.35 1095 177.757 1094.62M177.181 1100.7C177.331 1100.64 177.485 1100.59 177.642 1100.55C178.354 1100.36 179.072 1100.32 179.759 1100.42M177.181 1100.7C176.382 1100.46 175.759 1099.9 175.374 1099.21M175.577 1095.63C174.753 1096.67 174.767 1098.11 175.374 1099.21M175.374 1099.21C172.782 1099.21 170.569 1101.08 170.143 1103.64L170 1104.5M170 1118.6L170 1104.5M164.626 1099.21C167.218 1099.21 169.431 1101.08 169.857 1103.64L170 1104.5" stroke="#30887C" stroke-opacity="0.2" stroke-width="1.5" stroke-linecap="round" stroke-linejoin="round"/>
<path d="M165.592 138.163C165.592 136.106 164.159 134.049 158.539 139.044C150.604 146.098 153.249 161.967 154.131 162.849C155.013 163.731 164.711 159.322 165.592 157.559C166.474 155.796 164.711 153.151 166.474 149.624M174.409 138.163C174.409 136.106 175.842 134.049 181.462 139.044C189.397 146.098 186.752 161.967 185.87 162.849C184.989 163.73 175.291 159.322 174.409 157.559C173.527 155.796 175.291 153.151 173.527 149.624M178.817 152.269C178.817 148.106 176.138 146.03 174.097 144.68C169.888 141.895 170.001 136.709 170.001 132.236C170.001 136.709 170.113 141.895 165.904 144.68C163.864 146.03 161.184 148.106 161.184 152.269" stroke="#30887C" stroke-opacity="0.2" stroke-width="1.5" stroke-linecap="round" stroke-linejoin="round"/>
<path d="M1357 336.32V316.924M1357 336.32C1357 332.425 1360.16 329.267 1364.05 329.267M1357 336.32C1357 332.425 1353.84 329.267 1349.95 329.267M1357 336.32C1357 338.083 1357.24 338.736 1357.88 339.847C1359.59 342.798 1363.36 343.81 1366.31 342.105C1369.02 340.543 1370.09 337.239 1368.94 334.426C1372.18 333.792 1374.63 330.934 1374.63 327.503C1374.63 323.608 1371.48 320.45 1367.58 320.45L1367.58 316.924C1367.58 314.002 1365.21 311.634 1362.29 311.634C1359.37 311.634 1357 314.002 1357 316.924M1357 336.32C1357 338.083 1356.76 338.736 1356.12 339.847C1354.41 342.798 1350.64 343.81 1347.69 342.105C1344.98 340.543 1343.91 337.239 1345.06 334.426C1341.82 333.792 1339.37 330.934 1339.37 327.503C1339.37 323.608 1342.53 320.45 1346.42 320.45L1346.42 316.924C1346.42 314.002 1348.79 311.634 1351.71 311.634C1354.63 311.634 1357 314.002 1357 316.924" stroke="#30887C" stroke-opacity="0.2" stroke-width="1.5" stroke-linecap="round" stroke-linejoin="round"/>
<path d="M58.8546 366.748C57.6793 367.453 56.184 366.607 56.184 365.236V349.565C52.2167 349.127 49.1309 345.763 49.1309 341.679C49.1309 337.297 52.6834 333.744 57.0657 333.744C60.1129 333.744 62.7589 336.302 64.0883 337.86C64.5496 338.401 65.4515 338.401 65.9127 337.86C67.2422 336.302 69.8882 333.744 72.9354 333.744C77.3177 333.744 80.8702 337.297 80.8702 341.679C80.8702 345.763 77.7844 349.127 73.817 349.565L73.817 365.236C73.817 366.607 72.3218 367.453 71.1465 366.748C67.9013 364.801 65.0005 361.297 65.0005 361.297C65.0005 361.297 62.0651 364.822 58.8546 366.748Z" stroke="#30887C" stroke-opacity="0.2" stroke-width="1.5" stroke-linecap="round" stroke-linejoin="round"/>
<path d="M1094.83 1214V1217.52M1086.89 1215.76L1089.39 1218.26M1085.13 1223.7H1088.66M1084.36 1231.54C1082.39 1233.51 1082.46 1236.79 1084.53 1238.85C1086.59 1240.92 1088.74 1238.76 1090.42 1240.45C1092.1 1242.13 1089.94 1244.27 1092.01 1246.33C1094.07 1248.4 1097.35 1248.47 1099.32 1246.5C1100.51 1245.31 1100.88 1243.4 1100.31 1241.52C1099.76 1239.7 1099.58 1237.54 1100.88 1236.15L1101.88 1235.08V1231.63H1095.71V1228.99L1094.81 1229.89C1093.43 1231.28 1091.19 1231.15 1089.32 1230.59C1087.44 1230.03 1085.53 1230.37 1084.36 1231.54ZM1102.67 1213.22C1104.65 1211.25 1107.92 1211.33 1109.98 1213.39C1112.05 1215.46 1109.89 1217.6 1111.58 1219.29C1113.27 1220.97 1115.4 1218.81 1117.47 1220.88C1119.53 1222.94 1119.61 1226.21 1117.64 1228.19C1116.47 1229.36 1114.61 1229.74 1112.77 1229.21C1110.89 1228.68 1108.66 1228.53 1107.28 1229.91L1106.29 1230.9V1225.49H1099.24L1101.04 1223.68C1102.42 1222.3 1102.29 1220.06 1101.73 1218.2C1101.16 1216.32 1101.5 1214.4 1102.67 1213.22Z" stroke="#30887C" stroke-opacity="0.2" stroke-width="1.5" stroke-linecap="round" stroke-linejoin="round"/>
<path d="M256.408 1278.38C255.527 1281.9 255.527 1287.19 257.29 1289.84M247.592 1278.38C248.474 1281.9 248.474 1287.19 246.71 1289.84M244.065 1261.63C247.239 1263.39 256.761 1263.39 259.935 1261.63M252 1269.56C252 1269.56 256.408 1269.56 258.172 1270.44C258.172 1267.8 261.698 1254.57 264.343 1254.57C266.988 1254.57 269.633 1264.27 269.633 1270.44C269.633 1276.61 266.988 1281.9 264.343 1281.9C261.698 1281.9 259.935 1280.14 258.172 1276.61C256.761 1277.32 253.176 1277.5 252 1277.5C250.825 1277.5 247.239 1277.32 245.829 1276.61C244.065 1280.14 242.302 1281.9 239.657 1281.9C237.012 1281.9 234.367 1276.61 234.367 1270.44C234.367 1264.27 237.012 1254.57 239.657 1254.57C242.302 1254.57 245.829 1267.8 245.829 1270.44C247.592 1269.56 252 1269.56 252 1269.56Z" stroke="#30887C" stroke-opacity="0.3" stroke-width="1.5" stroke-linecap="round" stroke-linejoin="round"/>
<path d="M241.421 242.859C241.421 236.367 246.947 231.104 253.764 231.104C260.581 231.104 266.107 236.367 266.107 242.859C266.107 249.328 262.619 252.237 259.481 253.545C256.913 254.616 254.587 256.87 254.587 259.652C254.587 263.362 251.64 266.369 248.004 266.369C244.368 266.369 241.421 263.362 241.421 259.652V256.293M259.817 244.094C260.141 240.701 257.654 237.687 254.261 237.363C251.246 237.074 248.53 239.007 247.735 241.821M249.681 248.213C248.195 246.951 247.33 245.006 247.53 242.919C247.566 242.541 247.636 242.174 247.735 241.821M247.735 241.821C248.526 241.48 249.412 241.327 250.331 241.415C253.239 241.693 255.371 244.276 255.093 247.185C254.897 249.23 253.787 250.796 252.001 251.505L251.377 255.04C251.124 256.479 249.752 257.439 248.313 257.186C246.875 256.932 245.914 255.56 246.168 254.122" stroke="#30887C" stroke-opacity="0.2" stroke-width="1.5" stroke-linecap="round" stroke-linejoin="round"/>
<path d="M343.29 137.345C341.62 136.867 339.763 139.227 338 139.227C336.237 139.227 334.38 136.867 332.71 137.345C325.556 139.396 319.485 145.717 319.485 147.861C319.485 150.508 328.262 157.742 338 157.742C347.738 157.742 356.515 150.507 356.515 147.861C356.515 145.717 350.444 139.396 343.29 137.345Z" stroke="#30887C" stroke-opacity="0.2" stroke-width="1.5" stroke-linecap="round" stroke-linejoin="round"/>
<path d="M351.225 147.861C351.225 148.743 345.304 150.506 338 150.506C330.696 150.506 324.775 148.743 324.775 147.861C324.775 146.979 330.696 145.216 338 145.216C345.304 145.216 351.225 146.979 351.225 147.861Z" stroke="#30887C" stroke-opacity="0.2" stroke-width="1.5" stroke-linecap="round" stroke-linejoin="round"/>
<path d="M1090.12 436.816C1087.47 440.343 1084.83 440.343 1082.18 441.224C1079.54 442.106 1078.07 444.019 1076.01 442.988C1073.95 441.957 1076.01 435.935 1076.01 432.408C1076.01 428.881 1073.37 422.71 1078.66 419.183C1083.95 415.657 1091.88 420.065 1091.88 420.065M1098.05 432.408C1098.05 432.408 1101.43 430.841 1104.22 427.118C1106.02 424.719 1107.7 421.384 1108.67 419.316C1109.02 418.556 1108.32 417.73 1107.49 417.898C1105.31 418.345 1101.76 418.867 1098.93 418.302C1094.53 417.42 1091.88 420.065 1091.88 420.065M1091.88 420.065C1092.18 421.24 1092.76 424.473 1092.76 428M1087.47 427.118C1087.47 428.881 1088.36 432.408 1091.88 432.408M1091.88 432.408C1095.41 432.408 1096.29 428.881 1096.29 427.118M1091.88 432.408C1085.71 435.053 1082.77 431.82 1082.18 430.645M1091.88 432.408C1093.06 432.996 1096.29 435.935 1095.41 439.461" stroke="#30887C" stroke-opacity="0.2" stroke-width="1.5" stroke-linecap="round" stroke-linejoin="round"/>
<path d="M1296.12 794.721C1293.47 798.248 1290.83 798.248 1288.18 799.13C1285.54 800.011 1284.07 801.924 1282.01 800.893C1279.95 799.862 1282.01 793.84 1282.01 790.313C1282.01 786.787 1279.37 780.615 1284.66 777.088C1289.95 773.562 1297.88 777.97 1297.88 777.97M1304.05 790.313C1304.05 790.313 1307.43 788.746 1310.22 785.023C1312.02 782.624 1313.7 779.289 1314.67 777.221C1315.02 776.461 1314.32 775.635 1313.49 775.803C1311.31 776.251 1307.76 776.772 1304.93 776.207C1300.53 775.325 1297.88 777.97 1297.88 777.97M1297.88 777.97C1298.18 779.146 1298.76 782.378 1298.76 785.905M1293.47 785.023C1293.47 786.787 1294.36 790.313 1297.88 790.313M1297.88 790.313C1301.41 790.313 1302.29 786.787 1302.29 785.023M1297.88 790.313C1291.71 792.958 1288.77 789.725 1288.18 788.55M1297.88 790.313C1299.06 790.901 1302.29 793.84 1301.41 797.366" stroke="#30887C" stroke-opacity="0.2" stroke-width="1.5" stroke-linecap="round" stroke-linejoin="round"/>
<path d="M1169.12 638.045C1166.47 638.045 1162.07 639.808 1159.42 643.334M1170 641.571C1170 641.571 1167.36 641.571 1166.47 638.926M1167.36 629.228C1172.65 633.636 1176.17 638.045 1173.53 649.506M1162.07 635.4C1158.54 632.755 1157.66 626.583 1162.95 623.938C1168.24 621.293 1177.05 623.057 1180.58 634.518C1184.11 645.979 1181.46 653.914 1174.41 655.677C1167.36 657.44 1162.95 650.388 1166.47 645.098" stroke="#30887C" stroke-opacity="0.2" stroke-width="1.5" stroke-linecap="round" stroke-linejoin="round"/>
<path d="M1356.12 495.712C1353.47 495.712 1349.07 497.475 1346.42 501.001M1357 499.238C1357 499.238 1354.36 499.238 1353.47 496.593M1354.36 486.895C1359.65 491.303 1363.17 495.712 1360.53 507.173M1349.07 493.067C1345.54 490.422 1344.66 484.25 1349.95 481.605C1355.24 478.96 1364.05 480.724 1367.58 492.185C1371.11 503.646 1368.46 511.581 1361.41 513.344C1354.36 515.107 1349.95 508.055 1353.47 502.765" stroke="#30887C" stroke-opacity="0.2" stroke-width="1.5" stroke-linecap="round" stroke-linejoin="round"/>
<path d="M1270.59 570.689C1270.59 568.632 1269.16 566.576 1263.54 571.571C1255.6 578.624 1258.25 594.494 1259.13 595.375C1260.01 596.257 1269.71 591.849 1270.59 590.085C1271.47 588.322 1269.71 585.677 1271.47 582.151M1279.41 570.689C1279.41 568.632 1280.84 566.576 1286.46 571.571C1294.4 578.624 1291.75 594.494 1290.87 595.375C1289.99 596.257 1280.29 591.849 1279.41 590.085C1278.53 588.322 1280.29 585.677 1278.53 582.15M1283.82 584.796C1283.82 580.632 1281.14 578.557 1279.1 577.206C1274.89 574.421 1275 569.236 1275 564.763C1275 569.236 1275.11 574.421 1270.9 577.206C1268.86 578.557 1266.18 580.632 1266.18 584.796" stroke="#30887C" stroke-opacity="0.2" stroke-width="1.5" stroke-linecap="round" stroke-linejoin="round"/>
<path d="M1163.85 799.276C1162.68 799.981 1161.18 799.134 1161.18 797.764V782.093C1157.22 781.654 1154.13 778.291 1154.13 774.206C1154.13 769.824 1157.68 766.271 1162.07 766.271C1165.11 766.271 1167.76 768.829 1169.09 770.388C1169.55 770.928 1170.45 770.928 1170.91 770.388C1172.24 768.829 1174.89 766.271 1177.94 766.271C1182.32 766.271 1185.87 769.824 1185.87 774.206C1185.87 778.291 1182.78 781.654 1178.82 782.093L1178.82 797.764C1178.82 799.134 1177.32 799.981 1176.15 799.276C1172.9 797.329 1170 793.825 1170 793.825C1170 793.825 1167.07 797.349 1163.85 799.276Z" stroke="#30887C" stroke-opacity="0.2" stroke-width="1.5" stroke-linecap="round" stroke-linejoin="round"/>
<path d="M1346.42 675.386C1346.42 668.894 1351.95 663.631 1358.76 663.631C1365.58 663.631 1371.11 668.894 1371.11 675.386C1371.11 681.855 1367.62 684.764 1364.48 686.072C1361.91 687.143 1359.59 689.397 1359.59 692.179C1359.59 695.889 1356.64 698.897 1353 698.897C1349.37 698.897 1346.42 695.889 1346.42 692.179V688.821M1364.82 676.621C1365.14 673.228 1362.65 670.215 1359.26 669.89C1356.25 669.602 1353.53 671.534 1352.74 674.349M1354.68 680.74C1353.2 679.478 1352.33 677.534 1352.53 675.446C1352.57 675.068 1352.64 674.702 1352.74 674.349M1352.74 674.349C1353.53 674.007 1354.41 673.855 1355.33 673.943C1358.24 674.221 1360.37 676.804 1360.09 679.712C1359.9 681.757 1358.79 683.323 1357 684.032L1356.38 687.568C1356.12 689.006 1354.75 689.967 1353.31 689.713C1351.87 689.459 1350.91 688.088 1351.17 686.649" stroke="#30887C" stroke-opacity="0.2" stroke-width="1.5" stroke-linecap="round" stroke-linejoin="round"/>
<path d="M1448.29 569.872C1446.62 569.393 1444.76 571.754 1443 571.754C1441.24 571.754 1439.38 569.393 1437.71 569.872C1430.56 571.923 1424.49 578.243 1424.49 580.387C1424.49 583.034 1433.26 590.268 1443 590.268C1452.74 590.268 1461.51 583.034 1461.51 580.387C1461.51 578.243 1455.44 571.923 1448.29 569.872Z" stroke="#30887C" stroke-opacity="0.2" stroke-width="1.5" stroke-linecap="round" stroke-linejoin="round"/>
<path d="M1456.22 580.387C1456.22 581.269 1450.3 583.032 1443 583.032C1435.7 583.032 1429.78 581.269 1429.78 580.387C1429.78 579.506 1435.7 577.742 1443 577.742C1450.3 577.742 1456.22 579.506 1456.22 580.387Z" stroke="#30887C" stroke-opacity="0.2" stroke-width="1.5" stroke-linecap="round" stroke-linejoin="round"/>
<path d="M1451.67 57.4542V64.0666M1451.67 57.4542C1451.67 56.2369 1450.68 55.2501 1449.47 55.2501C1448.25 55.2501 1447.26 56.2369 1447.26 57.4542V72.883C1447.26 78.7261 1452 83.4628 1457.84 83.4628C1463.68 83.4628 1468.42 78.7261 1468.42 72.883V60.9808C1468.42 59.7635 1467.43 58.7767 1466.22 58.7767C1465.72 58.7767 1465.26 58.9406 1464.89 59.2173M1451.67 57.4542V50.401C1451.67 49.1837 1452.66 48.1969 1453.87 48.1969C1455.09 48.1969 1456.08 49.1837 1456.08 50.401M1456.08 50.401V60.54M1456.08 50.401V48.6377C1456.08 47.4204 1457.07 46.4336 1458.28 46.4336C1459.5 46.4336 1460.49 47.4204 1460.49 48.6377V52.1643M1460.49 52.1643V60.54M1460.49 52.1643C1460.49 50.947 1461.47 49.9602 1462.69 49.9602C1463.91 49.9602 1464.89 50.947 1464.89 52.1643V59.2173M1464.89 59.2173C1464.36 59.6195 1464.01 60.2597 1464.01 60.9808V65.8299C1461.73 66.7325 1460.07 68.7783 1459.69 71.2715" stroke="#30887C" stroke-opacity="0.2" stroke-width="1.5" stroke-linecap="round" stroke-linejoin="round"/>
<path d="M316.409 1014.03C314.645 1016.68 312.882 1021.09 312.882 1027.26M316.409 1014.03C314.646 1016.68 313.764 1020.2 305.829 1020.2M316.409 1014.03C318.638 1011.06 322.121 1008.71 325.8 1008.05C326.872 1007.86 327.707 1006.88 327.528 1005.81L327.234 1004.04C327.093 1003.19 326.356 1002.56 325.5 1002.66C321.274 1003.16 316.027 1005.69 312.882 1009.62C312.882 1007.86 312.882 1002.57 312.001 999.926M304.947 1008.74C304.066 1006.1 302.302 1004.33 299.658 1004.33M298.776 1021.96C300.539 1029.9 307.299 1036.04 312 1036.04C316.702 1036.04 323.169 1029.9 325.225 1021.96C327.282 1014.03 320.817 1008.74 316.409 1014.03C316.409 1011.39 313.764 1008.74 308.474 1008.74C303.184 1008.74 297.013 1014.03 298.776 1021.96Z" stroke="#30887C" stroke-opacity="0.2" stroke-width="1.5" stroke-linecap="round" stroke-linejoin="round"/>
<path d="M395.269 1136.07C394.352 1133.51 395.103 1129.28 397.021 1126.85C397.69 1126 398.889 1126.4 399.45 1127.32C401.292 1130.35 404.482 1132.54 408.239 1132.54C421.463 1132.54 425.872 1109.12 415.292 1111.38C412.647 1111.95 409.12 1107.86 410.002 1102.57M390.013 1136.07C387.553 1130.65 389.477 1123.47 394.231 1119.59C395.203 1118.79 396.555 1118.85 397.704 1119.35C402.27 1121.34 405.704 1120.33 408.139 1117.24C408.738 1116.48 408.438 1115.4 407.701 1114.77C404.352 1111.93 403.152 1107.25 404.712 1102.57" stroke="#30887C" stroke-opacity="0.2" stroke-width="1.5" stroke-linecap="round" stroke-linejoin="round"/>
<path d="M474.894 1021.75V1013.95C474.894 1012.33 474.289 1010.8 473.482 1009.4C472.137 1007.07 471.367 1004.36 471.367 1001.48C471.367 992.712 478.472 985.606 487.237 985.606C495.888 985.606 502.922 992.478 503.103 1001.98C503.108 1002.23 503.158 1002.47 503.259 1002.7L506.633 1010.29L503.107 1012.06C501.343 1018.23 501.696 1019.99 496.053 1019.99C490.411 1019.99 489.882 1019.11 489 1016.46M485.474 1008.53C485.474 1006.58 487.052 1005 489 1005C491.435 1005 493.408 1003.03 493.408 1000.59M493.408 1000.59C494.869 1000.59 496.053 999.41 496.053 997.95C496.053 996.489 494.869 995.305 493.408 995.305C493.033 995.305 492.675 995.383 492.351 995.524C492.465 995.178 492.527 994.808 492.527 994.423C492.527 992.475 490.948 990.896 489 990.896C487.331 990.896 485.933 992.056 485.567 993.613M493.408 1000.59C492.625 1000.59 491.921 1000.25 491.437 999.713M478.808 998.877C477.583 999.109 476.657 1000.18 476.657 1001.48C476.657 1002.94 477.841 1004.12 479.302 1004.12C480.454 1004.12 481.433 1003.39 481.796 1002.36M478.808 998.877C478.968 998.847 479.133 998.831 479.302 998.831M478.808 998.877C478.559 998.325 478.42 997.713 478.42 997.068C478.42 994.633 480.394 992.66 482.829 992.66C483.863 992.66 484.815 993.016 485.567 993.613M485.567 993.613C486.584 994.421 487.237 995.668 487.237 997.068" stroke="#30887C" stroke-opacity="0.2" stroke-width="1.5" stroke-linecap="round" stroke-linejoin="round"/>
<path d="M583.984 1144.3C581.919 1142.24 578.646 1142.16 576.674 1144.13C575.495 1145.31 575.159 1147.22 575.727 1149.11C576.29 1150.97 576.422 1153.21 575.045 1154.58L568.811 1160.82C567.433 1162.2 565.196 1162.06 563.332 1161.5C561.451 1160.93 559.535 1161.27 558.357 1162.45C556.385 1164.42 556.462 1167.69 558.528 1169.76C560.593 1171.82 562.736 1169.67 564.421 1171.35C566.102 1173.04 563.943 1175.17 566.009 1177.24C568.074 1179.3 571.347 1179.38 573.319 1177.41C574.49 1176.24 574.869 1174.38 574.345 1172.54C573.812 1170.67 573.668 1168.43 575.045 1167.05L581.279 1160.82C582.656 1159.44 584.893 1159.59 586.766 1160.12C588.606 1160.64 590.465 1160.26 591.636 1159.09C593.608 1157.12 593.531 1153.85 591.465 1151.78C589.4 1149.72 587.265 1151.88 585.58 1150.19C583.893 1148.51 586.05 1146.37 583.984 1144.3Z" stroke="#30887C" stroke-opacity="0.2" stroke-width="1.5" stroke-linecap="round" stroke-linejoin="round"/>
<path d="M489 1289.81V1270.42M489 1289.81C489 1285.92 492.158 1282.76 496.053 1282.76M489 1289.81C489 1285.92 485.842 1282.76 481.947 1282.76M489 1289.81C489 1291.58 489.241 1292.23 489.882 1293.34C491.586 1296.29 495.36 1297.3 498.312 1295.6C501.019 1294.04 502.094 1290.73 500.94 1287.92C504.185 1287.29 506.633 1284.43 506.633 1281C506.633 1277.1 503.475 1273.94 499.58 1273.94L499.58 1270.42C499.58 1267.5 497.212 1265.13 494.29 1265.13C491.369 1265.13 489 1267.5 489 1270.42M489 1289.81C489 1291.58 488.76 1292.23 488.119 1293.34C486.414 1296.29 482.64 1297.3 479.688 1295.6C476.981 1294.04 475.906 1290.73 477.06 1287.92C473.816 1287.29 471.367 1284.43 471.367 1281C471.367 1277.1 474.525 1273.94 478.42 1273.94L478.42 1270.42C478.42 1267.5 480.789 1265.13 483.71 1265.13C486.632 1265.13 489 1267.5 489 1270.42" stroke="#30887C" stroke-opacity="0.2" stroke-width="1.5" stroke-linecap="round" stroke-linejoin="round"/>
<path d="M586.829 1010.95V1017.56M586.829 1010.95C586.829 1009.73 585.842 1008.74 584.625 1008.74C583.408 1008.74 582.421 1009.73 582.421 1010.95V1026.38C582.421 1032.22 587.158 1036.96 593.001 1036.96C598.844 1036.96 603.58 1032.22 603.58 1026.38V1014.47C603.58 1013.26 602.594 1012.27 601.376 1012.27C600.88 1012.27 600.422 1012.43 600.054 1012.71M586.829 1010.95V1003.89C586.829 1002.68 587.816 1001.69 589.033 1001.69C590.251 1001.69 591.237 1002.68 591.237 1003.89M591.237 1003.89V1014.03M591.237 1003.89V1002.13C591.237 1000.91 592.224 999.926 593.442 999.926C594.659 999.926 595.646 1000.91 595.646 1002.13V1005.66M595.646 1005.66V1014.03M595.646 1005.66C595.646 1004.44 596.632 1003.45 597.85 1003.45C599.067 1003.45 600.054 1004.44 600.054 1005.66V1012.71M600.054 1012.71C599.519 1013.11 599.172 1013.75 599.172 1014.47V1019.32C596.886 1020.22 595.227 1022.27 594.847 1024.76" stroke="#30887C" stroke-opacity="0.2" stroke-width="1.5" stroke-linecap="round" stroke-linejoin="round"/>
<path d="M73.9281 944.15V946.795C73.9281 948.743 72.3317 950.324 70.4423 950.797C68.916 951.179 67.4366 951.743 66.1701 952.308C63.7602 953.383 62.5138 955.951 62.7476 958.579L64.1303 974.126M86.1715 944.15V946.795C86.1715 948.743 87.7684 950.323 89.6568 950.8C91.1662 951.181 92.6242 951.742 93.8716 952.305C96.2605 953.381 97.4875 955.935 97.2554 958.545L95.8696 974.126M70.3018 960.02C70.3018 962.665 70.3018 969.718 77.355 969.718M72.0651 967.955C72.0651 970.6 72.9468 975.89 70.3018 979.416M89.6981 960.02C89.6981 962.665 89.6981 969.718 82.6449 969.718M87.9348 967.955C87.9348 970.6 87.0531 975.89 89.6981 979.416" stroke="#30887C" stroke-opacity="0.2" stroke-width="1.5" stroke-linecap="round" stroke-linejoin="round"/>
<path d="M548.711 3.52637C548.711 13.2245 543.421 14.9878 543.421 22.041C543.421 29.0942 547.829 29.9758 552.237 39.674M564.58 8.81626C563.699 20.2777 558.85 20.2777 560.172 22.9226C561.495 25.5676 563.699 25.5676 563.699 36.1474M550.474 28.2125C553.119 28.2125 555.764 27.3309 557.527 25.5676" stroke="#30887C" stroke-opacity="0.2" stroke-width="1.5" stroke-linecap="round" stroke-linejoin="round"/>
<path d="M213.527 769.035V770.211C213.527 771.509 214.58 772.562 215.878 772.562C218.475 772.562 220.58 774.667 220.58 777.264V777.411C220.58 780.089 218.409 782.26 215.731 782.26H202.947M206.474 769.035V773.97C206.474 775.627 207.817 776.97 209.474 776.97H213.527H199.421C196.499 776.97 194.131 779.338 194.131 782.26C194.131 785.181 196.499 787.55 199.421 787.55H206.474M217.935 787.55H206.474M213.527 782.26H220.58C223.502 782.26 225.87 784.628 225.87 787.55C225.87 790.471 223.502 792.84 220.58 792.84H208.237H210.527C212.184 792.84 213.527 794.183 213.527 795.84V800.774M206.474 800.774V798.717C206.474 798.393 206.211 798.13 205.886 798.13H204.711C201.789 798.13 199.421 795.761 199.421 792.84C199.421 789.918 201.789 787.55 204.711 787.55H206.474" stroke="#30887C" stroke-opacity="0.2" stroke-width="1.5" stroke-linecap="round" stroke-linejoin="round"/>
<path d="M85.8116 503.966L89.516 499.465L95.3183 500.028L94.7548 494.226L99.256 490.522L94.7548 486.817L95.3183 481.015L89.516 481.578L85.8116 477.077L82.1072 481.578L76.305 481.015L76.8685 486.817L72.3672 490.522L76.8685 494.226L76.305 500.028L82.1072 499.465L85.8116 503.966ZM85.8116 503.966C84.2205 506.722 85.1647 510.246 87.9206 511.837C90.6765 513.428 94.2004 512.484 95.7915 509.728L97.232 507.233L98.6725 504.738C99.9984 502.441 102.935 501.655 105.232 502.98C107.528 504.306 108.315 507.243 106.989 509.54L106.269 510.787M89.6529 490.522C89.6529 492.643 87.9331 494.363 85.8116 494.363C83.6901 494.363 81.9703 492.643 81.9703 490.522C81.9703 488.4 83.6901 486.68 85.8116 486.68C87.9331 486.68 89.6529 488.4 89.6529 490.522Z" stroke="#30887C" stroke-opacity="0.2" stroke-width="1.5" stroke-linecap="round" stroke-linejoin="round"/>
<path d="M77.4746 739.634L70.8309 746.277C69.4537 747.655 67.2166 747.523 65.3522 746.959C63.4716 746.391 61.5557 746.728 60.377 747.907C58.4055 749.878 58.482 753.151 60.5478 755.217C62.6136 757.283 64.7566 755.125 66.441 756.813C68.1226 758.498 65.963 760.632 68.0288 762.698C70.0946 764.764 73.3676 764.84 75.3391 762.869C76.51 761.698 76.8895 759.839 76.3654 757.998C75.8318 756.125 75.6879 753.889 77.0651 752.512L83.7088 745.868M54.6014 774.879L59.0982 770.355C60.4742 768.971 62.7249 769.11 64.6118 769.609C66.5328 770.117 68.5435 769.676 69.9357 768.369C71.1332 767.245 71.5863 765.767 71.4058 764.32M48.3672 768.644L52.8968 764.169C54.2881 762.794 54.1486 760.538 53.6527 758.646C53.1518 756.735 53.6079 754.748 54.9736 753.407C56.1213 752.28 57.5501 751.817 58.9471 751.951" stroke="#30887C" stroke-opacity="0.2" stroke-width="1.5" stroke-linecap="round" stroke-linejoin="round"/>
<path d="M225.421 643.621V636.568C225.421 633.435 226.783 630.62 228.947 628.682M246.58 643.621V636.568C246.58 630.725 241.843 625.988 236 625.988C230.157 625.988 225.421 621.252 225.421 615.409V608.355M246.58 608.355V615.409C246.58 618.542 245.218 621.357 243.053 623.294M232.474 613.645H239.527M232.474 638.332H239.527" stroke="#30887C" stroke-opacity="0.2" stroke-width="1.5" stroke-linecap="round" stroke-linejoin="round"/>
<path d="M1421.53 889.259V890.434C1421.53 891.733 1422.58 892.785 1423.88 892.785C1426.48 892.785 1428.58 894.891 1428.58 897.488V897.634C1428.58 900.313 1426.41 902.484 1423.73 902.484H1410.95M1414.47 889.259V894.194C1414.47 895.85 1415.82 897.194 1417.47 897.194H1421.53H1407.42C1404.5 897.194 1402.13 899.562 1402.13 902.484C1402.13 905.405 1404.5 907.773 1407.42 907.773H1414.47M1425.94 907.773H1414.47M1421.53 902.484H1428.58C1431.5 902.484 1433.87 904.852 1433.87 907.773C1433.87 910.695 1431.5 913.063 1428.58 913.063H1416.24H1418.53C1420.18 913.063 1421.53 914.406 1421.53 916.063V920.998M1414.47 920.998V918.941C1414.47 918.616 1414.21 918.353 1413.89 918.353H1412.71C1409.79 918.353 1407.42 915.985 1407.42 913.063C1407.42 910.142 1409.79 907.773 1412.71 907.773H1414.47" stroke="#30887C" stroke-opacity="0.2" stroke-width="1.5" stroke-linecap="round" stroke-linejoin="round"/>
<path d="M1433.42 763.845V756.792C1433.42 753.658 1434.78 750.843 1436.95 748.906M1454.58 763.845V756.792C1454.58 750.949 1449.84 746.212 1444 746.212C1438.16 746.212 1433.42 741.475 1433.42 735.632V728.579M1454.58 728.579V735.632C1454.58 738.766 1453.22 741.581 1451.05 743.518M1440.47 733.869H1447.53M1440.47 758.555H1447.53" stroke="#30887C" stroke-opacity="0.2" stroke-width="1.5" stroke-linecap="round" stroke-linejoin="round"/>
<path d="M193.829 481.605V485.132M185.894 483.369L188.388 485.862M184.131 491.304H187.657M183.357 499.149C181.385 501.12 181.462 504.393 183.528 506.459C185.593 508.525 187.736 506.367 189.421 508.055C191.102 509.74 188.943 511.874 191.009 513.94C193.074 516.006 196.347 516.082 198.319 514.111C199.514 512.916 199.884 511.005 199.312 509.128C198.757 507.31 198.581 505.146 199.88 503.757L200.882 502.684V499.239H194.711V496.594L193.811 497.5C192.435 498.887 190.19 498.759 188.319 498.198C186.443 497.635 184.533 497.973 183.357 499.149ZM201.674 480.831C203.646 478.86 206.919 478.936 208.984 481.002C211.05 483.068 208.893 485.211 210.58 486.895C212.265 488.577 214.4 486.417 216.465 488.483C218.531 490.549 218.608 493.822 216.636 495.793C215.465 496.964 213.606 497.344 211.766 496.82C209.893 496.286 207.656 496.142 206.279 497.52L205.29 498.508V493.093H198.237L200.045 491.285C201.422 489.908 201.29 487.671 200.727 485.807C200.159 483.926 200.495 482.01 201.674 480.831Z" stroke="#30887C" stroke-opacity="0.2" stroke-width="1.5" stroke-linecap="round" stroke-linejoin="round"/>
<path d="M84.7108 608.355C84.7108 618.054 79.4209 619.817 79.4209 626.87C79.4209 633.923 83.8291 634.805 88.2374 644.503M100.58 613.645C99.6988 625.107 94.8498 625.107 96.1722 627.752C97.4947 630.397 99.6988 630.397 99.6988 640.976M86.4741 633.042C89.119 633.042 91.764 632.16 93.5273 630.397" stroke="#30887C" stroke-opacity="0.2" stroke-width="1.5" stroke-linecap="round" stroke-linejoin="round"/>
<path d="M261.249 1133.61C273.592 1125.8 292.988 1131.44 294.752 1138.76C296.515 1146.07 292.167 1161.43 290.106 1164.52M267.433 1138.76C270.181 1138.07 276.914 1137.11 281.861 1138.76M261.249 1148.03C263.31 1150.09 273.592 1154.01 283.922 1148.03C277.119 1153.13 279.077 1159.39 279.764 1162.83" stroke="#30887C" stroke-opacity="0.2" stroke-width="1.5" stroke-linecap="round" stroke-linejoin="round"/>
<path d="M773.053 432.527V450.159M773.053 432.527C770.408 428.118 766.882 427.237 763.355 428.118M773.053 432.527V429M773.053 414.894V429M773.053 429C775.584 425.963 777.823 424.089 780.106 422.876M785.396 421.065C783.518 421.441 781.801 421.976 780.106 422.876M780.106 422.876C780.988 420.279 780.988 417.538 778.343 415.775M761.592 434.29C762.473 440.461 762.473 446.633 755.42 446.633C748.367 446.633 745.722 436.936 752.775 429.001C759.828 421.066 767.763 429 761.592 434.29Z" stroke="#30887C" stroke-opacity="0.2" stroke-width="1.5" stroke-linecap="round" stroke-linejoin="round"/>
<path d="M818.819 289.537C821.359 290.47 822.813 293.205 822.099 295.869C821.343 298.691 818.442 300.366 815.62 299.61C809.976 298.098 806.729 291.915 808.367 285.801C810.005 279.687 815.909 275.956 821.553 277.468C823.434 277.972 824.551 279.906 824.047 281.787C823.542 283.669 821.609 284.785 819.727 284.281C819.153 284.127 818.65 283.84 818.243 283.462M818.819 289.537C818.669 289.482 818.515 289.433 818.358 289.391C817.646 289.2 816.928 289.164 816.241 289.262M818.819 289.537C819.618 289.303 820.241 288.744 820.626 288.048M820.423 284.468C821.247 285.51 821.233 286.95 820.626 288.048M833.181 289.537C830.641 290.47 829.187 293.205 829.901 295.869C830.658 298.691 833.558 300.366 836.38 299.61C842.024 298.098 845.271 291.915 843.633 285.801C841.995 279.686 836.091 275.956 830.447 277.468C828.566 277.972 827.45 279.906 827.954 281.787C828.458 283.669 830.391 284.785 832.273 284.281C832.847 284.127 833.35 283.84 833.757 283.462M833.181 289.537C833.331 289.481 833.485 289.433 833.642 289.391C834.354 289.2 835.072 289.164 835.759 289.262M833.181 289.537C832.382 289.303 831.759 288.744 831.374 288.048M831.577 284.467C830.753 285.51 830.767 286.95 831.374 288.048M831.374 288.048C828.782 288.048 826.569 289.922 826.143 292.479L826 293.338M826 307.444L826 293.338M820.626 288.048C823.218 288.048 825.431 289.922 825.857 292.479L826 293.338" stroke="#30887C" stroke-opacity="0.2" stroke-width="1.5" stroke-linecap="round" stroke-linejoin="round"/>
<path d="M972.409 202.872C970.645 205.517 968.882 209.925 968.882 216.097M972.409 202.872C970.646 205.517 969.764 209.044 961.829 209.044M972.409 202.872C974.638 199.899 978.121 197.553 981.8 196.889C982.872 196.696 983.707 195.722 983.528 194.647L983.234 192.884C983.093 192.034 982.356 191.401 981.5 191.503C977.274 192.004 972.027 194.533 968.882 198.464C968.882 196.7 968.882 191.411 968.001 188.766M960.947 197.582C960.066 194.937 958.302 193.174 955.658 193.174M954.776 210.802C956.539 218.737 963.299 224.88 968 224.88C972.702 224.88 979.169 218.737 981.225 210.802C983.282 202.866 976.817 197.577 972.409 202.867C972.409 200.228 969.764 197.582 964.474 197.582C959.184 197.582 953.013 202.867 954.776 210.802Z" stroke="#30887C" stroke-opacity="0.2" stroke-width="1.5" stroke-linecap="round" stroke-linejoin="round"/>
<path d="M1051.27 324.909C1050.35 322.353 1051.1 318.118 1053.02 315.687C1053.69 314.84 1054.89 315.242 1055.45 316.163C1057.29 319.19 1060.48 321.382 1064.24 321.382C1077.46 321.382 1081.87 297.956 1071.29 300.223C1068.65 300.79 1065.12 296.696 1066 291.406M1046.01 324.909C1043.55 319.492 1045.48 312.306 1050.23 308.427C1051.2 307.634 1052.55 307.689 1053.7 308.19C1058.27 310.181 1061.7 309.167 1064.14 306.077C1064.74 305.317 1064.44 304.241 1063.7 303.614C1060.35 300.765 1059.15 296.086 1060.71 291.406" stroke="#30887C" stroke-opacity="0.2" stroke-width="1.5" stroke-linecap="round" stroke-linejoin="round"/>
<path d="M1130.89 210.596V202.79C1130.89 201.175 1130.29 199.637 1129.48 198.238C1128.14 195.907 1127.37 193.202 1127.37 190.318C1127.37 181.553 1134.47 174.448 1143.24 174.448C1151.89 174.448 1158.92 181.32 1159.1 190.824C1159.11 191.07 1159.16 191.316 1159.26 191.542L1162.63 199.134L1159.11 200.898C1157.34 207.069 1157.7 208.833 1152.05 208.833C1146.41 208.833 1145.88 207.951 1145 205.306M1141.47 197.371C1141.47 195.423 1143.05 193.845 1145 193.845C1147.43 193.845 1149.41 191.871 1149.41 189.436M1149.41 189.436C1150.87 189.436 1152.05 188.252 1152.05 186.791C1152.05 185.331 1150.87 184.146 1149.41 184.146C1149.03 184.146 1148.68 184.225 1148.35 184.366C1148.47 184.02 1148.53 183.649 1148.53 183.265C1148.53 181.317 1146.95 179.738 1145 179.738C1143.33 179.738 1141.93 180.898 1141.57 182.455M1149.41 189.436C1148.63 189.436 1147.92 189.096 1147.44 188.555M1134.81 187.719C1133.58 187.951 1132.66 189.026 1132.66 190.318C1132.66 191.779 1133.84 192.963 1135.3 192.963C1136.45 192.963 1137.43 192.227 1137.8 191.2M1134.81 187.719C1134.97 187.689 1135.13 187.673 1135.3 187.673M1134.81 187.719C1134.56 187.167 1134.42 186.555 1134.42 185.91C1134.42 183.475 1136.39 181.501 1138.83 181.501C1139.86 181.501 1140.81 181.858 1141.57 182.455M1141.57 182.455C1142.58 183.262 1143.24 184.51 1143.24 185.91" stroke="#30887C" stroke-opacity="0.2" stroke-width="1.5" stroke-linecap="round" stroke-linejoin="round"/>
<path d="M1239.98 333.141C1237.92 331.075 1234.65 330.999 1232.67 332.97C1231.5 334.149 1231.16 336.065 1231.73 337.945C1232.29 339.81 1232.42 342.047 1231.04 343.424L1224.81 349.658C1223.43 351.035 1221.2 350.903 1219.33 350.34C1217.45 349.772 1215.54 350.109 1214.36 351.287C1212.39 353.259 1212.46 356.532 1214.53 358.598C1216.59 360.663 1218.74 358.506 1220.42 360.194C1222.1 361.878 1219.94 364.013 1222.01 366.079C1224.07 368.144 1227.35 368.221 1229.32 366.25C1230.49 365.079 1230.87 363.219 1230.35 361.379C1229.81 359.506 1229.67 357.27 1231.04 355.892L1237.28 349.658C1238.66 348.281 1240.89 348.425 1242.77 348.958C1244.61 349.483 1246.47 349.103 1247.64 347.932C1249.61 345.961 1249.53 342.688 1247.47 340.622C1245.4 338.556 1243.27 340.716 1241.58 339.034C1239.89 337.35 1242.05 335.207 1239.98 333.141Z" stroke="#30887C" stroke-opacity="0.2" stroke-width="1.5" stroke-linecap="round" stroke-linejoin="round"/>
<path d="M1242.83 199.786V206.399M1242.83 199.786C1242.83 198.569 1241.84 197.582 1240.63 197.582C1239.41 197.582 1238.42 198.569 1238.42 199.786V215.215C1238.42 221.058 1243.16 225.795 1249 225.795C1254.84 225.795 1259.58 221.058 1259.58 215.215V203.313C1259.58 202.096 1258.59 201.109 1257.38 201.109C1256.88 201.109 1256.42 201.273 1256.05 201.549M1242.83 199.786V192.733C1242.83 191.516 1243.82 190.529 1245.03 190.529C1246.25 190.529 1247.24 191.516 1247.24 192.733M1247.24 192.733V202.872M1247.24 192.733V190.97C1247.24 189.752 1248.22 188.766 1249.44 188.766C1250.66 188.766 1251.65 189.752 1251.65 190.97V194.496M1251.65 194.496V202.872M1251.65 194.496C1251.65 193.279 1252.63 192.292 1253.85 192.292C1255.07 192.292 1256.05 193.279 1256.05 194.496V201.549M1256.05 201.549C1255.52 201.951 1255.17 202.592 1255.17 203.313V208.162C1252.89 209.065 1251.23 211.11 1250.85 213.604" stroke="#30887C" stroke-opacity="0.2" stroke-width="1.5" stroke-linecap="round" stroke-linejoin="round"/>
<path d="M917.249 322.445C929.592 314.636 948.988 320.282 950.752 327.598C952.515 334.914 948.167 350.271 946.106 353.363M923.433 327.598C926.181 326.911 932.914 325.949 937.861 327.598M917.249 336.873C919.31 338.934 929.592 342.849 939.922 336.873C933.119 341.967 935.077 348.23 935.764 351.665" stroke="#30887C" stroke-opacity="0.2" stroke-width="1.5" stroke-linecap="round" stroke-linejoin="round"/>
<path d="M487.053 346.85V364.483M487.053 346.85C484.408 342.442 480.882 341.56 477.355 342.442M487.053 346.85V343.323M487.053 329.217V343.323M487.053 343.323C489.584 340.287 491.823 338.412 494.106 337.199M499.396 335.388C497.518 335.764 495.801 336.299 494.106 337.199M494.106 337.199C494.988 334.602 494.988 331.862 492.343 330.098M475.592 348.613C476.473 354.785 476.473 360.956 469.42 360.956C462.367 360.956 459.722 351.259 466.775 343.324C473.828 335.389 481.763 343.324 475.592 348.613Z" stroke="#30887C" stroke-opacity="0.2" stroke-width="1.5" stroke-linecap="round" stroke-linejoin="round"/>
<path d="M423.527 231.441V219.043M423.527 219.043C425.78 216.488 427.054 211.692 427.054 207.637C427.054 201.794 425.29 199.702 420.001 199.702C414.711 199.702 412.947 201.794 412.947 207.637C412.947 211.692 414.221 216.488 416.474 219.043M423.527 219.043C422.534 220.17 421.35 220.862 420.001 220.862C418.651 220.862 417.467 220.17 416.474 219.043M416.474 231.441V219.043M426.491 203.229C428.254 201.465 430.899 200.584 433.544 201.465C439.575 203.476 437.07 212.927 433.544 212.045C430.017 211.163 432.662 204.11 437.07 205.874M413.51 203.229C411.747 201.465 409.102 200.584 406.457 201.465C400.426 203.476 402.931 212.927 406.457 212.045C409.984 211.163 407.339 204.11 402.931 205.874" stroke="#30887C" stroke-opacity="0.2" stroke-width="1.5" stroke-linecap="round" stroke-linejoin="round"/>
<path d="M532.819 203.861C535.359 204.794 536.813 207.529 536.099 210.194C535.343 213.016 532.442 214.69 529.62 213.934C523.976 212.422 520.729 206.239 522.367 200.125C524.005 194.011 529.909 190.28 535.553 191.792C537.434 192.297 538.551 194.23 538.047 196.112C537.542 197.993 535.609 199.109 533.727 198.605C533.153 198.451 532.65 198.164 532.243 197.786M532.819 203.861C532.669 203.806 532.515 203.757 532.358 203.715C531.646 203.524 530.928 203.488 530.241 203.586M532.819 203.861C533.618 203.628 534.241 203.069 534.626 202.372M534.423 198.792C535.247 199.834 535.233 201.274 534.626 202.372M547.181 203.861C544.641 204.794 543.187 207.529 543.901 210.194C544.658 213.016 547.558 214.69 550.38 213.934C556.024 212.422 559.271 206.239 557.633 200.125C555.995 194.011 550.091 190.28 544.447 191.792C542.566 192.296 541.45 194.23 541.954 196.112C542.458 197.993 544.391 199.109 546.273 198.605C546.847 198.451 547.35 198.164 547.757 197.786M547.181 203.861C547.331 203.806 547.485 203.757 547.642 203.715C548.354 203.524 549.072 203.488 549.759 203.586M547.181 203.861C546.382 203.627 545.759 203.068 545.374 202.372M545.577 198.792C544.753 199.834 544.767 201.274 545.374 202.372M545.374 202.372C542.782 202.372 540.569 204.246 540.143 206.803L540 207.662M540 221.769L540 207.662M534.626 202.372C537.218 202.372 539.431 204.246 539.857 206.803L540 207.662" stroke="#30887C" stroke-opacity="0.2" stroke-width="1.5" stroke-linecap="round" stroke-linejoin="round"/>
<path d="M626.408 381.541C625.527 385.067 625.527 390.357 627.29 393.002M617.592 381.541C618.474 385.067 618.474 390.357 616.71 393.002M614.065 364.79C617.239 366.553 626.761 366.553 629.935 364.79M622 372.724C622 372.724 626.408 372.724 628.172 373.606C628.172 370.961 631.698 357.736 634.343 357.736C636.988 357.736 639.633 367.434 639.633 373.606C639.633 379.778 636.988 385.067 634.343 385.067C631.698 385.067 629.935 383.304 628.172 379.778C626.761 380.483 623.176 380.659 622 380.659C620.825 380.659 617.239 380.483 615.829 379.778C614.065 383.304 612.302 385.067 609.657 385.067C607.012 385.067 604.367 379.778 604.367 373.606C604.367 367.434 607.012 357.736 609.657 357.736C612.302 357.736 615.829 370.961 615.829 373.606C617.592 372.724 622 372.724 622 372.724Z" stroke="#30887C" stroke-opacity="0.3" stroke-width="1.5" stroke-linecap="round" stroke-linejoin="round"/>
<path d="M686.409 117.196C684.645 119.841 682.882 124.249 682.882 130.421M686.409 117.196C684.646 119.841 683.764 123.368 675.829 123.368M686.409 117.196C688.638 114.224 692.121 111.877 695.8 111.214C696.872 111.02 697.707 110.046 697.528 108.971L697.234 107.208C697.093 106.358 696.356 105.725 695.5 105.827C691.274 106.328 686.027 108.857 682.882 112.788C682.882 111.025 682.882 105.735 682.001 103.09M674.947 111.906C674.066 109.261 672.302 107.498 669.658 107.498M668.776 125.126C670.539 133.061 677.299 139.205 682 139.205C686.702 139.205 693.169 133.061 695.225 125.126C697.282 117.191 690.817 111.901 686.409 117.191C686.409 114.552 683.764 111.906 678.474 111.906C673.184 111.906 667.013 117.191 668.776 125.126Z" stroke="#30887C" stroke-opacity="0.2" stroke-width="1.5" stroke-linecap="round" stroke-linejoin="round"/>
<path d="M443.928 47.3154V49.9604C443.928 51.9081 442.332 53.4891 440.442 53.962C438.916 54.3441 437.437 54.9085 436.17 55.4732C433.76 56.5479 432.514 59.1162 432.748 61.7445L434.13 77.2915M456.171 47.3154V49.9604C456.171 51.9081 457.768 53.488 459.657 53.9649C461.166 54.3461 462.624 54.9075 463.872 55.4696C466.261 56.5461 467.488 59.0996 467.255 61.7096L465.87 77.2915M440.302 63.1851C440.302 65.83 440.302 72.8832 447.355 72.8832M442.065 71.1199C442.065 73.7649 442.947 79.0548 440.302 82.5814M459.698 63.1851C459.698 65.83 459.698 72.8832 452.645 72.8832M457.935 71.1199C457.935 73.7649 457.053 79.0548 459.698 82.5814" stroke="#30887C" stroke-opacity="0.2" stroke-width="1.5" stroke-linecap="round" stroke-linejoin="round"/>
<path d="M631.249 236.768C643.592 228.959 662.988 234.605 664.752 241.921C666.515 249.237 662.167 264.595 660.106 267.686M637.433 241.921C640.181 241.234 646.914 240.272 651.861 241.921M631.249 251.196C633.31 253.258 643.592 257.172 653.922 251.196C647.119 256.29 649.077 262.553 649.764 265.988" stroke="#30887C" stroke-opacity="0.2" stroke-width="1.5" stroke-linecap="round" stroke-linejoin="round"/>
<path d="M327.42 1269.27C329.184 1274.56 328.302 1278.97 323.894 1284.26C323.235 1285.05 322.734 1285.9 322.364 1286.79C320.256 1291.82 322.394 1298.01 323.894 1301.01M348.58 1269.27C346.817 1274.56 347.698 1278.97 352.107 1284.26C352.745 1285.03 353.235 1285.85 353.601 1286.7C355.768 1291.76 353.615 1298 352.107 1301.01M338.067 1279.85V1278.97M338 1297.49L338.116 1296.56C338.554 1293.06 341.528 1290.43 345.053 1290.43M338 1297.49V1301.01M338 1297.49L337.884 1296.56C337.447 1293.06 334.473 1290.43 330.947 1290.43" stroke="#30887C" stroke-opacity="0.2" stroke-width="1.5" stroke-linecap="round" stroke-linejoin="round"/>
<path d="M1161.27 522.517C1160.35 519.962 1161.1 515.727 1163.02 513.296C1163.69 512.449 1164.89 512.85 1165.45 513.772C1167.29 516.798 1170.48 518.991 1174.24 518.991C1187.46 518.991 1191.87 495.564 1181.29 497.831C1178.65 498.398 1175.12 494.305 1176 489.015M1156.01 522.517C1153.55 517.1 1155.48 509.914 1160.23 506.035C1161.2 505.242 1162.55 505.297 1163.7 505.798C1168.27 507.79 1171.7 506.775 1174.14 503.685C1174.74 502.925 1174.44 501.849 1173.7 501.222C1170.35 498.373 1169.15 493.694 1170.71 489.015" stroke="#30887C" stroke-opacity="0.2" stroke-width="1.5" stroke-linecap="round" stroke-linejoin="round"/>
<path d="M643.984 516.931C641.919 514.865 638.646 514.789 636.674 516.76C635.495 517.939 635.159 519.855 635.727 521.735C636.29 523.6 636.422 525.837 635.045 527.214L628.811 533.448C627.433 534.825 625.196 534.693 623.332 534.13C621.451 533.562 619.535 533.899 618.357 535.077C616.385 537.049 616.462 540.322 618.528 542.388C620.593 544.454 622.736 542.296 624.421 543.984C626.102 545.668 623.943 547.803 626.009 549.869C628.074 551.935 631.347 552.011 633.319 550.04C634.49 548.869 634.869 547.009 634.345 545.169C633.812 543.296 633.668 541.06 635.045 539.682L641.279 533.448C642.656 532.071 644.893 532.215 646.766 532.748C648.606 533.273 650.465 532.893 651.636 531.722C653.608 529.751 653.531 526.478 651.465 524.412C649.4 522.346 647.265 524.506 645.58 522.824C643.893 521.14 646.05 518.997 643.984 516.931Z" stroke="#30887C" stroke-opacity="0.2" stroke-width="1.5" stroke-linecap="round" stroke-linejoin="round"/>
<path d="M960.527 50.4609V51.6365C960.527 52.9349 961.58 53.9875 962.878 53.9875C965.475 53.9875 967.58 56.0927 967.58 58.6897V58.8366C967.58 61.5147 965.409 63.6857 962.731 63.6857H949.947M953.474 50.4609V55.3958C953.474 57.0526 954.817 58.3958 956.474 58.3958H960.527H946.421C943.499 58.3958 941.131 60.7641 941.131 63.6857C941.131 66.6072 943.499 68.9756 946.421 68.9756H953.474M964.935 68.9756H953.474M960.527 63.6857H967.58C970.502 63.6857 972.87 66.054 972.87 68.9756C972.87 71.8971 970.502 74.2654 967.58 74.2654H955.237H957.527C959.184 74.2654 960.527 75.6086 960.527 77.2654V82.2003M953.474 82.2003V80.1431C953.474 79.8185 953.211 79.5553 952.886 79.5553H951.711C948.789 79.5553 946.421 77.187 946.421 74.2654C946.421 71.3439 948.789 68.9756 951.711 68.9756H953.474" stroke="#30887C" stroke-opacity="0.2" stroke-width="1.5" stroke-linecap="round" stroke-linejoin="round"/>
<path d="M664.812 1262.62L668.516 1258.11L674.318 1258.68L673.755 1252.88L678.256 1249.17L673.755 1245.47L674.318 1239.66L668.516 1240.23L664.812 1235.73L661.107 1240.23L655.305 1239.66L655.868 1245.47L651.367 1249.17L655.868 1252.88L655.305 1258.68L661.107 1258.11L664.812 1262.62ZM664.812 1262.62C663.221 1265.37 664.165 1268.9 666.921 1270.49C669.676 1272.08 673.2 1271.13 674.792 1268.38L676.232 1265.88L677.672 1263.39C678.998 1261.09 681.935 1260.3 684.232 1261.63C686.528 1262.96 687.315 1265.89 685.989 1268.19L685.269 1269.44M668.653 1249.17C668.653 1251.29 666.933 1253.01 664.812 1253.01C662.69 1253.01 660.97 1251.29 660.97 1249.17C660.97 1247.05 662.69 1245.33 664.812 1245.33C666.933 1245.33 668.653 1247.05 668.653 1249.17Z" stroke="#30887C" stroke-opacity="0.2" stroke-width="1.5" stroke-linecap="round" stroke-linejoin="round"/>
<path d="M824.475 21.0596L817.831 27.7033C816.454 29.0805 814.217 28.9484 812.352 28.3851C810.472 27.8169 808.556 28.1539 807.377 29.3325C805.405 31.304 805.482 34.5769 807.548 36.6427C809.614 38.7086 811.757 36.5511 813.441 38.2387C815.123 39.9235 812.963 42.0579 815.029 44.1237C817.095 46.1896 820.368 46.2661 822.339 44.2946C823.51 43.1236 823.889 41.2644 823.365 39.4242C822.832 37.551 822.688 35.3147 824.065 33.9375L830.709 27.2938M801.601 56.3044L806.098 51.7808C807.474 50.3966 809.725 50.5361 811.612 51.035C813.533 51.5429 815.543 51.1014 816.936 49.7948C818.133 48.6709 818.586 47.1924 818.406 45.7457M795.367 50.0702L799.897 45.5944C801.288 44.2196 801.149 41.9638 800.653 40.0718C800.152 38.1609 800.608 36.1735 801.974 34.8327C803.121 33.706 804.55 33.243 805.947 33.3764" stroke="#30887C" stroke-opacity="0.2" stroke-width="1.5" stroke-linecap="round" stroke-linejoin="round"/>
<path d="M930.421 1288.96V1281.9C930.421 1278.77 931.783 1275.95 933.947 1274.02M951.58 1288.96V1281.9C951.58 1276.06 946.843 1271.32 941 1271.32C935.157 1271.32 930.421 1266.59 930.421 1260.74V1253.69M951.58 1253.69V1260.74C951.58 1263.88 950.218 1266.69 948.053 1268.63M937.474 1258.98H944.527M937.474 1283.67H944.527" stroke="#30887C" stroke-opacity="0.2" stroke-width="1.5" stroke-linecap="round" stroke-linejoin="round"/>
<path d="M886 482.799V463.403M886 482.799C886 478.904 889.158 475.746 893.053 475.746M886 482.799C886 478.904 882.842 475.746 878.947 475.746M886 482.799C886 484.563 886.241 485.216 886.882 486.326C888.586 489.278 892.36 490.289 895.312 488.585C898.019 487.022 899.094 483.719 897.94 480.905C901.185 480.271 903.633 477.413 903.633 473.983C903.633 470.088 900.475 466.93 896.58 466.93L896.58 463.403C896.58 460.482 894.212 458.113 891.29 458.113C888.369 458.113 886 460.482 886 463.403M886 482.799C886 484.563 885.76 485.216 885.119 486.326C883.414 489.278 879.64 490.289 876.688 488.585C873.981 487.022 872.906 483.719 874.06 480.905C870.816 480.271 868.367 477.413 868.367 473.983C868.367 470.088 871.525 466.93 875.42 466.93L875.42 463.403C875.42 460.482 877.789 458.113 880.71 458.113C883.632 458.113 886 460.482 886 463.403" stroke="#30887C" stroke-opacity="0.2" stroke-width="1.5" stroke-linecap="round" stroke-linejoin="round"/>
<path d="M1427.83 1071.67V1075.19M1419.89 1073.43L1422.39 1075.92M1418.13 1081.36H1421.66M1417.36 1089.21C1415.39 1091.18 1415.46 1094.45 1417.53 1096.52C1419.59 1098.58 1421.74 1096.43 1423.42 1098.11C1425.1 1099.8 1422.94 1101.93 1425.01 1104C1427.07 1106.07 1430.35 1106.14 1432.32 1104.17C1433.51 1102.98 1433.88 1101.06 1433.31 1099.19C1432.76 1097.37 1432.58 1095.21 1433.88 1093.82L1434.88 1092.74V1089.3H1428.71V1086.65L1427.81 1087.56C1426.43 1088.95 1424.19 1088.82 1422.32 1088.26C1420.44 1087.69 1418.53 1088.03 1417.36 1089.21ZM1435.67 1070.89C1437.65 1068.92 1440.92 1069 1442.98 1071.06C1445.05 1073.13 1442.89 1075.27 1444.58 1076.95C1446.27 1078.64 1448.4 1076.48 1450.47 1078.54C1452.53 1080.61 1452.61 1083.88 1450.64 1085.85C1449.47 1087.02 1447.61 1087.4 1445.77 1086.88C1443.89 1086.35 1441.66 1086.2 1440.28 1087.58L1439.29 1088.57V1083.15H1432.24L1434.04 1081.34C1435.42 1079.97 1435.29 1077.73 1434.73 1075.87C1434.16 1073.99 1434.5 1072.07 1435.67 1070.89Z" stroke="#30887C" stroke-opacity="0.2" stroke-width="1.5" stroke-linecap="round" stroke-linejoin="round"/>
<path d="M341.29 366.736C339.62 366.257 337.763 368.618 336 368.618C334.237 368.618 332.38 366.257 330.71 366.736C323.556 368.787 317.485 375.107 317.485 377.252C317.485 379.898 326.262 387.133 336 387.133C345.738 387.133 354.515 379.898 354.515 377.252C354.515 375.107 348.444 368.787 341.29 366.736Z" stroke="#30887C" stroke-opacity="0.2" stroke-width="1.5" stroke-linecap="round" stroke-linejoin="round"/>
<path d="M349.225 377.252C349.225 378.133 343.304 379.897 336 379.897C328.696 379.897 322.775 378.133 322.775 377.252C322.775 376.37 328.696 374.607 336 374.607C343.304 374.607 349.225 376.37 349.225 377.252Z" stroke="#30887C" stroke-opacity="0.2" stroke-width="1.5" stroke-linecap="round" stroke-linejoin="round"/>
<path d="M1048.12 867.96C1045.47 871.486 1042.83 871.486 1040.18 872.368C1037.54 873.25 1036.07 875.162 1034.01 874.131C1031.95 873.1 1034.01 867.078 1034.01 863.551C1034.01 860.025 1031.37 853.853 1036.66 850.327C1041.95 846.8 1049.88 851.208 1049.88 851.208M1056.05 863.551C1056.05 863.551 1059.43 861.984 1062.22 858.262C1064.02 855.862 1065.7 852.527 1066.67 850.459C1067.02 849.7 1066.32 848.874 1065.49 849.042C1063.31 849.489 1059.76 850.01 1056.93 849.445C1052.53 848.563 1049.88 851.208 1049.88 851.208M1049.88 851.208C1050.18 852.384 1050.76 855.617 1050.76 859.143M1045.47 858.262C1045.47 860.025 1046.36 863.551 1049.88 863.551M1049.88 863.551C1053.41 863.551 1054.29 860.025 1054.29 858.262M1049.88 863.551C1043.71 866.196 1040.77 862.964 1040.18 861.788M1049.88 863.551C1051.06 864.139 1054.29 867.078 1053.41 870.605" stroke="#30887C" stroke-opacity="0.2" stroke-width="1.5" stroke-linecap="round" stroke-linejoin="round"/>
<path d="M1108.12 1177.5C1105.47 1181.03 1102.83 1181.03 1100.18 1181.91C1097.54 1182.79 1096.07 1184.7 1094.01 1183.67C1091.95 1182.64 1094.01 1176.62 1094.01 1173.09C1094.01 1169.56 1091.37 1163.39 1096.66 1159.87C1101.95 1156.34 1109.88 1160.75 1109.88 1160.75M1116.05 1173.09C1116.05 1173.09 1119.43 1171.52 1122.22 1167.8C1124.02 1165.4 1125.7 1162.07 1126.67 1160C1127.02 1159.24 1126.32 1158.41 1125.49 1158.58C1123.31 1159.03 1119.76 1159.55 1116.93 1158.99C1112.53 1158.1 1109.88 1160.75 1109.88 1160.75M1109.88 1160.75C1110.18 1161.92 1110.76 1165.16 1110.76 1168.68M1105.47 1167.8C1105.47 1169.56 1106.36 1173.09 1109.88 1173.09M1109.88 1173.09C1113.41 1173.09 1114.29 1169.56 1114.29 1167.8M1109.88 1173.09C1103.71 1175.74 1100.77 1172.5 1100.18 1171.33M1109.88 1173.09C1111.06 1173.68 1114.29 1176.62 1113.41 1180.14" stroke="#30887C" stroke-opacity="0.2" stroke-width="1.5" stroke-linecap="round" stroke-linejoin="round"/>
<path d="M981.119 1020.82C978.474 1020.82 974.065 1022.59 971.421 1026.11M982 1024.35C982 1024.35 979.355 1024.35 978.474 1021.7M979.355 1012.01C984.645 1016.41 988.172 1020.82 985.527 1032.28M974.066 1018.18C970.539 1015.53 969.657 1009.36 974.947 1006.72C980.237 1004.07 989.054 1005.84 992.58 1017.3C996.107 1028.76 993.462 1036.69 986.409 1038.46C979.355 1040.22 974.947 1033.17 978.474 1027.88" stroke="#30887C" stroke-opacity="0.2" stroke-width="1.5" stroke-linecap="round" stroke-linejoin="round"/>
<path d="M1168.12 878.49C1165.47 878.49 1161.07 880.253 1158.42 883.78M1169 882.016C1169 882.016 1166.36 882.016 1165.47 879.372M1166.36 869.673C1171.65 874.082 1175.17 878.49 1172.53 889.951M1161.07 875.845C1157.54 873.2 1156.66 867.029 1161.95 864.384C1167.24 861.739 1176.05 863.502 1179.58 874.963C1183.11 886.425 1180.46 894.36 1173.41 896.123C1166.36 897.885 1161.95 890.833 1165.47 885.543" stroke="#30887C" stroke-opacity="0.2" stroke-width="1.5" stroke-linecap="round" stroke-linejoin="round"/>
<path d="M1082.59 953.467C1082.59 951.41 1081.16 949.354 1075.54 954.349C1067.6 961.402 1070.25 977.272 1071.13 978.154C1072.01 979.035 1081.71 974.627 1082.59 972.864C1083.47 971.1 1081.71 968.455 1083.47 964.929M1091.41 953.467C1091.41 951.41 1092.84 949.354 1098.46 954.349C1106.4 961.402 1103.75 977.272 1102.87 978.154C1101.99 979.035 1092.29 974.627 1091.41 972.864C1090.53 971.1 1092.29 968.455 1090.53 964.929M1095.82 967.574C1095.82 963.411 1093.14 961.335 1091.1 959.985C1086.89 957.2 1087 952.014 1087 947.541C1087 952.014 1087.11 957.2 1082.9 959.985C1080.86 961.335 1078.18 963.411 1078.18 967.574" stroke="#30887C" stroke-opacity="0.2" stroke-width="1.5" stroke-linecap="round" stroke-linejoin="round"/>
<path d="M975.855 1182.05C974.679 1182.76 973.184 1181.91 973.184 1180.54V1164.87C969.217 1164.43 966.131 1161.07 966.131 1156.98C966.131 1152.6 969.683 1149.05 974.066 1149.05C977.113 1149.05 979.759 1151.61 981.088 1153.17C981.55 1153.71 982.452 1153.71 982.913 1153.17C984.242 1151.61 986.888 1149.05 989.935 1149.05C994.318 1149.05 997.87 1152.6 997.87 1156.98C997.87 1161.07 994.784 1164.43 990.817 1164.87L990.817 1180.54C990.817 1181.91 989.322 1182.76 988.147 1182.05C984.901 1180.11 982.001 1176.6 982.001 1176.6C982.001 1176.6 979.065 1180.13 975.855 1182.05Z" stroke="#30887C" stroke-opacity="0.2" stroke-width="1.5" stroke-linecap="round" stroke-linejoin="round"/>
<path d="M1158.42 1058.16C1158.42 1051.67 1163.95 1046.41 1170.76 1046.41C1177.58 1046.41 1183.11 1051.67 1183.11 1058.16C1183.11 1064.63 1179.62 1067.54 1176.48 1068.85C1173.91 1069.92 1171.59 1072.18 1171.59 1074.96C1171.59 1078.67 1168.64 1081.68 1165 1081.68C1161.37 1081.68 1158.42 1078.67 1158.42 1074.96V1071.6M1176.82 1059.4C1177.14 1056.01 1174.65 1052.99 1171.26 1052.67C1168.25 1052.38 1165.53 1054.31 1164.74 1057.13M1166.68 1063.52C1165.2 1062.26 1164.33 1060.31 1164.53 1058.22C1164.57 1057.85 1164.64 1057.48 1164.74 1057.13M1164.74 1057.13C1165.53 1056.79 1166.41 1056.63 1167.33 1056.72C1170.24 1057 1172.37 1059.58 1172.09 1062.49C1171.9 1064.54 1170.79 1066.1 1169 1066.81L1168.38 1070.35C1168.12 1071.78 1166.75 1072.74 1165.31 1072.49C1163.87 1072.24 1162.91 1070.87 1163.17 1069.43" stroke="#30887C" stroke-opacity="0.2" stroke-width="1.5" stroke-linecap="round" stroke-linejoin="round"/>
<path d="M1260.29 887.702C1258.62 887.223 1256.76 889.584 1255 889.584C1253.24 889.584 1251.38 887.223 1249.71 887.702C1242.56 889.753 1236.49 896.073 1236.49 898.217C1236.49 900.864 1245.26 908.098 1255 908.098C1264.74 908.098 1273.51 900.864 1273.51 898.217C1273.51 896.073 1267.44 889.753 1260.29 887.702Z" stroke="#30887C" stroke-opacity="0.2" stroke-width="1.5" stroke-linecap="round" stroke-linejoin="round"/>
<path d="M1268.22 898.217C1268.22 899.099 1262.3 900.862 1255 900.862C1247.7 900.862 1241.78 899.099 1241.78 898.217C1241.78 897.336 1247.7 895.573 1255 895.573C1262.3 895.573 1268.22 897.336 1268.22 898.217Z" stroke="#30887C" stroke-opacity="0.2" stroke-width="1.5" stroke-linecap="round" stroke-linejoin="round"/>
<path d="M649.409 871.7C647.645 874.345 645.882 878.753 645.882 884.925M649.409 871.7C647.646 874.345 646.764 877.872 638.829 877.872M649.409 871.7C651.638 868.727 655.121 866.381 658.8 865.717C659.872 865.524 660.707 864.55 660.528 863.475L660.234 861.712C660.093 860.862 659.356 860.229 658.5 860.331C654.274 860.832 649.027 863.361 645.882 867.292C645.882 865.529 645.882 860.239 645.001 857.594M637.947 866.41C637.066 863.765 635.302 862.002 632.658 862.002M631.776 879.63C633.539 887.565 640.299 893.709 645 893.709C649.702 893.709 656.169 887.565 658.225 879.63C660.282 871.695 653.817 866.405 649.409 871.695C649.409 869.056 646.764 866.41 641.474 866.41C636.184 866.41 630.013 871.695 631.776 879.63Z" stroke="#30887C" stroke-opacity="0.2" stroke-width="1.5" stroke-linecap="round" stroke-linejoin="round"/>
<path d="M234.409 917.301C232.645 919.946 230.882 924.354 230.882 930.525M234.409 917.301C232.646 919.946 231.764 923.472 223.829 923.472M234.409 917.301C236.638 914.328 240.121 911.982 243.8 911.318C244.872 911.125 245.707 910.151 245.528 909.076L245.234 907.313C245.093 906.462 244.356 905.83 243.5 905.931C239.274 906.433 234.027 908.962 230.882 912.892C230.882 911.129 230.882 905.839 230.001 903.194M222.947 912.011C222.066 909.366 220.302 907.603 217.658 907.603M216.776 925.231C218.539 933.165 225.299 939.309 230 939.309C234.702 939.309 241.169 933.166 243.225 925.231C245.282 917.295 238.817 912.006 234.409 917.296C234.409 914.657 231.764 912.011 226.474 912.011C221.184 912.011 215.013 917.296 216.776 925.231Z" stroke="#30887C" stroke-opacity="0.2" stroke-width="1.5" stroke-linecap="round" stroke-linejoin="round"/>
<path d="M728.269 993.736C727.352 991.181 728.103 986.945 730.021 984.514C730.69 983.668 731.889 984.069 732.45 984.99C734.292 988.017 737.482 990.209 741.239 990.209C754.463 990.209 758.872 966.783 748.292 969.05C745.647 969.617 742.12 965.523 743.002 960.233M723.013 993.736C720.553 988.319 722.477 981.133 727.231 977.254C728.203 976.461 729.555 976.516 730.704 977.017C735.27 979.008 738.704 977.994 741.139 974.904C741.738 974.144 741.438 973.068 740.701 972.441C737.352 969.592 736.152 964.913 737.712 960.233" stroke="#30887C" stroke-opacity="0.2" stroke-width="1.5" stroke-linecap="round" stroke-linejoin="round"/>
<path d="M807.894 879.421V871.615C807.894 870 807.289 868.462 806.482 867.063C805.137 864.732 804.367 862.028 804.367 859.143C804.367 850.379 811.472 843.273 820.237 843.273C828.888 843.273 835.922 850.145 836.103 859.649C836.108 859.895 836.158 860.141 836.259 860.367L839.633 867.96L836.107 869.723C834.343 875.894 834.696 877.658 829.053 877.658C823.411 877.658 822.882 876.776 822 874.131M818.474 866.196C818.474 864.249 820.052 862.67 822 862.67C824.435 862.67 826.408 860.696 826.408 858.261M826.408 858.261C827.869 858.261 829.053 857.077 829.053 855.617C829.053 854.156 827.869 852.972 826.408 852.972C826.033 852.972 825.675 853.05 825.351 853.191C825.465 852.845 825.527 852.475 825.527 852.09C825.527 850.142 823.948 848.563 822 848.563C820.331 848.563 818.933 849.723 818.567 851.28M826.408 858.261C825.625 858.261 824.921 857.921 824.437 857.38M811.808 856.544C810.583 856.776 809.657 857.851 809.657 859.143C809.657 860.604 810.841 861.788 812.302 861.788C813.454 861.788 814.433 861.052 814.796 860.025M811.808 856.544C811.968 856.514 812.133 856.498 812.302 856.498M811.808 856.544C811.559 855.992 811.42 855.38 811.42 854.735C811.42 852.3 813.394 850.327 815.829 850.327C816.863 850.327 817.815 850.683 818.567 851.28M818.567 851.28C819.584 852.088 820.237 853.335 820.237 854.735" stroke="#30887C" stroke-opacity="0.2" stroke-width="1.5" stroke-linecap="round" stroke-linejoin="round"/>
<path d="M916.984 1001.97C914.919 999.902 911.646 999.826 909.674 1001.8C908.495 1002.98 908.159 1004.89 908.727 1006.77C909.29 1008.64 909.422 1010.87 908.045 1012.25L901.811 1018.49C900.433 1019.86 898.196 1019.73 896.332 1019.17C894.451 1018.6 892.535 1018.94 891.357 1020.11C889.385 1022.09 889.462 1025.36 891.528 1027.42C893.593 1029.49 895.736 1027.33 897.421 1029.02C899.102 1030.71 896.943 1032.84 899.009 1034.91C901.074 1036.97 904.347 1037.05 906.319 1035.08C907.49 1033.91 907.869 1032.05 907.345 1030.21C906.812 1028.33 906.668 1026.1 908.045 1024.72L914.279 1018.49C915.656 1017.11 917.893 1017.25 919.766 1017.79C921.606 1018.31 923.465 1017.93 924.636 1016.76C926.608 1014.79 926.531 1011.51 924.465 1009.45C922.4 1007.38 920.265 1009.54 918.58 1007.86C916.893 1006.18 919.05 1004.03 916.984 1001.97Z" stroke="#30887C" stroke-opacity="0.2" stroke-width="1.5" stroke-linecap="round" stroke-linejoin="round"/>
<path d="M822 1147.48V1128.08M822 1147.48C822 1143.58 825.158 1140.43 829.053 1140.43M822 1147.48C822 1143.58 818.842 1140.43 814.947 1140.43M822 1147.48C822 1149.24 822.241 1149.9 822.882 1151.01C824.586 1153.96 828.36 1154.97 831.312 1153.27C834.019 1151.7 835.094 1148.4 833.94 1145.59C837.185 1144.95 839.633 1142.09 839.633 1138.66C839.633 1134.77 836.475 1131.61 832.58 1131.61L832.58 1128.08C832.58 1125.16 830.212 1122.79 827.29 1122.79C824.369 1122.79 822 1125.16 822 1128.08M822 1147.48C822 1149.24 821.76 1149.9 821.119 1151.01C819.414 1153.96 815.64 1154.97 812.688 1153.27C809.981 1151.7 808.906 1148.4 810.06 1145.59C806.816 1144.95 804.367 1142.09 804.367 1138.66C804.367 1134.77 807.525 1131.61 811.42 1131.61L811.42 1128.08C811.42 1125.16 813.789 1122.79 816.71 1122.79C819.632 1122.79 822 1125.16 822 1128.08" stroke="#30887C" stroke-opacity="0.2" stroke-width="1.5" stroke-linecap="round" stroke-linejoin="round"/>
<path d="M919.829 868.614V875.227M919.829 868.614C919.829 867.397 918.842 866.41 917.625 866.41C916.408 866.41 915.421 867.397 915.421 868.614V884.043C915.421 889.886 920.158 894.623 926.001 894.623C931.844 894.623 936.58 889.886 936.58 884.043V872.141C936.58 870.924 935.594 869.937 934.376 869.937C933.88 869.937 933.422 870.101 933.054 870.377M919.829 868.614V861.561C919.829 860.344 920.816 859.357 922.033 859.357C923.251 859.357 924.237 860.344 924.237 861.561M924.237 861.561V871.7M924.237 861.561V859.798C924.237 858.581 925.224 857.594 926.442 857.594C927.659 857.594 928.646 858.581 928.646 859.798V863.324M928.646 863.324V871.7M928.646 863.324C928.646 862.107 929.632 861.12 930.85 861.12C932.067 861.12 933.054 862.107 933.054 863.324V870.377M933.054 870.377C932.519 870.78 932.172 871.42 932.172 872.141V876.99C929.886 877.893 928.227 879.938 927.847 882.432" stroke="#30887C" stroke-opacity="0.2" stroke-width="1.5" stroke-linecap="round" stroke-linejoin="round"/>
<path d="M789.711 1253.69C789.711 1263.39 784.421 1265.15 784.421 1272.21C784.421 1279.26 788.829 1280.14 793.237 1289.84M805.58 1258.98C804.699 1270.44 799.85 1270.44 801.172 1273.09C802.495 1275.73 804.699 1275.73 804.699 1286.31M791.474 1278.38C794.119 1278.38 796.764 1277.49 798.527 1275.73" stroke="#30887C" stroke-opacity="0.2" stroke-width="1.5" stroke-linecap="round" stroke-linejoin="round"/>
<path d="M1233.53 1272.04V1273.21C1233.53 1274.51 1234.58 1275.56 1235.88 1275.56C1238.48 1275.56 1240.58 1277.67 1240.58 1280.27V1280.41C1240.58 1283.09 1238.41 1285.26 1235.73 1285.26H1222.95M1226.47 1272.04V1276.97C1226.47 1278.63 1227.82 1279.97 1229.47 1279.97H1233.53H1219.42C1216.5 1279.97 1214.13 1282.34 1214.13 1285.26C1214.13 1288.18 1216.5 1290.55 1219.42 1290.55H1226.47M1237.94 1290.55H1226.47M1233.53 1285.26H1240.58C1243.5 1285.26 1245.87 1287.63 1245.87 1290.55C1245.87 1293.47 1243.5 1295.84 1240.58 1295.84H1228.24H1230.53C1232.18 1295.84 1233.53 1297.18 1233.53 1298.84V1303.78M1226.47 1303.78V1301.72C1226.47 1301.39 1226.21 1301.13 1225.89 1301.13H1224.71C1221.79 1301.13 1219.42 1298.76 1219.42 1295.84C1219.42 1292.92 1221.79 1290.55 1224.71 1290.55H1226.47" stroke="#30887C" stroke-opacity="0.2" stroke-width="1.5" stroke-linecap="round" stroke-linejoin="round"/>
<path d="M1245.42 1146.62V1139.57C1245.42 1136.44 1246.78 1133.62 1248.95 1131.68M1266.58 1146.62V1139.57C1266.58 1133.73 1261.84 1128.99 1256 1128.99C1250.16 1128.99 1245.42 1124.25 1245.42 1118.41V1111.36M1266.58 1111.36V1118.41C1266.58 1121.54 1265.22 1124.36 1263.05 1126.3M1252.47 1116.65H1259.53M1252.47 1141.33H1259.53" stroke="#30887C" stroke-opacity="0.2" stroke-width="1.5" stroke-linecap="round" stroke-linejoin="round"/>
<path d="M805.249 137.273C817.592 129.464 836.988 135.11 838.752 142.426C840.515 149.742 836.167 165.1 834.106 168.191M811.433 142.426C814.181 141.739 820.914 140.777 825.861 142.426M805.249 151.701C807.31 153.763 817.592 157.677 827.922 151.701C821.119 156.795 823.077 163.058 823.764 166.493" stroke="#30887C" stroke-opacity="0.2" stroke-width="1.5" stroke-linecap="round" stroke-linejoin="round"/>
<path d="M585.053 815.306V832.939M585.053 815.306C582.408 810.898 578.882 810.016 575.355 810.898M585.053 815.306V811.779M585.053 797.673V811.779M585.053 811.779C587.584 808.743 589.823 806.868 592.106 805.656M597.396 803.844C595.518 804.22 593.801 804.756 592.106 805.656M592.106 805.656C592.988 803.058 592.988 800.318 590.343 798.554M573.592 817.069C574.473 823.241 574.473 829.412 567.42 829.412C560.367 829.412 557.722 819.715 564.775 811.78C571.828 803.845 579.763 811.78 573.592 817.069Z" stroke="#30887C" stroke-opacity="0.2" stroke-width="1.5" stroke-linecap="round" stroke-linejoin="round"/>
<path d="M630.819 672.317C633.359 673.25 634.813 675.985 634.099 678.65C633.343 681.472 630.442 683.146 627.62 682.39C621.976 680.878 618.729 674.695 620.367 668.581C622.005 662.467 627.909 658.736 633.553 660.249C635.434 660.753 636.551 662.686 636.047 664.568C635.542 666.449 633.609 667.565 631.727 667.061C631.153 666.908 630.65 666.62 630.243 666.242M630.819 672.317C630.669 672.262 630.515 672.213 630.358 672.171C629.646 671.98 628.928 671.944 628.241 672.042M630.819 672.317C631.618 672.084 632.241 671.525 632.626 670.828M632.423 667.248C633.247 668.29 633.233 669.73 632.626 670.828M645.181 672.317C642.641 673.25 641.187 675.985 641.901 678.65C642.658 681.472 645.558 683.146 648.38 682.39C654.024 680.878 657.271 674.695 655.633 668.581C653.995 662.467 648.091 658.736 642.447 660.248C640.566 660.752 639.45 662.686 639.954 664.568C640.458 666.449 642.391 667.565 644.273 667.061C644.847 666.907 645.35 666.62 645.757 666.242M645.181 672.317C645.331 672.262 645.485 672.213 645.642 672.171C646.354 671.98 647.072 671.944 647.759 672.042M645.181 672.317C644.382 672.083 643.759 671.525 643.374 670.828M643.577 667.248C642.753 668.29 642.767 669.73 643.374 670.828M643.374 670.828C640.782 670.828 638.569 672.702 638.143 675.26L638 676.118M638 690.225L638 676.118M632.626 670.828C635.218 670.828 637.431 672.702 637.857 675.259L638 676.118" stroke="#30887C" stroke-opacity="0.2" stroke-width="1.5" stroke-linecap="round" stroke-linejoin="round"/>
<path d="M784.409 585.651C782.645 588.296 780.882 592.704 780.882 598.876M784.409 585.651C782.646 588.296 781.764 591.823 773.829 591.823M784.409 585.651C786.638 582.679 790.121 580.332 793.8 579.669C794.872 579.475 795.707 578.501 795.528 577.427L795.234 575.663C795.093 574.813 794.356 574.18 793.5 574.282C789.274 574.784 784.027 577.312 780.882 581.243C780.882 579.48 780.882 574.19 780.001 571.545M772.947 580.361C772.066 577.716 770.302 575.953 767.658 575.953M766.776 593.581C768.539 601.516 775.299 607.66 780 607.66C784.702 607.66 791.169 601.516 793.225 593.581C795.282 585.646 788.817 580.356 784.409 585.646C784.409 583.007 781.764 580.362 776.474 580.362C771.184 580.362 765.013 585.646 766.776 593.581Z" stroke="#30887C" stroke-opacity="0.2" stroke-width="1.5" stroke-linecap="round" stroke-linejoin="round"/>
<path d="M863.269 707.688C862.352 705.133 863.103 700.898 865.021 698.466C865.69 697.62 866.889 698.021 867.45 698.943C869.292 701.969 872.482 704.162 876.239 704.162C889.463 704.162 893.872 680.735 883.292 683.002C880.647 683.569 877.12 679.475 878.002 674.186M858.013 707.688C855.553 702.271 857.477 695.085 862.231 691.206C863.203 690.413 864.555 690.468 865.704 690.969C870.27 692.96 873.704 691.946 876.139 688.856C876.738 688.096 876.438 687.02 875.701 686.393C872.352 683.544 871.152 678.865 872.712 674.186" stroke="#30887C" stroke-opacity="0.2" stroke-width="1.5" stroke-linecap="round" stroke-linejoin="round"/>
<path d="M942.894 593.374V585.568C942.894 583.953 942.289 582.415 941.482 581.016C940.137 578.685 939.367 575.981 939.367 573.096C939.367 564.332 946.472 557.227 955.237 557.227C963.888 557.227 970.922 564.098 971.103 573.602C971.108 573.849 971.158 574.094 971.259 574.32L974.633 581.913L971.107 583.676C969.343 589.848 969.696 591.611 964.053 591.611C958.411 591.611 957.882 590.729 957 588.084M953.474 580.149C953.474 578.202 955.052 576.623 957 576.623C959.435 576.623 961.408 574.649 961.408 572.215M961.408 572.215C962.869 572.215 964.053 571.03 964.053 569.57C964.053 568.109 962.869 566.925 961.408 566.925C961.033 566.925 960.675 567.003 960.351 567.144C960.465 566.798 960.527 566.428 960.527 566.043C960.527 564.095 958.948 562.516 957 562.516C955.331 562.516 953.933 563.676 953.567 565.233M961.408 572.215C960.625 572.215 959.921 571.874 959.437 571.333M946.808 570.497C945.583 570.729 944.657 571.804 944.657 573.096C944.657 574.557 945.841 575.741 947.302 575.741C948.454 575.741 949.433 575.005 949.796 573.978M946.808 570.497C946.968 570.467 947.133 570.451 947.302 570.451M946.808 570.497C946.559 569.945 946.42 569.333 946.42 568.688C946.42 566.253 948.394 564.28 950.829 564.28C951.863 564.28 952.815 564.636 953.567 565.233M953.567 565.233C954.584 566.041 955.237 567.288 955.237 568.688" stroke="#30887C" stroke-opacity="0.2" stroke-width="1.5" stroke-linecap="round" stroke-linejoin="round"/>
<path d="M1051.98 715.92C1049.92 713.854 1046.65 713.778 1044.67 715.749C1043.5 716.928 1043.16 718.844 1043.73 720.725C1044.29 722.589 1044.42 724.826 1043.04 726.203L1036.81 732.438C1035.43 733.815 1033.2 733.683 1031.33 733.119C1029.45 732.551 1027.54 732.888 1026.36 734.067C1024.39 736.038 1024.46 739.311 1026.53 741.377C1028.59 743.443 1030.74 741.285 1032.42 742.973C1034.1 744.658 1031.94 746.792 1034.01 748.858C1036.07 750.924 1039.35 751 1041.32 749.029C1042.49 747.858 1042.87 745.999 1042.35 744.158C1041.81 742.285 1041.67 740.049 1043.04 738.672L1049.28 732.437C1050.66 731.06 1052.89 731.204 1054.77 731.738C1056.61 732.262 1058.47 731.882 1059.64 730.711C1061.61 728.74 1061.53 725.467 1059.47 723.401C1057.4 721.335 1055.27 723.495 1053.58 721.813C1051.89 720.129 1054.05 717.986 1051.98 715.92Z" stroke="#30887C" stroke-opacity="0.2" stroke-width="1.5" stroke-linecap="round" stroke-linejoin="round"/>
<path d="M1054.83 582.566V589.178M1054.83 582.566C1054.83 581.348 1053.84 580.361 1052.63 580.361C1051.41 580.361 1050.42 581.348 1050.42 582.566V597.994C1050.42 603.837 1055.16 608.574 1061 608.574C1066.84 608.574 1071.58 603.837 1071.58 597.994V586.092C1071.58 584.875 1070.59 583.888 1069.38 583.888C1068.88 583.888 1068.42 584.052 1068.05 584.329M1054.83 582.566V575.512C1054.83 574.295 1055.82 573.308 1057.03 573.308C1058.25 573.308 1059.24 574.295 1059.24 575.512M1059.24 575.512V585.651M1059.24 575.512V573.749C1059.24 572.532 1060.22 571.545 1061.44 571.545C1062.66 571.545 1063.65 572.532 1063.65 573.749V577.276M1063.65 577.276V585.651M1063.65 577.276C1063.65 576.058 1064.63 575.072 1065.85 575.072C1067.07 575.072 1068.05 576.058 1068.05 577.276V584.329M1068.05 584.329C1067.52 584.731 1067.17 585.371 1067.17 586.092V590.941C1064.89 591.844 1063.23 593.89 1062.85 596.383" stroke="#30887C" stroke-opacity="0.2" stroke-width="1.5" stroke-linecap="round" stroke-linejoin="round"/>
<path d="M391.829 886.577V893.19M391.829 886.577C391.829 885.36 390.842 884.373 389.625 884.373C388.408 884.373 387.421 885.36 387.421 886.577V902.006C387.421 907.849 392.158 912.586 398.001 912.586C403.844 912.586 408.58 907.849 408.58 902.006V890.104C408.58 888.887 407.594 887.9 406.376 887.9C405.88 887.9 405.422 888.064 405.054 888.34M391.829 886.577V879.524C391.829 878.307 392.816 877.32 394.033 877.32C395.251 877.32 396.237 878.307 396.237 879.524M396.237 879.524V889.663M396.237 879.524V877.761C396.237 876.543 397.224 875.557 398.442 875.557C399.659 875.557 400.646 876.543 400.646 877.761V881.287M400.646 881.287V889.663M400.646 881.287C400.646 880.07 401.632 879.083 402.85 879.083C404.067 879.083 405.054 880.07 405.054 881.287V888.34M405.054 888.34C404.519 888.743 404.172 889.383 404.172 890.104V894.953C401.886 895.856 400.227 897.901 399.847 900.395" stroke="#30887C" stroke-opacity="0.2" stroke-width="1.5" stroke-linecap="round" stroke-linejoin="round"/>
<path d="M729.249 705.224C741.592 697.415 760.988 703.061 762.752 710.377C764.515 717.693 760.167 733.051 758.106 736.143M735.433 710.377C738.181 709.69 744.914 708.728 749.861 710.377M729.249 719.653C731.31 721.714 741.592 725.628 751.922 719.653C745.119 724.746 747.077 731.009 747.764 734.444" stroke="#30887C" stroke-opacity="0.2" stroke-width="1.5" stroke-linecap="round" stroke-linejoin="round"/>
<path d="M299.053 729.629V747.262M299.053 729.629C296.408 725.221 292.882 724.339 289.355 725.221M299.053 729.629V726.102M299.053 711.996V726.102M299.053 726.102C301.584 723.066 303.823 721.192 306.106 719.979M311.396 718.168C309.518 718.543 307.801 719.079 306.106 719.979M306.106 719.979C306.988 717.382 306.988 714.641 304.343 712.878M287.592 731.392C288.473 737.564 288.473 743.735 281.42 743.735C274.367 743.735 271.722 734.038 278.775 726.103C285.828 718.168 293.763 726.103 287.592 731.392Z" stroke="#30887C" stroke-opacity="0.2" stroke-width="1.5" stroke-linecap="round" stroke-linejoin="round"/>
<path d="M183.527 402.794V390.396M183.527 390.396C185.78 387.84 187.054 383.044 187.054 378.99C187.054 373.146 185.29 371.055 180.001 371.055C174.711 371.055 172.947 373.146 172.947 378.99C172.947 383.044 174.221 387.84 176.474 390.396M183.527 390.396C182.534 391.523 181.35 392.214 180.001 392.214C178.651 392.214 177.467 391.523 176.474 390.396M176.474 402.794V390.396M186.491 374.581C188.254 372.818 190.899 371.936 193.544 372.818C199.575 374.828 197.07 384.279 193.544 383.398C190.017 382.516 192.662 375.463 197.07 377.226M173.51 374.581C171.747 372.818 169.102 371.936 166.457 372.818C160.426 374.828 162.931 384.279 166.457 383.398C169.984 382.516 167.339 375.463 162.931 377.226" stroke="#30887C" stroke-opacity="0.2" stroke-width="1.5" stroke-linecap="round" stroke-linejoin="round"/>
<path d="M344.819 586.64C347.359 587.573 348.813 590.308 348.099 592.973C347.343 595.795 344.442 597.47 341.62 596.714C335.976 595.201 332.729 589.019 334.367 582.904C336.005 576.79 341.909 573.059 347.553 574.572C349.434 575.076 350.551 577.01 350.047 578.891C349.542 580.772 347.609 581.889 345.727 581.385C345.153 581.231 344.65 580.944 344.243 580.566M344.819 586.64C344.669 586.585 344.515 586.536 344.358 586.494C343.646 586.303 342.928 586.267 342.241 586.366M344.819 586.64C345.618 586.407 346.241 585.848 346.626 585.152M346.423 581.571C347.247 582.613 347.233 584.053 346.626 585.152M359.181 586.64C356.641 587.573 355.187 590.308 355.901 592.973C356.658 595.795 359.558 597.47 362.38 596.713C368.024 595.201 371.271 589.019 369.633 582.904C367.995 576.79 362.091 573.059 356.447 574.572C354.566 575.076 353.45 577.009 353.954 578.891C354.458 580.772 356.391 581.889 358.273 581.384C358.847 581.231 359.35 580.944 359.757 580.565M359.181 586.64C359.331 586.585 359.485 586.536 359.642 586.494C360.354 586.303 361.072 586.267 361.759 586.366M359.181 586.64C358.382 586.407 357.759 585.848 357.374 585.152M357.577 581.571C356.753 582.613 356.767 584.053 357.374 585.152M357.374 585.152C354.782 585.152 352.569 587.026 352.143 589.583L352 590.441M352 604.548L352 590.441M346.626 585.152C349.218 585.152 351.431 587.026 351.857 589.583L352 590.441" stroke="#30887C" stroke-opacity="0.2" stroke-width="1.5" stroke-linecap="round" stroke-linejoin="round"/>
<path d="M438.408 764.32C437.527 767.847 437.527 773.137 439.29 775.782M429.592 764.32C430.474 767.847 430.474 773.137 428.71 775.782M426.065 747.569C429.239 749.332 438.761 749.332 441.935 747.569M434 755.504C434 755.504 438.408 755.504 440.172 756.385C440.172 753.74 443.698 740.516 446.343 740.516C448.988 740.516 451.633 750.214 451.633 756.385C451.633 762.557 448.988 767.847 446.343 767.847C443.698 767.847 441.935 766.083 440.172 762.557C438.761 763.262 435.176 763.438 434 763.438C432.825 763.438 429.239 763.262 427.829 762.557C426.065 766.083 424.302 767.847 421.657 767.847C419.012 767.847 416.367 762.557 416.367 756.385C416.367 750.214 419.012 740.516 421.657 740.516C424.302 740.516 427.829 753.74 427.829 756.385C429.592 755.504 434 755.504 434 755.504Z" stroke="#30887C" stroke-opacity="0.3" stroke-width="1.5" stroke-linecap="round" stroke-linejoin="round"/>
<path d="M498.409 499.976C496.645 502.62 494.882 507.029 494.882 513.2M498.409 499.976C496.646 502.62 495.764 506.147 487.829 506.147M498.409 499.976C500.638 497.003 504.121 494.657 507.8 493.993C508.872 493.799 509.707 492.826 509.528 491.751L509.234 489.987C509.093 489.137 508.356 488.504 507.5 488.606C503.274 489.108 498.027 491.637 494.882 495.567C494.882 493.804 494.882 488.514 494.001 485.869M486.947 494.686C486.066 492.041 484.302 490.277 481.658 490.277M480.776 507.905C482.539 515.84 489.299 521.984 494 521.984C498.702 521.984 505.169 515.841 507.225 507.905C509.282 499.97 502.817 494.681 498.409 499.971C498.409 497.332 495.764 494.686 490.474 494.686C485.184 494.686 479.013 499.97 480.776 507.905Z" stroke="#30887C" stroke-opacity="0.2" stroke-width="1.5" stroke-linecap="round" stroke-linejoin="round"/>
<path d="M443.249 619.548C455.592 611.739 474.988 617.385 476.752 624.701C478.515 632.017 474.167 647.375 472.106 650.467M449.433 624.701C452.181 624.014 458.914 623.052 463.861 624.701M443.249 633.977C445.31 636.038 455.592 639.952 465.922 633.977C459.119 639.07 461.077 645.333 461.764 648.769" stroke="#30887C" stroke-opacity="0.2" stroke-width="1.5" stroke-linecap="round" stroke-linejoin="round"/>
<ellipse cx="755.5" cy="678.499" rx="984.5" ry="1012.91" fill="url(#paint0_radial_443_2421)"/>
</g>
<defs>
<radialGradient id="paint0_radial_443_2421" cx="0" cy="0" r="1" gradientUnits="userSpaceOnUse" gradientTransform="translate(755.5 678.499) rotate(90) scale(1012.91 984.5)">
<stop stop-color="white"/>
<stop offset="0.554564" stop-color="white"/>
<stop offset="1" stop-color="white" stop-opacity="0"/>
</radialGradient>
</defs>
</svg>
