<svg width="1509" height="1503" viewBox="0 0 1509 1503" fill="none" xmlns="http://www.w3.org/2000/svg">
<path d="M935.111 50.9074C938.312 52.6834 941.513 54.4594 944.811 56.2891C947.118 57.8157 949.424 59.3423 951.8 60.9151L962.994 68.3855L986.36 86.7329C988.408 88.7625 1010.58 112.1 1010.58 112.1C1010.58 112.1 1021.2 123.428 1021.9 124.297C1026.07 129.48 1026.07 129.48 1030.72 136.754C1033.28 140.736 1033.28 140.736 1035.88 144.798C1037.67 147.665 1039.46 150.532 1041.3 153.486C1043.12 156.393 1044.93 159.301 1046.81 162.297C1059.77 183.39 1070.83 204.14 1078.64 227.709C1079.86 231.278 1081.08 234.847 1082.33 238.525C1097.25 286.011 1100.75 331.842 1095.33 381.16C1094.84 385.636 1094.84 385.636 1094.34 390.203C1093.64 396.094 1092.83 401.973 1091.99 407.847C1093.87 407.365 1095.75 406.883 1097.68 406.387C1165.41 391.436 1240.18 400.698 1302.28 431.198C1305.55 432.668 1308.82 434.139 1312.19 435.654C1338.21 447.782 1359.99 463.534 1382.39 481.236C1386.27 483.952 1386.27 483.952 1390.22 486.722C1392.04 488.214 1393.87 489.706 1395.75 491.244C1395.75 488.975 1395.75 493.445 1395.75 491.244L1405.76 501.251L1412.44 507.923C1412.44 505.655 1412.44 510.125 1412.44 507.923L1419.11 514.595C1419.11 512.326 1419.11 516.797 1419.11 514.595L1425.79 521.267C1439.14 539.32 1431.97 528.737 1445.81 547.954C1443.54 547.954 1448.02 547.954 1445.81 547.954C1498.31 616.981 1516.82 711.905 1506.06 796.503C1497.69 855.709 1474.08 909.889 1439.14 958.267C1436.94 961.57 1434.73 964.872 1432.46 968.275C1431.5 970.27 1414.34 989.447 1412.44 991.626C1410.28 994.092 1405.76 998.298 1405.76 998.298C1405.76 996.029 1405.76 1000.5 1405.76 998.298C1403.6 1000.76 1399.08 1004.97 1399.08 1004.97C1399.08 1002.7 1399.08 1007.17 1399.08 1004.97C1384.16 1018.31 1380.24 1021.6 1375.72 1024.98C1375.72 1022.72 1375.72 1027.19 1375.72 1024.98C1342.68 1049.72 1308.24 1068.99 1268.9 1081.69C1264.83 1083.07 1260.76 1084.44 1256.57 1085.85C1205.62 1101.23 1144.13 1101.21 1091.99 1091.7C1092.53 1095.92 1093.07 1100.13 1093.62 1104.47C1103.56 1194.41 1088.51 1289.29 1031.7 1362.12C1026.31 1368.82 1020.79 1375.37 1015.22 1381.92C1012.88 1384.76 1010.55 1387.6 1008.14 1390.52C996.954 1403.82 996.954 1403.82 991.855 1408.61L988.681 1411.94L985.18 1415.28C904.52 1484.53 812.764 1508.36 708.131 1502.02C644.98 1494.54 590.135 1468.28 541.234 1428.63C537.93 1426.42 534.625 1424.22 531.221 1421.95C531.221 1421.95 510.7 1402.33 503.683 1395.27C501.325 1392.93 498.967 1390.59 496.537 1388.18C491.165 1381.92 484.49 1375.25 484.49 1375.25C486.759 1375.25 482.286 1375.25 484.49 1375.25C422.009 1296.88 405.26 1204.19 413.337 1106.82C414.393 1098.37 414.393 1098.37 417.731 1088.37C414.826 1089.44 411.922 1090.52 408.93 1091.62C334.016 1112.84 244.08 1091.49 177.4 1055.01C162.292 1045.86 148.121 1035.59 134.006 1024.98C134.006 1024.98 117.25 1011.61 117.317 1011.64L107.466 1001.62C67.4106 964.93 31.4224 905.695 15.275 855.988C6.77339 828.015 1.05438 800.799 0.489004 771.458C0.35992 768.091 0.230836 764.724 0.0978398 761.255C-2.05385 663.652 31.3095 577.87 97.7063 506.594C101.236 502.92 104.782 499.263 108.346 495.622C109.987 493.935 111.627 492.248 113.318 490.51C122.861 481.102 131.72 471.686 144.02 464.557C144.02 466.825 144.02 462.355 144.02 464.557C209.021 426.883 272.135 400.33 348.677 400.758C351.465 400.764 354.252 400.771 357.124 400.777C376.406 400.912 395.258 402.003 414.393 404.511C414.031 401.466 414.031 401.466 413.663 398.36C404.829 314.986 417.263 237.97 457.786 164.327C515.711 75.0573 580.948 41.3636 635.753 19.8811C735.411 -15.0986 845.188 -3.40693 935.111 50.9074ZM597.979 167.663C594.487 171.069 591.303 174.335 591.303 174.335C591.303 174.335 584.726 180.974 584.628 181.007L577.952 187.679C572.761 194.248 568.015 200.766 563.348 207.694C561.994 209.691 560.641 211.688 559.246 213.746C541.044 240.944 531.512 265.609 524.545 297.763C523.917 300.394 523.288 303.026 522.641 305.737C514.788 353.396 522.06 402.107 544.572 444.541C546.052 447.358 547.533 450.175 549.058 453.077C571.122 492.339 655.827 575.75 687.615 607.13C685.884 605.43 689.294 608.781 687.615 607.13C687.615 607.13 764.551 685.274 773.127 693.728C774.99 695.59 776.852 697.453 778.771 699.372C784.924 705.516 791.101 711.637 797.277 717.758C801.57 722.035 805.861 726.314 810.151 730.594C821.45 741.862 832.77 753.109 844.093 764.352C855.575 775.758 867.038 787.183 878.503 798.607C897.047 817.082 915.603 835.545 934.174 853.993C938.938 858.726 943.7 863.462 948.462 868.198C951.503 871.192 954.545 874.186 957.678 877.271C965.907 885.771 999.455 920.684 1008.55 928.244C1011.12 930.476 1013.69 932.708 1016.34 935.007C1048.17 961.825 1081.36 976.753 1122.03 984.954C1126.04 985.87 1126.04 985.87 1130.12 986.804C1189.59 997.071 1250.41 978.698 1299.06 944.467C1345.56 907.84 1386.14 854.734 1395.75 794.809C1401.22 729.028 1401.93 682.188 1359.03 618.007C1357.71 615.801 1356.39 613.595 1355.03 611.322C1351.33 605.218 1351.33 605.218 1345.68 597.992C1347.95 597.992 1343.47 597.992 1345.68 597.992C1346.39 599.835 1344.99 596.203 1345.68 597.992C1345.68 597.992 1325 570.123 1315.15 562.096C1263.41 507.923 1180.74 499.029 1108.06 514.595C1091.88 519.426 1076.72 526.259 1061.53 533.568C1059.42 534.576 1057.31 535.584 1055.13 536.623C1021.01 554.027 994.137 581.496 967.682 608.625C964.546 611.805 961.407 614.983 958.267 618.159C945.087 631.492 931.947 644.865 918.835 658.264C912.316 664.923 905.779 671.565 899.223 678.187C893.079 684.396 871.853 708.067 871.853 708.067L793.411 631.342L801.306 624.223C803.845 621.748 806.384 619.273 808.999 616.724C811.65 614.189 814.3 611.654 817.031 609.042C822.305 603.971 827.565 598.885 832.808 593.783C832.808 593.783 866.118 561.059 873.515 553.687C876.334 550.879 879.152 548.071 882.056 545.178C886.425 540.773 886.425 540.773 890.883 536.278C893.848 533.341 896.812 530.404 899.867 527.378C902.668 524.57 905.469 521.762 908.355 518.869C912.213 515.002 912.213 515.002 916.149 511.057C922.488 505.174 916.149 511.057 928.435 497.915C928.435 497.915 945.746 473.916 947.141 471.863C963.748 447.094 974.132 423.361 981.842 394.503C982.421 392.49 983 390.477 983.596 388.402C986.76 373.933 987.954 360.014 988.029 345.264C987.958 348.655 988.097 341.972 988.029 345.264C988.339 286.107 959.519 221.427 919.634 178.752C901.389 160.821 881.253 145.778 858.338 134.304C855.554 132.894 852.77 131.484 849.902 130.03C770.564 91.7757 662.184 105.049 597.979 167.663ZM274.2 521.267C270.925 522.402 267.651 523.537 264.277 524.707C238.844 534.414 215.357 547.561 194.089 564.633C194.089 564.633 187.576 571.296 187.413 571.305C187.413 571.305 173.769 584.92 174.062 584.648C174.062 584.648 168.661 589.643 167.386 591.32C162.284 598.029 157.703 604.653 153.2 611.752C151.865 613.847 150.531 615.942 149.157 618.101C123.575 659.361 109.291 700.735 109.598 749.357C109.614 752.447 109.631 755.536 109.647 758.719C110.03 781.029 112.409 800.614 120.655 821.496C121.829 824.725 123.004 827.955 124.214 831.282C148.965 895.366 195.021 944.149 257.445 972.848C266.299 976.256 275.071 979.093 284.213 981.618C286.791 982.362 289.368 983.106 292.024 983.872C354.793 999.216 416.575 983.553 471.138 951.595C485.224 942.521 485.224 942.521 497.841 931.58C497.841 933.848 497.841 929.378 497.841 931.58L504.517 924.908C504.517 927.177 504.517 922.707 504.517 924.908L511.193 918.236C511.193 920.505 511.193 916.035 511.193 918.236L524.545 904.893C524.545 904.893 542.614 887.893 547.91 881.542L554.586 874.87L561.425 868.189L567.938 861.526C567.815 861.652 581.29 848.183 581.29 848.183L587.491 841.511L607.993 821.496C607.993 823.764 607.993 819.294 607.993 821.496L643.204 786.46L716.639 863.185C714.214 860.562 718.993 865.731 716.639 863.185C716.639 863.185 710.681 869.768 702.11 878.203C699.502 880.787 696.895 883.371 694.208 886.034C691.384 888.8 688.561 891.566 685.652 894.416C682.746 897.296 679.839 900.175 676.844 903.142C664.414 915.456 651.945 927.73 639.479 940.008C630.378 948.982 621.297 957.976 612.218 966.972C608.023 971.08 608.023 971.08 603.744 975.272C552.71 1025.85 521.561 1083.71 520.372 1156.54C521.563 1225.68 547.122 1279.04 594.641 1328.55C596.423 1330.46 598.204 1332.38 600.039 1334.35C603.645 1338.13 607.462 1341.71 611.331 1345.23C609.061 1345.23 613.534 1345.23 611.331 1345.23L618.007 1351.9C668.043 1390.39 732.67 1400.65 793.967 1393.17C846.871 1384.59 893.383 1355.24 928.435 1315.21C928.435 1317.47 928.435 1313 928.435 1315.21C928.435 1315.21 933.605 1310.19 935.111 1308.53C940.331 1301.54 945.07 1294.63 949.714 1287.27C951.065 1285.14 952.417 1283 953.809 1280.81C986.623 1227.92 994.076 1164.47 981.75 1103.66C969.321 1052.17 913.374 974.349 871.69 941.588L745.892 815.45C747.807 817.505 744.033 813.454 745.892 815.45C741.67 810.742 715.103 784.339 715.103 784.339C712.417 781.656 709.732 778.973 706.965 776.208C704.058 773.337 701.151 770.467 698.156 767.509C695.168 764.532 692.179 761.555 689.1 758.487C681.156 750.579 673.198 742.685 665.232 734.799C657.174 726.813 649.134 718.809 641.092 710.806C629.289 699.065 617.478 687.332 605.655 675.611C600.871 670.865 596.087 666.119 591.303 661.374C589.498 659.584 587.693 657.794 585.832 655.951C578.552 648.711 571.679 641.423 565.226 633.436C555.762 622.222 545.263 612.855 534.102 603.361C526.051 596.411 518.715 588.83 511.193 581.312C458.11 530.167 403.263 509.564 330.058 510.542C310.411 511.168 292.739 514.749 274.2 521.267Z" fill="white"/>
</svg>
