<svg width="24" height="24" viewBox="0 0 24 24" fill="none" xmlns="http://www.w3.org/2000/svg">
<path fill-rule="evenodd" clip-rule="evenodd" d="M16.394 2.02089L16.46 2.03889C17.56 2.33389 18.431 2.56689 19.116 2.81489C19.817 3.06789 20.389 3.35689 20.86 3.79789C21.5455 4.44041 22.0251 5.2718 22.238 6.18689C22.385 6.81489 22.35 7.45489 22.218 8.18789C22.091 8.90589 21.858 9.77689 21.563 10.8759L21.027 12.8749C20.733 13.9739 20.499 14.8449 20.252 15.5309C19.998 16.2309 19.709 16.8029 19.268 17.2739C18.6465 17.9376 17.8475 18.4089 16.966 18.6319C16.7077 19.224 16.3314 19.7572 15.86 20.1989C15.389 20.6399 14.817 20.9289 14.116 21.1829C13.431 21.4309 12.56 21.6639 11.461 21.9589L11.394 21.9769C10.294 22.2709 9.42401 22.5039 8.70601 22.6329C7.97301 22.7639 7.33301 22.7989 6.70401 22.6529C5.78904 22.4392 4.958 21.959 4.31601 21.2729C3.87601 20.8029 3.58601 20.2309 3.33201 19.5299C3.08501 18.8449 2.85201 17.9739 2.55701 16.8739L2.02101 14.8759C1.72701 13.7759 1.49301 12.9059 1.36501 12.1879C1.23401 11.4549 1.19901 10.8149 1.34501 10.1859C1.5587 9.27092 2.03895 8.43988 2.72501 7.79789C3.19501 7.35789 3.76701 7.06789 4.46801 6.81389C5.15301 6.56689 6.02401 6.33389 7.12301 6.03889L7.15701 6.02889L7.90801 5.82889C8.30001 4.42989 8.64401 3.44089 9.31601 2.72389C9.95813 2.0382 10.7892 1.5583 11.704 1.34489C12.333 1.19889 12.972 1.23389 13.706 1.36489C14.423 1.49289 15.294 1.72689 16.394 2.02089ZM7.45501 7.50289C6.36201 7.79589 5.57901 8.00789 4.97701 8.22489C4.36701 8.44489 4.01001 8.64889 3.75001 8.89289C3.28066 9.3322 2.95214 9.90084 2.80601 10.5269C2.72601 10.8749 2.72701 11.2869 2.84201 11.9239C2.95701 12.5709 3.17401 13.3809 3.47901 14.5209L3.99701 16.4529C4.30201 17.5929 4.52001 18.4029 4.74301 19.0199C4.96301 19.6299 5.16701 19.9879 5.41101 20.2479C5.85032 20.7172 6.41897 21.0458 7.04501 21.1919C7.39201 21.2719 7.80501 21.2699 8.44201 21.1559C9.08901 21.0409 9.89901 20.8239 11.039 20.5189C12.179 20.2129 12.989 19.9959 13.607 19.7719C14.216 19.5519 14.574 19.3479 14.834 19.1049C14.972 18.9749 15.0973 18.8352 15.21 18.6859C15.0245 18.6594 14.8398 18.6277 14.656 18.5909C13.984 18.4569 13.176 18.2409 12.181 17.9739L12.123 17.9589C11.024 17.6639 10.153 17.4309 9.46801 17.1829C8.76701 16.9299 8.19501 16.6409 7.72401 16.1999C7.03815 15.5575 6.55824 14.7261 6.34501 13.8109C6.19901 13.1829 6.23401 12.5429 6.36501 11.8099C6.49301 11.0919 6.72701 10.2209 7.02101 9.12189L7.45501 7.50289ZM13.442 2.84189C12.804 2.72689 12.392 2.72489 12.045 2.80589C11.419 2.95202 10.8503 3.28054 10.411 3.74989C9.97501 4.21489 9.70601 4.93489 9.24001 6.64289L8.99701 7.54489L8.47901 9.47689C8.17401 10.6169 7.95701 11.4269 7.84201 12.0739C7.72701 12.7109 7.72501 13.1239 7.80601 13.4709C7.95214 14.0969 8.28066 14.6656 8.75001 15.1049C9.01001 15.3489 9.36801 15.5519 9.97701 15.7729C10.595 15.9959 11.405 16.2129 12.545 16.5189C13.57 16.7939 14.33 16.9969 14.948 17.1189C15.563 17.2419 15.981 17.2719 16.323 17.2299C16.3977 17.2199 16.4697 17.2072 16.539 17.1919C17.1651 17.0458 17.7337 16.7172 18.173 16.2479C18.417 15.9879 18.621 15.6299 18.841 15.0209C19.064 14.4029 19.281 13.5929 19.587 12.4529L20.105 10.5209C20.41 9.38089 20.627 8.57089 20.742 7.92389C20.856 7.28689 20.859 6.87389 20.778 6.52689C20.6319 5.90084 20.3034 5.3322 19.834 4.89289C19.574 4.64889 19.216 4.44589 18.607 4.22489C17.988 4.00189 17.179 3.78489 16.039 3.47889C14.899 3.17389 14.089 2.95689 13.442 2.84189ZM11.052 9.80589C11.0775 9.71073 11.1216 9.62154 11.1816 9.54341C11.2416 9.46527 11.3164 9.39972 11.4017 9.3505C11.4871 9.30128 11.5813 9.26936 11.6789 9.25656C11.7766 9.24376 11.8759 9.25033 11.971 9.27589L16.801 10.5699C16.9878 10.6261 17.1454 10.7528 17.2403 10.9232C17.3352 11.0936 17.36 11.2943 17.3094 11.4827C17.2588 11.6711 17.1367 11.8323 16.9692 11.9323C16.8017 12.0322 16.6018 12.0629 16.412 12.0179L11.582 10.7239C11.3901 10.6723 11.2264 10.5467 11.1271 10.3746C11.0277 10.2024 11.0007 9.9979 11.052 9.80589ZM10.275 12.7039C10.3005 12.6086 10.3446 12.5193 10.4047 12.4411C10.4647 12.3629 10.5396 12.2973 10.6251 12.2481C10.7105 12.1988 10.8049 12.167 10.9027 12.1542C11.0005 12.1415 11.0998 12.1482 11.195 12.1739L14.092 12.9499C14.2842 13.0013 14.448 13.127 14.5475 13.2993C14.647 13.4715 14.674 13.6762 14.6225 13.8684C14.5711 14.0605 14.4454 14.2244 14.2731 14.3239C14.1009 14.4234 13.8962 14.4503 13.704 14.3989L10.806 13.6219C10.6141 13.5703 10.4504 13.4447 10.3511 13.2726C10.2517 13.1004 10.2247 12.8959 10.276 12.7039" fill="#30887C"/>
</svg>
