<svg width="30" height="30" viewBox="0 0 30 30" fill="none" xmlns="http://www.w3.org/2000/svg">
<path d="M8.675 2.5C9.195 2.5 9.61625 2.905 9.61625 3.405V5.23C10.4512 5.215 11.3875 5.215 12.4412 5.215H17.46C18.5125 5.215 19.4487 5.215 20.2837 5.23125V3.40625C20.2837 2.90625 20.705 2.5 21.225 2.5C21.745 2.5 22.1663 2.905 22.1663 3.405V5.3125C23.9725 5.45125 25.1588 5.7925 26.0287 6.63125C26.9013 7.46875 27.2563 8.60875 27.4 10.3463L27.5 11.25H2.5V10.345C2.645 8.6075 3 7.4675 3.87125 6.63C4.7425 5.7925 5.9275 5.45 7.73375 5.31125V3.405C7.73375 2.905 8.155 2.5 8.675 2.5Z" fill="#30887C"/>
<path opacity="0.5" d="M27.5004 17.5V15C27.5004 13.9513 27.4954 12.0813 27.4791 11.25H2.51287C2.49662 12.0813 2.50037 13.9513 2.50037 15V17.5C2.50037 22.2137 2.50037 24.5712 3.96537 26.035C5.43037 27.4987 7.78537 27.5 12.5004 27.5H17.5004C22.2129 27.5 24.5704 27.5 26.0354 26.035C27.5004 24.57 27.5004 22.215 27.5004 17.5Z" fill="#30887C" fill-opacity="0.4"/>
<path d="M22.5 21.25C22.5 21.5815 22.3683 21.8995 22.1339 22.1339C21.8995 22.3683 21.5815 22.5 21.25 22.5C20.9185 22.5 20.6005 22.3683 20.3661 22.1339C20.1317 21.8995 20 21.5815 20 21.25C20 20.9185 20.1317 20.6005 20.3661 20.3661C20.6005 20.1317 20.9185 20 21.25 20C21.5815 20 21.8995 20.1317 22.1339 20.3661C22.3683 20.6005 22.5 20.9185 22.5 21.25ZM22.5 16.25C22.5 16.5815 22.3683 16.8995 22.1339 17.1339C21.8995 17.3683 21.5815 17.5 21.25 17.5C20.9185 17.5 20.6005 17.3683 20.3661 17.1339C20.1317 16.8995 20 16.5815 20 16.25C20 15.9185 20.1317 15.6005 20.3661 15.3661C20.6005 15.1317 20.9185 15 21.25 15C21.5815 15 21.8995 15.1317 22.1339 15.3661C22.3683 15.6005 22.5 15.9185 22.5 16.25ZM16.25 21.25C16.25 21.5815 16.1183 21.8995 15.8839 22.1339C15.6495 22.3683 15.3315 22.5 15 22.5C14.6685 22.5 14.3505 22.3683 14.1161 22.1339C13.8817 21.8995 13.75 21.5815 13.75 21.25C13.75 20.9185 13.8817 20.6005 14.1161 20.3661C14.3505 20.1317 14.6685 20 15 20C15.3315 20 15.6495 20.1317 15.8839 20.3661C16.1183 20.6005 16.25 20.9185 16.25 21.25ZM16.25 16.25C16.25 16.5815 16.1183 16.8995 15.8839 17.1339C15.6495 17.3683 15.3315 17.5 15 17.5C14.6685 17.5 14.3505 17.3683 14.1161 17.1339C13.8817 16.8995 13.75 16.5815 13.75 16.25C13.75 15.9185 13.8817 15.6005 14.1161 15.3661C14.3505 15.1317 14.6685 15 15 15C15.3315 15 15.6495 15.1317 15.8839 15.3661C16.1183 15.6005 16.25 15.9185 16.25 16.25ZM10 21.25C10 21.5815 9.8683 21.8995 9.63388 22.1339C9.39946 22.3683 9.08152 22.5 8.75 22.5C8.41848 22.5 8.10054 22.3683 7.86612 22.1339C7.6317 21.8995 7.5 21.5815 7.5 21.25C7.5 20.9185 7.6317 20.6005 7.86612 20.3661C8.10054 20.1317 8.41848 20 8.75 20C9.08152 20 9.39946 20.1317 9.63388 20.3661C9.8683 20.6005 10 20.9185 10 21.25ZM10 16.25C10 16.5815 9.8683 16.8995 9.63388 17.1339C9.39946 17.3683 9.08152 17.5 8.75 17.5C8.41848 17.5 8.10054 17.3683 7.86612 17.1339C7.6317 16.8995 7.5 16.5815 7.5 16.25C7.5 15.9185 7.6317 15.6005 7.86612 15.3661C8.10054 15.1317 8.41848 15 8.75 15C9.08152 15 9.39946 15.1317 9.63388 15.3661C9.8683 15.6005 10 15.9185 10 16.25Z" fill="#30887C"/>
</svg>
