<svg width="42" height="572" viewBox="0 0 42 572" fill="none" xmlns="http://www.w3.org/2000/svg">
<line x1="20.5" y1="572" x2="20.5" stroke="url(#paint0_linear_1997_7807)"/>
<circle cx="21" cy="286" r="20.5" fill="white" stroke="#30887C"/>
<path fill-rule="evenodd" clip-rule="evenodd" d="M29.5307 286.531C29.6711 286.39 29.75 286.2 29.75 286.001C29.75 285.802 29.6711 285.611 29.5307 285.471L23.5307 279.471C23.462 279.397 23.3792 279.338 23.2872 279.297C23.1952 279.256 23.0959 279.234 22.9952 279.232C22.8945 279.23 22.7945 279.249 22.7011 279.287C22.6077 279.324 22.5228 279.381 22.4516 279.452C22.3804 279.523 22.3243 279.608 22.2865 279.701C22.2488 279.795 22.2303 279.895 22.2321 279.995C22.2338 280.096 22.2559 280.195 22.2969 280.287C22.3379 280.379 22.397 280.462 22.4707 280.531L27.1907 285.251H13.0007C12.8017 285.251 12.611 285.33 12.4703 285.47C12.3297 285.611 12.2507 285.802 12.2507 286.001C12.2507 286.2 12.3297 286.391 12.4703 286.531C12.611 286.672 12.8017 286.751 13.0007 286.751H27.1907L22.4707 291.471C22.397 291.539 22.3379 291.622 22.2969 291.714C22.2559 291.806 22.2338 291.906 22.2321 292.006C22.2303 292.107 22.2488 292.207 22.2865 292.3C22.3243 292.394 22.3804 292.479 22.4516 292.55C22.5228 292.621 22.6077 292.677 22.7011 292.715C22.7945 292.753 22.8945 292.771 22.9952 292.769C23.0959 292.768 23.1952 292.746 23.2872 292.705C23.3792 292.664 23.462 292.605 23.5307 292.531L29.5307 286.531Z" fill="#30887C"/>
<defs>
<linearGradient id="paint0_linear_1997_7807" x1="21.5" y1="0" x2="21.5" y2="572" gradientUnits="userSpaceOnUse">
<stop stop-color="#30887C" stop-opacity="0.2"/>
<stop offset="0.5" stop-color="#30887C"/>
<stop offset="1" stop-color="#30887C" stop-opacity="0.2"/>
</linearGradient>
</defs>
</svg>
