<svg width="36" height="36" viewBox="0 0 36 36" fill="none" xmlns="http://www.w3.org/2000/svg">
<path fill-rule="evenodd" clip-rule="evenodd" d="M5.20596 18.7943C4.99529 18.5833 4.87695 18.2974 4.87695 17.9993C4.87695 17.7012 4.99529 17.4152 5.20596 17.2043L14.206 8.20428C14.309 8.09375 14.4332 8.0051 14.5712 7.94361C14.7092 7.88212 14.8581 7.84906 15.0092 7.8464C15.1602 7.84373 15.3103 7.87152 15.4504 7.9281C15.5904 7.98468 15.7177 8.0689 15.8245 8.17572C15.9313 8.28255 16.0156 8.4098 16.0721 8.54989C16.1287 8.68997 16.1565 8.84001 16.1539 8.99106C16.1512 9.14212 16.1181 9.29109 16.0566 9.42909C15.9951 9.56709 15.9065 9.69129 15.796 9.79428L8.71596 16.8743H30.001C30.2993 16.8743 30.5855 16.9928 30.7965 17.2038C31.0074 17.4148 31.126 17.7009 31.126 17.9993C31.126 18.2977 31.0074 18.5838 30.7965 18.7948C30.5855 19.0058 30.2993 19.1243 30.001 19.1243H8.71596L15.796 26.2043C15.9065 26.3073 15.9951 26.4315 16.0566 26.5695C16.1181 26.7075 16.1512 26.8564 16.1539 27.0075C16.1565 27.1586 16.1287 27.3086 16.0721 27.4487C16.0156 27.5888 15.9313 27.716 15.8245 27.8228C15.7177 27.9297 15.5904 28.0139 15.4504 28.0705C15.3103 28.127 15.1602 28.1548 15.0092 28.1522C14.8581 28.1495 14.7092 28.1164 14.5712 28.055C14.4332 27.9935 14.309 27.9048 14.206 27.7943L5.20596 18.7943Z" fill="black"/>
</svg>
