<svg preserveAspectRatio="none" width="100%" height="100%" overflow="visible" style="display: block;" viewBox="0 0 20.7587 24.0001" fill="none" xmlns="http://www.w3.org/2000/svg">
<g id="Group">
<g id="Vector">
</g>
<path id="Vector_2" fill-rule="evenodd" clip-rule="evenodd" d="M17.2989 5.37472e-09C18.1814 -4.9154e-05 19.0306 0.337128 19.6727 0.942543C20.3147 1.54796 20.7012 2.37584 20.753 3.25681L20.7587 3.45979V19.6055C20.7587 19.7975 20.7107 19.9864 20.6191 20.1552C20.5275 20.3239 20.3953 20.4671 20.2343 20.5718C20.0734 20.6765 19.8889 20.7394 19.6975 20.7547C19.5061 20.77 19.3139 20.7373 19.1384 20.6596L19 20.588L15.8574 18.6529L12.7136 20.588C12.5525 20.687 12.3697 20.7448 12.181 20.7565C11.9924 20.7682 11.8038 20.7333 11.6318 20.6549L11.505 20.588L8.36116 18.6529L5.21736 20.588C5.05259 20.6895 4.86496 20.7478 4.67174 20.7577C4.47851 20.7676 4.28591 20.7287 4.11166 20.6446C3.93741 20.5605 3.78711 20.4339 3.6746 20.2765C3.5621 20.1191 3.491 19.9359 3.46786 19.7439L3.45979 19.6055V12.6859H1.15326C0.87079 12.6859 0.598155 12.5821 0.387067 12.3944C0.17598 12.2067 0.0411221 11.9481 0.00807284 11.6676L3.42299e-08 11.5326V2.88316C-0.000112693 2.15116 0.278205 1.44652 0.778498 0.912179C1.27879 0.377833 1.9636 0.0537854 2.69402 0.00576645L2.88316 5.37472e-09H17.2989ZM13.8392 10.3794H9.2261C8.92024 10.3794 8.6269 10.5009 8.41062 10.7171C8.19434 10.9334 8.07284 11.2268 8.07284 11.5326C8.07284 11.8385 8.19434 12.1318 8.41062 12.3481C8.6269 12.5644 8.92024 12.6859 9.2261 12.6859H13.8392C14.145 12.6859 14.4384 12.5644 14.6546 12.3481C14.8709 12.1318 14.9924 11.8385 14.9924 11.5326C14.9924 11.2268 14.8709 10.9334 14.6546 10.7171C14.4384 10.5009 14.145 10.3794 13.8392 10.3794ZM2.88316 2.30653C2.73022 2.30653 2.58356 2.36728 2.47542 2.47542C2.36728 2.58356 2.30653 2.73022 2.30653 2.88316V10.3794H3.45979V2.88316C3.45979 2.73022 3.39904 2.58356 3.2909 2.47542C3.18276 2.36728 3.03609 2.30653 2.88316 2.30653ZM14.9924 5.76631H9.2261C8.93216 5.76664 8.64943 5.87919 8.43569 6.08098C8.22195 6.28277 8.09333 6.55855 8.0761 6.85199C8.05887 7.14543 8.15435 7.43437 8.34301 7.65978C8.53167 7.88519 8.79929 8.03005 9.09117 8.06477L9.2261 8.07284H14.9924C15.2864 8.07251 15.5691 7.95996 15.7828 7.75817C15.9966 7.55639 16.1252 7.2806 16.1424 6.98716C16.1596 6.69373 16.0642 6.40478 15.8755 6.17938C15.6868 5.95397 15.4192 5.8091 15.1273 5.77439L14.9924 5.76631Z" fill="var(--fill-0, #2FAE8E)"/>
</g>
</svg>
