<svg width="20" height="20" viewBox="0 0 20 20" fill="none" xmlns="http://www.w3.org/2000/svg">
<path d="M17.5 16.668V5.0013C17.5 4.08214 16.7525 3.33464 15.8333 3.33464H14.1667V1.66797H12.5V3.33464H7.5V1.66797H5.83333V3.33464H4.16667C3.2475 3.33464 2.5 4.08214 2.5 5.0013V16.668C2.5 17.5871 3.2475 18.3346 4.16667 18.3346H15.8333C16.7525 18.3346 17.5 17.5871 17.5 16.668ZM7.5 15.0013H5.83333V13.3346H7.5V15.0013ZM7.5 11.668H5.83333V10.0013H7.5V11.668ZM10.8333 15.0013H9.16667V13.3346H10.8333V15.0013ZM10.8333 11.668H9.16667V10.0013H10.8333V11.668ZM14.1667 15.0013H12.5V13.3346H14.1667V15.0013ZM14.1667 11.668H12.5V10.0013H14.1667V11.668ZM15.8333 7.5013H4.16667V5.83464H15.8333V7.5013Z" fill="#677294"/>
</svg>
