<svg width="24" height="24" viewBox="0 0 24 24" fill="none" xmlns="http://www.w3.org/2000/svg">
<path d="M11.1825 2.7225C11.6438 2.295 12.3563 2.295 12.8138 2.7225L16.2 5.86125V5.4C16.2 4.73625 16.7362 4.2 17.4 4.2H18.6C19.2637 4.2 19.8 4.73625 19.8 5.4V9.20625L21.2175 10.5225C21.5775 10.86 21.6975 11.3813 21.5175 11.8388C21.3375 12.2963 20.895 12.6 20.4 12.6H19.8V19.2C19.8 20.5238 18.7237 21.6 17.4 21.6H6.6C5.27625 21.6 4.2 20.5238 4.2 19.2V12.6H3.6C3.105 12.6 2.6625 12.2963 2.4825 11.8388C2.3025 11.3813 2.4225 10.8563 2.7825 10.5225L11.1825 2.7225ZM10.8 11.7V13.2H9.3C8.97 13.2 8.7 13.47 8.7 13.8V15C8.7 15.33 8.97 15.6 9.3 15.6H10.8V17.1C10.8 17.43 11.07 17.7 11.4 17.7H12.6C12.93 17.7 13.2 17.43 13.2 17.1V15.6H14.7C15.03 15.6 15.3 15.33 15.3 15V13.8C15.3 13.47 15.03 13.2 14.7 13.2H13.2V11.7C13.2 11.37 12.93 11.1 12.6 11.1H11.4C11.07 11.1 10.8 11.37 10.8 11.7Z" fill="#0A6C74"/>
</svg>
