<svg width="28" height="28" viewBox="0 0 28 28" fill="none" xmlns="http://www.w3.org/2000/svg">
<path d="M14.8233 2.67362C14.6045 2.4549 14.3078 2.33203 13.9985 2.33203C13.6891 2.33203 13.3924 2.4549 13.1736 2.67362L2.67362 13.1736C2.5105 13.3368 2.39943 13.5446 2.35444 13.7709C2.30944 13.9972 2.33254 14.2317 2.42083 14.4449C2.50911 14.658 2.6586 14.8402 2.85041 14.9684C3.04223 15.0966 3.26774 15.1651 3.49845 15.1651H4.66512V23.3318C4.66512 24.6186 5.71162 25.6651 6.99845 25.6651H20.9985C22.2853 25.6651 23.3318 24.6186 23.3318 23.3318V15.1651H24.4985C24.7294 15.1656 24.9553 15.0975 25.1475 14.9694C25.3397 14.8413 25.4894 14.659 25.5778 14.4456C25.6662 14.2322 25.6892 13.9974 25.6439 13.7709C25.5986 13.5445 25.487 13.3366 25.3233 13.1736L14.8233 2.67362ZM20.9996 23.3318H6.99845V12.1481L13.9985 5.14812L20.9985 12.1481V17.4984L20.9996 23.3318Z" fill="#0A6C74"/>
<path d="M15.1654 11.668H12.832V15.168H9.33203V17.5013H12.832V21.0013H15.1654V17.5013H18.6654V15.168H15.1654V11.668Z" fill="#0A6C74"/>
</svg>
