<svg width="24" height="24" viewBox="0 0 24 24" fill="none" xmlns="http://www.w3.org/2000/svg">
<path d="M12 19.071C11.4411 19.0711 10.8997 18.871 10.4692 18.505C10.0386 18.1391 9.74593 17.6303 9.6416 17.0665C8.07221 16.5684 6.69016 15.5864 5.6832 14.2537C4.92302 13.2484 4.40068 12.0756 4.15739 10.8276C3.9141 9.57964 3.95651 8.29069 4.28128 7.06243C4.60605 5.83417 5.20429 4.70019 6.02882 3.74995C6.85334 2.79971 7.8816 2.05919 9.03249 1.5868C10.1834 1.11442 11.4254 0.92309 12.6606 1.02791C13.8958 1.13273 15.0904 1.53083 16.1502 2.19081C17.2099 2.85078 18.1059 3.75459 18.7673 4.83093C19.4287 5.90727 19.8376 7.12671 19.9616 8.39305C20.0048 8.84488 19.6416 9.21292 19.2 9.21292C18.7584 9.21292 18.4048 8.84324 18.352 8.39305C18.2092 7.23117 17.7667 6.12957 17.0702 5.20224C16.3737 4.27492 15.4485 3.55555 14.3904 3.11857C13.3324 2.68159 12.1798 2.54288 11.052 2.71678C9.92418 2.89069 8.86212 3.37089 7.97569 4.10771C7.08926 4.84453 6.41066 5.8112 6.0101 6.90769C5.60955 8.00418 5.5016 9.19067 5.69741 10.3444C5.89323 11.4981 6.3857 12.5771 7.12387 13.4698C7.86204 14.3625 8.81909 15.0364 9.896 15.4218C10.0996 15.0404 10.3979 14.7211 10.7605 14.4964C11.1232 14.2717 11.5373 14.1495 11.9608 14.1423C12.3843 14.1351 12.8021 14.2431 13.1718 14.4554C13.5415 14.6676 13.8499 14.9766 14.0657 15.3509C14.2815 15.7251 14.397 16.1514 14.4005 16.5863C14.4039 17.0213 14.2953 17.4494 14.0854 17.8272C13.8756 18.2051 13.5722 18.5192 13.2059 18.7376C12.8396 18.9561 12.4236 19.0711 12 19.071ZM5.6 16.6065V16.5621C5.16251 16.1597 4.7619 15.717 4.4032 15.2395C4.14034 15.6443 4.00005 16.1199 4 16.6065V17.428C4 20.6663 6.976 24 12 24C17.024 24 20 20.6663 20 17.428V16.6065C20 15.9528 19.7471 15.326 19.2971 14.8638C18.847 14.4016 18.2365 14.1419 17.6 14.1419H15.2C15.5504 14.6184 15.8 15.177 15.92 15.785H17.6C17.8122 15.785 18.0157 15.8715 18.1657 16.0256C18.3157 16.1796 18.4 16.3886 18.4 16.6065V17.428C18.4 19.7906 16.1088 22.357 12 22.357C7.8912 22.357 5.6 19.7906 5.6 17.428V16.6065ZM12 12.4989C11.0845 12.4989 10.1967 12.8213 9.4848 13.4124C8.78527 12.9724 8.2077 12.3549 7.80758 11.6195C7.40746 10.8841 7.19823 10.0553 7.2 9.21292C7.20024 8.35359 7.41925 7.50925 7.83531 6.76366C8.25137 6.01807 8.85003 5.39713 9.5719 4.96243C10.2938 4.52774 11.1138 4.29439 11.9506 4.28554C12.7873 4.27669 13.6118 4.49264 14.3423 4.91197C15.0727 5.3313 15.6837 5.93944 16.1146 6.67607C16.5456 7.4127 16.7815 8.25222 16.799 9.11137C16.8164 9.97051 16.6149 10.8194 16.2143 11.5739C15.8137 12.3283 15.2279 12.9622 14.5152 13.4124C13.8033 12.8213 12.9155 12.4989 12 12.4989ZM8.8 9.21292C8.8 10.0844 9.13714 10.9202 9.73726 11.5365C10.3374 12.1527 11.1513 12.4989 12 12.4989C12.8487 12.4989 13.6626 12.1527 14.2627 11.5365C14.8629 10.9202 15.2 10.0844 15.2 9.21292C15.2 8.34141 14.8629 7.5056 14.2627 6.88935C13.6626 6.2731 12.8487 5.9269 12 5.9269C11.1513 5.9269 10.3374 6.2731 9.73726 6.88935C9.13714 7.5056 8.8 8.34141 8.8 9.21292Z" fill="#100E1C"/>
</svg>
