<svg width="16" height="16" viewBox="0 0 16 16" fill="none" xmlns="http://www.w3.org/2000/svg">
<path d="M4.66675 14C4.30008 14 3.98631 13.8696 3.72542 13.6087C3.46453 13.3478 3.33386 13.0338 3.33342 12.6667V4C3.14453 4 2.98631 3.936 2.85875 3.808C2.73119 3.68 2.66719 3.52178 2.66675 3.33333C2.66631 3.14489 2.73031 2.98667 2.85875 2.85867C2.98719 2.73067 3.14542 2.66667 3.33342 2.66667H6.00008C6.00008 2.47778 6.06408 2.31956 6.19208 2.192C6.32008 2.06444 6.47831 2.00044 6.66675 2H9.33342C9.52231 2 9.68075 2.064 9.80875 2.192C9.93675 2.32 10.0005 2.47822 10.0001 2.66667H12.6668C12.8556 2.66667 13.0141 2.73067 13.1421 2.85867C13.2701 2.98667 13.3339 3.14489 13.3334 3.33333C13.333 3.52178 13.269 3.68022 13.1414 3.80867C13.0139 3.93711 12.8556 4.00089 12.6668 4V12.6667C12.6668 13.0333 12.5363 13.3473 12.2754 13.6087C12.0145 13.87 11.7005 14.0004 11.3334 14H4.66675ZM11.3334 4H4.66675V12.6667H11.3334V4ZM6.66675 11.3333C6.85564 11.3333 7.01408 11.2693 7.14208 11.1413C7.27008 11.0133 7.33386 10.8551 7.33342 10.6667V6C7.33342 5.81111 7.26942 5.65289 7.14142 5.52533C7.01342 5.39778 6.8552 5.33378 6.66675 5.33333C6.47831 5.33289 6.32008 5.39689 6.19208 5.52533C6.06408 5.65378 6.00008 5.812 6.00008 6V10.6667C6.00008 10.8556 6.06408 11.014 6.19208 11.142C6.32008 11.27 6.47831 11.3338 6.66675 11.3333ZM9.33342 11.3333C9.52231 11.3333 9.68075 11.2693 9.80875 11.1413C9.93675 11.0133 10.0005 10.8551 10.0001 10.6667V6C10.0001 5.81111 9.93608 5.65289 9.80808 5.52533C9.68008 5.39778 9.52186 5.33378 9.33342 5.33333C9.14497 5.33289 8.98675 5.39689 8.85875 5.52533C8.73075 5.65378 8.66675 5.812 8.66675 6V10.6667C8.66675 10.8556 8.73075 11.014 8.85875 11.142C8.98675 11.27 9.14497 11.3338 9.33342 11.3333Z" fill="#677294"/>
</svg>
