<svg width="24" height="24" viewBox="0 0 24 24" fill="none" xmlns="http://www.w3.org/2000/svg">
<path d="M6.66673 22.7681H17.3339C19.4133 22.7681 20.4479 21.7134 20.4479 19.6241V10.5037H13.1754C11.8897 10.5037 11.2872 9.89085 11.2872 8.60514V1.23242H6.66673C4.59759 1.23242 3.55273 2.29699 3.55273 4.38671V19.6241C3.55273 21.7233 4.59759 22.7681 6.66673 22.7681ZM13.2059 9.12757H20.3373C20.267 8.71571 19.9756 8.31371 19.5037 7.82171L13.9589 2.18685C13.4969 1.70471 13.0752 1.41328 12.653 1.34256V8.58542C12.653 8.94671 12.8442 9.12757 13.2059 9.12757ZM8.13331 14.8533C7.72145 14.8533 7.43002 14.5619 7.43002 14.1701C7.43002 13.778 7.72145 13.487 8.13288 13.487H15.8772C16.2792 13.487 16.5907 13.7784 16.5907 14.1697C16.5907 14.5619 16.2792 14.8528 15.8776 14.8528L8.13331 14.8533ZM8.13331 18.68C7.72145 18.68 7.43002 18.3886 7.43002 17.9969C7.43002 17.6051 7.72145 17.3137 8.13288 17.3137H15.8772C16.2792 17.3137 16.5907 17.6051 16.5907 17.9969C16.5907 18.3886 16.2792 18.68 15.8776 18.68H8.13331Z" fill="#30887C"/>
</svg>
