<svg width="21" height="21" viewBox="0 0 21 21" fill="none" xmlns="http://www.w3.org/2000/svg">
<path d="M3.42865 15.4293C3.31547 15.4319 3.20297 15.4113 3.09803 15.3689C2.99309 15.3264 2.89792 15.263 2.81836 15.1825C2.73783 15.1029 2.6744 15.0078 2.63196 14.9028C2.58951 14.7979 2.56894 14.6854 2.5715 14.5722C2.5715 14.3299 2.65379 14.1265 2.81836 13.9619C2.89792 13.8814 2.99309 13.818 3.09803 13.7755C3.20297 13.7331 3.31547 13.7125 3.42865 13.7151H12.8572C13.1001 13.7151 13.3038 13.7973 13.4684 13.9619C13.5487 14.0415 13.612 14.1367 13.6543 14.2417C13.6966 14.3466 13.717 14.4591 13.7144 14.5722C13.7144 14.8145 13.6324 15.0179 13.4684 15.1825C13.3887 15.2631 13.2934 15.3266 13.1883 15.3691C13.0832 15.4115 12.9705 15.432 12.8572 15.4293H3.42865Z" fill="#0A6C74"/>
<path opacity="0.3" d="M14.9146 10.2851L17.4003 12.7709C17.4783 12.8496 17.5395 12.9434 17.58 13.0465C17.6206 13.1497 17.6396 13.2601 17.636 13.3709C17.6396 13.4816 17.6206 13.592 17.58 13.6952C17.5395 13.7983 17.4783 13.8922 17.4003 13.9709C17.3216 14.0489 17.2278 14.1101 17.1246 14.1506C17.0214 14.1911 16.9111 14.2102 16.8003 14.2066C16.6895 14.2102 16.5791 14.1911 16.476 14.1506C16.3728 14.1101 16.279 14.0489 16.2003 13.9709L13.1146 10.8851C13.033 10.808 12.9682 10.7149 12.924 10.6117C12.8797 10.5085 12.8571 10.3974 12.8574 10.2851C12.8574 10.0566 12.9431 9.85657 13.1146 9.68514L16.2003 6.59943C16.279 6.52137 16.3728 6.4602 16.476 6.41967C16.5791 6.37914 16.6895 6.3601 16.8003 6.36371C17.0431 6.36371 17.2431 6.44229 17.4003 6.59943C17.4783 6.67813 17.5395 6.77194 17.58 6.87511C17.6206 6.97828 17.6396 7.08864 17.636 7.19943C17.6396 7.31022 17.6206 7.42058 17.58 7.52375C17.5395 7.62692 17.4783 7.72073 17.4003 7.79943L14.9146 10.2851Z" fill="#0A6C74"/>
<path d="M3.42866 6.85907C3.31555 6.86175 3.20309 6.84131 3.09815 6.79901C2.99321 6.75671 2.89801 6.69344 2.81838 6.61307C2.73775 6.53341 2.67426 6.4381 2.6318 6.33301C2.58935 6.22791 2.56884 6.11524 2.57152 6.00193C2.57152 5.75907 2.65381 5.55536 2.81838 5.39078C2.89801 5.31041 2.99321 5.24714 3.09815 5.20484C3.20309 5.16254 3.31555 5.14211 3.42866 5.14478H12.8572C12.9705 5.14199 13.0831 5.16237 13.1882 5.20467C13.2933 5.24697 13.3886 5.31031 13.4684 5.39078C13.5489 5.47052 13.6122 5.56586 13.6545 5.67095C13.6968 5.77604 13.7172 5.88867 13.7144 6.00193C13.7172 6.11518 13.6968 6.22781 13.6545 6.3329C13.6122 6.438 13.5489 6.53334 13.4684 6.61307C13.3886 6.69355 13.2933 6.75688 13.1882 6.79918C13.0831 6.84149 12.9705 6.86187 12.8572 6.85907H3.42866Z" fill="#0A6C74"/>
<path opacity="0.3" d="M3.42865 11.1442C3.31547 11.1468 3.20297 11.1262 3.09803 11.0838C2.99309 11.0413 2.89792 10.9779 2.81836 10.8974C2.73783 10.8178 2.6744 10.7226 2.63196 10.6177C2.58951 10.5128 2.56894 10.4003 2.5715 10.2871C2.5715 10.0442 2.65379 9.84051 2.81836 9.67594C2.89799 9.59557 2.99319 9.5323 3.09813 9.49C3.20307 9.4477 3.31554 9.42726 3.42865 9.42994H10.2858C10.399 9.42715 10.5117 9.44752 10.6168 9.48983C10.7219 9.53213 10.8172 9.59546 10.8969 9.67594C10.9774 9.75567 11.0407 9.85101 11.083 9.95611C11.1253 10.0612 11.1457 10.1738 11.1429 10.2871C11.1429 10.5294 11.0609 10.7328 10.8969 10.8974C10.8173 10.978 10.722 11.0415 10.6169 11.0839C10.5118 11.1264 10.3991 11.1469 10.2858 11.1442H3.42865Z" fill="#0A6C74"/>
</svg>
