<svg width="27" height="24" viewBox="0 0 27 24" fill="none" xmlns="http://www.w3.org/2000/svg">
<path d="M13.5351 2.20983L10.8478 7.81983H8.16056C7.71454 7.81983 7.27967 7.84983 6.85596 7.92983L7.971 5.52983L8.0156 5.43983L8.08251 5.27983C8.11596 5.20983 8.13826 5.14983 8.17171 5.09983C9.46516 2.40983 10.9147 1.56983 13.5351 2.20983Z" fill="#3371EB"/>
<path d="M21.106 8.08953L21.0837 8.07953C20.4147 7.90953 19.7345 7.81953 19.0432 7.81953H12.063L14.5718 2.58953L14.6053 2.51953C14.7614 2.56953 14.9287 2.63953 15.0959 2.68953L17.5602 3.61953C18.9317 4.12953 19.8906 4.65953 20.4816 5.29953C20.5819 5.41953 20.6711 5.52953 20.7603 5.65953C20.8607 5.79953 20.9387 5.93953 20.9833 6.08953C21.0279 6.17953 21.0614 6.25953 21.0837 6.34953C21.251 6.85953 21.2621 7.43953 21.106 8.08953Z" fill="#3371EB"/>
<path d="M14.1816 17.6601H14.4604C14.7949 17.6601 15.0737 17.3901 15.0737 17.0601C15.0737 16.6401 14.9399 16.5801 14.65 16.4801L14.1816 16.3301V17.6601Z" fill="#3371EB"/>
<path d="M20.6152 9.52031C20.1134 9.39031 19.5894 9.32031 19.043 9.32031H8.16017C7.40194 9.32031 6.68831 9.45031 6.01928 9.71031C4.0791 10.4603 2.71875 12.1903 2.71875 14.2003V16.1503C2.71875 16.3903 2.74105 16.6203 2.7745 16.8603C3.01981 20.0403 4.91539 21.7403 8.46123 21.9503C8.71769 21.9803 8.97415 22.0003 9.25291 22.0003H17.9503C22.0759 22.0003 24.2503 20.2403 24.4621 16.7403C24.4733 16.5503 24.4844 16.3503 24.4844 16.1503V14.2003C24.4844 11.9903 22.8453 10.1303 20.6152 9.52031ZM15.0288 15.5003C15.5418 15.6603 16.2331 16.0003 16.2331 17.0603C16.2331 17.9703 15.4414 18.7003 14.4602 18.7003H14.1814V18.9203C14.1814 19.2103 13.9249 19.4403 13.6016 19.4403C13.2782 19.4403 13.0218 19.2103 13.0218 18.9203V18.7003H12.9214C11.851 18.7003 10.9701 17.8903 10.9701 16.8903C10.9701 16.6003 11.2265 16.3703 11.5499 16.3703C11.8733 16.3703 12.1297 16.6003 12.1297 16.8903C12.1297 17.3103 12.4865 17.6603 12.9214 17.6603H13.0218V15.9703L12.1743 15.7003C11.6614 15.5403 10.9701 15.2003 10.9701 14.1403C10.9701 13.2303 11.7618 12.5003 12.743 12.5003H13.0218V12.2803C13.0218 11.9903 13.2782 11.7603 13.6016 11.7603C13.9249 11.7603 14.1814 11.9903 14.1814 12.2803V12.5003H14.2818C15.3522 12.5003 16.2331 13.3103 16.2331 14.3103C16.2331 14.6003 15.9766 14.8303 15.6533 14.8303C15.3299 14.8303 15.0734 14.6003 15.0734 14.3103C15.0734 13.8903 14.7166 13.5403 14.2818 13.5403H14.1814V15.2303L15.0288 15.5003Z" fill="#3371EB"/>
<path d="M12.1299 14.1391C12.1299 14.5591 12.2637 14.6191 12.5536 14.7191L13.0219 14.8691V13.5391H12.7432C12.3975 13.5391 12.1299 13.8091 12.1299 14.1391Z" fill="#3371EB"/>
</svg>
