<svg width="24" height="24" viewBox="0 0 24 24" fill="none" xmlns="http://www.w3.org/2000/svg">
<path d="M20 22.001V19.001C20 16.173 20 14.758 19.121 13.88C18.243 13 16.828 13 14 13H10C7.172 13 5.757 13 4.879 13.88C4 14.758 4 16.173 4 19C4 19.933 4 20.399 4.152 20.766C4.25251 21.0088 4.3999 21.2294 4.58572 21.4153C4.77155 21.6011 4.99218 21.7485 5.235 21.849C5.602 22.001 6.068 22.001 7 22.001V13.501M9.5 13.001L12.5 22.001" stroke="currentColor" stroke-width="1.5" stroke-linecap="round" stroke-linejoin="round"/>
<path d="M12 19H14.5C14.8978 19 15.2794 19.158 15.5607 19.4393C15.842 19.7206 16 20.1022 16 20.5C16 20.8978 15.842 21.2794 15.5607 21.5607C15.2794 21.842 14.8978 22 14.5 22H12.5M15.5 6.5V5.5C15.5 5.04037 15.4095 4.58525 15.2336 4.16061C15.0577 3.73597 14.7999 3.35013 14.4749 3.02513C14.1499 2.70012 13.764 2.44231 13.3394 2.26642C12.9148 2.09053 12.4596 2 12 2C11.5404 2 11.0852 2.09053 10.6606 2.26642C10.236 2.44231 9.85013 2.70012 9.52513 3.02513C9.20012 3.35013 8.94231 3.73597 8.76642 4.16061C8.59053 4.58525 8.5 5.04037 8.5 5.5V6.5C8.5 6.95963 8.59053 7.41475 8.76642 7.83939C8.94231 8.26403 9.20012 8.64987 9.52513 8.97487C9.85013 9.29988 10.236 9.55769 10.6606 9.73358C11.0852 9.90947 11.5404 10 12 10C12.4596 10 12.9148 9.90947 13.3394 9.73358C13.764 9.55769 14.1499 9.29988 14.4749 8.97487C14.7999 8.64987 15.0577 8.26403 15.2336 7.83939C15.4095 7.41475 15.5 6.95963 15.5 6.5Z" stroke="currentColor" stroke-width="1.5" stroke-linecap="round" stroke-linejoin="round"/>
</svg>
