<svg width="25" height="24" viewBox="0 0 25 24" fill="none" xmlns="http://www.w3.org/2000/svg">
<path fill-rule="evenodd" clip-rule="evenodd" d="M5.42456 1.0955C6.86456 0.9275 9.19206 0.75 12.6016 0.75C13.5941 0.75 14.4951 0.765 15.3091 0.7905C15.3768 0.792606 15.4439 0.803875 15.5086 0.824C16.0816 1.0025 17.6221 1.6405 19.7776 3.7425C21.8086 5.723 22.5096 7.1745 22.7391 7.81C22.7651 7.88333 22.7797 7.95883 22.7831 8.0365C22.8251 9.167 22.8516 10.4815 22.8516 12C22.8516 16.055 22.6631 18.6535 22.4886 20.192C22.3236 21.6415 21.2226 22.736 19.7786 22.9045C18.3386 23.0725 16.0106 23.25 12.6016 23.25C9.19256 23.25 6.86406 23.0725 5.42456 22.9045C3.98056 22.736 2.87956 21.6415 2.71456 20.192C2.53956 18.6535 2.35156 16.055 2.35156 12C2.35156 7.945 2.54006 5.3465 2.71456 3.808C2.87956 2.3585 3.98056 1.264 5.42456 1.0955ZM7.10156 19.875C6.8695 19.875 6.64694 19.7828 6.48284 19.6187C6.31875 19.4546 6.22656 19.2321 6.22656 19C6.22656 18.7679 6.31875 18.5454 6.48284 18.3813C6.64694 18.2172 6.8695 18.125 7.10156 18.125H18.1016C18.3336 18.125 18.5562 18.2172 18.7203 18.3813C18.8844 18.5454 18.9766 18.7679 18.9766 19C18.9766 19.2321 18.8844 19.4546 18.7203 19.6187C18.5562 19.7828 18.3336 19.875 18.1016 19.875H7.10156ZM6.22656 15.5C6.22656 15.017 6.61856 14.625 7.10156 14.625H18.1016C18.3336 14.625 18.5562 14.7172 18.7203 14.8813C18.8844 15.0454 18.9766 15.2679 18.9766 15.5C18.9766 15.7321 18.8844 15.9546 18.7203 16.1187C18.5562 16.2828 18.3336 16.375 18.1016 16.375H7.10156C6.8695 16.375 6.64694 16.2828 6.48284 16.1187C6.31875 15.9546 6.22656 15.7321 6.22656 15.5ZM14.3251 5.602C15.2673 5.42585 16.2259 5.35209 17.1841 5.382C17.456 5.39051 17.7146 5.50232 17.907 5.69469C18.0995 5.88706 18.2114 6.14552 18.2201 6.4175C18.2494 7.37565 18.1755 8.33418 17.9996 9.2765C17.8266 10.1895 16.7366 10.428 16.1411 9.833L15.5716 9.263L15.4536 9.3665C15.2669 9.53069 15.0837 9.69872 14.9041 9.8705C14.4551 10.3005 13.8906 10.882 13.4031 11.5105C13.0361 11.9835 12.4691 12.1215 12.0071 12.0505C11.5416 11.978 11.0256 11.6655 10.8421 11.0635C10.6591 10.4665 10.4271 9.775 10.1841 9.2115C9.65706 9.609 8.82456 10.399 7.83406 11.913C7.70702 12.1073 7.50801 12.2431 7.28081 12.2907C7.05361 12.3382 6.81683 12.2935 6.62256 12.1665C6.42829 12.0395 6.29244 11.8405 6.2449 11.6133C6.19736 11.3861 6.24202 11.1493 6.36906 10.955C7.71356 8.901 8.87406 7.939 9.59156 7.498C10.3461 7.035 11.2416 7.375 11.5946 8.091C11.8786 8.667 12.1411 9.389 12.3501 10.0295C12.7729 9.53159 13.2219 9.05642 13.6951 8.606C13.9381 8.373 14.1481 8.184 14.2976 8.0525L14.3311 8.0225L13.7691 7.4605C13.1736 6.8655 13.4121 5.7755 14.3251 5.602Z" fill="#3371EB"/>
</svg>
