<svg width="16" height="16" viewBox="0 0 16 16" fill="none" xmlns="http://www.w3.org/2000/svg">
<path d="M8.99999 10.114L10.85 8.171C10.8987 8.11731 10.9582 8.07441 11.0245 8.04506C11.0908 8.0157 11.1625 8.00054 11.235 8.00054C11.3075 8.00054 11.3792 8.0157 11.4455 8.04506C11.5118 8.07441 11.5712 8.11731 11.62 8.171C11.834 8.399 11.834 8.771 11.62 9L9.66999 11.05C9.52461 11.2124 9.34659 11.3424 9.14757 11.4314C8.94855 11.5203 8.73299 11.5663 8.51499 11.5663C8.29699 11.5663 8.08143 11.5203 7.88241 11.4314C7.68339 11.3424 7.50537 11.2124 7.35999 11.05L5.40999 9C5.30704 8.88649 5.25002 8.73874 5.25002 8.5855C5.25002 8.43226 5.30704 8.28451 5.40999 8.171C5.45873 8.11731 5.51816 8.07441 5.58446 8.04506C5.65077 8.0157 5.72248 8.00054 5.79499 8.00054C5.8675 8.00054 5.93921 8.0157 6.00551 8.04506C6.07182 8.07441 6.13125 8.11731 6.17999 8.171L7.99999 10.082V1.556C7.99999 1.249 8.22399 1 8.49999 1C8.77599 1 8.99999 1.249 8.99999 1.556V10.114ZM4.17999 6C3.94976 6.00009 3.72676 6.08041 3.54936 6.22715C3.37196 6.37389 3.25124 6.57787 3.20799 6.804L2.01899 12.804C2.00632 12.868 1.99999 12.9333 1.99999 13C1.99999 13.552 2.44399 14 2.98999 14H14.01C14.0753 14 14.14 13.9933 14.204 13.98C14.4627 13.9265 14.6898 13.7728 14.8355 13.5525C14.9813 13.3321 15.034 13.063 14.982 12.804L13.792 6.804C13.7488 6.57821 13.6284 6.37449 13.4514 6.22779C13.2744 6.08109 13.0519 6.00055 12.822 6H4.17999ZM5.99999 5V6H11V5H12.825C13.771 5 14.585 5.673 14.771 6.608L15.961 12.608C16.0187 12.8968 16.012 13.1948 15.9412 13.4807C15.8704 13.7666 15.7374 14.0333 15.5515 14.2618C15.3657 14.4904 15.1317 14.675 14.8663 14.8026C14.6009 14.9302 14.3105 14.9976 14.016 15H2.98399C2.68901 14.999 2.39792 14.9326 2.13175 14.8054C1.86558 14.6783 1.63097 14.4936 1.44487 14.2647C1.25877 14.0359 1.12582 13.7685 1.05563 13.482C0.985437 13.1955 0.979754 12.897 1.03899 12.608L2.22899 6.608C2.41399 5.673 3.22899 5 4.17399 5H5.99999Z" fill="#677294"/>
</svg>
