<svg width="20" height="21" viewBox="0 0 20 21" fill="none" xmlns="http://www.w3.org/2000/svg">
<path d="M7.49984 12.9312V13.417C7.49984 14.4116 7.89493 15.3654 8.59819 16.0686C9.30145 16.7719 10.2553 17.167 11.2498 17.167C12.2444 17.167 13.1982 16.7719 13.9015 16.0686C14.6047 15.3654 14.9998 14.4116 14.9998 13.417V12.0253C14.4436 11.8287 13.9748 11.4418 13.6762 10.933C13.3776 10.4241 13.2686 9.82614 13.3683 9.24467C13.4681 8.6632 13.7701 8.13571 14.2212 7.75543C14.6722 7.37516 15.2432 7.16659 15.8332 7.16659C16.4231 7.16659 16.9941 7.37516 17.4451 7.75543C17.8962 8.13571 18.1983 8.6632 18.298 9.24467C18.3977 9.82614 18.2887 10.4241 17.9901 10.933C17.6916 11.4418 17.2227 11.8287 16.6665 12.0253V13.417C16.6665 14.8536 16.0958 16.2313 15.08 17.2472C14.0642 18.263 12.6864 18.8337 11.2498 18.8337C9.81325 18.8337 8.4355 18.263 7.41968 17.2472C6.40385 16.2313 5.83317 14.8536 5.83317 13.417V12.9312C4.66797 12.7342 3.61018 12.1309 2.84744 11.2283C2.08471 10.3257 1.66632 9.18206 1.6665 8.00033V3.83366C1.6665 3.39163 1.8421 2.96771 2.15466 2.65515C2.46722 2.34259 2.89114 2.16699 3.33317 2.16699H4.1665C4.38752 2.16699 4.59948 2.25479 4.75576 2.41107C4.91204 2.56735 4.99984 2.77931 4.99984 3.00033C4.99984 3.22134 4.91204 3.4333 4.75576 3.58958C4.59948 3.74586 4.38752 3.83366 4.1665 3.83366H3.33317V8.00033C3.33317 8.88438 3.68436 9.73223 4.30948 10.3573C4.9346 10.9825 5.78245 11.3337 6.6665 11.3337C7.55056 11.3337 8.39841 10.9825 9.02353 10.3573C9.64865 9.73223 9.99984 8.88438 9.99984 8.00033V3.83366H9.1665C8.94549 3.83366 8.73353 3.74586 8.57725 3.58958C8.42097 3.4333 8.33317 3.22134 8.33317 3.00033C8.33317 2.77931 8.42097 2.56735 8.57725 2.41107C8.73353 2.25479 8.94549 2.16699 9.1665 2.16699H9.99984C10.4419 2.16699 10.8658 2.34259 11.1783 2.65515C11.4909 2.96771 11.6665 3.39163 11.6665 3.83366V8.00033C11.6667 9.18206 11.2483 10.3257 10.4856 11.2283C9.72283 12.1309 8.66504 12.7342 7.49984 12.9312ZM15.8332 10.5003C16.0542 10.5003 16.2661 10.4125 16.4224 10.2562C16.5787 10.1 16.6665 9.88801 16.6665 9.66699C16.6665 9.44598 16.5787 9.23402 16.4224 9.07774C16.2661 8.92146 16.0542 8.83366 15.8332 8.83366C15.6122 8.83366 15.4002 8.92146 15.2439 9.07774C15.0876 9.23402 14.9998 9.44598 14.9998 9.66699C14.9998 9.88801 15.0876 10.1 15.2439 10.2562C15.4002 10.4125 15.6122 10.5003 15.8332 10.5003Z" fill="#677294"/>
</svg>
