<svg width="38" height="38" viewBox="0 0 38 38" fill="none" xmlns="http://www.w3.org/2000/svg">
<rect width="38" height="38" rx="4" fill="#30887C" fill-opacity="0.1"/>
<path d="M10.4566 17.9175L17.9194 10.4547C19.1087 9.26801 20.7202 8.60156 22.4002 8.60156C24.0803 8.60156 25.6918 9.26801 26.8811 10.4547C29.3511 12.9247 29.3511 16.9358 26.8811 19.4163L19.4183 26.8791C16.9377 29.3491 12.9266 29.3491 10.4566 26.8791C9.26996 25.6898 8.60352 24.0784 8.60352 22.3983C8.60352 20.7182 9.26996 19.1068 10.4566 17.9175ZM11.9555 19.4163C11.4294 19.9383 11.0508 20.5902 10.858 21.3057C10.6652 22.0213 10.6651 22.7752 10.8577 23.4908L17.1805 17.1786L21.6561 21.6541L25.3822 17.9175C25.7757 17.5269 26.088 17.0624 26.3012 16.5506C26.5143 16.0388 26.624 15.4899 26.624 14.9355C26.624 14.3811 26.5143 13.8322 26.3012 13.3204C26.088 12.8086 25.7757 12.3441 25.3822 11.9536C24.9917 11.5601 24.5271 11.2477 24.0153 11.0346C23.5035 10.8215 22.9546 10.7117 22.4002 10.7117C21.8458 10.7117 21.2969 10.8215 20.7851 11.0346C20.2734 11.2477 19.8088 11.5601 19.4183 11.9536L11.9555 19.4163Z" fill="#30887C"/>
</svg>
