<svg width="223" height="52" viewBox="0 0 223 52" fill="none" xmlns="http://www.w3.org/2000/svg">
<path d="M10.6617 24.801C6.24103 29.2157 6.24103 36.3732 10.6617 40.7879C15.0824 45.2024 22.2496 45.2024 26.6703 40.7879L40.2776 27.1991C44.6982 22.7845 44.6982 15.627 40.2776 11.2123C35.8569 6.79771 28.6897 6.79771 24.2691 11.2123L10.6617 24.801Z" stroke="#30887C" stroke-width="4"/>
<path d="M26.6703 11.2114C22.2496 6.79674 15.0824 6.79674 10.6617 11.2114C6.24103 15.6259 6.24103 22.7835 10.6617 27.1981L24.269 40.7869C28.6897 45.2015 35.8569 45.2015 40.2776 40.7869C44.6982 36.3722 44.6982 29.2148 40.2776 24.8001L26.6703 11.2114Z" fill="white" stroke="#30887C" stroke-width="4"/>
<path d="M27.6363 29.1974C26.7522 28.3144 25.3187 28.3144 24.4345 29.1974C23.5505 30.0803 23.5505 31.5117 24.4345 32.3947C25.3187 33.2776 26.7522 33.2776 27.6363 32.3947C28.5204 31.5117 28.5204 30.0803 27.6363 29.1974Z" fill="#FCCF5C"/>
<path d="M32.439 24.4015C31.5549 23.5185 30.1215 23.5185 29.2373 24.4015C28.3532 25.2844 28.3532 26.7159 29.2373 27.5988C30.1215 28.4818 31.5549 28.4818 32.439 27.5988C33.3232 26.7159 33.3232 25.2844 32.439 24.4015Z" fill="#FCCF5C"/>
<path d="M22.8341 24.4015C21.9499 23.5185 20.5165 23.5185 19.6324 24.4015C18.7482 25.2844 18.7482 26.7159 19.6324 27.5988C20.5165 28.4818 21.9499 28.4818 22.8341 27.5988C23.7181 26.7159 23.7181 25.2844 22.8341 24.4015Z" fill="#FCCF5C"/>
<path d="M27.6363 19.6055C26.7522 18.7226 25.3187 18.7226 24.4345 19.6055C23.5505 20.4885 23.5505 21.92 24.4345 22.8028C25.3187 23.6858 26.7522 23.6858 27.6363 22.8028C28.5204 21.92 28.5204 20.4885 27.6363 19.6055Z" fill="#FCCF5C"/>
<path d="M54.1221 40.6958V11.4176H57.4727L69.6608 31.4523H67.4828L79.6709 11.4176H83.0215V40.6958H78.2049V19.8664L79.2939 20.1592L70.2471 35.0075H66.8965L57.8497 20.1592L58.9386 19.8664V40.6958H54.1221ZM97.7514 41.1141C95.741 41.1141 93.9261 40.6679 92.3066 39.7757C90.715 38.8555 89.4446 37.6007 88.4952 36.0113C87.5738 34.4219 87.113 32.6373 87.113 30.6576C87.113 28.6778 87.5738 26.9071 88.4952 25.3457C89.4166 23.7563 90.6592 22.5015 92.2228 21.5813C93.8144 20.6611 95.5735 20.2011 97.5001 20.2011C99.3709 20.2011 101.018 20.6332 102.442 21.4977C103.894 22.3621 105.025 23.5471 105.835 25.0529C106.673 26.5586 107.091 28.2735 107.091 30.1975C107.091 30.5321 107.063 30.8806 107.008 31.2431C106.98 31.5777 106.924 31.9542 106.84 32.3724H90.3381V28.6081H104.453L102.736 30.1138C102.68 28.887 102.442 27.8552 102.023 27.0187C101.605 26.1822 101.004 25.5409 100.223 25.0947C99.4686 24.6485 98.5333 24.4255 97.4163 24.4255C96.2436 24.4255 95.2245 24.6764 94.3589 25.1784C93.4932 25.6803 92.8231 26.3913 92.3485 27.3115C91.8738 28.2037 91.6364 29.2773 91.6364 30.5321C91.6364 31.7869 91.8877 32.8883 92.3903 33.8364C92.8929 34.7845 93.605 35.5233 94.5264 36.0531C95.4478 36.5551 96.5088 36.806 97.7095 36.806C98.7427 36.806 99.692 36.6248 100.558 36.2623C101.451 35.8997 102.205 35.37 102.819 34.6729L105.751 37.6425C104.774 38.7857 103.587 39.6502 102.191 40.2357C100.795 40.8213 99.315 41.1141 97.7514 41.1141ZM118.863 41.1141C117.049 41.1141 115.401 40.654 113.921 39.7338C112.469 38.8137 111.311 37.5728 110.445 36.0113C109.607 34.4219 109.188 32.6513 109.188 30.6994C109.188 28.7197 109.607 26.949 110.445 25.3875C111.311 23.7981 112.469 22.5433 113.921 21.6231C115.401 20.675 117.049 20.2011 118.863 20.2011C120.399 20.2011 121.753 20.5357 122.926 21.2049C124.127 21.8462 125.076 22.7385 125.774 23.8818C126.473 25.025 126.821 26.3216 126.821 27.7716V33.5436C126.821 34.9936 126.473 36.2902 125.774 37.4334C125.104 38.5766 124.169 39.4829 122.968 40.1521C121.767 40.7934 120.399 41.1141 118.863 41.1141ZM119.617 36.7642C120.762 36.7642 121.753 36.5132 122.591 36.0113C123.457 35.4815 124.127 34.7565 124.601 33.8364C125.076 32.9162 125.313 31.8566 125.313 30.6576C125.313 29.4585 125.076 28.399 124.601 27.4788C124.127 26.5586 123.457 25.8476 122.591 25.3457C121.753 24.8158 120.762 24.551 119.617 24.551C118.5 24.551 117.51 24.8158 116.644 25.3457C115.806 25.8476 115.136 26.5586 114.633 27.4788C114.159 28.399 113.921 29.4585 113.921 30.6576C113.921 31.8566 114.159 32.9162 114.633 33.8364C115.136 34.7565 115.806 35.4815 116.644 36.0113C117.51 36.5132 118.5 36.7642 119.617 36.7642ZM129.627 40.6958H125.02V35.3003L125.816 30.4066L125.02 25.5548V10.5811H129.627V40.6958ZM134.443 40.6958V20.6193H139.05V40.6958H134.443ZM136.746 16.9386C135.964 16.9386 135.309 16.6738 134.778 16.1439C134.275 15.6141 134.024 14.9589 134.024 14.1781C134.024 13.3973 134.275 12.7421 134.778 12.2123C135.309 11.6824 135.964 11.4176 136.746 11.4176C137.556 11.4176 138.212 11.6824 138.715 12.2123C139.218 12.7421 139.469 13.3973 139.469 14.1781C139.469 14.9589 139.218 15.6141 138.715 16.1439C138.212 16.6738 137.556 16.9386 136.746 16.9386Z" fill="#30887C"/>
<path d="M152.674 41.1138C150.356 41.1138 148.388 40.6955 146.768 39.859C145.148 39.0225 143.697 37.7956 142.412 36.1783L145.679 32.9159C146.488 34.087 147.452 35.0072 148.569 35.6764C149.686 36.3177 151.11 36.6384 152.841 36.6384C154.461 36.6384 155.745 36.3038 156.694 35.6346C157.671 34.9654 158.16 34.0452 158.16 32.8741C158.16 31.8982 157.909 31.1035 157.406 30.49C156.904 29.8765 156.234 29.3746 155.396 28.9842C154.587 28.566 153.679 28.2034 152.674 27.8968C151.697 27.5622 150.705 27.1996 149.7 26.8093C148.723 26.391 147.815 25.8752 146.977 25.2617C146.168 24.6482 145.511 23.8535 145.009 22.8776C144.506 21.9017 144.255 20.6608 144.255 19.1551C144.255 17.4263 144.674 15.9624 145.511 14.7634C146.377 13.5365 147.535 12.6023 148.988 11.961C150.44 11.3197 152.059 10.999 153.846 10.999C155.773 10.999 157.49 11.3755 158.998 12.1283C160.534 12.8812 161.776 13.8432 162.725 15.0143L159.459 18.2768C158.621 17.3287 157.741 16.6316 156.82 16.1855C155.927 15.7115 154.893 15.4744 153.721 15.4744C152.268 15.4744 151.124 15.7672 150.286 16.3528C149.477 16.9383 149.072 17.7609 149.072 18.8205C149.072 19.7128 149.323 20.4378 149.825 20.9955C150.328 21.5253 150.985 21.9854 151.794 22.3757C152.632 22.7383 153.539 23.0868 154.516 23.4214C155.522 23.756 156.513 24.1324 157.49 24.5507C158.495 24.9689 159.403 25.5127 160.212 26.1819C161.05 26.8232 161.72 27.6597 162.223 28.6915C162.725 29.7232 162.977 31.0198 162.977 32.5813C162.977 35.2024 162.042 37.2797 160.171 38.8134C158.328 40.347 155.828 41.1138 152.674 41.1138ZM175.906 41.1138C173.896 41.1138 172.08 40.6676 170.461 39.7754C168.87 38.8552 167.599 37.6004 166.65 36.011C165.729 34.4216 165.268 32.637 165.268 30.6573C165.268 28.6776 165.729 26.9068 166.65 25.3454C167.571 23.756 168.813 22.5012 170.378 21.581C171.969 20.6608 173.728 20.2008 175.655 20.2008C177.525 20.2008 179.173 20.6329 180.597 21.4974C182.048 22.3618 183.179 23.5469 183.99 25.0526C184.827 26.5583 185.246 28.2732 185.246 30.1972C185.246 30.5318 185.218 30.8803 185.162 31.2428C185.134 31.5775 185.079 31.9539 184.995 32.3722H168.493V28.6078H182.608L180.89 30.1135C180.834 28.8867 180.597 27.8549 180.178 27.0184C179.76 26.1819 179.158 25.5406 178.377 25.0944C177.623 24.6482 176.687 24.4252 175.571 24.4252C174.398 24.4252 173.379 24.6762 172.514 25.1781C171.648 25.68 170.978 26.391 170.503 27.3112C170.028 28.2034 169.791 29.277 169.791 30.5318C169.791 31.7866 170.043 32.888 170.545 33.8361C171.048 34.7842 171.76 35.523 172.681 36.0528C173.603 36.5548 174.663 36.8057 175.864 36.8057C176.897 36.8057 177.846 36.6245 178.712 36.262C179.606 35.8994 180.359 35.3697 180.974 34.6726L183.906 37.6422C182.928 38.7854 181.742 39.6499 180.346 40.2355C178.949 40.821 177.47 41.1138 175.906 41.1138ZM191.126 40.6955V12.2538H195.733V40.6955H191.126ZM186.309 24.8016V20.619H200.549V24.8016H186.309ZM211.808 41.1138C210.105 41.1138 208.583 40.7374 207.243 39.9845C205.931 39.2316 204.897 38.1999 204.143 36.8894C203.418 35.5509 203.055 34.0173 203.055 32.2885V20.619H207.662V32.0794C207.662 33.0553 207.816 33.8918 208.122 34.5889C208.457 35.2582 208.932 35.774 209.546 36.1365C210.188 36.499 210.942 36.6802 211.808 36.6802C213.148 36.6802 214.167 36.2899 214.866 35.5091C215.591 34.7005 215.955 33.5572 215.955 32.0794V20.619H220.562V32.2885C220.562 34.0452 220.185 35.5928 219.431 36.9312C218.705 38.2417 217.685 39.2735 216.373 40.0263C215.061 40.7513 213.539 41.1138 211.808 41.1138Z" fill="#30887C"/>
</svg>
