<svg preserveAspectRatio="none" width="100%" height="100%" overflow="visible" style="display: block;" viewBox="0 0 24 24" fill="none" xmlns="http://www.w3.org/2000/svg">
<g id="ic:round-mic">
<g id="Vector">
<path fill-rule="evenodd" clip-rule="evenodd" d="M17.5526 12.4421C17.6509 11.8232 18.1543 11.3684 18.756 11.3684C19.5051 11.3684 20.1068 12.0505 19.984 12.8084C19.6863 14.6611 18.8221 16.3678 17.517 17.6808C16.2119 18.9937 14.5339 19.8445 12.7267 20.1095V22.7368C12.7267 23.4316 12.1741 24 11.4987 24C10.8233 24 10.2707 23.4316 10.2707 22.7368V20.1095C6.56222 19.5663 3.61508 16.5979 3.01337 12.8084C2.90285 12.0505 3.49228 11.3684 4.24134 11.3684C4.53327 11.371 4.81474 11.4805 5.03527 11.6773C5.25581 11.8741 5.40098 12.1452 5.44476 12.4421C5.94823 15.4105 8.46559 17.6842 11.4987 17.6842C14.5318 17.6842 17.0492 15.4105 17.5526 12.4421Z" fill="var(--fill-0, #2FAE8E)"/>
<path d="M11.4987 15.1579C13.5371 15.1579 15.1826 13.4653 15.1826 11.3684V3.78947C15.1826 1.69263 13.5371 0 11.4987 0C9.46025 0 7.81476 1.69263 7.81476 3.78947V11.3684C7.81476 13.4653 9.46025 15.1579 11.4987 15.1579Z" fill="#2FAE8E"/>
</g>
</g>
</svg>
