<svg width="24" height="25" viewBox="0 0 24 25" fill="none" xmlns="http://www.w3.org/2000/svg">
<path d="M9.25 5.5C9.25 3.98 10.48 2.75 12 2.75C13.52 2.75 14.75 3.98 14.75 5.5C14.75 7.02 13.52 8.25 12 8.25C10.48 8.25 9.25 7.02 9.25 5.5ZM13.25 5.5C13.25 4.81 12.69 4.25 12 4.25C11.31 4.25 10.75 4.81 10.75 5.5C10.75 6.19 11.31 6.75 12 6.75C12.69 6.75 13.25 6.19 13.25 5.5Z" fill="black"/>
<path d="M9.25 19.5C9.25 17.98 10.48 16.75 12 16.75C13.52 16.75 14.75 17.98 14.75 19.5C14.75 21.02 13.52 22.25 12 22.25C10.48 22.25 9.25 21.02 9.25 19.5ZM13.25 19.5C13.25 18.81 12.69 18.25 12 18.25C11.31 18.25 10.75 18.81 10.75 19.5C10.75 20.19 11.31 20.75 12 20.75C12.69 20.75 13.25 20.19 13.25 19.5Z" fill="black"/>
<path d="M9.25 12.5C9.25 10.98 10.48 9.75 12 9.75C13.52 9.75 14.75 10.98 14.75 12.5C14.75 14.02 13.52 15.25 12 15.25C10.48 15.25 9.25 14.02 9.25 12.5ZM13.25 12.5C13.25 11.81 12.69 11.25 12 11.25C11.31 11.25 10.75 11.81 10.75 12.5C10.75 13.19 11.31 13.75 12 13.75C12.69 13.75 13.25 13.19 13.25 12.5Z" fill="black"/>
</svg>
