<svg width="27" height="24" viewBox="0 0 27 24" fill="none" xmlns="http://www.w3.org/2000/svg">
<path d="M23.7371 6.97953C22.7893 6.03953 21.2059 5.56953 18.9089 5.56953H18.6413V5.52953C18.6413 3.84953 18.6413 1.76953 14.4488 1.76953H12.7539C8.56132 1.76953 8.56132 3.85953 8.56132 5.52953V5.57953H8.29371C5.98557 5.57953 4.41335 6.04953 3.46557 6.98953C2.36167 8.08953 2.39512 9.56953 2.50663 10.5795L2.51778 10.6495L2.60292 11.4513C2.61952 11.6076 2.70832 11.7469 2.84386 11.8264C3.11045 11.983 3.56309 12.2448 3.83353 12.3795C3.98964 12.4695 4.15689 12.5495 4.32415 12.6295C6.23088 13.5695 8.32716 14.1995 10.4569 14.5095C10.5572 15.4495 11.0144 16.5495 13.4564 16.5495C15.8983 16.5495 16.3778 15.4595 16.4558 14.4895C18.7305 14.1595 20.9272 13.4495 22.9119 12.4095C22.9788 12.3795 23.0234 12.3495 23.0792 12.3195C23.5231 12.0945 23.9837 11.8171 24.4031 11.5456C24.5257 11.4662 24.606 11.3361 24.624 11.1911L24.6403 11.0595L24.696 10.5895C24.7072 10.5295 24.7072 10.4795 24.7183 10.4095C24.8075 9.39953 24.7852 8.01953 23.7371 6.97953ZM14.8167 13.8295C14.8167 14.8895 14.8167 15.0495 13.4452 15.0495C12.0737 15.0495 12.0737 14.8595 12.0737 13.8395V12.5795H14.8167V13.8295ZM10.1558 5.56953V5.52953C10.1558 3.82953 10.1558 3.19953 12.7539 3.19953H14.4488C17.0468 3.19953 17.0468 3.83953 17.0468 5.52953V5.57953H10.1558V5.56953Z" fill="#128635"/>
<path d="M23.6035 13.6884C23.9569 13.5369 24.3457 13.8211 24.307 14.2036L23.9034 18.1907C23.6693 20.1907 22.7549 22.2307 17.8487 22.2307H9.35211C4.44591 22.2307 3.53158 20.1907 3.29742 18.2007L2.91439 14.4221C2.87604 14.0437 3.25641 13.7601 3.60862 13.9036C4.85988 14.4133 7.32651 15.3819 8.81342 15.7252C8.97615 15.7628 9.10981 15.8746 9.18656 16.0229C9.86126 17.3268 11.331 18.0207 13.4555 18.0207C15.559 18.0207 17.0474 17.3001 17.7242 15.9931C17.8011 15.8446 17.935 15.7329 18.0979 15.6952C19.6758 15.3294 22.2971 14.2482 23.6035 13.6884Z" fill="#128635"/>
</svg>
