<svg width="24" height="24" viewBox="0 0 24 24" fill="none" xmlns="http://www.w3.org/2000/svg">
<path fill-rule="evenodd" clip-rule="evenodd" d="M15.3258 19.2596V23.2496H5.09183V16.8096C4.11597 15.939 3.33728 14.8701 2.80784 13.6742C2.2784 12.4784 2.01042 11.1834 2.02183 9.87563C2.06683 3.69963 8.27883 -0.487367 14.2568 1.08063C15.3885 1.38087 16.4313 1.9489 17.2974 2.73679C18.1634 3.52468 18.8272 4.50932 19.2328 5.60763C19.3538 5.87427 19.4159 6.16384 19.4148 6.45663V8.63563C19.4148 8.63563 20.8828 11.3856 21.8878 13.6226C21.9576 13.7783 21.9873 13.9489 21.9742 14.119C21.9611 14.2891 21.9057 14.4532 21.8129 14.5964C21.7202 14.7395 21.5931 14.8572 21.4432 14.9386C21.2933 15.0201 21.1254 15.0627 20.9548 15.0626H19.4188V17.9296C19.419 18.1043 19.3847 18.2773 19.3179 18.4388C19.2511 18.6002 19.1531 18.7468 19.0296 18.8704C18.9061 18.9939 18.7594 19.0919 18.598 19.1587C18.4365 19.2255 18.2635 19.2598 18.0888 19.2596H15.3258ZM12.1973 4.84058C12.1973 4.42646 11.8613 4.09073 11.4473 4.09058H10.5225C10.1082 4.09058 9.77246 4.42636 9.77246 4.84058C9.77246 5.15283 9.96298 5.4201 10.2344 5.53296V6.25269C9.81646 6.34317 9.4264 6.50795 9.07812 6.73218L8.56836 6.22241C8.68038 5.95073 8.62701 5.62677 8.40625 5.40601C8.1134 5.11331 7.63856 5.11332 7.3457 5.40601L6.69141 6.0603C6.39869 6.35316 6.3987 6.82799 6.69141 7.12085C6.91218 7.34162 7.23612 7.395 7.50781 7.28296L8.01758 7.79272C7.79336 8.141 7.62857 8.53106 7.53809 8.94897H6.81934C6.70676 8.67695 6.43869 8.48608 6.12598 8.48608C5.71176 8.48608 5.37598 8.82187 5.37598 9.23608V10.1619C5.37612 10.576 5.71185 10.9119 6.12598 10.9119C6.43844 10.9119 6.7066 10.7207 6.81934 10.449H7.53906C7.62952 10.8662 7.7938 11.2555 8.01758 11.6033L7.50781 12.113C7.23621 12.0012 6.91206 12.0555 6.69141 12.2761C6.39863 12.5689 6.39876 13.0438 6.69141 13.3367L7.3457 13.991C7.63859 14.2838 8.11338 14.2838 8.40625 13.991C8.62728 13.7699 8.68093 13.4455 8.56836 13.1736L9.07812 12.6648C9.42635 12.889 9.81652 13.0528 10.2344 13.1433V13.864C9.963 13.9768 9.77254 14.2442 9.77246 14.5564C9.77246 14.9706 10.1082 15.3064 10.5225 15.3064H11.4473C11.8613 15.3062 12.1973 14.9705 12.1973 14.5564C12.1972 14.2441 12.0058 13.9768 11.7344 13.864V13.1433C12.1518 13.0528 12.5408 12.8878 12.8887 12.6638L13.3984 13.1736C13.2861 13.4454 13.3406 13.77 13.5615 13.991C13.8544 14.2838 14.3292 14.2837 14.6221 13.991L15.2764 13.3367C15.5691 13.0438 15.5692 12.569 15.2764 12.2761C15.0554 12.0552 14.7308 12.0007 14.459 12.113L13.9492 11.6033C14.1732 11.2553 14.3392 10.8665 14.4297 10.449H15.1494C15.2622 10.7205 15.5295 10.9118 15.8418 10.9119C16.2559 10.9119 16.5917 10.576 16.5918 10.1619V9.23608C16.5918 8.82187 16.256 8.48608 15.8418 8.48608C15.5293 8.48616 15.262 8.67715 15.1494 8.94897H14.4297C14.3392 8.53104 14.1744 8.14101 13.9502 7.79272L14.459 7.28296C14.7309 7.39553 15.0553 7.34188 15.2764 7.12085C15.5692 6.82797 15.5692 6.35318 15.2764 6.0603L14.6221 5.40601C14.3292 5.11338 13.8543 5.11326 13.5615 5.40601C13.3409 5.62666 13.2866 5.95081 13.3984 6.22241L12.8887 6.73218C12.5408 6.50836 12.1517 6.34314 11.7344 6.25269V5.53296C12.0059 5.42014 12.1973 5.1529 12.1973 4.84058ZM8.95801 9.69897C8.95801 8.58005 9.86545 7.67261 10.9844 7.67261C12.1031 7.67282 13.0098 8.58018 13.0098 9.69897C13.0095 10.8176 12.103 11.7242 10.9844 11.7244C9.86559 11.7244 8.95824 10.8177 8.95801 9.69897Z" fill="#FFBD11"/>
</svg>
