<svg width="28" height="29" viewBox="0 0 28 29" fill="none" xmlns="http://www.w3.org/2000/svg">
<path fill-rule="evenodd" clip-rule="evenodd" d="M19.1264 2.59078L19.2034 2.61178C20.4867 2.95594 21.5029 3.22778 22.302 3.51711C23.1199 3.81228 23.7872 4.14944 24.3367 4.66394C25.1364 5.41356 25.6959 6.3835 25.9444 7.45111C26.1159 8.18378 26.075 8.93044 25.921 9.78561C25.7729 10.6233 25.501 11.6394 25.1569 12.9216L24.5315 15.2538C24.1885 16.5359 23.9155 17.5521 23.6274 18.3524C23.331 19.1691 22.9939 19.8364 22.4794 20.3859C21.7542 21.1602 20.8221 21.7101 19.7937 21.9703C19.4924 22.6611 19.0533 23.2831 18.5034 23.7984C17.9539 24.3129 17.2865 24.6501 16.4687 24.9464C15.6695 25.2358 14.6534 25.5076 13.3712 25.8518L13.293 25.8728C12.0097 26.2158 10.9947 26.4876 10.157 26.6381C9.30187 26.7909 8.5552 26.8318 7.82137 26.6614C6.7539 26.4121 5.78436 25.8518 5.03537 25.0514C4.52203 24.5031 4.1837 23.8358 3.88737 23.0179C3.5992 22.2188 3.32737 21.2026 2.9832 19.9193L2.35787 17.5883C2.01487 16.3049 1.74187 15.2899 1.59253 14.4523C1.4397 13.5971 1.39887 12.8504 1.5692 12.1166C1.81851 11.0491 2.3788 10.0796 3.1792 9.33061C3.72753 8.81728 4.39487 8.47894 5.2127 8.18261C6.01187 7.89444 7.02803 7.62261 8.3102 7.27844L8.34987 7.26678L9.22603 7.03344C9.68337 5.40128 10.0847 4.24744 10.8687 3.41094C11.6178 2.61097 12.5874 2.05109 13.6547 1.80211C14.3885 1.63178 15.134 1.67261 15.9904 1.82544C16.8269 1.97478 17.843 2.24778 19.1264 2.59078ZM8.69753 8.98644C7.42237 9.32828 6.50887 9.57561 5.80653 9.82878C5.09487 10.0854 4.67837 10.3234 4.37503 10.6081C3.82746 11.1206 3.44419 11.7841 3.2737 12.5144C3.18037 12.9204 3.18153 13.4011 3.3157 14.1443C3.44987 14.8991 3.70303 15.8441 4.05887 17.1741L4.6632 19.4281C5.01903 20.7581 5.27337 21.7031 5.53353 22.4229C5.7902 23.1346 6.0282 23.5523 6.31287 23.8556C6.8254 24.4032 7.48881 24.7865 8.2192 24.9569C8.62403 25.0503 9.10587 25.0479 9.84903 24.9149C10.6039 24.7808 11.5489 24.5276 12.8789 24.1718C14.2089 23.8148 15.1539 23.5616 15.8749 23.3003C16.5854 23.0436 17.003 22.8056 17.3064 22.5221C17.4674 22.3704 17.6136 22.2075 17.745 22.0333C17.5286 22.0024 17.3131 21.9654 17.0987 21.9224C16.3147 21.7661 15.372 21.5141 14.2112 21.2026L14.1435 21.1851C12.8614 20.8409 11.8452 20.5691 11.046 20.2798C10.2282 19.9846 9.56087 19.6474 9.01137 19.1329C8.21119 18.3835 7.6513 17.4135 7.40253 16.3458C7.2322 15.6131 7.27303 14.8664 7.42587 14.0113C7.5752 13.1736 7.8482 12.1574 8.1912 10.8753L8.69753 8.98644ZM15.6824 3.54861C14.938 3.41444 14.4574 3.41211 14.0525 3.50661C13.3221 3.6771 12.6587 4.06037 12.1462 4.60794C11.6375 5.15044 11.3237 5.99044 10.78 7.98311L10.4965 9.03544L9.8922 11.2894C9.53637 12.6194 9.2832 13.5644 9.14903 14.3193C9.01487 15.0624 9.01253 15.5443 9.10703 15.9491C9.27752 16.6795 9.66079 17.3429 10.2084 17.8554C10.5117 18.1401 10.9294 18.3769 11.6399 18.6348C12.3609 18.8949 13.3059 19.1481 14.6359 19.5051C15.8317 19.8259 16.7184 20.0628 17.4394 20.2051C18.1569 20.3486 18.6445 20.3836 19.0435 20.3346C19.1306 20.3229 19.2146 20.3082 19.2955 20.2903C20.0259 20.1198 20.6893 19.7365 21.2019 19.1889C21.4865 18.8856 21.7245 18.4679 21.9812 17.7574C22.2414 17.0364 22.4945 16.0914 22.8515 14.7614L23.4559 12.5074C23.8117 11.1774 24.0649 10.2324 24.199 9.47761C24.332 8.73444 24.3355 8.25261 24.241 7.84778C24.0705 7.11739 23.6873 6.45398 23.1397 5.94144C22.8364 5.65678 22.4187 5.41994 21.7082 5.16211C20.986 4.90194 20.0422 4.64878 18.7122 4.29178C17.3822 3.93594 16.4372 3.68278 15.6824 3.54861ZM12.894 11.6733C12.9238 11.5623 12.9752 11.4582 13.0452 11.367C13.1152 11.2759 13.2025 11.1994 13.302 11.142C13.4016 11.0846 13.5115 11.0473 13.6254 11.0324C13.7394 11.0175 13.8552 11.0251 13.9662 11.0549L19.6012 12.5646C19.8191 12.6301 20.003 12.778 20.1137 12.9768C20.2244 13.1756 20.2533 13.4098 20.1943 13.6296C20.1352 13.8493 19.9929 14.0375 19.7974 14.154C19.602 14.2706 19.3688 14.3064 19.1474 14.2539L13.5124 12.7443C13.2884 12.6841 13.0975 12.5375 12.9816 12.3367C12.8656 12.1359 12.8342 11.8973 12.894 11.6733ZM11.9875 15.0543C12.0173 14.9431 12.0687 14.839 12.1388 14.7477C12.2089 14.6565 12.2963 14.5799 12.396 14.5225C12.4956 14.4651 12.6057 14.4279 12.7198 14.413C12.8339 14.3981 12.9498 14.4059 13.0609 14.4359L16.4407 15.3413C16.6649 15.4013 16.856 15.5479 16.9721 15.7489C17.0882 15.9498 17.1196 16.1887 17.0596 16.4129C16.9996 16.637 16.853 16.8282 16.652 16.9442C16.451 17.0603 16.2122 17.0918 15.988 17.0318L12.607 16.1253C12.3831 16.0651 12.1922 15.9185 12.0762 15.7177C11.9603 15.5169 11.9288 15.2783 11.9887 15.0543" fill="#30887C"/>
</svg>
