<svg width="18" height="23" viewBox="0 0 18 23" fill="none" xmlns="http://www.w3.org/2000/svg">
<path d="M3 19V10C3 8.4087 3.63214 6.88258 4.75736 5.75736C5.88258 4.63214 7.4087 4 9 4C10.5913 4 12.1174 4.63214 13.2426 5.75736C14.3679 6.88258 15 8.4087 15 10V19M3 19H15M3 19H1M15 19H17M8 22H10" stroke="black" stroke-width="1.5" stroke-linecap="round" stroke-linejoin="round"/>
<path d="M9 4C9.55228 4 10 3.55228 10 3C10 2.44772 9.55228 2 9 2C8.44772 2 8 2.44772 8 3C8 3.55228 8.44772 4 9 4Z" stroke="black" stroke-width="2.5"/>
</svg>
