<svg width="40" height="40" viewBox="0 0 40 40" fill="none" xmlns="http://www.w3.org/2000/svg">
<rect width="40" height="40" rx="2" fill="#DC3E57" fill-opacity="0.1"/>
<path d="M14 9V11H13C11.89 11 11 11.89 11 13V27C11 27.5304 11.2107 28.0391 11.5858 28.4142C11.9609 28.7893 12.4696 29 13 29H27C28.11 29 29 28.11 29 27V13C29 12.4696 28.7893 11.9609 28.4142 11.5858C28.0391 11.2107 27.5304 11 27 11H26V9H24V11H16V9H14ZM13 16H27V27H13V16ZM19 17V22H21V17H19ZM19 24V26H21V24H19Z" fill="#E5484D"/>
</svg>
