<svg width="40" height="40" viewBox="0 0 40 40" fill="none" xmlns="http://www.w3.org/2000/svg">
<rect width="40" height="40" rx="2" fill="#EEF3FF"/>
<path d="M25.12 17.88C24.5577 17.3177 23.7952 17.0019 23 17.0019C22.2048 17.0019 21.4423 17.3177 20.88 17.88C20.3177 18.4423 20.0019 19.2048 20.0019 20C20.0019 20.7952 20.3177 21.5577 20.88 22.12C21.1584 22.3984 21.4889 22.6192 21.8527 22.7699C22.2164 22.9206 22.6063 22.9981 23 22.9981C23.3937 22.9981 23.7836 22.9206 24.1473 22.7699C24.5111 22.6192 24.8416 22.3984 25.12 22.12C25.3984 21.8416 25.6192 21.5111 25.7699 21.1473C25.9206 20.7836 25.9981 20.3937 25.9981 20C25.9981 19.6063 25.9206 19.2164 25.7699 18.8527C25.6192 18.4889 25.3984 18.1584 25.12 17.88ZM15 14V26H31V14H15ZM29 22C28.47 22 27.96 22.21 27.59 22.59C27.21 22.96 27 23.47 27 24H19C19 23.47 18.79 22.96 18.41 22.59C18.04 22.21 17.53 22 17 22V18C17.53 18 18.04 17.79 18.41 17.41C18.79 17.04 19 16.53 19 16H27C27 16.53 27.21 17.04 27.59 17.41C27.96 17.79 28.47 18 29 18V22ZM13 16H11C10.45 16 10 15.55 10 15C10 14.45 10.45 14 11 14H13V16ZM13 21H10C9.45 21 9 20.55 9 20C9 19.45 9.45 19 10 19H13V21ZM13 26H9C8.448 26 8 25.55 8 25C8 24.45 8.448 24 9 24H13V26Z" fill="#2898FF"/>
</svg>
