<svg width="40" height="40" viewBox="0 0 40 40" fill="none" xmlns="http://www.w3.org/2000/svg">
<rect width="40" height="40" rx="2" fill="#FFBD11" fill-opacity="0.1"/>
<path d="M19.2 16.5005L15.2 12.5005H28C28.5304 12.5005 29.0391 12.7112 29.4142 13.0863C29.7893 13.4613 30 13.97 30 14.5005V26.5005C30.0019 26.7326 29.9612 26.963 29.88 27.1805L22.2 19.5005H28V16.5005M28.84 31.2305L26.11 28.5005H12C11.4696 28.5005 10.9608 28.2898 10.5858 27.9147C10.2107 27.5396 9.99999 27.0309 9.99999 26.5005V14.5005C10.0021 14.2255 10.061 13.9539 10.1728 13.7027C10.2847 13.4515 10.4471 13.2261 10.65 13.0405L9.10999 11.5005L10.39 10.2305L30.11 29.9605M17.11 19.5005L14.11 16.5005H12V19.5005H17.11Z" fill="#F4A261"/>
</svg>
