<svg width="40" height="40" viewBox="0 0 40 40" fill="none" xmlns="http://www.w3.org/2000/svg">
<rect width="40" height="40" rx="2" fill="#128635" fill-opacity="0.1"/>
<path d="M12.2201 19.2904L19.2901 12.2204C20.4168 11.0962 21.9434 10.4648 23.5351 10.4648C25.1267 10.4648 26.6534 11.0962 27.7801 12.2204C30.1201 14.5604 30.1201 18.3604 27.7801 20.7104L20.7101 27.7804C18.3601 30.1204 14.5601 30.1204 12.2201 27.7804C11.0958 26.6537 10.4645 25.1271 10.4645 23.5354C10.4645 21.9438 11.0958 20.4171 12.2201 19.2904ZM13.6401 20.7104C13.1416 21.2049 12.7829 21.8225 12.6003 22.5004C12.4176 23.1783 12.4175 23.8925 12.6001 24.5704L18.5901 18.5904L22.8301 22.8304L26.3601 19.2904C26.7329 18.9205 27.0287 18.4804 27.2307 17.9955C27.4326 17.5107 27.5365 16.9906 27.5365 16.4654C27.5365 15.9402 27.4326 15.4202 27.2307 14.9353C27.0287 14.4505 26.7329 14.0104 26.3601 13.6404C25.9901 13.2676 25.55 12.9717 25.0651 12.7698C24.5803 12.5679 24.0603 12.464 23.5351 12.464C23.0098 12.464 22.4898 12.5679 22.005 12.7698C21.5201 12.9717 21.08 13.2676 20.7101 13.6404L13.6401 20.7104Z" fill="#27B77A"/>
</svg>
