<svg preserveAspectRatio="none" width="100%" height="100%" overflow="visible" style="display: block;" viewBox="0 0 22.5 17.5" fill="none" xmlns="http://www.w3.org/2000/svg">
<g id="Container">
<path id="Symbol" d="M12.0703 2.89062C12.5391 2.57812 12.7865 2.13542 12.8125 1.5625C12.8125 1.11979 12.6562 0.755208 12.3438 0.46875C12.0573 0.15625 11.6927 0 11.25 0C10.8073 0 10.4427 0.15625 10.1562 0.46875C9.84375 0.755208 9.6875 1.11979 9.6875 1.5625C9.71354 2.16146 9.96094 2.60417 10.4297 2.89062L8.20312 7.38281C7.99479 7.72135 7.70833 7.94271 7.34375 8.04688C6.97917 8.125 6.6276 8.03385 6.28906 7.77344L2.8125 5C3.02083 4.73958 3.125 4.42708 3.125 4.0625C3.125 3.61979 2.96875 3.25521 2.65625 2.96875C2.36979 2.65625 2.00521 2.5 1.5625 2.5C1.11979 2.5 0.755208 2.65625 0.46875 2.96875C0.15625 3.25521 0 3.61979 0 4.0625C0 4.50521 0.15625 4.86979 0.46875 5.15625C0.755208 5.46875 1.11979 5.625 1.5625 5.625C1.58854 5.625 1.60156 5.625 1.60156 5.625L3.35938 15.4297C3.48958 16.0547 3.77604 16.5495 4.21875 16.9141C4.6875 17.3047 5.22135 17.5 5.82031 17.5H16.6797C17.2786 17.5 17.8125 17.3047 18.2812 16.9141C18.724 16.5495 19.0104 16.0547 19.1406 15.4297L20.8984 5.625C20.8984 5.625 20.9115 5.625 20.9375 5.625C21.3802 5.625 21.7448 5.46875 22.0312 5.15625C22.3438 4.86979 22.5 4.50521 22.5 4.0625C22.5 3.61979 22.3438 3.25521 22.0312 2.96875C21.7448 2.65625 21.3802 2.5 20.9375 2.5C20.4948 2.5 20.1302 2.65625 19.8438 2.96875C19.5312 3.25521 19.375 3.61979 19.375 4.0625C19.375 4.42708 19.4792 4.73958 19.6875 5L16.2109 7.77344C15.8724 8.03385 15.5208 8.125 15.1562 8.04688C14.7917 7.94271 14.5052 7.72135 14.2969 7.38281L12.0703 2.89062Z" fill="var(--fill-0, #4F46E5)"/>
</g>
</svg>
