<svg width="20" height="21" viewBox="0 0 20 21" fill="none" xmlns="http://www.w3.org/2000/svg">
<path d="M10 3.83366C9.11594 3.83366 8.2681 4.18485 7.64298 4.80997C7.01786 5.43509 6.66667 6.28294 6.66667 7.16699C6.66667 8.05105 7.01786 8.89889 7.64298 9.52401C8.2681 10.1491 9.11594 10.5003 10 10.5003C10.8841 10.5003 11.7319 10.1491 12.357 9.52401C12.9821 8.89889 13.3333 8.05105 13.3333 7.16699C13.3333 6.28294 12.9821 5.43509 12.357 4.80997C11.7319 4.18485 10.8841 3.83366 10 3.83366ZM5 7.16699C5 5.84091 5.52678 4.56914 6.46447 3.63146C7.40215 2.69378 8.67392 2.16699 10 2.16699C11.3261 2.16699 12.5979 2.69378 13.5355 3.63146C14.4732 4.56914 15 5.84091 15 7.16699C15 8.49307 14.4732 9.76484 13.5355 10.7025C12.5979 11.6402 11.3261 12.167 10 12.167C8.67392 12.167 7.40215 11.6402 6.46447 10.7025C5.52678 9.76484 5 8.49307 5 7.16699ZM6.66667 15.5003C6.00363 15.5003 5.36774 15.7637 4.8989 16.2326C4.43006 16.7014 4.16667 17.3373 4.16667 18.0003C4.16667 18.2213 4.07887 18.4333 3.92259 18.5896C3.76631 18.7459 3.55435 18.8337 3.33333 18.8337C3.11232 18.8337 2.90036 18.7459 2.74408 18.5896C2.5878 18.4333 2.5 18.2213 2.5 18.0003C2.5 16.8953 2.93899 15.8354 3.72039 15.054C4.50179 14.2726 5.5616 13.8337 6.66667 13.8337H13.3333C14.4384 13.8337 15.4982 14.2726 16.2796 15.054C17.061 15.8354 17.5 16.8953 17.5 18.0003C17.5 18.2213 17.4122 18.4333 17.2559 18.5896C17.0996 18.7459 16.8877 18.8337 16.6667 18.8337C16.4457 18.8337 16.2337 18.7459 16.0774 18.5896C15.9211 18.4333 15.8333 18.2213 15.8333 18.0003C15.8333 17.3373 15.5699 16.7014 15.1011 16.2326C14.6323 15.7637 13.9964 15.5003 13.3333 15.5003H6.66667Z" fill="#30887C"/>
</svg>
