<svg width="18" height="19" viewBox="0 0 18 19" fill="none" xmlns="http://www.w3.org/2000/svg">
<path d="M8.625 16.8125C4.3875 16.8125 0.9375 13.3625 0.9375 9.125C0.9375 4.8875 4.3875 1.4375 8.625 1.4375C12.8625 1.4375 16.3125 4.8875 16.3125 9.125C16.3125 13.3625 12.8625 16.8125 8.625 16.8125ZM8.625 2.5625C5.0025 2.5625 2.0625 5.51 2.0625 9.125C2.0625 12.74 5.0025 15.6875 8.625 15.6875C12.2475 15.6875 15.1875 12.74 15.1875 9.125C15.1875 5.51 12.2475 2.5625 8.625 2.5625Z" fill="#CBCBCB"/>
<path d="M16.5001 17.5626C16.3576 17.5626 16.2151 17.5101 16.1026 17.3976L14.6026 15.8976C14.3851 15.6801 14.3851 15.3201 14.6026 15.1026C14.8201 14.8851 15.1801 14.8851 15.3976 15.1026L16.8976 16.6026C17.1151 16.8201 17.1151 17.1801 16.8976 17.3976C16.7851 17.5101 16.6426 17.5626 16.5001 17.5626Z" fill="#CBCBCB"/>
</svg>
