<svg width="30" height="30" viewBox="0 0 30 30" fill="none" xmlns="http://www.w3.org/2000/svg">
<path opacity="0.5" d="M1 14.5C1 8.1361 1 4.95415 2.9764 2.9764C4.9555 1 8.1361 1 14.5 1C20.8639 1 24.0459 1 26.0223 2.9764C28 4.9555 28 8.1361 28 14.5C28 20.8639 28 24.0459 26.0223 26.0223C24.0472 28 20.8639 28 14.5 28C8.1361 28 4.95415 28 2.9764 26.0223C1 24.0472 1 20.8639 1 14.5Z" fill="#30887C" fill-opacity="0.2"/>
<path d="M22.0273 12.4475C22.1916 12.2404 22.2684 11.9773 22.2413 11.7144C22.2143 11.4515 22.0854 11.2096 21.8824 11.0403C21.6793 10.8711 21.4181 10.788 21.1546 10.8088C20.8911 10.8296 20.6462 10.9526 20.4721 11.1515L18.0462 14.0621C17.5467 14.6628 17.2375 15.0287 16.9851 15.2568C16.919 15.3209 16.8451 15.3762 16.765 15.4215L16.7502 15.4283L16.7394 15.4229L16.7353 15.4215C16.6548 15.3763 16.5804 15.321 16.5139 15.2568C16.2615 15.0273 15.9537 14.6628 15.4528 14.0621L15.0586 13.5896C14.6158 13.0563 14.2149 12.5771 13.8423 12.2396C13.4359 11.8724 12.9243 11.5457 12.2493 11.5457C11.5743 11.5457 11.064 11.8724 10.6563 12.2396C10.2837 12.5771 9.88408 13.0563 9.44128 13.5896L6.97078 16.5515C6.88568 16.6537 6.82155 16.7717 6.78204 16.8987C6.74254 17.0256 6.72843 17.1592 6.74053 17.2916C6.76496 17.5591 6.89464 17.8059 7.10105 17.9778C7.30747 18.1496 7.57369 18.2325 7.84117 18.208C8.10865 18.1836 8.35547 18.0539 8.52733 17.8475L10.9533 14.9369C11.4528 14.3361 11.7619 13.9703 12.0144 13.7421C12.0804 13.6781 12.1544 13.6228 12.2344 13.5774L12.2439 13.5734L12.2493 13.572C12.2529 13.572 12.2578 13.5738 12.2641 13.5774C12.3447 13.6227 12.4191 13.678 12.4855 13.7421C12.738 13.9716 13.0458 14.3361 13.5466 14.9369L13.9408 15.4094C14.385 15.9426 14.7846 16.4219 15.1572 16.7594C15.5635 17.1266 16.0752 17.4533 16.7502 17.4533C17.4252 17.4533 17.9355 17.1266 18.3432 16.7594C18.7158 16.4219 19.1154 15.9426 19.5582 15.4094L22.0273 12.4475Z" fill="#30887C"/>
</svg>
