<svg width="20" height="21" viewBox="0 0 20 21" fill="none" xmlns="http://www.w3.org/2000/svg">
<path d="M10.5893 2.41098C10.433 2.25475 10.2211 2.16699 10.0001 2.16699C9.77918 2.16699 9.56726 2.25475 9.41098 2.41098L1.91098 9.91098C1.79447 10.0275 1.71513 10.176 1.683 10.3376C1.65086 10.4992 1.66736 10.6668 1.73042 10.819C1.79347 10.9713 1.90026 11.1014 2.03727 11.193C2.17427 11.2846 2.33536 11.3334 2.50015 11.3335H3.33348V17.1668C3.33348 18.086 4.08098 18.8335 5.00015 18.8335H15.0001C15.9193 18.8335 16.6668 18.086 16.6668 17.1668V11.3335H17.5001C17.6651 11.3338 17.8265 11.2852 17.9637 11.1937C18.101 11.1022 18.208 10.972 18.2711 10.8195C18.3343 10.6671 18.3507 10.4994 18.3183 10.3376C18.2859 10.1759 18.2062 10.0274 18.0893 9.91098L10.5893 2.41098ZM15.001 17.1668H5.00015V9.17848L10.0001 4.17848L15.0001 9.17848V13.0001L15.001 17.1668Z" fill="#677294"/>
<path d="M10.8332 8.83301H9.1665V11.333H6.6665V12.9997H9.1665V15.4997H10.8332V12.9997H13.3332V11.333H10.8332V8.83301Z" fill="#677294"/>
</svg>
