<svg preserveAspectRatio="none" width="100%" height="100%" overflow="visible" style="display: block;" viewBox="0 0 22.55 22.55" fill="none" xmlns="http://www.w3.org/2000/svg">
<g id="Group 238">
<path id="Vector" fill-rule="evenodd" clip-rule="evenodd" d="M15.6 2.6H17.55C18.0672 2.6 18.5632 2.80545 18.9289 3.17114C19.2946 3.53684 19.5 4.03283 19.5 4.55V17.55C19.5 18.0672 19.2946 18.5632 18.9289 18.9289C18.5632 19.2946 18.0672 19.5 17.55 19.5H1.95C1.43283 19.5 0.936838 19.2946 0.571142 18.9289C0.205446 18.5632 0 18.0672 0 17.55V4.55C0 4.03283 0.205446 3.53684 0.571142 3.17114C0.936838 2.80545 1.43283 2.6 1.95 2.6H3.9V0H5.2V2.6H14.3V0H15.6V2.6ZM7.8 10.4H3.9V9.1H7.8V10.4ZM15.6 9.1H11.7V10.4H15.6V9.1ZM7.8 14.3H3.9V13H7.8V14.3ZM11.7 14.3H15.6V13H11.7V14.3Z" fill="var(--fill-0, #2FAE8E)"/>
<path id="Vector_2" d="M16.6504 11.75C19.3565 11.7502 21.5498 13.9443 21.5498 16.6504C21.5496 19.3563 19.3563 21.5496 16.6504 21.5498C13.9443 21.5498 11.7502 19.3565 11.75 16.6504C11.75 13.9441 13.9441 11.75 16.6504 11.75Z" fill="var(--fill-0, #2FAE8E)" stroke="var(--stroke-0, #F5F5F5)" stroke-width="2"/>
</g>
</svg>
