<svg width="56" height="56" viewBox="0 0 56 56" fill="none" xmlns="http://www.w3.org/2000/svg">
<g filter="url(#filter0_d_3404_6821)">
<circle cx="27" cy="24" r="18" fill="white"/>
<circle cx="27" cy="24" r="17.5" stroke="#ECECEC"/>
</g>
<path d="M20.1425 29.1442C20.0293 29.1468 19.9168 29.1262 19.8119 29.0837C19.707 29.0413 19.6118 28.9779 19.5322 28.8973C19.4517 28.8178 19.3883 28.7226 19.3458 28.6177C19.3034 28.5127 19.2828 28.4002 19.2854 28.287C19.2854 28.0448 19.3677 27.8413 19.5322 27.6768C19.6118 27.5962 19.707 27.5328 19.8119 27.4904C19.9168 27.4479 20.0293 27.4273 20.1425 27.4299H29.5711C29.8139 27.4299 30.0177 27.5122 30.1822 27.6768C30.2626 27.7564 30.3259 27.8516 30.3682 27.9565C30.4105 28.0615 30.4309 28.1739 30.4282 28.287C30.4282 28.5293 30.3462 28.7328 30.1822 28.8973C30.1026 28.978 30.0073 29.0415 29.9022 29.0839C29.7971 29.1264 29.6844 29.1469 29.5711 29.1442H20.1425Z" fill="#0A6C74"/>
<path opacity="0.3" d="M31.6284 24L34.1141 26.4857C34.1922 26.5644 34.2534 26.6582 34.2939 26.7614C34.3344 26.8646 34.3535 26.9749 34.3499 27.0857C34.3535 27.1965 34.3344 27.3068 34.2939 27.41C34.2534 27.5132 34.1922 27.607 34.1141 27.6857C34.0354 27.7638 33.9416 27.8249 33.8385 27.8655C33.7353 27.906 33.6249 27.925 33.5142 27.9214C33.4034 27.925 33.293 27.906 33.1898 27.8655C33.0867 27.8249 32.9929 27.7638 32.9141 27.6857L29.8284 24.6C29.7469 24.5228 29.682 24.4298 29.6378 24.3266C29.5936 24.2234 29.571 24.1122 29.5713 24C29.5713 23.7714 29.657 23.5714 29.8284 23.4L32.9141 20.3143C32.9929 20.2362 33.0867 20.175 33.1898 20.1345C33.293 20.094 33.4034 20.0749 33.5142 20.0786C33.757 20.0786 33.957 20.1571 34.1141 20.3143C34.1922 20.393 34.2534 20.4868 34.2939 20.59C34.3344 20.6931 34.3535 20.8035 34.3499 20.9143C34.3535 21.0251 34.3344 21.1354 34.2939 21.2386C34.2534 21.3418 34.1922 21.4356 34.1141 21.5143L31.6284 24Z" fill="#0A6C74"/>
<path d="M20.1425 20.5739C20.0294 20.5766 19.917 20.5562 19.812 20.5139C19.7071 20.4716 19.6119 20.4083 19.5322 20.3279C19.4516 20.2483 19.3881 20.1529 19.3457 20.0478C19.3032 19.9428 19.2827 19.8301 19.2854 19.7168C19.2854 19.4739 19.3677 19.2702 19.5322 19.1056C19.6119 19.0253 19.7071 18.962 19.812 18.9197C19.917 18.8774 20.0294 18.857 20.1425 18.8596H29.5711C29.6844 18.8568 29.797 18.8772 29.9021 18.9195C30.0072 18.9618 30.1025 19.0252 30.1822 19.1056C30.2627 19.1854 30.3261 19.2807 30.3684 19.3858C30.4107 19.4909 30.431 19.6035 30.4282 19.7168C30.431 19.83 30.4107 19.9427 30.3684 20.0477C30.3261 20.1528 30.2627 20.2482 30.1822 20.3279C30.1025 20.4084 30.0072 20.4717 29.9021 20.514C29.797 20.5563 29.6844 20.5767 29.5711 20.5739H20.1425Z" fill="#0A6C74"/>
<path opacity="0.3" d="M20.1425 24.8591C20.0293 24.8616 19.9168 24.8411 19.8119 24.7986C19.707 24.7562 19.6118 24.6927 19.5322 24.6122C19.4517 24.5327 19.3883 24.4375 19.3458 24.3325C19.3034 24.2276 19.2828 24.1151 19.2854 24.0019C19.2854 23.7591 19.3677 23.5554 19.5322 23.3908C19.6119 23.3104 19.7071 23.2471 19.812 23.2048C19.9169 23.1625 20.0294 23.1421 20.1425 23.1448H26.9997C27.1129 23.142 27.2255 23.1624 27.3306 23.2047C27.4357 23.247 27.5311 23.3103 27.6108 23.3908C27.6913 23.4705 27.7546 23.5659 27.7969 23.671C27.8392 23.776 27.8596 23.8887 27.8568 24.0019C27.8568 24.2442 27.7748 24.4476 27.6108 24.6122C27.5311 24.6928 27.4358 24.7563 27.3307 24.7988C27.2256 24.8412 27.113 24.8618 26.9997 24.8591H20.1425Z" fill="#0A6C74"/>
<defs>
<filter id="filter0_d_3404_6821" x="0" y="0" width="56" height="56" filterUnits="userSpaceOnUse" color-interpolation-filters="sRGB">
<feFlood flood-opacity="0" result="BackgroundImageFix"/>
<feColorMatrix in="SourceAlpha" type="matrix" values="0 0 0 0 0 0 0 0 0 0 0 0 0 0 0 0 0 0 127 0" result="hardAlpha"/>
<feOffset dx="1" dy="4"/>
<feGaussianBlur stdDeviation="5"/>
<feComposite in2="hardAlpha" operator="out"/>
<feColorMatrix type="matrix" values="0 0 0 0 0 0 0 0 0 0 0 0 0 0 0 0 0 0 0.1 0"/>
<feBlend mode="normal" in2="BackgroundImageFix" result="effect1_dropShadow_3404_6821"/>
<feBlend mode="normal" in="SourceGraphic" in2="effect1_dropShadow_3404_6821" result="shape"/>
</filter>
</defs>
</svg>
