<svg width="30" height="30" viewBox="0 0 30 30" fill="none" xmlns="http://www.w3.org/2000/svg">
<path d="M15 7.5C15.3315 7.5 15.6495 7.6317 15.8839 7.86612C16.1183 8.10054 16.25 8.41848 16.25 8.75V14.2775L18.8725 15.7925C19.1573 15.9594 19.3644 16.2322 19.4488 16.5514C19.5332 16.8705 19.4879 17.21 19.3228 17.4959C19.1578 17.7817 18.8864 17.9907 18.5678 18.0772C18.2493 18.1637 17.9094 18.1206 17.6225 17.9575L14.375 16.0825C14.185 15.9728 14.0272 15.815 13.9175 15.625C13.8078 15.435 13.75 15.2194 13.75 15V8.75C13.75 8.41848 13.8817 8.10054 14.1161 7.86612C14.3505 7.6317 14.6685 7.5 15 7.5Z" fill="#30887C"/>
<path opacity="0.5" d="M2.5 15C2.5 17.4723 3.23311 19.889 4.60663 21.9446C5.98015 24.0002 7.93238 25.6024 10.2165 26.5485C12.5005 27.4946 15.0139 27.7421 17.4386 27.2598C19.8634 26.7775 22.0907 25.587 23.8388 23.8388C25.587 22.0907 26.7775 19.8634 27.2598 17.4386C27.7421 15.0139 27.4946 12.5005 26.5485 10.2165C25.6024 7.93238 24.0002 5.98015 21.9446 4.60663C19.889 3.23311 17.4723 2.5 15 2.5C13.3585 2.5 11.733 2.82332 10.2165 3.45151C8.69989 4.07969 7.3219 5.00043 6.16117 6.16117C3.81696 8.50537 2.5 11.6848 2.5 15ZM13.75 8.75C13.75 8.41848 13.8817 8.10054 14.1161 7.86612C14.3505 7.6317 14.6685 7.5 15 7.5C15.3315 7.5 15.6495 7.6317 15.8839 7.86612C16.1183 8.10054 16.25 8.41848 16.25 8.75V14.2775L18.8725 15.7925C19.1573 15.9594 19.3644 16.2322 19.4488 16.5514C19.5332 16.8705 19.4879 17.21 19.3228 17.4959C19.1578 17.7817 18.8864 17.9907 18.5678 18.0772C18.2493 18.1637 17.9094 18.1206 17.6225 17.9575L14.375 16.0825C14.185 15.9728 14.0272 15.815 13.9175 15.625C13.8078 15.435 13.75 15.2194 13.75 15V8.75Z" fill="#30887C" fill-opacity="0.4"/>
</svg>
