<svg width="88" height="29" viewBox="0 0 88.5001 28.6285" fill="none" xmlns="http://www.w3.org/2000/svg">
<path d="M11.0721 27.469C7.1478 28.3902 0.750097 27.469 0.750097 27.469L11.7364 27.283C22.7853 23.6658 16.2305 -1.59601 28.0298 0.926638C35.8175 2.59163 33.4189 15.2721 41.3009 16.4097C43.0108 16.6565 44.0521 16.8422 45.7247 16.4097C48.1226 15.7895 48.824 14.096 50.8857 12.7232C53.0976 11.2505 55.3094 11.2505 57.5213 12.7232C60.7456 14.8701 61.2077 17.1451 64.1569 20.0961C67.106 23.0471 69.8401 23.0453 71.5298 21.5707C73.2194 20.0961 73.5669 17.6695 75.9535 17.147C78.3566 16.6208 87.7501 25.9963 87.7501 25.9963L11.7364 27.283C11.5217 27.3533 11.3004 27.4154 11.0721 27.469Z" fill="url(#paint0_linear_0_43)" fill-opacity="0.5"/>
<path d="M0.750097 27.469C0.750097 27.469 7.1478 28.3902 11.0721 27.469C23.0469 24.658 16.0013 -1.64502 28.0298 0.926638C35.8175 2.59163 33.4189 15.2721 41.3009 16.4097C43.0108 16.6565 44.0521 16.8422 45.7247 16.4097C48.1226 15.7895 48.824 14.096 50.8857 12.7232C53.0976 11.2505 55.3094 11.2505 57.5213 12.7232C60.7456 14.8701 61.2077 17.1451 64.1569 20.0961C67.106 23.0471 69.8401 23.0453 71.5298 21.5707C73.2194 20.0961 73.7501 18.6451 77.2501 17.8788C79.6532 17.3527 87.7501 25.9963 87.7501 25.9963" stroke="#E5484D" stroke-width="1.5" stroke-linecap="round"/>
<defs>
<linearGradient id="paint0_linear_0_43" x1="44.2501" y1="0.749929" x2="44.2501" y2="27.8784" gradientUnits="userSpaceOnUse">
<stop stop-color="#E5484D"/>
<stop offset="1" stop-color="#E5484D" stop-opacity="0"/>
</linearGradient>
</defs>
</svg>
