<svg width="88" height="32" viewBox="0 0 88.5003 32.4992" fill="none" xmlns="http://www.w3.org/2000/svg">
<path d="M0.750159 31.1702C0.750159 31.1702 6.68683 32.4726 10.2757 31.1702C16.3756 28.9567 16.0531 17.6826 22.3414 16.8057C29.1141 15.8613 30.1378 29.5648 36.9472 29.4803C42.9452 29.4059 44.2849 19.2761 50.283 19.3406C55.9435 19.4015 57.3318 28.217 62.9837 28.6353C73.5415 29.4168 69.5569 0.531682 80.1297 0.751266C83.1969 0.814968 87.7502 3.28618 87.7502 3.28618" stroke="#2FAE8E" stroke-width="1.5" stroke-linecap="round"/>
<path d="M10.2757 30.9125C6.68683 32.2038 0.750159 30.9125 0.750159 30.9125V31.7491L87.7502 30.9125V3.26469C87.7502 3.26469 83.1969 0.814418 80.1297 0.751256C69.5569 0.533532 73.5415 29.1739 62.9837 28.3991C57.3318 27.9843 55.9435 19.2435 50.283 19.1831C44.2849 19.1192 42.9452 29.1631 36.9472 29.2369C30.1378 29.3206 29.1141 15.7333 22.3414 16.6697C16.0531 17.5391 16.3756 28.7177 10.2757 30.9125Z" fill="url(#paint0_linear_0_66)" fill-opacity="0.5"/>
<defs>
<linearGradient id="paint0_linear_0_66" x1="44.2502" y1="0.750021" x2="44.2502" y2="31.7491" gradientUnits="userSpaceOnUse">
<stop stop-color="#2FAE8E"/>
<stop offset="1" stop-color="#2FAE8E" stop-opacity="0"/>
</linearGradient>
</defs>
</svg>
