<svg width="24" height="24" viewBox="0 0 24 24" fill="none" xmlns="http://www.w3.org/2000/svg">
<path d="M11.9995 18.9172L7.15211 21.8218C6.93797 21.9574 6.71409 22.0155 6.48048 21.9961C6.24687 21.9767 6.04246 21.8993 5.86726 21.7637C5.69205 21.6282 5.55578 21.459 5.45844 21.256C5.3611 21.0531 5.34164 20.8254 5.40004 20.5729L6.68489 15.0832L2.39232 11.3943C2.19764 11.22 2.07617 11.0214 2.02789 10.7983C1.97961 10.5752 1.99401 10.3576 2.07111 10.1453C2.1482 9.9331 2.265 9.75882 2.42152 9.6225C2.57804 9.48617 2.79218 9.39904 3.06395 9.36108L8.72897 8.8673L10.9191 3.69711C11.0164 3.46474 11.1675 3.29046 11.3723 3.17428C11.5771 3.05809 11.7861 3 11.9995 3C12.2129 3 12.4219 3.05809 12.6267 3.17428C12.8315 3.29046 12.9826 3.46474 13.0799 3.69711L15.27 8.8673L20.9351 9.36108C21.2076 9.39981 21.4217 9.48695 21.5775 9.6225C21.7332 9.75805 21.85 9.93232 21.9279 10.1453C22.0058 10.3583 22.0206 10.5764 21.9723 10.7994C21.924 11.0225 21.8021 11.2208 21.6067 11.3943L17.3141 15.0832L18.599 20.5729C18.6574 20.8246 18.6379 21.0523 18.5406 21.256C18.4432 21.4597 18.307 21.629 18.1317 21.7637C17.9565 21.8985 17.7521 21.976 17.5185 21.9961C17.2849 22.0162 17.061 21.9582 16.8469 21.8218L11.9995 18.9172Z" fill="#0A6C74"/>
</svg>
