<svg width="24" height="24" viewBox="0 0 24 24" fill="none" xmlns="http://www.w3.org/2000/svg">
<path fill-rule="evenodd" clip-rule="evenodd" d="M2.96257 12.0005C2.96219 10.0897 3.56726 8.22797 4.6909 6.68262C5.81453 5.13727 7.39892 3.98785 9.2165 3.39944C11.0341 2.81103 12.9913 2.81391 14.8072 3.40766C16.623 4.00141 18.204 5.15548 19.3231 6.70412L18.5139 7.51352C18.4037 7.62342 18.3287 7.76357 18.2982 7.91619C18.2678 8.06881 18.2834 8.22703 18.343 8.37079C18.4025 8.51455 18.5035 8.63738 18.6329 8.72371C18.7624 8.81004 18.9145 8.85598 19.0701 8.8557H22.2128C22.4211 8.8557 22.621 8.77291 22.7683 8.62554C22.9157 8.47817 22.9984 8.27829 22.9984 8.06988V4.9266C22.9987 4.77098 22.9528 4.61877 22.8665 4.48929C22.7802 4.3598 22.6574 4.25886 22.5136 4.19927C22.3699 4.13968 22.2117 4.12411 22.0591 4.15455C21.9065 4.18499 21.7664 4.26006 21.6565 4.37024L20.7263 5.30222C19.3269 3.47921 17.3918 2.14027 15.1928 1.47337C12.9937 0.806471 10.6411 0.845088 8.46508 1.5838C6.28908 2.32252 4.399 3.72424 3.06013 5.5922C1.72127 7.46017 1.00085 9.70059 1 11.999C1 12.2595 1.10347 12.5093 1.28764 12.6935C1.47182 12.8778 1.72161 12.9813 1.98207 12.9813C2.24253 12.9813 2.49233 12.8778 2.6765 12.6935C2.86068 12.5093 2.96415 12.2595 2.96415 11.999M11.9992 5.51597C12.5413 5.51597 12.9813 5.95602 12.9813 6.49824V7.37364C13.4959 7.44193 13.9816 7.65132 14.3845 7.97864C14.7875 8.30596 15.092 8.73843 15.2644 9.22818C15.3124 9.35088 15.3353 9.482 15.3316 9.61372C15.3279 9.74543 15.2977 9.87506 15.2429 9.99488C15.1881 10.1147 15.1097 10.2223 15.0125 10.3112C14.9152 10.4001 14.8011 10.4685 14.6769 10.5124C14.5527 10.5563 14.4209 10.5747 14.2894 10.5666C14.1579 10.5585 14.0294 10.524 13.9115 10.4651C13.7936 10.4063 13.6888 10.3244 13.6032 10.2242C13.5176 10.124 13.4531 10.0076 13.4134 9.88198C13.355 9.71574 13.2463 9.57181 13.1024 9.47014C12.9586 9.36847 12.7866 9.31412 12.6105 9.31462H11.1916C11.0294 9.31305 10.8725 9.37181 10.7512 9.47949C10.63 9.58718 10.5531 9.73609 10.5354 9.89731C10.5178 10.0585 10.5607 10.2206 10.6558 10.3519C10.751 10.4833 10.8915 10.5746 11.0501 10.6081L13.2123 11.0796C13.8604 11.2203 14.438 11.5852 14.8434 12.1102C15.2488 12.6351 15.456 13.2864 15.4284 13.9491C15.4008 14.6119 15.1402 15.2436 14.6925 15.733C14.2448 16.2224 13.6388 16.538 12.9813 16.6243V17.4997C12.9813 17.7602 12.8778 18.0101 12.6936 18.1943C12.5095 18.3785 12.2597 18.482 11.9992 18.482C11.7388 18.482 11.489 18.3785 11.3048 18.1943C11.1206 18.0101 11.0171 17.7602 11.0171 17.4997V16.6243C10.5025 16.556 10.0169 16.3466 9.61391 16.0193C9.21095 15.692 8.90641 15.2595 8.73402 14.7698C8.68601 14.6471 8.66317 14.516 8.66686 14.3842C8.67056 14.2525 8.70071 14.1229 8.75553 14.0031C8.81035 13.8833 8.8887 13.7757 8.98594 13.6868C9.08318 13.5979 9.19731 13.5294 9.32153 13.4856C9.44575 13.4417 9.57753 13.4233 9.70903 13.4314C9.84052 13.4395 9.96903 13.474 10.0869 13.5328C10.2048 13.5916 10.3097 13.6736 10.3952 13.7738C10.4808 13.8739 10.5454 13.9903 10.585 14.116C10.6434 14.2822 10.7521 14.4261 10.896 14.5278C11.0399 14.6295 11.2118 14.6838 11.388 14.6833H12.6105C12.8199 14.6826 13.0217 14.6046 13.1774 14.4644C13.333 14.3242 13.4315 14.1315 13.454 13.9232C13.4766 13.715 13.4216 13.5057 13.2996 13.3354C13.1776 13.1651 12.9972 13.0457 12.7927 13.0001L10.6322 12.527C10.016 12.3925 9.46904 12.0399 9.092 11.5342C8.71495 11.0285 8.53313 10.4036 8.57997 9.77451C8.62681 9.1454 8.89916 8.55436 9.34694 8.11007C9.79471 7.66579 10.3878 7.39814 11.0171 7.35635V6.49824C11.0171 5.95602 11.4571 5.51597 11.9992 5.51597ZM1.48554 19.7974C1.34186 19.738 1.21903 19.6374 1.1326 19.5081C1.04617 19.3788 1.00003 19.2269 1 19.0714V15.9281C1 15.7197 1.08277 15.5198 1.23011 15.3724C1.37745 15.225 1.57729 15.1423 1.78566 15.1423H4.92829C5.08388 15.142 5.23606 15.1879 5.36551 15.2742C5.49497 15.3606 5.59589 15.4834 5.65547 15.6272C5.71505 15.7709 5.73061 15.9291 5.70018 16.0818C5.66975 16.2344 5.5947 16.3745 5.48454 16.4844L4.67531 17.2923C5.7944 18.8409 7.3754 19.995 9.19124 20.5887C11.0071 21.1825 12.9643 21.1854 14.7819 20.5969C16.5995 20.0085 18.1839 18.8591 19.3075 17.3138C20.4312 15.7684 21.0362 13.9066 21.0359 11.9958C21.036 11.8668 21.0615 11.7391 21.1109 11.62C21.1604 11.5009 21.2328 11.3926 21.3241 11.3015C21.4153 11.2104 21.5236 11.1381 21.6428 11.0888C21.762 11.0395 21.8897 11.0142 22.0187 11.0143C22.1477 11.0144 22.2754 11.04 22.3945 11.0894C22.5136 11.1389 22.6218 11.2113 22.7129 11.3026C22.804 11.3939 22.8763 11.5022 22.9255 11.6214C22.9748 11.7407 23.0001 11.8684 23 11.9974C22.9999 14.2963 22.2799 16.5375 20.9411 18.4061C19.6022 20.2748 17.7119 21.677 15.5354 22.416C13.359 23.155 11.0057 23.1936 8.80624 22.5263C6.60674 21.8591 4.67144 20.5195 3.27212 18.6957L2.3419 19.6277C2.23195 19.7375 2.09189 19.8123 1.93946 19.8425C1.78703 19.8727 1.62906 19.857 1.48554 19.7974Z" fill="#100E1C"/>
</svg>
