<svg width="36" height="36" viewBox="0 0 36 36" fill="none" xmlns="http://www.w3.org/2000/svg">
<path fill-rule="evenodd" clip-rule="evenodd" d="M29.7001 15.27C29.2351 10.5 26.4151 3.00002 17.7001 3.00002C8.98509 3.00002 6.16507 10.5 5.70009 15.27C4.06884 15.8891 2.99285 17.4553 3.00009 19.2V21.3C3.00009 23.6197 4.88053 25.5 7.20007 25.5C9.51968 25.5 11.4001 23.6196 11.4001 21.3V19.2C11.3925 17.4929 10.3561 15.959 8.77507 15.315C9.07509 12.555 10.5451 6.00005 17.7001 6.00005C24.8551 6.00005 26.3101 12.555 26.6101 15.315C25.0323 15.9604 24.0011 17.4954 24.0001 19.2V21.3C24.0033 22.0903 24.2287 22.8638 24.6504 23.5322C25.0721 24.2006 25.6732 24.7369 26.3851 25.08C25.7551 26.265 24.1501 27.8701 20.2051 28.35C19.4165 27.1526 17.8908 26.6805 16.5637 27.2234C15.2367 27.7662 14.4792 29.1722 14.756 30.5791C15.0327 31.9859 16.2663 33.0001 17.7001 33.0001C18.2557 32.9969 18.7995 32.8396 19.2709 32.5457C19.7423 32.2517 20.1228 31.8326 20.3701 31.3351C26.8051 30.6 28.8601 27.2851 29.5051 25.335C31.25 24.7698 32.4236 23.1342 32.4001 21.3V19.2C32.4073 17.4553 31.3313 15.8891 29.7001 15.27ZM8.40009 21.3C8.40009 21.9627 7.86284 22.5 7.20007 22.5C6.5373 22.5 6.00012 21.9628 6.00012 21.3V19.2C5.9989 19.0417 6.02905 18.8846 6.08881 18.738C6.14857 18.5913 6.23677 18.458 6.34832 18.3456C6.45987 18.2331 6.59256 18.1439 6.73876 18.083C6.88495 18.0222 7.04174 17.9908 7.20011 17.9908C7.35847 17.9908 7.51526 18.0222 7.66146 18.083C7.80765 18.1439 7.94034 18.2331 8.05189 18.3456C8.16344 18.458 8.25164 18.5913 8.3114 18.738C8.37116 18.8846 8.40131 19.0417 8.40009 19.2V21.3ZM27.0001 19.2C27.0001 18.5373 27.5373 18 28.2001 18C28.8629 18 29.4001 18.5373 29.4001 19.2V21.3C29.4001 21.9627 28.8629 22.5 28.2001 22.5C27.5373 22.5 27.0001 21.9628 27.0001 21.3V19.2Z" fill="#0A6C74"/>
</svg>
