<svg width="25" height="28" viewBox="0 0 25 28" fill="none" xmlns="http://www.w3.org/2000/svg">
<path d="M9.0931 20.8051V18.8607H20.7598V20.8051H9.0931ZM9.0931 14.9718V13.0273H20.7598V14.9718H9.0931ZM9.0931 9.13845V7.19401H20.7598V9.13845H9.0931ZM5.20421 21.7773C4.66949 21.7773 4.21173 21.587 3.83095 21.2062C3.45016 20.8254 3.25977 20.3676 3.25977 19.8329C3.25977 19.2982 3.45016 18.8404 3.83095 18.4596C4.21173 18.0788 4.66949 17.8885 5.20421 17.8885C5.73893 17.8885 6.19669 18.0788 6.57747 18.4596C6.95826 18.8404 7.14865 19.2982 7.14865 19.8329C7.14865 20.3676 6.95826 20.8254 6.57747 21.2062C6.19669 21.587 5.73893 21.7773 5.20421 21.7773ZM5.20421 15.944C4.66949 15.944 4.21173 15.7536 3.83095 15.3728C3.45016 14.992 3.25977 14.5343 3.25977 13.9996C3.25977 13.4648 3.45016 13.0071 3.83095 12.6263C4.21173 12.2455 4.66949 12.0551 5.20421 12.0551C5.73893 12.0551 6.19669 12.2455 6.57747 12.6263C6.95826 13.0071 7.14865 13.4648 7.14865 13.9996C7.14865 14.5343 6.95826 14.992 6.57747 15.3728C6.19669 15.7536 5.73893 15.944 5.20421 15.944ZM5.20421 10.1107C4.66949 10.1107 4.21173 9.92028 3.83095 9.5395C3.45016 9.15871 3.25977 8.70095 3.25977 8.16623C3.25977 7.63151 3.45016 7.17376 3.83095 6.79297C4.21173 6.41218 4.66949 6.22179 5.20421 6.22179C5.73893 6.22179 6.19669 6.41218 6.57747 6.79297C6.95826 7.17376 7.14865 7.63151 7.14865 8.16623C7.14865 8.70095 6.95826 9.15871 6.57747 9.5395C6.19669 9.92028 5.73893 10.1107 5.20421 10.1107Z" fill="#677294"/>
</svg>
