<svg width="20" height="21" viewBox="0 0 20 21" fill="none" xmlns="http://www.w3.org/2000/svg">
<path d="M9.99984 2.16699C14.6023 2.16699 18.3332 5.89783 18.3332 10.5003C18.3332 15.1028 14.6023 18.8337 9.99984 18.8337C5.39734 18.8337 1.6665 15.1028 1.6665 10.5003C1.6665 5.89783 5.39734 2.16699 9.99984 2.16699ZM9.99984 3.83366C8.23173 3.83366 6.53603 4.53604 5.28579 5.78628C4.03555 7.03652 3.33317 8.73222 3.33317 10.5003C3.33317 12.2684 4.03555 13.9641 5.28579 15.2144C6.53603 16.4646 8.23173 17.167 9.99984 17.167C11.7679 17.167 13.4636 16.4646 14.7139 15.2144C15.9641 13.9641 16.6665 12.2684 16.6665 10.5003C16.6665 8.73222 15.9641 7.03652 14.7139 5.78628C13.4636 4.53604 11.7679 3.83366 9.99984 3.83366ZM9.99984 5.50033C10.2039 5.50035 10.401 5.57529 10.5535 5.71092C10.706 5.84655 10.8035 6.03345 10.8273 6.23616L10.8332 6.33366V10.1553L13.089 12.4112C13.2385 12.5611 13.3252 12.7624 13.3317 12.974C13.3382 13.1856 13.2638 13.3918 13.1238 13.5506C12.9838 13.7094 12.7885 13.8089 12.5778 13.829C12.367 13.8491 12.1565 13.7882 11.989 13.6587L11.9107 13.5895L9.41067 11.0895C9.28115 10.9599 9.19797 10.7912 9.174 10.6095L9.1665 10.5003V6.33366C9.1665 6.11264 9.2543 5.90068 9.41058 5.7444C9.56686 5.58812 9.77882 5.50033 9.99984 5.50033Z" fill="#677294"/>
</svg>
