<svg width="28" height="29" viewBox="0 0 28 29" fill="none" xmlns="http://www.w3.org/2000/svg">
<path d="M17.5 26.7747H10.5C4.16504 26.7747 1.45837 24.0681 1.45837 17.7331V10.7331C1.45837 4.39807 4.16504 1.69141 10.5 1.69141H17.5C23.835 1.69141 26.5417 4.39807 26.5417 10.7331V17.7331C26.5417 24.0681 23.835 26.7747 17.5 26.7747ZM10.5 3.44141C5.12171 3.44141 3.20837 5.35474 3.20837 10.7331V17.7331C3.20837 23.1114 5.12171 25.0247 10.5 25.0247H17.5C22.8784 25.0247 24.7917 23.1114 24.7917 17.7331V10.7331C24.7917 5.35474 22.8784 3.44141 17.5 3.44141H10.5Z" fill="#30887C"/>
<path d="M18.0833 22.6901C16.31 22.6901 14.875 21.2551 14.875 19.4818V8.98177C14.875 7.20844 16.31 5.77344 18.0833 5.77344C19.8567 5.77344 21.2917 7.20844 21.2917 8.98177V19.4818C21.2917 21.2551 19.8567 22.6901 18.0833 22.6901ZM18.0833 7.52344C17.2783 7.52344 16.625 8.17677 16.625 8.98177V19.4818C16.625 20.2868 17.2783 20.9401 18.0833 20.9401C18.8883 20.9401 19.5417 20.2868 19.5417 19.4818V8.98177C19.5417 8.17677 18.8883 7.52344 18.0833 7.52344Z" fill="#30887C"/>
<path d="M9.91671 22.6914C8.14337 22.6914 6.70837 21.2564 6.70837 19.4831V15.3997C6.70837 13.6264 8.14337 12.1914 9.91671 12.1914C11.69 12.1914 13.125 13.6264 13.125 15.3997V19.4831C13.125 21.2564 11.69 22.6914 9.91671 22.6914ZM9.91671 13.9414C9.11171 13.9414 8.45837 14.5947 8.45837 15.3997V19.4831C8.45837 20.2881 9.11171 20.9414 9.91671 20.9414C10.7217 20.9414 11.375 20.2881 11.375 19.4831V15.3997C11.375 14.5947 10.7217 13.9414 9.91671 13.9414Z" fill="#30887C"/>
</svg>
