<svg width="16" height="16" viewBox="0 0 16 16" fill="none" xmlns="http://www.w3.org/2000/svg">
<path d="M14.3626 7.36398C14.5653 7.64798 14.6666 7.79065 14.6666 8.00065C14.6666 8.21132 14.5653 8.35332 14.3626 8.63732C13.4519 9.91465 11.1259 12.6673 7.99992 12.6673C4.87325 12.6673 2.54792 9.91398 1.63725 8.63732C1.43459 8.35332 1.33325 8.21065 1.33325 8.00065C1.33325 7.78998 1.43459 7.64798 1.63725 7.36398C2.54792 6.08665 4.87392 3.33398 7.99992 3.33398C11.1266 3.33398 13.4519 6.08732 14.3626 7.36398Z" stroke="#677294" stroke-width="1.3"/>
<path d="M10 8C10 7.46957 9.78929 6.96086 9.41421 6.58579C9.03914 6.21071 8.53043 6 8 6C7.46957 6 6.96086 6.21071 6.58579 6.58579C6.21071 6.96086 6 7.46957 6 8C6 8.53043 6.21071 9.03914 6.58579 9.41421C6.96086 9.78929 7.46957 10 8 10C8.53043 10 9.03914 9.78929 9.41421 9.41421C9.78929 9.03914 10 8.53043 10 8Z" stroke="#677294" stroke-width="1.3"/>
</svg>
