<svg width="24" height="25" viewBox="0 0 24 25" fill="none" xmlns="http://www.w3.org/2000/svg">
<path d="M12 1.73242C14.7848 1.73242 17.4555 2.83867 19.4246 4.8078C21.3938 6.77693 22.5 9.44765 22.5 12.2324C22.5 15.0172 21.3938 17.6879 19.4246 19.657C17.4555 21.6262 14.7848 22.7324 12 22.7324C9.21523 22.7324 6.54451 21.6262 4.57538 19.657C2.60625 17.6879 1.5 15.0172 1.5 12.2324C1.5 9.44765 2.60625 6.77693 4.57538 4.8078C6.54451 2.83867 9.21523 1.73242 12 1.73242ZM12 21.2324C14.3869 21.2324 16.6761 20.2842 18.364 18.5964C20.0518 16.9086 21 14.6194 21 12.2324C21 9.84547 20.0518 7.55629 18.364 5.86846C16.6761 4.18063 14.3869 3.23242 12 3.23242C9.61305 3.23242 7.32387 4.18063 5.63604 5.86846C3.94821 7.55629 3 9.84547 3 12.2324C3 14.6194 3.94821 16.9086 5.63604 18.5964C7.32387 20.2842 9.61305 21.2324 12 21.2324ZM13.125 17.1074C13.125 17.4058 13.0065 17.6919 12.7955 17.9029C12.5845 18.1139 12.2984 18.2324 12 18.2324C11.7016 18.2324 11.4155 18.1139 11.2045 17.9029C10.9935 17.6919 10.875 17.4058 10.875 17.1074C10.875 16.8091 10.9935 16.5229 11.2045 16.3119C11.4155 16.1009 11.7016 15.9824 12 15.9824C12.2984 15.9824 12.5845 16.1009 12.7955 16.3119C13.0065 16.5229 13.125 16.8091 13.125 17.1074ZM12 6.23242C12.1989 6.23242 12.3897 6.31144 12.5303 6.45209C12.671 6.59274 12.75 6.78351 12.75 6.98242V13.7324C12.75 13.9313 12.671 14.1221 12.5303 14.2628C12.3897 14.4034 12.1989 14.4824 12 14.4824C11.8011 14.4824 11.6103 14.4034 11.4697 14.2628C11.329 14.1221 11.25 13.9313 11.25 13.7324V6.98242C11.25 6.78351 11.329 6.59274 11.4697 6.45209C11.6103 6.31144 11.8011 6.23242 12 6.23242Z" fill="#DC3E57"/>
</svg>
